<svg id="svg" version="1.1" xmlns="http://www.w3.org/2000/svg" xmlns:xlink="http://www.w3.org/1999/xlink" width="400" height="400" viewBox="0, 0, 400,400"><g id="svgg"><path id="path0" d="M198.400 70.848 C 197.142 71.471,197.250 71.207,193.374 83.129 C 191.419 89.143,186.103 105.500,181.559 119.479 C 177.016 133.458,172.001 148.880,170.415 153.750 C 164.855 170.823,156.824 195.552,155.800 198.750 C 155.231 200.526,154.121 203.948,153.333 206.354 C 152.545 208.760,149.545 217.995,146.667 226.875 C 143.788 235.755,140.742 245.130,139.897 247.708 C 133.026 268.667,133.129 268.285,134.015 269.600 C 135.235 271.409,137.278 271.797,139.094 270.564 C 139.649 270.186,148.729 263.607,159.271 255.943 C 203.959 223.456,199.237 226.705,200.885 227.304 C 201.372 227.481,206.740 231.237,212.813 235.651 C 218.885 240.064,231.964 249.571,241.875 256.776 C 263.864 272.762,261.656 271.250,263.011 271.250 C 264.855 271.250,266.458 269.770,266.458 268.068 C 266.458 267.577,265.488 264.258,264.076 259.922 C 262.766 255.897,259.196 244.917,256.143 235.521 C 253.089 226.125,249.433 214.875,248.017 210.521 C 246.601 206.167,244.931 201.010,244.306 199.063 C 243.204 195.628,235.454 171.772,229.585 153.750 C 227.012 145.849,216.484 113.468,206.625 83.129 C 204.671 77.116,202.935 71.988,202.769 71.733 C 201.989 70.543,199.880 70.116,198.400 70.848 M162.708 282.493 C 155.986 283.367,152.407 286.328,152.760 290.724 C 153.085 294.776,156.500 296.535,166.146 297.620 C 172.939 298.384,174.375 298.936,174.375 300.785 C 174.375 302.799,172.652 303.565,167.813 303.701 C 162.091 303.863,159.278 303.056,155.301 300.112 C 154.893 299.809,154.797 299.882,153.269 301.661 L 151.665 303.527 152.759 304.348 C 158.448 308.616,169.212 309.759,175.521 306.766 C 181.245 304.049,181.634 297.202,176.211 294.614 C 173.862 293.493,172.209 293.192,163.493 292.296 C 159.635 291.899,158.333 291.267,158.333 289.792 C 158.333 286.387,169.221 285.905,174.488 289.077 C 175.952 289.958,175.707 290.055,177.373 287.935 C 179.024 285.834,179.002 286.074,177.619 285.236 C 174.096 283.101,167.447 281.878,162.708 282.493 M128.608 283.385 C 128.516 283.529,125.569 289.060,122.059 295.677 L 115.677 307.708 118.673 307.708 L 121.669 307.708 122.966 305.104 L 124.263 302.500 131.771 302.500 L 139.279 302.500 140.576 305.104 L 141.873 307.708 144.870 307.708 L 147.866 307.708 141.381 295.425 L 134.896 283.141 131.835 283.133 C 129.607 283.127,128.729 283.196,128.608 283.385 M184.961 285.520 L 185.025 287.917 190.325 287.917 L 195.625 287.917 195.625 297.813 L 195.625 307.708 198.333 307.708 L 201.042 307.708 201.042 297.813 L 201.042 287.917 206.458 287.917 L 211.875 287.917 211.875 285.521 L 211.875 283.125 198.385 283.125 L 184.896 283.124 184.961 285.520 M219.375 295.404 L 219.375 307.708 222.188 307.708 L 225.000 307.708 225.000 303.542 L 225.000 299.375 229.474 299.375 L 233.948 299.375 237.443 303.535 L 240.938 307.694 244.244 307.701 C 247.363 307.708,247.535 307.688,247.267 307.344 C 247.111 307.143,245.459 305.223,243.596 303.077 C 239.681 298.569,239.864 298.963,241.459 298.465 C 248.024 296.419,248.859 287.594,242.779 284.515 C 240.274 283.247,240.359 283.255,229.427 283.174 L 219.375 283.100 219.375 295.404 M263.726 285.990 C 262.896 287.565,259.984 293.062,257.254 298.206 C 254.525 303.349,252.292 307.594,252.292 307.638 C 252.292 307.683,253.611 307.694,255.224 307.662 L 258.157 307.604 259.458 305.104 L 260.759 302.604 268.244 302.552 L 275.729 302.500 277.083 305.102 L 278.438 307.704 281.423 307.706 L 284.409 307.708 283.496 305.990 C 282.994 305.044,280.062 299.513,276.980 293.698 L 271.376 283.125 268.306 283.125 L 265.236 283.125 263.726 285.990 M238.149 287.919 C 242.349 288.706,242.321 293.814,238.112 294.586 C 237.447 294.708,234.390 294.775,230.925 294.743 L 224.896 294.688 224.838 291.467 C 224.806 289.696,224.827 288.126,224.884 287.977 C 225.013 287.641,236.398 287.590,238.149 287.919 M131.831 297.868 C 129.071 297.899,126.771 297.883,126.720 297.832 C 126.669 297.781,127.375 296.302,128.288 294.547 C 129.202 292.791,130.345 290.565,130.828 289.600 L 131.707 287.846 134.278 292.829 L 136.848 297.813 131.831 297.868 M270.773 292.755 C 272.124 295.416,273.260 297.666,273.299 297.755 C 273.337 297.844,271.056 297.917,268.230 297.917 L 263.092 297.917 265.660 292.917 C 267.072 290.167,268.247 287.917,268.272 287.917 C 268.297 287.917,269.422 290.094,270.773 292.755 " stroke="none" fill="#1b1b1b" fill-rule="evenodd"></path><path id="path1" d="M0.000 200.000 L 0.000 400.000 200.000 400.000 L 400.000 400.000 400.000 200.000 L 400.000 0.000 200.000 0.000 L 0.000 0.000 0.000 200.000 M201.051 70.416 C 202.794 70.900,202.789 70.889,207.217 84.509 C 215.653 110.455,221.371 128.061,223.684 135.208 C 226.198 142.978,226.335 143.315,227.233 143.903 C 227.762 144.250,229.925 144.277,265.423 144.375 L 303.051 144.479 303.889 145.033 C 305.776 146.282,306.004 149.053,304.343 150.542 C 304.074 150.783,290.635 160.566,274.479 172.281 C 244.458 194.052,244.194 194.252,243.794 195.556 C 243.534 196.402,243.232 195.368,248.228 210.729 C 249.644 215.083,253.909 228.208,257.705 239.896 C 261.501 251.583,265.078 262.593,265.655 264.361 C 266.893 268.161,266.899 268.887,265.700 270.213 C 264.348 271.710,262.447 271.851,260.687 270.584 C 260.137 270.188,253.500 265.366,245.938 259.870 C 196.423 223.881,200.871 226.970,199.219 227.417 C 198.737 227.547,195.047 230.091,189.583 234.061 C 184.714 237.599,173.182 245.977,163.958 252.678 C 154.734 259.379,145.327 266.216,143.054 267.870 C 137.680 271.780,137.353 271.925,135.563 271.177 C 133.236 270.205,132.955 268.630,134.345 264.361 C 134.921 262.593,137.888 253.458,140.939 244.063 C 146.598 226.631,149.817 216.730,153.976 203.958 C 155.264 200.005,156.318 196.525,156.318 196.225 C 156.322 194.626,157.207 195.314,126.023 172.662 C 109.820 160.892,96.258 151.021,95.887 150.727 C 93.999 149.234,94.113 146.356,96.111 145.033 L 96.949 144.479 134.577 144.375 C 170.075 144.277,172.238 144.250,172.767 143.903 C 173.665 143.315,173.802 142.978,176.316 135.208 C 178.629 128.061,184.347 110.455,192.783 84.509 C 196.425 73.306,196.907 71.966,197.528 71.325 C 198.508 70.314,199.636 70.023,201.051 70.416 M169.876 282.517 C 172.212 282.834,174.827 283.637,176.656 284.600 C 179.301 285.992,179.230 285.740,177.578 287.841 C 176.790 288.842,176.095 289.734,176.033 289.825 C 175.970 289.915,174.986 289.519,173.845 288.945 C 167.659 285.831,156.934 286.910,158.562 290.482 C 159.029 291.507,160.618 291.920,165.938 292.398 C 176.771 293.370,180.671 295.713,180.128 300.923 C 179.256 309.302,162.273 311.476,152.656 304.439 C 151.423 303.536,151.375 303.767,153.264 301.511 L 154.861 299.603 155.608 300.188 C 159.737 303.424,167.342 304.711,172.318 303.015 C 174.228 302.364,174.939 300.741,173.810 299.611 C 172.809 298.610,171.748 298.378,164.629 297.600 C 156.310 296.691,152.622 294.423,152.609 290.208 C 152.591 284.420,159.903 281.164,169.876 282.517 M135.081 283.385 C 135.658 284.290,147.917 307.545,147.917 307.735 C 147.917 307.847,146.636 307.904,144.866 307.870 L 141.815 307.813 140.473 305.260 L 139.130 302.708 131.697 302.708 L 124.263 302.708 122.966 305.313 L 121.669 307.917 118.647 307.917 C 116.985 307.917,115.625 307.836,115.625 307.738 C 115.625 307.560,127.899 284.277,128.463 283.385 C 128.748 282.935,128.875 282.917,131.771 282.917 C 134.666 282.917,134.794 282.935,135.081 283.385 M212.038 285.469 L 211.979 288.021 206.615 288.076 L 201.250 288.132 201.250 298.030 L 201.250 307.928 198.385 307.870 L 195.521 307.813 195.467 297.972 L 195.413 288.132 190.154 288.076 L 184.896 288.021 184.837 285.469 L 184.779 282.917 198.438 282.917 L 212.096 282.917 212.038 285.469 M240.313 283.407 C 248.771 285.814,249.553 295.691,241.516 298.611 L 240.272 299.063 243.986 303.333 C 246.028 305.682,247.701 307.677,247.704 307.766 C 247.706 307.854,246.188 307.901,244.329 307.870 L 240.949 307.813 237.402 303.607 L 233.854 299.401 229.427 299.388 L 225.000 299.375 225.000 303.646 L 225.000 307.917 222.188 307.917 L 219.375 307.917 219.375 295.401 L 219.375 282.885 229.219 282.968 C 237.704 283.040,239.235 283.100,240.313 283.407 M277.943 295.235 C 281.538 302.010,284.510 307.635,284.549 307.735 C 284.587 307.835,283.204 307.917,281.475 307.917 L 278.331 307.917 277.034 305.313 L 275.737 302.708 268.292 302.708 L 260.846 302.708 259.538 305.260 L 258.229 307.813 255.156 307.870 C 253.466 307.902,252.083 307.878,252.083 307.818 C 252.083 307.732,264.756 283.714,265.139 283.073 C 265.191 282.987,266.622 282.917,268.319 282.917 L 271.406 282.917 277.943 295.235 M225.000 291.248 L 225.000 294.605 231.719 294.542 C 240.328 294.462,241.042 294.210,241.042 291.250 C 241.042 288.271,240.387 288.037,231.823 287.956 L 225.000 287.891 225.000 291.248 M129.292 292.875 C 127.962 295.531,126.875 297.753,126.875 297.811 C 126.875 297.869,129.078 297.917,131.771 297.917 C 134.464 297.917,136.666 297.893,136.666 297.865 C 136.666 297.836,135.550 295.615,134.187 292.929 L 131.708 288.045 129.292 292.875 M265.833 292.862 C 264.516 295.445,263.406 297.640,263.368 297.738 C 263.330 297.836,265.510 297.917,268.212 297.917 C 270.914 297.917,273.125 297.869,273.125 297.811 C 273.125 297.683,268.632 288.749,268.395 288.405 C 268.293 288.257,267.305 289.975,265.833 292.862 " stroke="none" fill="#fbfbfb" fill-rule="evenodd"></path><path id="path2" d="M173.080 143.753 L 172.588 144.382 135.200 144.429 L 97.813 144.476 134.688 144.584 L 171.563 144.692 133.971 144.736 L 96.379 144.781 95.950 145.265 C 95.714 145.531,95.615 145.604,95.729 145.427 C 95.909 145.149,95.889 145.142,95.585 145.380 C 95.392 145.531,95.281 145.780,95.339 145.932 C 95.397 146.084,95.330 146.279,95.190 146.365 C 95.017 146.473,94.989 146.436,95.104 146.250 C 95.218 146.066,95.191 146.027,95.024 146.131 C 94.881 146.219,94.832 146.467,94.910 146.710 C 94.989 146.962,94.962 147.085,94.844 147.011 C 94.724 146.937,94.643 147.346,94.643 148.021 C 94.643 148.644,94.723 149.105,94.821 149.044 C 94.986 148.942,95.022 149.035,95.086 149.726 C 95.123 150.122,96.083 151.041,96.312 150.899 C 96.427 150.828,96.765 151.046,97.063 151.383 C 97.361 151.720,97.557 151.894,97.500 151.771 C 97.443 151.647,97.630 151.788,97.917 152.083 C 98.203 152.379,98.344 152.476,98.229 152.300 C 97.941 151.857,98.649 152.363,99.375 153.119 C 99.661 153.418,99.802 153.521,99.688 153.350 C 99.572 153.176,99.780 153.248,100.156 153.512 C 100.529 153.773,100.833 154.039,100.833 154.102 C 100.833 154.166,100.669 154.089,100.469 153.932 C 100.139 153.673,100.131 153.680,100.388 154.008 C 100.544 154.207,100.770 154.310,100.888 154.237 C 101.007 154.163,101.348 154.379,101.646 154.716 C 101.944 155.053,102.141 155.228,102.083 155.104 C 102.026 154.981,102.214 155.121,102.500 155.417 C 102.786 155.712,102.927 155.809,102.813 155.633 C 102.525 155.190,103.232 155.696,103.958 156.453 C 104.245 156.751,104.385 156.855,104.271 156.683 C 104.155 156.509,104.364 156.582,104.740 156.845 C 105.112 157.106,105.417 157.372,105.417 157.436 C 105.417 157.499,105.253 157.422,105.052 157.265 C 104.722 157.006,104.715 157.014,104.972 157.341 C 105.128 157.541,105.353 157.644,105.472 157.570 C 105.591 157.497,105.932 157.712,106.229 158.049 C 106.527 158.386,106.677 158.521,106.563 158.350 C 106.447 158.176,106.655 158.248,107.031 158.512 C 107.404 158.773,107.708 159.039,107.708 159.102 C 107.708 159.166,107.544 159.089,107.344 158.932 C 107.016 158.675,107.007 158.682,107.255 158.998 C 107.406 159.192,107.641 159.309,107.776 159.258 C 107.911 159.208,108.260 159.377,108.552 159.635 C 108.843 159.893,108.937 160.010,108.760 159.896 C 108.482 159.716,108.476 159.736,108.713 160.040 C 108.865 160.233,109.108 160.346,109.253 160.291 C 109.398 160.235,109.649 160.358,109.810 160.563 C 110.085 160.913,110.076 160.917,109.688 160.625 C 109.302 160.336,109.292 160.339,109.555 160.675 C 109.711 160.874,109.936 160.977,110.055 160.903 C 110.174 160.830,110.515 161.046,110.813 161.383 C 111.111 161.720,111.260 161.855,111.146 161.683 C 111.030 161.509,111.239 161.582,111.615 161.845 C 111.987 162.106,112.292 162.372,112.292 162.436 C 112.292 162.499,112.128 162.422,111.927 162.265 C 111.599 162.008,111.590 162.015,111.838 162.331 C 111.990 162.525,112.224 162.642,112.359 162.592 C 112.494 162.541,112.843 162.711,113.135 162.969 C 113.427 163.226,113.520 163.344,113.343 163.229 C 113.063 163.048,113.058 163.068,113.305 163.383 C 113.461 163.582,113.686 163.685,113.805 163.612 C 113.924 163.538,114.265 163.754,114.563 164.091 C 114.861 164.428,115.010 164.563,114.896 164.391 C 114.780 164.218,114.989 164.290,115.365 164.554 C 115.737 164.815,116.042 165.080,116.042 165.144 C 116.042 165.207,115.901 165.143,115.729 165.000 C 115.557 164.857,115.417 164.793,115.417 164.856 C 115.417 164.920,115.721 165.185,116.094 165.446 C 116.682 165.859,116.730 165.868,116.462 165.513 C 116.058 164.979,116.878 165.601,117.708 166.458 C 117.995 166.753,118.135 166.855,118.021 166.684 C 117.906 166.512,118.258 166.688,118.802 167.075 C 119.679 167.699,120.188 168.186,119.551 167.793 C 119.405 167.703,119.367 167.735,119.454 167.875 C 119.532 168.003,119.719 168.060,119.869 168.002 C 120.019 167.945,120.274 168.066,120.435 168.272 C 120.710 168.621,120.701 168.625,120.313 168.333 C 119.927 168.044,119.917 168.048,120.180 168.383 C 120.336 168.582,120.561 168.685,120.680 168.612 C 120.799 168.538,121.140 168.754,121.438 169.091 C 121.736 169.428,121.885 169.563,121.771 169.391 C 121.655 169.218,121.864 169.290,122.240 169.554 C 122.612 169.815,122.917 170.080,122.917 170.144 C 122.917 170.207,122.753 170.131,122.552 169.973 C 122.222 169.715,122.215 169.722,122.472 170.050 C 122.628 170.249,122.853 170.352,122.972 170.278 C 123.091 170.205,123.432 170.421,123.729 170.758 C 124.027 171.095,124.177 171.230,124.063 171.058 C 123.947 170.884,124.155 170.957,124.531 171.220 C 124.904 171.481,125.208 171.747,125.208 171.811 C 125.208 171.874,125.044 171.797,124.844 171.640 C 124.514 171.381,124.506 171.389,124.763 171.716 C 124.919 171.916,125.145 172.019,125.263 171.945 C 125.382 171.872,125.723 172.087,126.021 172.424 C 126.319 172.761,126.469 172.896,126.354 172.725 C 126.238 172.551,126.447 172.623,126.823 172.887 C 127.195 173.148,127.500 173.414,127.500 173.477 C 127.500 173.541,127.336 173.464,127.135 173.307 C 126.805 173.048,126.798 173.055,127.055 173.383 C 127.211 173.582,127.436 173.685,127.555 173.612 C 127.674 173.538,128.015 173.754,128.313 174.091 C 128.611 174.428,128.760 174.563,128.646 174.391 C 128.530 174.218,128.739 174.290,129.115 174.554 C 129.487 174.815,129.792 175.080,129.792 175.144 C 129.792 175.207,129.628 175.131,129.427 174.973 C 129.097 174.715,129.090 174.722,129.347 175.050 C 129.503 175.249,129.728 175.352,129.847 175.278 C 129.966 175.205,130.307 175.421,130.604 175.758 C 130.902 176.095,131.052 176.230,130.938 176.058 C 130.822 175.884,131.030 175.957,131.406 176.220 C 131.779 176.481,132.083 176.747,132.083 176.811 C 132.083 176.874,131.919 176.797,131.719 176.640 C 131.389 176.381,131.381 176.389,131.638 176.716 C 131.794 176.916,132.020 177.019,132.138 176.945 C 132.257 176.872,132.598 177.087,132.896 177.424 C 133.194 177.761,133.344 177.893,133.229 177.716 C 132.941 177.273,133.649 177.780,134.375 178.536 C 134.661 178.835,134.849 178.978,134.792 178.854 C 134.734 178.731,134.922 178.871,135.208 179.167 C 135.495 179.462,135.635 179.559,135.521 179.383 C 135.233 178.940,135.941 179.446,136.667 180.203 C 136.953 180.501,137.141 180.644,137.083 180.521 C 137.026 180.397,137.214 180.538,137.500 180.833 C 137.786 181.129,137.927 181.226,137.813 181.050 C 137.525 180.607,138.232 181.113,138.958 181.869 C 139.245 182.168,139.432 182.311,139.375 182.188 C 139.318 182.064,139.505 182.205,139.792 182.500 C 140.078 182.795,140.219 182.893,140.104 182.716 C 139.816 182.273,140.524 182.780,141.250 183.536 C 141.536 183.835,141.677 183.938,141.563 183.766 C 141.447 183.593,141.655 183.665,142.031 183.929 C 142.404 184.190,142.708 184.455,142.708 184.519 C 142.708 184.582,142.544 184.506,142.344 184.348 C 142.014 184.090,142.006 184.097,142.263 184.425 C 142.419 184.624,142.645 184.727,142.763 184.653 C 142.882 184.580,143.223 184.796,143.521 185.133 C 143.819 185.470,143.969 185.605,143.854 185.433 C 143.738 185.259,143.947 185.332,144.323 185.595 C 144.695 185.856,145.000 186.122,145.000 186.186 C 145.000 186.249,144.836 186.172,144.635 186.015 C 144.305 185.756,144.298 185.764,144.555 186.091 C 144.711 186.291,144.936 186.394,145.055 186.320 C 145.174 186.247,145.515 186.462,145.813 186.799 C 146.111 187.136,146.260 187.271,146.146 187.100 C 146.030 186.926,146.239 186.998,146.615 187.262 C 146.987 187.523,147.292 187.789,147.292 187.852 C 147.292 187.916,147.128 187.839,146.927 187.682 C 146.597 187.423,146.590 187.430,146.847 187.758 C 147.003 187.957,147.228 188.060,147.347 187.987 C 147.466 187.913,147.807 188.129,148.104 188.466 C 148.402 188.803,148.552 188.938,148.438 188.766 C 148.322 188.593,148.530 188.665,148.906 188.929 C 149.279 189.190,149.583 189.455,149.583 189.519 C 149.583 189.582,149.419 189.506,149.219 189.348 C 148.889 189.090,148.881 189.097,149.138 189.425 C 149.294 189.624,149.520 189.727,149.638 189.653 C 149.757 189.580,150.098 189.796,150.396 190.133 C 150.694 190.470,150.844 190.605,150.729 190.433 C 150.613 190.259,150.822 190.332,151.198 190.595 C 151.570 190.856,151.875 191.122,151.875 191.186 C 151.875 191.249,151.711 191.172,151.510 191.015 C 151.180 190.756,151.173 190.764,151.430 191.091 C 151.586 191.291,151.811 191.394,151.930 191.320 C 152.049 191.247,152.390 191.462,152.688 191.799 C 152.986 192.136,153.135 192.271,153.021 192.100 C 152.905 191.926,153.114 191.998,153.490 192.262 C 153.862 192.523,154.167 192.789,154.167 192.852 C 154.167 192.916,154.003 192.839,153.802 192.682 C 153.472 192.423,153.465 192.430,153.722 192.758 C 153.878 192.957,154.103 193.060,154.222 192.987 C 154.341 192.913,154.682 193.129,154.979 193.466 C 155.277 193.803,155.439 193.958,155.339 193.810 C 155.239 193.663,155.212 193.542,155.279 193.542 C 155.453 193.542,156.459 195.054,156.455 195.309 C 156.453 195.425,156.351 195.380,156.227 195.208 C 156.040 194.948,156.023 194.960,156.126 195.277 C 156.194 195.487,156.250 195.764,156.250 195.892 C 156.250 196.657,156.873 194.964,158.954 188.542 C 160.235 184.589,162.487 177.651,163.959 173.125 C 165.431 168.599,168.200 160.068,170.113 154.167 C 172.026 148.266,173.632 143.367,173.683 143.281 C 173.920 142.878,173.520 143.192,173.080 143.753 M226.315 143.229 C 226.366 143.344,227.318 146.250,228.429 149.688 C 229.540 153.125,231.701 159.781,233.230 164.479 C 234.760 169.177,237.669 178.130,239.695 184.375 C 242.987 194.526,243.750 196.692,243.750 195.892 C 243.750 195.764,243.806 195.487,243.874 195.277 C 243.977 194.960,243.960 194.948,243.773 195.208 C 243.649 195.380,243.547 195.425,243.545 195.309 C 243.541 195.054,244.547 193.542,244.721 193.542 C 244.788 193.542,244.761 193.663,244.661 193.810 C 244.561 193.958,244.723 193.803,245.021 193.466 C 245.318 193.129,245.659 192.913,245.778 192.987 C 245.897 193.060,246.122 192.957,246.278 192.758 C 246.535 192.430,246.528 192.423,246.198 192.682 C 245.997 192.839,245.833 192.916,245.833 192.852 C 245.833 192.789,246.138 192.523,246.510 192.262 C 246.886 191.998,247.095 191.926,246.979 192.100 C 246.865 192.271,247.014 192.136,247.312 191.799 C 247.610 191.462,247.951 191.247,248.070 191.320 C 248.189 191.394,248.414 191.291,248.570 191.091 C 248.827 190.764,248.820 190.756,248.490 191.015 C 248.289 191.172,248.125 191.249,248.125 191.186 C 248.125 191.122,248.430 190.856,248.802 190.595 C 249.178 190.332,249.387 190.259,249.271 190.433 C 249.156 190.605,249.306 190.470,249.604 190.133 C 249.902 189.796,250.243 189.580,250.362 189.653 C 250.480 189.727,250.706 189.624,250.862 189.425 C 251.119 189.097,251.111 189.090,250.781 189.348 C 250.581 189.506,250.417 189.582,250.417 189.519 C 250.417 189.455,250.721 189.190,251.094 188.929 C 251.470 188.665,251.678 188.593,251.563 188.766 C 251.448 188.938,251.598 188.803,251.896 188.466 C 252.193 188.129,252.534 187.913,252.653 187.987 C 252.772 188.060,252.997 187.957,253.153 187.758 C 253.410 187.430,253.403 187.423,253.073 187.682 C 252.872 187.839,252.708 187.916,252.708 187.852 C 252.708 187.789,253.013 187.523,253.385 187.262 C 253.761 186.998,253.970 186.926,253.854 187.100 C 253.740 187.271,253.889 187.136,254.187 186.799 C 254.485 186.462,254.826 186.247,254.945 186.320 C 255.064 186.394,255.289 186.291,255.445 186.091 C 255.702 185.764,255.695 185.756,255.365 186.015 C 255.164 186.172,255.000 186.249,255.000 186.186 C 255.000 186.122,255.305 185.856,255.677 185.595 C 256.053 185.332,256.262 185.259,256.146 185.433 C 256.031 185.605,256.181 185.470,256.479 185.133 C 256.777 184.796,257.118 184.580,257.237 184.653 C 257.355 184.727,257.581 184.624,257.737 184.425 C 257.994 184.097,257.986 184.090,257.656 184.348 C 257.456 184.506,257.292 184.582,257.292 184.519 C 257.292 184.455,257.596 184.190,257.969 183.929 C 258.345 183.665,258.553 183.593,258.438 183.766 C 258.323 183.938,258.464 183.835,258.750 183.536 C 259.476 182.780,260.184 182.273,259.896 182.716 C 259.781 182.893,259.922 182.795,260.208 182.500 C 260.495 182.205,260.682 182.064,260.625 182.188 C 260.568 182.311,260.755 182.168,261.042 181.869 C 261.768 181.113,262.475 180.607,262.188 181.050 C 262.073 181.226,262.214 181.129,262.500 180.833 C 262.786 180.538,262.974 180.397,262.917 180.521 C 262.859 180.644,263.047 180.501,263.333 180.203 C 264.059 179.446,264.767 178.940,264.479 179.383 C 264.365 179.559,264.505 179.462,264.792 179.167 C 265.078 178.871,265.266 178.731,265.208 178.854 C 265.151 178.978,265.339 178.835,265.625 178.536 C 266.351 177.780,267.059 177.273,266.771 177.716 C 266.656 177.893,266.806 177.761,267.104 177.424 C 267.402 177.087,267.743 176.872,267.862 176.945 C 267.980 177.019,268.206 176.916,268.362 176.716 C 268.619 176.389,268.611 176.381,268.281 176.640 C 268.081 176.797,267.917 176.874,267.917 176.811 C 267.917 176.747,268.221 176.481,268.594 176.220 C 268.970 175.957,269.178 175.884,269.063 176.058 C 268.948 176.230,269.098 176.095,269.396 175.758 C 269.693 175.421,270.034 175.205,270.153 175.278 C 270.272 175.352,270.497 175.249,270.653 175.050 C 270.910 174.722,270.903 174.715,270.573 174.973 C 270.372 175.131,270.208 175.207,270.208 175.144 C 270.208 175.080,270.513 174.815,270.885 174.554 C 271.261 174.290,271.470 174.218,271.354 174.391 C 271.240 174.563,271.389 174.428,271.687 174.091 C 271.985 173.754,272.326 173.538,272.445 173.612 C 272.564 173.685,272.789 173.582,272.945 173.383 C 273.202 173.055,273.195 173.048,272.865 173.307 C 272.664 173.464,272.500 173.541,272.500 173.477 C 272.500 173.414,272.805 173.148,273.177 172.887 C 273.553 172.623,273.762 172.551,273.646 172.725 C 273.531 172.896,273.681 172.761,273.979 172.424 C 274.277 172.087,274.618 171.872,274.737 171.945 C 274.855 172.019,275.081 171.916,275.237 171.716 C 275.494 171.389,275.486 171.381,275.156 171.640 C 274.956 171.797,274.792 171.874,274.792 171.811 C 274.792 171.747,275.096 171.481,275.469 171.220 C 275.845 170.957,276.053 170.884,275.938 171.058 C 275.823 171.230,275.973 171.095,276.271 170.758 C 276.568 170.421,276.909 170.205,277.028 170.278 C 277.147 170.352,277.372 170.249,277.528 170.050 C 277.785 169.722,277.778 169.715,277.448 169.973 C 277.247 170.131,277.083 170.207,277.083 170.144 C 277.083 170.080,277.388 169.815,277.760 169.554 C 278.136 169.290,278.345 169.218,278.229 169.391 C 278.115 169.563,278.264 169.428,278.562 169.091 C 278.860 168.754,279.201 168.538,279.320 168.612 C 279.439 168.685,279.664 168.582,279.820 168.383 C 280.077 168.055,280.070 168.048,279.740 168.307 C 279.539 168.464,279.375 168.541,279.375 168.477 C 279.375 168.414,279.680 168.148,280.052 167.887 C 280.428 167.623,280.637 167.551,280.521 167.725 C 280.406 167.896,280.547 167.793,280.833 167.494 C 281.559 166.738,282.267 166.232,281.979 166.675 C 281.865 166.851,282.005 166.753,282.292 166.458 C 283.122 165.601,283.942 164.979,283.538 165.513 C 283.270 165.868,283.318 165.859,283.906 165.446 C 284.279 165.185,284.583 164.920,284.583 164.856 C 284.583 164.793,284.443 164.857,284.271 165.000 C 284.099 165.143,283.958 165.207,283.958 165.144 C 283.958 165.080,284.263 164.815,284.635 164.554 C 285.011 164.290,285.220 164.218,285.104 164.391 C 284.990 164.563,285.139 164.428,285.437 164.091 C 285.735 163.754,286.076 163.538,286.195 163.612 C 286.314 163.685,286.539 163.582,286.695 163.383 C 286.942 163.068,286.937 163.048,286.657 163.229 C 286.480 163.344,286.573 163.226,286.865 162.969 C 287.157 162.711,287.506 162.541,287.641 162.592 C 287.776 162.642,288.010 162.525,288.162 162.331 C 288.410 162.015,288.401 162.008,288.073 162.265 C 287.872 162.422,287.708 162.499,287.708 162.436 C 287.708 162.372,288.013 162.106,288.385 161.845 C 288.761 161.582,288.970 161.509,288.854 161.683 C 288.740 161.855,288.889 161.720,289.187 161.383 C 289.485 161.046,289.826 160.830,289.945 160.903 C 290.064 160.977,290.289 160.874,290.445 160.675 C 290.708 160.339,290.698 160.336,290.313 160.625 C 289.924 160.917,289.915 160.913,290.190 160.563 C 290.351 160.358,290.602 160.235,290.747 160.291 C 290.892 160.346,291.135 160.233,291.287 160.040 C 291.524 159.736,291.518 159.716,291.240 159.896 C 291.063 160.010,291.157 159.893,291.448 159.635 C 291.740 159.377,292.089 159.208,292.224 159.258 C 292.359 159.309,292.594 159.192,292.745 158.998 C 292.993 158.682,292.984 158.675,292.656 158.932 C 292.456 159.089,292.292 159.166,292.292 159.102 C 292.292 159.039,292.596 158.773,292.969 158.512 C 293.345 158.248,293.553 158.176,293.438 158.350 C 293.323 158.521,293.473 158.386,293.771 158.049 C 294.068 157.712,294.409 157.497,294.528 157.570 C 294.647 157.644,294.872 157.541,295.028 157.341 C 295.285 157.014,295.278 157.006,294.948 157.265 C 294.747 157.422,294.583 157.499,294.583 157.436 C 294.583 157.372,294.888 157.106,295.260 156.845 C 295.636 156.582,295.845 156.509,295.729 156.683 C 295.615 156.855,295.755 156.751,296.042 156.453 C 296.768 155.696,297.475 155.190,297.188 155.633 C 297.073 155.809,297.214 155.712,297.500 155.417 C 297.786 155.121,297.974 154.981,297.917 155.104 C 297.859 155.228,298.056 155.053,298.354 154.716 C 298.652 154.379,298.993 154.163,299.112 154.237 C 299.230 154.310,299.456 154.207,299.612 154.008 C 299.869 153.680,299.861 153.673,299.531 153.932 C 299.331 154.089,299.167 154.166,299.167 154.102 C 299.167 154.039,299.471 153.773,299.844 153.512 C 300.220 153.248,300.428 153.176,300.313 153.350 C 300.198 153.521,300.339 153.418,300.625 153.119 C 301.351 152.363,302.059 151.857,301.771 152.300 C 301.656 152.476,301.797 152.379,302.083 152.083 C 302.370 151.788,302.557 151.647,302.500 151.771 C 302.443 151.894,302.639 151.720,302.937 151.383 C 303.235 151.046,303.573 150.828,303.688 150.899 C 303.917 151.041,304.877 150.122,304.914 149.726 C 304.978 149.035,305.014 148.942,305.179 149.044 C 305.277 149.105,305.357 148.644,305.357 148.021 C 305.357 147.346,305.276 146.937,305.156 147.011 C 305.038 147.085,305.011 146.962,305.090 146.710 C 305.168 146.467,305.119 146.219,304.976 146.131 C 304.809 146.027,304.782 146.066,304.896 146.250 C 305.011 146.436,304.983 146.473,304.810 146.365 C 304.670 146.279,304.603 146.084,304.661 145.932 C 304.719 145.780,304.608 145.531,304.415 145.380 C 304.111 145.142,304.091 145.149,304.271 145.427 C 304.385 145.604,304.286 145.531,304.050 145.265 L 303.621 144.781 266.029 144.736 L 228.438 144.692 265.313 144.584 L 302.188 144.476 264.810 144.429 L 227.432 144.382 226.827 143.701 C 226.494 143.327,226.264 143.115,226.315 143.229 M187.552 288.072 C 189.013 288.108,191.404 288.108,192.865 288.072 C 194.326 288.037,193.130 288.007,190.208 288.007 C 187.286 288.007,186.091 288.037,187.552 288.072 M203.790 288.072 C 205.244 288.108,207.681 288.108,209.206 288.072 C 210.731 288.037,209.542 288.008,206.563 288.007 C 203.583 288.007,202.336 288.036,203.790 288.072 M126.875 302.649 C 133.443 302.795,139.327 302.799,139.239 302.656 C 139.186 302.570,135.796 302.520,131.706 302.545 C 127.617 302.570,125.443 302.617,126.875 302.649 M264.545 302.656 C 266.643 302.690,270.018 302.690,272.045 302.656 C 274.071 302.622,272.354 302.594,268.229 302.594 C 264.104 302.594,262.446 302.622,264.545 302.656 M118.646 307.708 L 115.521 307.829 118.581 307.873 C 120.446 307.900,121.692 307.835,121.771 307.708 C 121.842 307.594,121.871 307.520,121.835 307.544 C 121.800 307.568,120.365 307.642,118.646 307.708 M278.261 307.760 C 278.314 307.846,279.759 307.917,281.471 307.917 C 283.183 307.917,284.583 307.846,284.583 307.760 C 284.583 307.674,283.139 307.604,281.374 307.604 C 279.609 307.604,278.208 307.674,278.261 307.760 M143.395 307.863 C 144.288 307.903,145.694 307.902,146.520 307.863 C 147.345 307.823,146.615 307.791,144.896 307.792 C 143.177 307.792,142.502 307.824,143.395 307.863 M196.918 307.863 C 197.686 307.903,198.999 307.903,199.835 307.863 C 200.670 307.824,200.042 307.791,198.438 307.791 C 196.833 307.790,196.150 307.823,196.918 307.863 M220.668 307.863 C 221.436 307.903,222.749 307.903,223.585 307.863 C 224.420 307.824,223.792 307.791,222.188 307.791 C 220.583 307.790,219.900 307.823,220.668 307.863 M242.656 307.863 C 243.602 307.902,245.148 307.902,246.094 307.863 C 247.039 307.825,246.266 307.793,244.375 307.793 C 242.484 307.793,241.711 307.825,242.656 307.863 M253.603 307.863 C 254.497 307.903,255.903 307.902,256.728 307.863 C 257.554 307.823,256.823 307.791,255.104 307.792 C 253.385 307.792,252.710 307.824,253.603 307.863 " stroke="none" fill="#bcbcbc" fill-rule="evenodd"></path><path id="path3" d="M115.990 144.740 C 126.216 144.769,142.951 144.769,153.177 144.740 C 163.404 144.710,155.036 144.685,134.583 144.685 C 114.130 144.685,105.763 144.710,115.990 144.740 M246.823 144.740 C 257.049 144.769,273.784 144.769,284.010 144.740 C 294.237 144.710,285.870 144.685,265.417 144.685 C 244.964 144.685,236.596 144.710,246.823 144.740 M95.585 145.573 C 95.218 146.000,94.943 146.458,95.053 146.458 C 95.095 146.458,95.338 146.177,95.592 145.833 C 96.094 145.154,96.090 144.985,95.585 145.573 M304.374 145.781 C 304.647 146.154,304.903 146.458,304.942 146.458 C 305.101 146.458,304.584 145.677,304.242 145.400 C 304.017 145.217,304.068 145.362,304.374 145.781 M94.792 149.099 C 94.791 149.455,95.762 150.551,96.527 151.057 C 97.038 151.395,97.004 151.339,96.376 150.807 C 95.930 150.429,95.391 149.835,95.179 149.487 C 94.967 149.139,94.793 148.964,94.792 149.099 M304.898 149.369 C 304.826 149.595,304.327 150.169,303.790 150.645 C 303.219 151.150,303.087 151.325,303.473 151.065 C 304.191 150.581,305.208 149.459,305.208 149.151 C 305.208 148.818,305.034 148.941,304.898 149.369 M98.125 152.159 C 98.125 152.216,98.406 152.464,98.750 152.708 C 99.094 152.953,99.375 153.106,99.375 153.049 C 99.375 152.992,99.094 152.745,98.750 152.500 C 98.406 152.255,98.125 152.102,98.125 152.159 M301.146 152.622 L 300.521 153.159 301.198 152.711 C 301.570 152.465,301.875 152.223,301.875 152.173 C 301.875 152.017,301.787 152.072,301.146 152.622 M99.634 153.247 C 99.702 153.356,100.203 153.767,100.749 154.158 C 101.294 154.550,101.684 154.780,101.616 154.670 C 101.548 154.560,101.047 154.150,100.501 153.758 C 99.956 153.367,99.566 153.137,99.634 153.247 M299.479 153.767 C 298.243 154.701,298.077 154.965,299.236 154.152 C 300.111 153.538,300.588 153.112,300.377 153.131 C 300.341 153.134,299.938 153.420,299.479 153.767 M102.708 155.492 C 102.708 155.550,102.990 155.797,103.333 156.042 C 103.677 156.286,103.958 156.440,103.958 156.383 C 103.958 156.325,103.677 156.078,103.333 155.833 C 102.990 155.589,102.708 155.435,102.708 155.492 M296.563 155.956 L 295.938 156.493 296.615 156.045 C 296.987 155.798,297.292 155.556,297.292 155.507 C 297.292 155.351,297.203 155.405,296.563 155.956 M104.217 156.580 C 104.285 156.690,104.787 157.100,105.332 157.492 C 105.877 157.883,106.267 158.113,106.199 158.003 C 106.132 157.894,105.630 157.483,105.085 157.092 C 104.540 156.700,104.149 156.470,104.217 156.580 M294.896 157.100 C 293.660 158.034,293.494 158.298,294.653 157.486 C 295.528 156.872,296.005 156.445,295.794 156.464 C 295.758 156.467,295.354 156.753,294.896 157.100 M106.458 158.187 C 106.458 158.249,107.138 158.792,107.969 159.393 C 108.799 159.994,109.784 160.716,110.156 160.997 C 110.529 161.278,110.833 161.457,110.833 161.396 C 110.833 161.334,109.966 160.652,108.906 159.881 C 107.846 159.110,106.862 158.388,106.719 158.277 C 106.576 158.165,106.458 158.125,106.458 158.187 M291.483 159.576 C 290.408 160.367,289.423 161.132,289.295 161.277 C 289.167 161.421,289.391 161.303,289.792 161.013 C 292.931 158.745,293.542 158.289,293.542 158.212 C 293.542 158.066,293.499 158.094,291.483 159.576 M111.546 161.950 C 111.880 162.234,112.724 162.856,113.421 163.331 C 114.117 163.805,114.414 163.960,114.079 163.675 C 113.745 163.391,112.901 162.769,112.204 162.294 C 111.508 161.820,111.211 161.665,111.546 161.950 M287.308 162.607 C 286.457 163.229,285.660 163.848,285.537 163.982 C 285.263 164.279,287.608 162.663,288.454 161.970 C 289.527 161.093,288.902 161.441,287.308 162.607 M114.792 164.242 C 114.792 164.300,115.073 164.547,115.417 164.792 C 115.760 165.036,116.042 165.190,116.042 165.133 C 116.042 165.075,115.760 164.828,115.417 164.583 C 115.073 164.339,114.792 164.185,114.792 164.242 M284.479 164.706 L 283.854 165.243 284.531 164.795 C 284.904 164.548,285.208 164.306,285.208 164.257 C 285.208 164.101,285.120 164.155,284.479 164.706 M116.325 165.369 C 116.490 165.636,117.708 166.538,117.708 166.393 C 117.708 166.342,117.364 166.037,116.944 165.716 C 116.523 165.395,116.244 165.239,116.325 165.369 M282.917 165.859 C 282.191 166.495,282.190 166.496,282.858 166.052 C 283.227 165.806,283.584 165.516,283.652 165.407 C 283.853 165.082,283.686 165.184,282.917 165.859 M118.421 166.950 C 118.755 167.234,119.599 167.856,120.296 168.331 C 120.992 168.805,121.289 168.960,120.954 168.675 C 120.620 168.391,119.776 167.769,119.079 167.294 C 118.383 166.820,118.086 166.665,118.421 166.950 M281.354 166.997 L 280.729 167.534 281.406 167.086 C 281.779 166.840,282.083 166.598,282.083 166.548 C 282.083 166.392,281.995 166.447,281.354 166.997 M279.688 168.142 C 278.452 169.076,278.285 169.340,279.444 168.527 C 280.320 167.913,280.796 167.487,280.585 167.506 C 280.550 167.509,280.146 167.795,279.688 168.142 M121.717 169.288 C 121.785 169.398,122.287 169.808,122.832 170.200 C 123.377 170.591,123.767 170.822,123.699 170.712 C 123.632 170.602,123.130 170.192,122.585 169.800 C 122.040 169.409,121.649 169.178,121.717 169.288 M277.396 169.808 C 276.160 170.743,275.994 171.006,277.153 170.194 C 278.028 169.580,278.505 169.153,278.294 169.172 C 278.258 169.176,277.854 169.462,277.396 169.808 M124.009 170.955 C 124.077 171.065,124.578 171.475,125.124 171.867 C 125.669 172.258,126.059 172.488,125.991 172.378 C 125.923 172.269,125.422 171.858,124.876 171.467 C 124.331 171.075,123.941 170.845,124.009 170.955 M275.104 171.475 C 273.868 172.409,273.702 172.673,274.861 171.861 C 275.736 171.247,276.213 170.820,276.002 170.839 C 275.966 170.842,275.563 171.128,275.104 171.475 M126.301 172.622 C 126.368 172.731,126.870 173.142,127.415 173.533 C 127.960 173.925,128.351 174.155,128.283 174.045 C 128.215 173.935,127.713 173.525,127.168 173.133 C 126.623 172.742,126.233 172.512,126.301 172.622 M272.813 173.142 C 271.577 174.076,271.410 174.340,272.569 173.527 C 273.445 172.913,273.921 172.487,273.710 172.506 C 273.675 172.509,273.271 172.795,272.813 173.142 M128.592 174.288 C 128.660 174.398,129.162 174.808,129.707 175.200 C 130.252 175.591,130.642 175.822,130.574 175.712 C 130.507 175.602,130.005 175.192,129.460 174.800 C 128.915 174.409,128.524 174.178,128.592 174.288 M270.521 174.808 C 269.285 175.743,269.119 176.006,270.278 175.194 C 271.153 174.580,271.630 174.153,271.419 174.172 C 271.383 174.176,270.979 174.462,270.521 174.808 M130.884 175.955 C 130.952 176.065,131.453 176.475,131.999 176.867 C 132.544 177.258,132.934 177.488,132.866 177.378 C 132.798 177.269,132.297 176.858,131.751 176.467 C 131.206 176.075,130.816 175.845,130.884 175.955 M268.229 176.475 C 266.993 177.409,266.827 177.673,267.986 176.861 C 268.861 176.247,269.338 175.820,269.127 175.839 C 269.091 175.842,268.688 176.128,268.229 176.475 M133.125 177.576 C 133.125 177.633,133.406 177.880,133.750 178.125 C 134.094 178.370,134.375 178.523,134.375 178.466 C 134.375 178.409,134.094 178.161,133.750 177.917 C 133.406 177.672,133.125 177.519,133.125 177.576 M266.146 178.039 L 265.521 178.576 266.198 178.128 C 266.570 177.882,266.875 177.639,266.875 177.590 C 266.875 177.434,266.787 177.488,266.146 178.039 M135.417 179.242 C 135.417 179.300,135.698 179.547,136.042 179.792 C 136.385 180.036,136.667 180.190,136.667 180.133 C 136.667 180.075,136.385 179.828,136.042 179.583 C 135.698 179.339,135.417 179.185,135.417 179.242 M263.854 179.706 L 263.229 180.243 263.906 179.795 C 264.279 179.548,264.583 179.306,264.583 179.257 C 264.583 179.101,264.495 179.155,263.854 179.706 M137.708 180.909 C 137.708 180.966,137.990 181.214,138.333 181.458 C 138.677 181.703,138.958 181.856,138.958 181.799 C 138.958 181.742,138.677 181.495,138.333 181.250 C 137.990 181.005,137.708 180.852,137.708 180.909 M261.563 181.372 L 260.938 181.909 261.615 181.461 C 261.987 181.215,262.292 180.973,262.292 180.923 C 262.292 180.767,262.203 180.822,261.563 181.372 M140.000 182.576 C 140.000 182.633,140.281 182.880,140.625 183.125 C 140.969 183.370,141.250 183.523,141.250 183.466 C 141.250 183.409,140.969 183.161,140.625 182.917 C 140.281 182.672,140.000 182.519,140.000 182.576 M259.271 183.039 L 258.646 183.576 259.323 183.128 C 259.695 182.882,260.000 182.639,260.000 182.590 C 260.000 182.434,259.912 182.488,259.271 183.039 M141.509 183.663 C 141.577 183.773,142.078 184.183,142.624 184.575 C 143.169 184.966,143.559 185.197,143.491 185.087 C 143.423 184.977,142.922 184.567,142.376 184.175 C 141.831 183.784,141.441 183.553,141.509 183.663 M257.604 184.183 C 256.368 185.118,256.202 185.381,257.361 184.569 C 258.236 183.955,258.713 183.528,258.502 183.547 C 258.466 183.551,258.063 183.837,257.604 184.183 M143.801 185.330 C 143.868 185.440,144.370 185.850,144.915 186.242 C 145.460 186.633,145.851 186.863,145.783 186.753 C 145.715 186.644,145.213 186.233,144.668 185.842 C 144.123 185.450,143.733 185.220,143.801 185.330 M255.313 185.850 C 254.077 186.784,253.910 187.048,255.069 186.236 C 255.945 185.622,256.421 185.195,256.210 185.214 C 256.175 185.217,255.771 185.503,255.313 185.850 M146.092 186.997 C 146.160 187.106,146.662 187.517,147.207 187.908 C 147.752 188.300,148.142 188.530,148.074 188.420 C 148.007 188.310,147.505 187.900,146.960 187.508 C 146.415 187.117,146.024 186.887,146.092 186.997 M253.021 187.517 C 251.785 188.451,251.619 188.715,252.778 187.902 C 253.653 187.288,254.130 186.862,253.919 186.881 C 253.883 186.884,253.479 187.170,253.021 187.517 M148.384 188.663 C 148.452 188.773,148.953 189.183,149.499 189.575 C 150.044 189.966,150.434 190.197,150.366 190.087 C 150.298 189.977,149.797 189.567,149.251 189.175 C 148.706 188.784,148.316 188.553,148.384 188.663 M250.729 189.183 C 249.493 190.118,249.327 190.381,250.486 189.569 C 251.361 188.955,251.838 188.528,251.627 188.547 C 251.591 188.551,251.188 188.837,250.729 189.183 M150.676 190.330 C 150.743 190.440,151.245 190.850,151.790 191.242 C 152.335 191.633,152.726 191.863,152.658 191.753 C 152.590 191.644,152.088 191.233,151.543 190.842 C 150.998 190.450,150.608 190.220,150.676 190.330 M248.438 190.850 C 247.202 191.784,247.035 192.048,248.194 191.236 C 249.070 190.622,249.546 190.195,249.335 190.214 C 249.300 190.217,248.896 190.503,248.438 190.850 M152.967 191.997 C 153.035 192.106,153.537 192.517,154.082 192.908 C 154.627 193.300,155.017 193.530,154.949 193.420 C 154.882 193.310,154.380 192.900,153.835 192.508 C 153.290 192.117,152.899 191.887,152.967 191.997 M246.146 192.517 C 244.910 193.451,244.744 193.715,245.903 192.902 C 246.778 192.288,247.255 191.862,247.044 191.881 C 247.008 191.884,246.604 192.170,246.146 192.517 M155.789 194.457 C 156.100 194.961,156.391 195.338,156.437 195.295 C 156.529 195.208,155.465 193.542,155.318 193.542 C 155.266 193.542,155.479 193.954,155.789 194.457 M244.035 194.379 C 243.730 194.840,243.518 195.252,243.563 195.295 C 243.609 195.338,243.900 194.961,244.211 194.457 C 244.918 193.310,244.782 193.250,244.035 194.379 M133.382 267.917 C 133.382 268.318,133.425 268.482,133.477 268.281 C 133.529 268.081,133.529 267.753,133.477 267.552 C 133.425 267.352,133.382 267.516,133.382 267.917 M266.507 267.917 C 266.507 268.318,266.550 268.482,266.602 268.281 C 266.654 268.081,266.654 267.753,266.602 267.552 C 266.550 267.352,266.507 267.516,266.507 267.917 M130.270 283.072 C 131.163 283.111,132.569 283.111,133.395 283.071 C 134.220 283.032,133.490 283.000,131.771 283.000 C 130.052 283.000,129.377 283.033,130.270 283.072 M191.734 283.073 C 195.495 283.105,201.589 283.105,205.276 283.073 C 208.963 283.041,205.885 283.015,198.438 283.015 C 190.990 283.015,187.973 283.041,191.734 283.073 M223.920 283.073 C 226.363 283.106,230.300 283.106,232.670 283.073 C 235.040 283.039,233.042 283.012,228.229 283.012 C 223.417 283.012,221.478 283.039,223.920 283.073 M266.823 283.071 C 267.654 283.111,269.013 283.111,269.844 283.071 C 270.674 283.032,269.995 282.999,268.333 282.999 C 266.672 282.999,265.992 283.032,266.823 283.071 M211.952 285.417 C 211.952 286.620,211.987 287.112,212.029 286.510 C 212.071 285.909,212.071 284.924,212.029 284.323 C 211.987 283.721,211.952 284.214,211.952 285.417 M227.865 287.864 C 229.497 287.899,232.169 287.899,233.802 287.864 C 235.435 287.829,234.099 287.800,230.833 287.800 C 227.568 287.800,226.232 287.829,227.865 287.864 M195.513 297.708 C 195.513 303.036,195.540 305.216,195.573 302.552 C 195.606 299.888,195.606 295.529,195.573 292.865 C 195.540 290.201,195.513 292.380,195.513 297.708 M246.923 291.250 C 246.923 291.651,246.966 291.815,247.019 291.615 C 247.071 291.414,247.071 291.086,247.019 290.885 C 246.966 290.685,246.923 290.849,246.923 291.250 M227.760 294.739 C 229.336 294.774,231.914 294.774,233.490 294.739 C 235.065 294.704,233.776 294.675,230.625 294.675 C 227.474 294.675,226.185 294.704,227.760 294.739 " stroke="none" fill="#ababab" fill-rule="evenodd"></path><path id="path4" d="M199.635 227.227 C 199.836 227.279,200.164 227.279,200.365 227.227 C 200.565 227.175,200.401 227.132,200.000 227.132 C 199.599 227.132,199.435 227.175,199.635 227.227 M184.870 285.625 C 184.870 286.943,184.904 287.482,184.946 286.823 C 184.987 286.164,184.987 285.086,184.946 284.427 C 184.904 283.768,184.870 284.307,184.870 285.625 M165.055 287.024 C 165.372 287.072,165.840 287.071,166.097 287.022 C 166.353 286.972,166.094 286.933,165.521 286.935 C 164.948 286.936,164.738 286.977,165.055 287.024 M201.138 297.813 C 201.138 303.313,201.165 305.533,201.198 302.746 C 201.231 299.959,201.231 295.459,201.198 292.746 C 201.165 290.033,201.138 292.313,201.138 297.813 M224.876 291.250 C 224.876 293.141,224.908 293.914,224.947 292.969 C 224.985 292.023,224.985 290.477,224.947 289.531 C 224.908 288.586,224.876 289.359,224.876 291.250 M236.510 294.727 C 236.711 294.779,237.039 294.779,237.240 294.727 C 237.440 294.675,237.276 294.632,236.875 294.632 C 236.474 294.632,236.310 294.675,236.510 294.727 M164.847 308.483 C 165.163 308.531,165.632 308.529,165.888 308.480 C 166.145 308.431,165.885 308.391,165.313 308.393 C 164.740 308.394,164.530 308.435,164.847 308.483 M167.656 308.480 C 167.914 308.530,168.336 308.530,168.594 308.480 C 168.852 308.431,168.641 308.390,168.125 308.390 C 167.609 308.390,167.398 308.431,167.656 308.480 " stroke="none" fill="#747474" fill-rule="evenodd"></path></g></svg>