<svg id="svg" version="1.1" xmlns="http://www.w3.org/2000/svg" xmlns:xlink="http://www.w3.org/1999/xlink" width="400" height="314.0625" viewBox="0, 0, 400,314.0625"><g id="svgg"><path id="path0" d="M200.464 0.875 C 200.319 1.356,200.198 1.863,200.196 2.000 C 200.192 2.239,199.946 3.056,198.588 7.333 C 198.253 8.387,197.866 9.737,197.727 10.333 C 197.588 10.929,197.209 12.279,196.885 13.333 C 195.748 17.029,195.291 18.589,195.152 19.250 C 195.076 19.617,194.528 21.471,193.936 23.371 C 193.343 25.271,192.770 27.253,192.662 27.775 C 192.553 28.296,192.183 29.592,191.840 30.653 C 191.496 31.715,190.974 33.446,190.680 34.500 C 190.385 35.554,189.621 38.163,188.980 40.297 C 188.340 42.431,187.784 44.381,187.745 44.630 C 187.706 44.879,187.514 45.608,187.319 46.250 C 186.663 48.405,186.513 48.907,185.825 51.250 C 185.105 53.703,184.690 55.161,184.576 55.634 C 184.539 55.789,184.201 56.892,183.825 58.083 C 183.449 59.275,182.890 61.188,182.583 62.333 C 182.276 63.479,181.788 65.167,181.498 66.083 C 181.019 67.601,180.633 68.945,179.942 71.500 C 179.806 72.004,179.508 73.017,179.280 73.750 C 178.114 77.493,177.667 79.021,177.667 79.260 C 177.667 79.405,177.410 80.324,177.096 81.303 C 176.359 83.602,175.220 87.465,175.121 88.000 C 175.079 88.229,174.765 89.317,174.424 90.417 C 173.795 92.442,173.096 94.815,172.191 98.000 C 171.917 98.962,171.416 100.650,171.077 101.750 C 170.738 102.850,170.255 104.537,170.003 105.500 C 169.751 106.462,169.123 108.612,168.606 110.277 C 168.089 111.942,167.667 113.411,167.667 113.542 C 167.667 113.673,167.483 114.373,167.259 115.098 C 167.035 115.823,166.469 117.648,166.002 119.154 C 165.535 120.659,165.188 121.983,165.232 122.096 C 165.275 122.208,165.259 122.352,165.197 122.414 C 165.134 122.477,165.078 122.578,165.073 122.639 C 165.067 122.700,164.965 123.057,164.846 123.432 L 164.629 124.115 162.356 124.409 C 161.106 124.571,159.296 124.767,158.333 124.845 C 156.482 124.994,151.805 125.702,147.917 126.422 C 146.633 126.660,144.833 126.970,143.917 127.111 C 139.304 127.822,129.696 129.938,124.000 131.498 C 122.763 131.837,121.188 132.249,120.500 132.414 C 119.813 132.579,118.837 132.846,118.333 133.007 C 117.829 133.169,116.404 133.609,115.167 133.985 C 113.054 134.626,111.669 135.079,105.917 137.008 C 104.633 137.438,102.571 138.201,101.333 138.703 C 100.096 139.205,98.883 139.665,98.637 139.725 C 98.392 139.785,97.012 140.359,95.571 141.000 C 94.130 141.642,92.887 142.167,92.808 142.167 C 92.728 142.167,91.633 142.664,90.373 143.271 C 89.114 143.878,87.783 144.506,87.417 144.667 C 85.137 145.666,76.755 150.248,75.083 151.409 C 74.533 151.791,73.951 152.153,73.788 152.214 C 73.327 152.388,68.250 155.796,67.811 156.227 C 67.594 156.440,67.061 156.820,66.626 157.072 C 66.191 157.324,65.479 157.849,65.043 158.238 C 64.607 158.627,63.921 159.182,63.519 159.471 C 60.099 161.929,50.167 172.188,50.167 173.263 C 50.167 173.331,49.848 173.806,49.458 174.318 C 48.012 176.220,45.880 180.029,44.832 182.583 C 44.456 183.500,44.049 184.475,43.927 184.750 C 43.507 185.704,42.803 188.012,42.668 188.878 C 42.594 189.358,42.378 190.500,42.188 191.417 C 40.936 197.481,41.784 206.675,44.061 211.704 C 44.197 212.004,44.542 212.813,44.828 213.500 C 45.689 215.571,46.220 216.667,46.364 216.667 C 46.439 216.667,46.500 216.744,46.500 216.839 C 46.500 217.128,48.664 220.800,49.333 221.646 C 49.678 222.083,50.077 222.665,50.218 222.939 C 50.360 223.213,50.806 223.808,51.209 224.260 C 51.611 224.713,52.244 225.496,52.614 226.000 C 54.698 228.836,64.580 237.993,66.803 239.149 C 67.049 239.277,67.504 239.602,67.814 239.872 C 68.124 240.141,69.136 240.867,70.064 241.483 C 70.991 242.100,72.261 242.956,72.886 243.385 C 73.510 243.815,74.103 244.167,74.203 244.167 C 74.303 244.167,74.617 244.341,74.901 244.553 C 75.515 245.013,77.881 246.412,79.167 247.076 C 79.671 247.336,80.196 247.642,80.333 247.756 C 80.966 248.281,90.832 253.123,93.250 254.095 C 93.983 254.390,95.525 255.042,96.676 255.544 C 97.826 256.046,98.951 256.511,99.176 256.576 C 99.400 256.642,100.905 257.212,102.520 257.842 C 104.135 258.473,105.748 259.060,106.104 259.147 C 106.459 259.233,107.785 259.681,109.050 260.141 C 110.314 260.601,111.927 261.143,112.633 261.346 C 113.339 261.548,115.079 262.070,116.500 262.505 C 119.196 263.331,120.534 263.703,124.833 264.821 C 130.364 266.260,131.440 266.522,132.083 266.590 C 132.450 266.629,134.025 266.956,135.583 267.317 C 138.720 268.043,143.597 268.992,146.417 269.424 C 147.425 269.579,148.400 269.735,148.583 269.771 C 151.735 270.385,159.132 271.459,161.657 271.668 C 162.717 271.756,164.896 271.976,166.500 272.157 C 187.784 274.560,212.270 274.593,233.500 272.246 C 234.737 272.109,236.612 271.919,237.667 271.824 C 240.866 271.536,245.844 270.848,250.500 270.050 C 252.929 269.633,255.442 269.234,256.083 269.162 C 257.394 269.015,261.168 268.256,264.917 267.385 C 266.292 267.066,267.904 266.737,268.500 266.654 C 269.096 266.572,271.308 266.043,273.417 265.480 C 275.525 264.917,277.850 264.322,278.583 264.158 C 279.317 263.994,281.154 263.481,282.667 263.017 C 284.179 262.554,285.792 262.064,286.250 261.928 C 290.131 260.780,296.002 258.775,299.013 257.572 C 300.258 257.074,301.347 256.667,301.433 256.667 C 301.662 256.667,304.021 255.660,304.450 255.380 C 304.651 255.248,304.838 255.151,304.866 255.165 C 305.004 255.234,309.231 253.454,311.083 252.547 C 312.000 252.098,313.669 251.288,314.792 250.746 C 315.915 250.204,316.833 249.698,316.833 249.621 C 316.833 249.543,316.900 249.521,316.981 249.572 C 317.062 249.622,317.222 249.551,317.335 249.415 C 317.448 249.278,317.663 249.165,317.812 249.164 C 317.961 249.162,318.458 248.947,318.917 248.687 C 319.375 248.426,320.800 247.630,322.083 246.918 C 323.367 246.206,324.646 245.453,324.925 245.245 C 325.205 245.037,325.881 244.616,326.428 244.308 C 326.974 244.001,328.058 243.318,328.836 242.790 C 329.614 242.262,330.672 241.550,331.189 241.207 C 336.160 237.905,341.188 233.623,346.011 228.583 C 347.872 226.639,351.778 221.580,352.480 220.206 C 352.655 219.864,353.074 219.174,353.411 218.674 C 354.667 216.810,357.140 211.237,357.668 209.083 C 357.780 208.625,358.043 207.611,358.251 206.830 C 359.300 202.895,359.632 196.230,358.960 192.583 C 358.539 190.301,358.514 190.191,358.060 188.583 C 357.828 187.758,357.574 186.781,357.497 186.411 C 357.141 184.701,354.723 179.454,353.222 177.134 C 352.825 176.520,352.500 175.949,352.500 175.864 C 352.500 175.552,348.051 169.667,347.815 169.667 C 347.738 169.667,347.562 169.449,347.425 169.182 C 346.783 167.942,340.068 161.581,336.298 158.642 C 333.639 156.570,327.368 152.167,327.075 152.167 C 327.023 152.167,326.157 151.637,325.149 150.989 C 324.142 150.341,323.158 149.780,322.963 149.743 C 322.768 149.705,322.565 149.606,322.512 149.523 C 322.460 149.439,321.892 149.086,321.250 148.738 C 320.608 148.390,319.917 147.979,319.713 147.824 C 319.509 147.669,318.909 147.369,318.379 147.156 C 317.850 146.944,317.379 146.721,317.333 146.661 C 317.218 146.509,313.627 144.667,313.447 144.667 C 313.367 144.667,312.339 144.184,311.165 143.595 C 309.990 143.005,308.703 142.411,308.306 142.275 C 307.629 142.042,307.208 141.860,304.536 140.647 C 303.960 140.386,302.685 139.898,301.703 139.562 C 300.720 139.226,299.842 138.896,299.750 138.828 C 299.401 138.568,295.621 137.167,295.269 137.167 C 295.066 137.167,294.829 137.103,294.742 137.026 C 294.541 136.848,288.973 134.898,288.083 134.694 C 287.717 134.610,285.992 134.093,284.250 133.544 C 282.508 132.996,280.671 132.452,280.167 132.336 C 279.662 132.220,278.050 131.799,276.583 131.401 C 270.737 129.815,262.580 128.051,255.500 126.841 C 253.896 126.567,252.358 126.302,252.083 126.252 C 249.978 125.869,244.211 124.985,243.333 124.911 C 242.737 124.861,241.182 124.695,239.878 124.544 L 237.505 124.268 236.989 122.592 C 236.228 120.121,235.117 116.409,234.317 113.667 C 233.930 112.337,233.363 110.462,233.058 109.500 C 232.752 108.537,232.502 107.633,232.501 107.491 C 232.501 107.348,231.938 105.422,231.250 103.211 C 230.563 100.999,230.001 99.091,230.003 98.970 C 230.005 98.849,229.451 96.912,228.772 94.667 C 228.093 92.421,227.348 89.908,227.117 89.083 C 226.885 88.258,226.495 86.946,226.250 86.167 C 226.006 85.388,225.617 84.075,225.387 83.250 C 225.157 82.425,224.556 80.400,224.051 78.750 C 223.546 77.100,222.884 74.813,222.579 73.667 C 222.274 72.521,221.605 70.238,221.092 68.593 C 220.579 66.948,220.053 65.148,219.924 64.593 C 219.794 64.038,219.261 62.233,218.740 60.583 C 218.219 58.933,217.720 57.283,217.633 56.917 C 217.545 56.550,217.019 54.750,216.464 52.917 C 215.909 51.083,215.342 49.133,215.204 48.583 C 215.066 48.033,214.401 45.777,213.727 43.569 C 213.052 41.361,212.500 39.449,212.500 39.319 C 212.499 39.189,212.043 37.621,211.486 35.833 C 210.928 34.046,210.354 32.133,210.211 31.583 C 210.067 31.033,209.576 29.346,209.120 27.833 C 208.664 26.321,208.106 24.408,207.880 23.583 C 207.653 22.758,206.924 20.283,206.259 18.083 C 205.595 15.883,204.955 13.671,204.837 13.167 C 204.719 12.662,204.374 11.463,204.070 10.500 C 202.782 6.421,202.500 5.484,202.500 5.275 C 202.500 5.154,202.162 3.947,201.750 2.592 C 201.338 1.238,201.000 0.101,201.000 0.065 C 201.000 -0.310,200.671 0.186,200.464 0.875 M61.000 94.032 C 59.854 94.489,58.504 95.018,58.000 95.209 C 57.496 95.399,56.558 95.796,55.917 96.092 C 55.275 96.388,54.016 96.940,53.119 97.321 C 51.590 97.969,50.468 98.529,50.083 98.835 C 49.992 98.908,49.317 99.282,48.583 99.667 C 47.262 100.360,45.581 101.487,44.893 102.141 C 44.696 102.327,44.500 102.444,44.456 102.400 C 44.412 102.357,43.898 102.779,43.313 103.339 C 42.728 103.900,42.000 104.553,41.695 104.792 C 41.390 105.031,40.818 105.644,40.425 106.155 C 40.032 106.666,39.494 107.329,39.230 107.629 C 38.784 108.136,38.241 108.976,36.135 112.413 C 35.687 113.144,35.280 113.932,35.230 114.163 C 35.180 114.394,35.095 114.696,35.042 114.833 C 34.989 114.971,34.936 115.121,34.925 115.167 C 34.914 115.212,34.822 115.400,34.722 115.583 C 34.469 116.044,33.439 119.287,33.002 121.000 C 32.171 124.257,31.940 125.092,31.828 125.250 C 31.763 125.342,31.616 125.717,31.500 126.083 C 31.384 126.450,31.075 127.216,30.812 127.785 C 30.086 129.354,30.285 129.432,31.672 128.121 C 32.179 127.642,33.130 126.814,33.786 126.281 C 34.442 125.748,35.003 125.257,35.031 125.188 C 35.060 125.120,35.421 124.830,35.833 124.545 C 36.246 124.259,37.033 123.608,37.583 123.098 C 38.133 122.587,38.643 122.169,38.715 122.168 C 38.787 122.167,39.387 121.671,40.048 121.065 C 40.709 120.459,41.878 119.391,42.646 118.690 C 44.257 117.221,47.102 113.984,47.428 113.250 C 47.550 112.975,47.880 112.487,48.162 112.167 C 48.444 111.846,49.103 110.946,49.628 110.167 C 50.153 109.388,50.948 108.265,51.395 107.672 C 51.843 107.079,52.394 106.300,52.620 105.942 C 52.847 105.583,53.366 104.879,53.775 104.377 C 54.183 103.876,54.712 103.158,54.949 102.782 C 55.186 102.406,55.509 101.983,55.667 101.841 C 55.825 101.699,56.671 100.721,57.547 99.667 C 58.424 98.612,60.122 96.776,61.321 95.586 C 64.180 92.746,64.184 92.763,61.000 94.032 M334.694 96.153 C 334.791 96.417,338.010 99.667,338.175 99.667 C 338.262 99.667,338.333 99.749,338.333 99.850 C 338.333 99.951,339.293 101.020,340.465 102.225 C 341.638 103.430,342.885 104.867,343.236 105.417 C 343.588 105.967,344.166 106.799,344.521 107.265 C 344.876 107.732,345.167 108.162,345.167 108.221 C 345.167 108.369,347.640 111.624,348.983 113.243 C 349.588 113.973,350.244 114.783,350.440 115.043 C 353.102 118.569,361.730 126.705,366.394 130.087 C 367.023 130.543,367.676 131.017,367.844 131.140 C 368.210 131.407,368.159 130.769,367.754 130.011 C 367.629 129.776,367.329 128.908,367.089 128.083 C 365.199 121.598,364.050 118.540,362.142 114.917 C 361.813 114.291,360.385 112.031,359.615 110.917 C 358.497 109.297,354.840 105.575,353.243 104.430 C 352.788 104.104,352.117 103.622,351.750 103.357 C 350.942 102.775,346.544 100.466,345.500 100.076 C 345.087 99.922,343.355 99.242,341.651 98.565 C 339.946 97.888,338.465 97.333,338.358 97.333 C 338.252 97.333,337.444 97.033,336.563 96.667 C 334.906 95.977,334.600 95.893,334.694 96.153 M36.167 106.577 C 33.686 107.487,33.253 107.682,32.030 108.435 C 31.326 108.868,30.622 109.342,30.466 109.487 C 29.901 110.011,29.701 110.145,29.611 110.056 C 29.522 109.966,25.941 113.502,24.544 115.058 C 22.991 116.788,21.069 120.080,20.441 122.083 C 19.394 125.425,18.953 127.458,18.653 130.326 C 18.392 132.820,18.545 140.933,18.918 144.417 C 19.206 147.092,19.204 147.677,18.893 154.208 C 18.767 156.838,18.960 157.185,19.680 155.625 C 20.064 154.791,21.391 152.779,22.621 151.167 C 23.688 149.768,27.910 145.413,29.167 144.417 C 29.854 143.871,31.167 142.868,32.083 142.187 C 34.073 140.709,36.079 139.079,37.327 137.925 C 39.537 135.882,42.333 133.085,42.333 132.917 C 42.333 132.817,42.640 132.438,43.016 132.075 C 43.762 131.355,45.167 129.478,45.167 129.201 C 45.167 129.106,45.234 129.003,45.316 128.972 C 45.922 128.747,48.533 123.729,49.422 121.083 C 50.053 119.205,50.738 114.000,50.354 114.000 C 50.251 114.000,50.167 114.091,50.167 114.202 C 50.167 114.944,47.744 118.783,46.350 120.250 C 45.827 120.800,45.291 121.400,45.158 121.583 C 45.025 121.767,44.481 122.248,43.948 122.653 C 43.415 123.058,42.887 123.522,42.774 123.683 C 42.661 123.845,42.155 124.263,41.650 124.613 C 41.144 124.964,40.124 125.700,39.382 126.250 C 38.640 126.800,37.350 127.724,36.516 128.304 C 35.682 128.884,35.000 129.428,35.000 129.513 C 35.000 129.597,34.901 129.667,34.780 129.667 C 34.531 129.667,33.217 130.627,32.270 131.500 C 31.922 131.821,31.497 132.159,31.326 132.252 C 30.965 132.448,27.667 135.936,27.666 136.124 C 27.665 136.193,27.458 136.475,27.205 136.750 C 26.043 138.014,24.848 139.868,23.584 142.370 C 22.676 144.167,22.909 143.314,24.644 138.500 C 25.870 135.095,27.500 129.355,27.500 128.439 C 27.500 127.873,28.701 122.538,29.416 119.931 C 29.737 118.759,30.000 117.708,30.000 117.595 C 30.000 115.528,34.178 109.145,36.782 107.233 C 38.347 106.084,38.132 105.855,36.167 106.577 M360.333 108.556 C 360.333 108.691,360.727 109.063,361.208 109.384 C 365.130 111.999,368.003 117.205,369.826 125.000 C 370.030 125.871,370.687 128.458,371.286 130.750 C 371.885 133.042,372.482 135.400,372.612 135.990 C 372.832 136.986,373.757 139.784,374.986 143.165 C 375.269 143.944,375.498 144.619,375.495 144.665 C 375.481 144.883,375.000 144.070,375.000 143.829 C 375.000 143.129,372.764 139.884,370.925 137.917 C 370.326 137.275,369.835 136.699,369.834 136.637 C 369.832 136.428,366.096 133.309,364.417 132.114 C 363.500 131.462,362.375 130.645,361.917 130.298 C 361.458 129.952,361.018 129.668,360.939 129.667 C 360.859 129.667,360.259 129.266,359.605 128.777 C 358.952 128.287,358.192 127.745,357.917 127.572 C 354.247 125.264,350.748 121.557,348.683 117.790 C 348.294 117.078,347.913 116.534,347.838 116.580 C 347.548 116.760,348.845 121.978,349.756 124.295 C 349.982 124.870,350.167 125.443,350.167 125.569 C 350.167 125.854,351.233 128.131,351.891 129.250 C 352.160 129.708,352.547 130.394,352.751 130.774 C 353.270 131.742,355.584 134.541,356.942 135.845 C 358.680 137.513,360.937 139.499,361.102 139.506 C 361.184 139.510,361.700 139.931,362.250 140.443 C 362.800 140.954,363.662 141.666,364.167 142.024 C 364.671 142.382,365.571 143.084,366.167 143.584 C 366.762 144.084,367.344 144.495,367.458 144.497 C 367.573 144.499,367.667 144.560,367.667 144.633 C 367.667 144.705,368.545 145.474,369.618 146.340 C 372.914 149.000,376.517 152.714,378.182 155.167 C 378.586 155.762,378.954 156.287,379.000 156.333 C 379.123 156.456,379.640 157.337,379.954 157.958 C 380.522 159.081,380.606 158.698,380.236 156.667 C 379.917 154.913,379.882 146.261,380.170 140.333 C 380.275 138.179,380.318 136.042,380.267 135.583 C 380.216 135.125,380.130 133.850,380.076 132.750 C 379.853 128.173,378.287 123.548,375.722 119.887 C 375.325 119.320,375.000 118.791,375.000 118.710 C 375.000 118.450,372.297 115.430,370.833 114.053 C 368.187 111.565,364.139 109.221,361.417 108.598 C 361.142 108.536,360.785 108.445,360.625 108.398 C 360.440 108.343,360.333 108.401,360.333 108.556 M17.042 123.631 C 16.379 124.306,15.464 125.496,14.946 126.356 C 14.643 126.860,14.239 127.427,14.050 127.617 C 13.643 128.024,11.020 132.420,10.481 133.598 C 10.275 134.048,9.752 135.167,9.318 136.083 C 6.961 141.069,6.083 145.676,6.093 153.000 C 6.102 158.667,6.114 158.778,7.233 163.333 C 7.906 166.071,8.082 166.572,11.410 175.250 C 12.507 178.108,13.274 180.388,13.937 182.750 C 14.337 184.176,15.000 187.662,15.000 188.337 C 15.000 188.691,15.077 189.028,15.171 189.086 C 15.265 189.144,15.326 189.130,15.307 189.054 C 15.214 188.687,16.081 185.326,16.697 183.667 C 16.884 183.162,17.253 182.161,17.516 181.441 C 17.779 180.722,18.137 179.897,18.312 179.608 C 18.487 179.319,19.009 178.333,19.472 177.417 C 19.934 176.500,20.805 175.004,21.407 174.092 C 22.008 173.180,22.500 172.342,22.500 172.231 C 22.500 172.119,22.558 172.003,22.628 171.972 C 22.759 171.915,23.695 170.625,25.171 168.465 C 25.628 167.797,26.266 166.912,26.589 166.500 C 26.912 166.087,27.298 165.525,27.446 165.250 C 27.594 164.975,27.956 164.450,28.250 164.083 C 29.021 163.120,32.333 158.190,32.496 157.762 C 32.571 157.563,32.855 157.066,33.126 156.658 C 35.217 153.514,37.431 147.395,38.661 141.360 C 39.268 138.384,39.096 137.970,38.103 140.009 C 37.285 141.688,35.473 143.927,33.379 145.845 C 32.483 146.665,31.160 147.880,30.438 148.543 C 28.155 150.643,23.652 155.214,22.938 156.158 C 22.559 156.657,22.094 157.235,21.904 157.443 C 21.431 157.958,20.124 159.833,20.238 159.833 C 20.289 159.833,20.201 159.984,20.043 160.169 C 18.493 161.978,16.802 166.453,16.075 170.667 C 15.202 175.724,15.156 174.842,15.843 166.271 C 16.455 158.634,16.418 157.375,15.339 149.167 C 13.689 136.606,14.089 130.523,16.915 125.231 C 17.420 124.285,17.833 123.472,17.833 123.422 C 17.833 123.218,17.312 123.355,17.042 123.631 M380.619 125.437 C 380.562 125.494,380.801 125.963,381.151 126.479 C 383.855 130.469,385.086 137.876,384.187 144.750 C 382.907 154.535,382.858 169.058,384.085 175.000 C 384.160 175.363,384.148 175.378,383.987 175.112 C 383.885 174.944,383.584 173.669,383.317 172.278 C 382.385 167.418,382.315 167.197,380.708 164.040 C 379.005 160.692,375.638 156.803,371.167 153.018 C 365.915 148.572,361.921 144.373,360.243 141.532 C 359.892 140.938,359.593 140.820,359.739 141.333 C 359.791 141.517,359.869 141.798,359.913 141.958 C 359.957 142.119,360.067 142.782,360.159 143.432 C 360.327 144.633,361.210 147.560,362.542 151.333 C 363.424 153.831,365.342 157.714,366.659 159.667 C 367.185 160.446,367.645 161.161,367.682 161.256 C 367.829 161.629,369.569 164.000,369.697 164.000 C 369.772 164.000,369.833 164.112,369.833 164.250 C 369.833 164.387,369.908 164.500,370.000 164.500 C 370.092 164.500,370.167 164.581,370.167 164.679 C 370.167 164.848,371.381 166.512,372.043 167.250 C 372.207 167.433,372.584 167.937,372.879 168.369 C 373.175 168.800,373.792 169.638,374.250 170.230 C 374.708 170.822,375.496 171.887,376.000 172.595 C 376.504 173.304,377.085 174.071,377.292 174.300 C 377.498 174.528,377.667 174.783,377.667 174.865 C 377.667 174.948,378.137 175.706,378.712 176.549 C 381.053 179.983,383.048 184.667,384.087 189.167 C 384.511 191.002,384.821 191.194,384.923 189.686 C 385.135 186.578,387.271 178.834,389.252 174.000 C 392.152 166.920,392.792 164.004,392.957 157.108 C 393.107 150.833,392.327 145.511,390.582 140.917 C 390.339 140.275,390.100 139.563,390.053 139.333 C 389.952 138.850,388.212 135.137,388.026 135.005 C 387.957 134.956,387.694 134.476,387.443 133.938 C 387.191 133.400,386.440 132.200,385.773 131.271 C 385.107 130.343,384.247 129.118,383.863 128.549 C 383.478 127.980,382.977 127.312,382.749 127.066 C 382.520 126.820,382.333 126.560,382.333 126.490 C 382.333 126.353,381.006 125.333,380.828 125.333 C 380.770 125.333,380.676 125.380,380.619 125.437 M162.667 130.902 C 162.667 130.940,162.104 132.784,161.417 135.000 C 160.729 137.216,160.167 139.189,160.167 139.384 C 160.167 139.579,160.059 140.041,159.928 140.411 C 159.398 141.905,158.148 146.004,157.818 147.333 C 157.624 148.112,156.948 150.423,156.316 152.468 C 155.684 154.513,155.167 156.299,155.167 156.436 C 155.167 156.574,154.675 158.276,154.073 160.218 C 153.472 162.161,152.873 164.204,152.744 164.759 C 152.614 165.315,151.981 167.480,151.337 169.571 C 150.693 171.662,150.167 173.480,150.167 173.612 C 150.167 173.743,149.616 175.666,148.942 177.884 C 148.268 180.102,147.562 182.517,147.371 183.250 C 147.181 183.983,146.607 185.919,146.096 187.551 C 145.585 189.184,145.167 190.634,145.167 190.774 C 145.167 190.913,144.635 192.728,143.985 194.806 C 143.334 196.883,142.776 198.808,142.743 199.083 C 142.710 199.358,142.203 201.121,141.617 203.000 C 141.030 204.879,140.452 206.829,140.331 207.333 C 140.210 207.838,139.561 210.046,138.889 212.242 C 138.217 214.437,137.667 216.330,137.667 216.447 C 137.667 216.685,137.262 218.072,136.007 222.143 C 135.545 223.643,135.167 224.955,135.168 225.060 C 135.169 225.164,134.610 227.125,133.928 229.417 C 133.245 231.708,132.527 234.183,132.333 234.917 C 132.139 235.650,131.878 236.550,131.754 236.917 C 131.239 238.433,130.336 241.473,130.169 242.250 C 129.973 243.166,129.110 246.055,128.737 247.045 C 128.276 248.267,128.595 248.332,129.741 247.250 C 130.178 246.838,130.590 246.500,130.657 246.500 C 130.725 246.500,131.261 246.043,131.848 245.483 C 132.436 244.924,133.131 244.331,133.393 244.166 C 133.655 244.000,134.211 243.539,134.628 243.141 C 135.046 242.742,135.859 242.042,136.436 241.583 C 137.013 241.125,138.138 240.188,138.936 239.500 C 140.699 237.982,143.490 235.624,145.792 233.710 C 146.731 232.928,147.500 232.236,147.500 232.171 C 147.500 232.106,147.669 231.976,147.875 231.881 C 148.081 231.785,148.869 231.136,149.626 230.437 C 150.383 229.738,151.058 229.166,151.126 229.164 C 151.194 229.163,151.813 228.639,152.500 228.000 C 153.188 227.361,153.808 226.837,153.879 226.836 C 153.950 226.834,154.478 226.402,155.053 225.875 C 155.627 225.348,157.425 223.804,159.049 222.444 C 160.672 221.085,162.000 219.903,162.000 219.819 C 162.000 219.735,162.074 219.667,162.165 219.667 C 162.349 219.667,162.555 219.508,164.215 218.083 C 164.856 217.533,165.613 216.902,165.898 216.681 C 166.183 216.460,166.792 215.933,167.250 215.509 C 167.708 215.085,168.421 214.481,168.833 214.167 C 169.246 213.853,169.921 213.279,170.333 212.891 C 170.746 212.504,171.400 211.939,171.788 211.635 C 172.821 210.826,179.308 205.331,179.816 204.835 C 180.055 204.602,180.438 204.289,180.667 204.140 C 180.896 203.991,181.622 203.392,182.280 202.809 C 182.938 202.227,184.093 201.225,184.847 200.583 C 185.600 199.942,186.355 199.285,186.525 199.125 C 186.694 198.965,186.882 198.833,186.942 198.833 C 187.002 198.833,187.438 198.477,187.910 198.042 C 188.383 197.606,189.885 196.313,191.249 195.167 C 192.613 194.021,194.078 192.783,194.504 192.417 C 194.930 192.050,195.778 191.342,196.389 190.844 C 197.000 190.345,197.500 189.878,197.500 189.806 C 197.500 189.734,197.710 189.567,197.966 189.434 C 198.222 189.302,198.951 188.706,199.585 188.111 L 200.739 187.029 201.710 187.890 C 202.245 188.363,203.054 189.034,203.509 189.382 C 203.963 189.729,204.579 190.257,204.876 190.554 C 205.174 190.852,205.942 191.499,206.584 191.994 C 207.225 192.488,207.808 192.989,207.880 193.107 C 207.951 193.225,208.439 193.654,208.963 194.060 C 209.488 194.466,210.329 195.180,210.833 195.648 C 211.338 196.115,211.797 196.498,211.854 196.499 C 211.911 196.500,212.623 197.098,213.437 197.830 C 214.251 198.561,215.010 199.161,215.125 199.163 C 215.240 199.165,215.333 199.232,215.333 199.312 C 215.333 199.449,219.633 203.192,220.972 204.220 C 221.308 204.478,221.958 205.041,222.417 205.471 C 222.875 205.901,223.550 206.474,223.917 206.745 C 224.283 207.015,225.002 207.614,225.513 208.076 C 227.030 209.448,229.367 211.417,229.479 211.418 C 229.536 211.419,229.871 211.700,230.222 212.042 C 230.573 212.384,232.373 213.938,234.222 215.494 C 238.744 219.301,238.530 219.118,239.797 220.255 C 240.413 220.807,241.217 221.478,241.583 221.744 C 241.950 222.011,242.588 222.548,243.000 222.937 C 243.412 223.327,244.064 223.894,244.447 224.198 C 244.831 224.501,246.106 225.571,247.281 226.575 C 249.394 228.380,252.027 230.619,252.833 231.297 C 253.063 231.489,253.799 232.120,254.469 232.699 C 255.140 233.277,255.959 233.957,256.289 234.211 C 256.619 234.464,257.271 235.032,257.736 235.472 C 258.202 235.912,258.808 236.414,259.083 236.588 C 259.358 236.761,259.778 237.112,260.015 237.368 C 260.252 237.624,260.503 237.833,260.571 237.833 C 260.640 237.833,260.821 237.985,260.973 238.171 C 261.125 238.357,261.604 238.788,262.036 239.130 C 262.468 239.471,264.418 241.116,266.369 242.786 C 268.320 244.456,270.127 245.994,270.384 246.203 C 270.640 246.412,271.480 247.127,272.250 247.792 C 273.020 248.456,273.733 249.000,273.836 249.000 C 274.048 249.000,274.059 249.043,273.153 246.201 C 272.794 245.074,272.500 244.020,272.500 243.858 C 272.500 243.697,271.938 241.755,271.250 239.544 C 270.563 237.333,270.000 235.421,270.000 235.297 C 270.000 235.172,269.508 233.498,268.907 231.577 C 268.305 229.655,267.700 227.596,267.561 227.000 C 267.422 226.404,266.895 224.604,266.388 223.000 C 265.882 221.396,265.352 219.633,265.211 219.083 C 265.070 218.533,264.402 216.246,263.727 214.000 C 263.051 211.754,262.499 209.827,262.499 209.717 C 262.500 209.521,262.327 208.941,260.979 204.628 C 260.615 203.460,260.333 202.485,260.353 202.461 C 260.373 202.437,260.302 202.253,260.195 202.054 C 260.088 201.854,259.965 201.411,259.921 201.069 C 259.878 200.727,259.324 198.790,258.690 196.765 C 258.057 194.740,257.492 192.821,257.436 192.500 C 257.379 192.179,256.842 190.342,256.243 188.417 C 255.643 186.492,255.090 184.617,255.014 184.250 C 254.938 183.883,254.598 182.683,254.258 181.583 C 253.918 180.483,253.380 178.683,253.063 177.583 C 252.745 176.483,252.029 174.083,251.471 172.250 C 250.914 170.417,250.345 168.467,250.206 167.917 C 250.067 167.367,249.432 165.229,248.795 163.167 C 248.158 161.104,247.598 159.192,247.551 158.917 C 247.440 158.270,246.338 154.542,245.587 152.271 C 245.264 151.297,245.000 150.363,245.000 150.195 C 245.000 150.028,244.503 148.322,243.895 146.404 C 243.287 144.486,242.684 142.429,242.554 141.833 C 242.425 141.237,241.811 139.100,241.190 137.083 C 240.015 133.262,239.449 131.163,239.563 131.048 C 239.628 130.983,242.654 131.687,245.167 132.352 C 247.973 133.094,254.544 135.196,256.583 136.003 C 257.317 136.293,258.442 136.705,259.083 136.917 C 260.206 137.290,261.630 137.881,264.057 138.983 C 264.684 139.267,265.258 139.500,265.332 139.500 C 265.816 139.500,276.017 144.767,277.750 145.912 C 278.208 146.215,278.921 146.638,279.333 146.852 C 279.746 147.066,280.819 147.750,281.719 148.371 C 282.619 148.992,283.402 149.500,283.460 149.500 C 283.518 149.500,284.283 150.044,285.162 150.708 C 286.040 151.373,286.879 151.992,287.026 152.083 C 288.486 152.991,293.867 157.741,296.583 160.522 C 313.479 177.814,317.816 198.747,308.544 218.250 C 307.031 221.432,306.032 223.094,302.710 227.951 C 302.413 228.385,301.957 228.968,301.697 229.245 C 301.437 229.523,300.940 230.125,300.594 230.583 C 299.675 231.800,298.029 233.572,295.673 235.881 C 294.530 237.001,293.251 238.273,292.829 238.708 C 292.408 239.144,291.993 239.500,291.907 239.501 C 291.820 239.501,291.175 240.026,290.473 240.667 C 289.771 241.309,289.133 241.834,289.056 241.836 C 288.980 241.837,288.430 242.252,287.836 242.757 C 287.241 243.262,286.455 243.880,286.089 244.130 C 284.854 244.973,283.086 246.254,282.716 246.576 C 282.513 246.751,282.240 246.911,282.108 246.930 C 281.977 246.949,281.131 247.469,280.229 248.085 C 279.328 248.700,278.435 249.263,278.245 249.335 C 278.056 249.407,277.192 249.898,276.326 250.425 C 275.459 250.952,273.887 251.831,272.833 252.376 C 271.779 252.922,270.579 253.543,270.167 253.757 C 268.933 254.395,263.699 256.744,262.000 257.422 C 258.960 258.635,258.081 258.999,257.794 259.166 C 257.635 259.258,257.410 259.332,257.294 259.331 C 257.178 259.330,255.471 259.885,253.500 260.564 C 251.529 261.243,249.617 261.870,249.250 261.957 C 248.883 262.044,247.127 262.543,245.348 263.066 C 243.568 263.589,241.243 264.194,240.181 264.410 C 239.119 264.627,236.713 265.140,234.833 265.550 C 231.194 266.345,229.762 266.587,224.750 267.253 C 219.572 267.942,215.016 268.419,212.000 268.589 C 210.946 268.649,209.902 268.725,209.681 268.759 C 209.459 268.793,206.947 268.871,204.097 268.932 C 190.780 269.215,175.554 267.702,163.622 264.909 C 162.268 264.593,161.031 264.335,160.872 264.336 C 160.412 264.340,151.805 261.893,149.333 261.056 C 144.175 259.308,142.826 258.822,141.083 258.086 C 140.075 257.660,138.912 257.191,138.500 257.043 C 138.087 256.895,136.673 256.262,135.356 255.636 C 134.039 255.009,132.764 254.449,132.523 254.389 C 132.281 254.330,132.046 254.237,132.000 254.183 C 131.918 254.085,131.563 253.895,128.000 252.033 C 127.037 251.530,125.589 250.717,124.782 250.226 C 123.975 249.735,123.269 249.333,123.215 249.333 C 123.161 249.333,122.264 248.771,121.223 248.083 C 120.182 247.396,119.287 246.833,119.234 246.833 C 119.113 246.833,117.673 245.831,117.336 245.511 C 117.197 245.380,116.671 245.005,116.166 244.678 C 115.330 244.136,114.466 243.475,111.833 241.365 C 108.482 238.679,105.620 235.954,102.522 232.500 C 101.741 231.629,101.023 230.833,100.926 230.730 C 100.550 230.332,97.621 226.362,96.953 225.346 C 96.567 224.757,96.081 224.026,95.874 223.723 C 95.667 223.419,95.148 222.513,94.722 221.710 C 94.295 220.907,93.823 220.063,93.672 219.833 C 93.218 219.142,91.318 214.747,90.593 212.709 C 89.686 210.161,88.449 204.218,88.259 201.500 C 88.211 200.813,88.133 199.688,88.085 199.000 C 87.772 194.486,89.226 186.204,91.182 181.360 C 91.651 180.200,92.208 178.800,92.421 178.250 C 92.634 177.700,93.164 176.612,93.599 175.833 C 94.034 175.054,94.583 174.037,94.820 173.573 C 95.710 171.828,99.768 166.060,101.145 164.583 C 101.487 164.217,102.073 163.542,102.448 163.083 C 103.275 162.072,107.760 157.522,108.298 157.150 C 108.510 157.003,109.062 156.515,109.525 156.066 C 110.408 155.209,111.540 154.294,114.167 152.312 C 117.541 149.765,120.002 148.093,122.917 146.366 C 123.925 145.769,124.787 145.234,124.833 145.178 C 125.024 144.945,125.840 144.500,126.077 144.500 C 126.218 144.500,126.333 144.425,126.333 144.333 C 126.333 144.242,126.396 144.185,126.473 144.208 C 126.597 144.245,127.616 143.710,130.000 142.356 C 130.412 142.121,130.844 141.915,130.960 141.896 C 131.075 141.878,132.163 141.361,133.377 140.748 C 134.590 140.136,135.883 139.536,136.250 139.416 C 136.617 139.296,137.929 138.752,139.167 138.206 C 140.404 137.661,141.604 137.159,141.833 137.092 C 142.063 137.024,143.750 136.419,145.583 135.747 C 147.417 135.075,149.704 134.290,150.667 134.004 C 157.630 131.929,162.667 130.627,162.667 130.902 M301.583 144.198 C 302.777 144.673,305.166 145.695,306.971 146.503 C 307.826 146.887,308.614 147.216,308.721 147.236 C 308.829 147.256,309.909 147.773,311.123 148.386 C 312.336 148.999,313.401 149.500,313.489 149.500 C 313.577 149.500,314.084 149.752,314.616 150.060 C 315.148 150.368,316.542 151.119,317.715 151.728 C 318.887 152.338,320.124 153.011,320.465 153.223 C 320.805 153.435,321.683 153.931,322.417 154.324 C 323.150 154.718,324.368 155.446,325.123 155.941 C 325.878 156.437,326.628 156.891,326.790 156.951 C 326.951 157.011,327.796 157.555,328.667 158.160 C 329.537 158.765,330.550 159.444,330.917 159.669 C 331.593 160.083,331.804 160.240,332.732 161.017 C 333.017 161.256,333.550 161.640,333.917 161.871 C 334.677 162.350,336.410 163.752,338.559 165.629 C 339.370 166.337,340.100 166.941,340.181 166.971 C 340.805 167.203,346.921 173.936,348.143 175.735 C 348.484 176.239,348.969 176.881,349.220 177.162 C 349.471 177.444,349.839 177.991,350.037 178.379 C 350.236 178.766,350.525 179.271,350.679 179.500 C 351.259 180.364,352.485 182.525,352.597 182.880 C 352.660 183.084,352.917 183.700,353.168 184.250 C 356.838 192.309,356.975 201.717,353.542 209.997 C 353.030 211.232,352.611 212.338,352.611 212.455 C 352.611 212.571,352.561 212.667,352.499 212.667 C 352.437 212.667,352.294 212.873,352.181 213.125 C 352.068 213.377,351.569 214.268,351.071 215.105 C 350.574 215.942,350.167 216.671,350.167 216.726 C 350.167 216.781,349.698 217.473,349.125 218.264 C 348.552 219.055,347.846 220.045,347.557 220.463 C 347.267 220.881,346.677 221.624,346.246 222.113 C 345.814 222.603,345.254 223.284,345.001 223.627 C 344.494 224.314,339.373 229.498,339.195 229.504 C 339.134 229.506,338.483 230.067,337.750 230.752 C 337.017 231.436,336.359 231.997,336.288 231.998 C 336.217 231.999,335.842 232.288,335.455 232.641 C 335.067 232.993,333.850 233.940,332.750 234.744 C 331.650 235.549,330.544 236.400,330.292 236.635 C 330.040 236.870,329.833 237.007,329.833 236.939 C 329.833 236.871,329.157 237.288,328.331 237.866 C 327.505 238.444,326.624 239.030,326.373 239.169 C 326.122 239.308,325.054 239.955,324.000 240.607 C 322.946 241.260,321.746 241.962,321.333 242.169 C 320.921 242.375,320.396 242.675,320.167 242.836 C 319.938 242.997,318.325 243.860,316.583 244.755 C 314.842 245.649,313.362 246.464,313.294 246.565 C 313.227 246.667,313.171 246.679,313.169 246.592 C 313.168 246.505,313.077 246.523,312.967 246.633 C 312.857 246.743,312.676 246.833,312.564 246.833 C 312.453 246.833,311.212 247.395,309.806 248.082 C 308.400 248.769,307.163 249.331,307.057 249.332 C 306.896 249.333,305.003 250.144,302.567 251.256 C 302.283 251.386,301.420 251.709,300.650 251.975 C 299.880 252.240,298.837 252.623,298.333 252.824 C 297.052 253.336,297.425 253.043,299.799 251.671 C 300.926 251.020,302.328 250.172,302.914 249.786 C 303.500 249.399,304.537 248.723,305.219 248.282 C 305.900 247.841,306.599 247.354,306.771 247.199 C 306.943 247.044,307.271 246.820,307.500 246.702 C 307.729 246.584,308.434 246.097,309.067 245.619 C 309.700 245.141,310.650 244.450,311.180 244.083 C 311.709 243.717,312.428 243.151,312.779 242.826 C 313.130 242.501,313.678 242.051,313.997 241.826 C 318.136 238.909,328.250 228.491,329.869 225.477 C 330.026 225.184,330.298 224.779,330.475 224.576 C 330.869 224.123,332.500 221.717,332.500 221.589 C 332.500 221.538,332.913 220.829,333.417 220.014 C 333.922 219.198,334.625 217.905,334.980 217.141 C 335.335 216.376,335.922 215.112,336.285 214.333 C 336.948 212.909,337.071 212.570,337.980 209.667 C 340.587 201.343,340.703 193.506,338.332 185.917 C 338.045 185.000,337.676 183.800,337.512 183.250 C 336.979 181.471,334.725 176.771,333.435 174.748 C 332.967 174.013,332.471 173.209,332.333 172.961 C 331.942 172.256,329.034 168.269,328.427 167.606 C 328.127 167.278,327.580 166.614,327.211 166.130 C 326.552 165.265,321.850 160.464,319.900 158.667 C 317.260 156.232,310.783 151.132,308.260 149.500 C 307.764 149.179,306.888 148.585,306.314 148.181 C 305.740 147.776,305.175 147.444,305.059 147.444 C 304.943 147.444,304.887 147.382,304.934 147.306 C 304.981 147.229,304.950 147.167,304.865 147.167 C 304.780 147.167,303.969 146.671,303.063 146.065 C 302.158 145.459,301.079 144.807,300.667 144.616 C 300.254 144.425,299.879 144.217,299.833 144.154 C 299.787 144.092,299.169 143.688,298.458 143.258 C 296.751 142.223,296.825 142.201,298.958 143.107 C 299.944 143.525,301.125 144.016,301.583 144.198 M103.000 143.308 C 102.313 143.751,101.375 144.321,100.917 144.573 C 100.458 144.825,99.371 145.496,98.500 146.064 C 97.629 146.633,96.567 147.319,96.141 147.590 C 94.756 148.470,91.775 150.531,90.750 151.317 C 90.200 151.739,89.450 152.289,89.083 152.540 C 88.717 152.790,88.125 153.264,87.769 153.593 C 87.413 153.922,86.851 154.364,86.519 154.575 C 86.188 154.786,85.722 155.141,85.483 155.365 C 85.245 155.588,84.476 156.240,83.774 156.814 C 81.962 158.295,76.171 163.985,74.767 165.666 C 74.116 166.445,73.457 167.208,73.303 167.363 C 73.149 167.518,72.889 167.856,72.725 168.114 C 72.562 168.372,72.002 169.108,71.481 169.750 C 70.959 170.392,70.394 171.154,70.225 171.443 C 70.055 171.732,69.499 172.595,68.988 173.360 C 68.477 174.124,67.822 175.217,67.534 175.788 C 67.245 176.359,66.832 177.109,66.616 177.455 C 65.348 179.486,63.071 185.598,62.595 188.250 C 62.447 189.075,62.198 190.425,62.042 191.250 C 61.544 193.890,61.639 200.919,62.215 204.000 C 62.464 205.329,62.710 206.679,62.764 207.000 C 62.876 207.679,64.146 211.671,64.328 211.917 C 64.396 212.008,64.692 212.758,64.986 213.583 C 65.612 215.340,68.060 220.123,69.105 221.632 C 69.505 222.209,69.957 222.922,70.108 223.215 C 70.260 223.509,70.586 224.012,70.832 224.333 C 71.077 224.654,71.922 225.779,72.708 226.833 C 73.495 227.887,74.407 229.008,74.736 229.324 C 75.064 229.640,75.333 229.981,75.333 230.083 C 75.333 230.184,75.844 230.788,76.467 231.425 C 77.091 232.062,77.888 232.940,78.238 233.375 C 78.587 233.810,78.958 234.170,79.062 234.173 C 79.165 234.176,79.512 234.521,79.833 234.939 C 80.154 235.357,80.923 236.108,81.542 236.607 C 82.160 237.106,82.667 237.577,82.667 237.655 C 82.667 237.732,83.190 238.224,83.830 238.747 C 84.469 239.270,85.313 239.998,85.705 240.363 C 86.096 240.729,86.717 241.228,87.083 241.472 C 87.450 241.716,87.849 242.048,87.970 242.210 C 88.091 242.373,88.259 242.462,88.345 242.410 C 88.430 242.357,88.500 242.393,88.500 242.491 C 88.500 242.792,93.845 246.693,97.083 248.755 C 97.908 249.281,99.199 250.114,99.952 250.607 C 100.705 251.100,101.499 251.571,101.715 251.653 C 102.155 251.821,104.393 253.263,104.000 253.126 C 103.862 253.078,103.058 252.768,102.212 252.436 C 101.366 252.105,100.527 251.833,100.347 251.833 C 100.167 251.833,99.980 251.769,99.932 251.691 C 99.884 251.613,99.486 251.415,99.047 251.251 C 98.609 251.087,97.627 250.665,96.866 250.313 C 96.105 249.962,95.162 249.565,94.770 249.432 C 94.378 249.299,92.967 248.668,91.634 248.030 C 90.302 247.392,89.056 246.821,88.866 246.760 C 88.676 246.700,87.747 246.230,86.802 245.715 C 85.857 245.201,84.700 244.610,84.231 244.402 C 83.763 244.195,82.900 243.733,82.315 243.376 C 81.729 243.020,80.650 242.404,79.917 242.008 C 79.183 241.613,77.959 240.883,77.197 240.386 C 76.434 239.889,75.635 239.416,75.421 239.335 C 75.207 239.254,74.982 239.106,74.921 239.008 C 74.860 238.909,74.740 238.871,74.655 238.924 C 74.570 238.977,74.500 238.951,74.500 238.868 C 74.500 238.785,73.619 238.128,72.542 237.408 C 71.465 236.688,70.187 235.777,69.702 235.383 C 69.217 234.989,68.531 234.519,68.176 234.338 C 67.821 234.157,67.505 233.938,67.474 233.852 C 67.442 233.765,66.929 233.315,66.333 232.850 C 65.737 232.386,65.137 231.904,65.000 231.779 C 64.862 231.654,64.112 231.004,63.333 230.334 C 61.247 228.539,58.857 226.169,56.948 224.000 C 56.020 222.946,55.219 222.046,55.168 222.000 C 55.117 221.954,54.953 221.723,54.802 221.486 C 54.652 221.249,54.085 220.499,53.542 219.819 C 53.000 219.139,52.507 218.448,52.446 218.282 C 52.386 218.116,52.006 217.516,51.601 216.949 C 47.603 211.335,44.991 202.225,45.496 195.652 C 45.897 190.420,48.808 181.664,50.921 179.328 C 51.056 179.179,51.167 178.975,51.167 178.876 C 51.167 178.776,51.229 178.669,51.305 178.639 C 51.381 178.608,51.913 177.882,52.487 177.025 C 53.061 176.168,53.770 175.193,54.062 174.858 C 54.355 174.524,54.905 173.837,55.286 173.332 C 56.016 172.364,60.520 167.782,62.412 166.083 C 63.726 164.903,64.341 164.412,67.333 162.151 C 68.571 161.216,69.658 160.362,69.750 160.253 C 69.842 160.144,70.292 159.848,70.750 159.595 C 71.208 159.341,71.958 158.852,72.417 158.507 C 72.875 158.161,74.112 157.355,75.167 156.714 C 76.221 156.073,77.432 155.312,77.858 155.024 C 78.283 154.736,78.685 154.500,78.751 154.500 C 78.817 154.500,79.669 154.040,80.644 153.477 C 82.115 152.627,85.382 150.889,87.583 149.784 C 89.535 148.804,93.354 147.000,93.476 147.000 C 93.558 147.000,94.648 146.515,95.898 145.923 C 97.148 145.330,98.489 144.737,98.877 144.604 C 99.265 144.472,99.958 144.215,100.417 144.033 C 101.148 143.743,101.621 143.540,103.500 142.707 C 104.381 142.317,104.202 142.532,103.000 143.308 M119.507 143.300 C 118.353 144.097,115.729 146.066,115.583 146.243 C 115.492 146.355,114.994 146.740,114.478 147.098 C 113.961 147.457,113.095 148.141,112.552 148.619 C 112.010 149.098,111.330 149.660,111.041 149.869 C 108.963 151.377,101.277 158.823,98.910 161.622 C 96.850 164.057,95.472 165.779,95.107 166.373 C 94.911 166.692,94.487 167.302,94.167 167.728 C 93.084 169.168,91.172 172.403,90.067 174.667 C 89.462 175.904,88.796 177.254,88.585 177.667 C 87.457 179.882,85.438 187.002,85.176 189.695 C 85.092 190.550,84.935 192.142,84.826 193.233 C 83.759 203.901,86.494 216.187,91.770 224.423 C 93.349 226.888,94.572 228.696,94.909 229.063 C 95.097 229.267,95.360 229.644,95.495 229.900 C 95.630 230.156,96.161 230.827,96.675 231.391 C 97.189 231.955,97.691 232.564,97.790 232.744 C 98.455 233.954,108.076 243.418,109.289 244.055 C 109.451 244.140,109.883 244.491,110.250 244.835 C 111.069 245.604,114.859 248.509,116.333 249.498 C 116.929 249.898,117.706 250.469,118.059 250.768 C 118.413 251.067,118.953 251.431,119.260 251.577 C 119.566 251.722,120.027 252.017,120.284 252.232 C 120.540 252.446,121.350 253.005,122.083 253.475 C 123.347 254.283,123.449 254.733,122.222 254.084 C 121.011 253.443,117.953 252.176,117.818 252.260 C 117.735 252.311,117.667 252.275,117.667 252.180 C 117.667 252.084,117.460 251.958,117.208 251.898 C 116.956 251.839,115.775 251.318,114.583 250.740 C 113.392 250.162,111.854 249.425,111.167 249.102 C 108.235 247.726,101.552 244.022,100.000 242.915 C 99.587 242.620,98.912 242.193,98.500 241.966 C 97.500 241.414,93.194 238.438,92.437 237.774 C 92.242 237.604,91.746 237.232,91.333 236.949 C 89.827 235.912,85.932 232.543,84.215 230.792 C 83.518 230.081,82.847 229.500,82.724 229.500 C 82.601 229.500,82.500 229.420,82.500 229.321 C 82.500 229.223,81.919 228.525,81.208 227.771 C 79.431 225.884,77.953 224.180,77.575 223.583 C 77.401 223.308,76.872 222.596,76.399 222.000 C 75.926 221.404,75.032 220.092,74.412 219.083 C 73.793 218.075,73.230 217.213,73.162 217.167 C 73.095 217.121,72.703 216.371,72.291 215.500 C 71.880 214.629,71.269 213.339,70.933 212.633 C 67.178 204.734,66.620 195.016,69.453 186.833 C 69.691 186.146,69.905 185.415,69.928 185.209 C 70.000 184.572,72.912 178.828,73.920 177.333 C 74.445 176.554,74.916 175.804,74.966 175.667 C 75.016 175.529,75.500 174.861,76.042 174.181 C 76.585 173.501,77.152 172.751,77.302 172.514 C 77.453 172.277,77.620 172.046,77.675 172.000 C 77.730 171.954,78.567 171.017,79.536 169.917 C 81.710 167.448,85.479 163.802,87.583 162.130 C 87.675 162.057,88.231 161.621,88.818 161.161 C 89.405 160.702,89.968 160.213,90.068 160.076 C 90.168 159.939,90.599 159.622,91.025 159.372 C 91.451 159.121,92.089 158.670,92.442 158.368 C 92.795 158.066,94.057 157.173,95.247 156.383 C 96.437 155.593,97.511 154.846,97.634 154.723 C 97.757 154.600,97.934 154.500,98.029 154.500 C 98.123 154.500,98.924 154.022,99.809 153.437 C 100.693 152.853,101.754 152.204,102.166 151.996 C 102.579 151.788,103.554 151.229,104.333 150.753 C 105.112 150.278,106.425 149.547,107.250 149.129 C 108.075 148.711,109.274 148.061,109.914 147.684 C 110.554 147.308,111.173 147.000,111.288 147.000 C 111.404 147.000,112.305 146.568,113.291 146.041 C 114.277 145.513,115.421 144.942,115.833 144.771 C 116.246 144.600,117.296 144.136,118.167 143.739 C 119.905 142.947,120.120 142.877,119.507 143.300 M283.035 143.980 C 283.650 144.266,284.252 144.500,284.373 144.500 C 284.494 144.500,284.759 144.617,284.963 144.759 C 285.167 144.902,285.334 144.958,285.336 144.884 C 285.337 144.811,285.394 144.833,285.461 144.935 C 285.608 145.158,289.256 147.000,289.550 147.000 C 289.663 147.000,290.017 147.177,290.336 147.393 C 290.656 147.610,291.854 148.272,293.000 148.865 C 294.146 149.458,295.850 150.405,296.786 150.971 C 297.723 151.537,298.553 152.000,298.632 152.000 C 298.711 152.000,299.370 152.398,300.096 152.885 C 300.822 153.371,302.029 154.131,302.776 154.574 C 303.524 155.017,304.612 155.741,305.193 156.183 C 305.774 156.626,306.325 156.992,306.417 156.996 C 306.508 157.001,307.183 157.488,307.917 158.077 C 308.650 158.667,309.438 159.247,309.667 159.367 C 309.896 159.486,310.158 159.667,310.250 159.770 C 310.342 159.872,311.017 160.421,311.750 160.990 C 315.832 164.158,320.745 169.028,323.657 172.792 C 324.242 173.548,324.788 174.167,324.870 174.167 C 324.952 174.167,324.978 174.234,324.927 174.316 C 324.877 174.398,324.958 174.512,325.108 174.570 C 325.258 174.627,325.336 174.720,325.280 174.775 C 325.179 174.876,325.961 176.129,326.513 176.750 C 326.940 177.231,329.842 182.627,330.098 183.417 C 330.217 183.783,330.585 184.796,330.917 185.667 C 333.111 191.431,333.680 199.907,332.249 205.519 C 331.551 208.260,329.602 213.670,329.073 214.333 C 328.964 214.471,328.553 215.221,328.160 216.000 C 327.768 216.779,326.934 218.187,326.307 219.129 C 325.680 220.071,325.167 220.885,325.167 220.938 C 325.167 220.990,324.710 221.601,324.152 222.294 C 323.595 222.988,323.014 223.749,322.863 223.986 C 322.712 224.223,322.508 224.492,322.409 224.583 C 322.311 224.675,321.585 225.500,320.796 226.417 C 319.055 228.440,312.806 234.543,312.583 234.439 C 312.557 234.427,311.912 234.942,311.149 235.583 C 310.387 236.225,309.535 236.890,309.256 237.061 C 308.978 237.232,308.262 237.763,307.667 238.241 C 307.071 238.718,306.351 239.253,306.067 239.430 C 305.784 239.606,304.659 240.341,303.567 241.064 C 299.535 243.734,298.864 244.165,298.561 244.279 C 298.390 244.343,297.332 244.944,296.209 245.614 C 295.087 246.285,294.073 246.833,293.955 246.833 C 293.837 246.833,293.592 246.938,293.410 247.065 C 292.828 247.473,289.354 249.333,289.175 249.333 C 289.081 249.333,287.950 249.854,286.662 250.491 C 285.374 251.127,284.155 251.698,283.952 251.759 C 283.749 251.820,282.361 252.393,280.868 253.032 C 277.019 254.679,276.366 254.847,278.316 253.689 C 278.948 253.313,279.642 252.849,279.858 252.658 C 280.073 252.467,280.754 251.997,281.370 251.614 C 282.882 250.673,286.786 247.855,287.327 247.314 C 287.566 247.075,287.986 246.763,288.259 246.622 C 288.533 246.480,289.209 245.960,289.763 245.466 C 290.317 244.972,291.028 244.390,291.343 244.172 C 291.659 243.954,292.375 243.357,292.935 242.846 C 296.317 239.760,297.213 238.910,298.747 237.333 C 300.306 235.731,300.972 235.005,303.417 232.243 C 303.875 231.725,304.512 230.910,304.833 230.433 C 305.154 229.955,305.688 229.231,306.020 228.824 C 306.352 228.417,307.057 227.408,307.588 226.583 C 308.118 225.758,308.794 224.708,309.090 224.250 C 309.386 223.792,309.815 223.042,310.045 222.583 C 310.274 222.125,310.817 221.075,311.251 220.250 C 311.686 219.425,312.211 218.300,312.420 217.750 C 312.629 217.200,313.041 216.112,313.335 215.333 C 314.045 213.455,314.998 210.225,314.975 209.776 C 314.965 209.578,315.006 209.154,315.066 208.833 C 315.450 206.767,315.669 205.359,315.858 203.750 C 316.137 201.371,316.145 193.892,315.871 191.917 C 315.167 186.844,314.564 184.152,313.461 181.167 C 313.106 180.204,312.673 179.004,312.500 178.500 C 312.133 177.435,311.029 175.137,310.421 174.173 C 310.189 173.807,310.000 173.411,310.000 173.295 C 310.000 173.067,308.044 169.807,307.821 169.663 C 307.748 169.616,307.616 169.391,307.528 169.163 C 307.137 168.149,301.542 161.013,300.157 159.761 C 299.811 159.449,299.558 159.165,299.593 159.129 C 299.658 159.064,296.291 155.729,293.905 153.497 C 293.168 152.808,291.632 151.471,290.491 150.527 C 289.350 149.583,288.047 148.497,287.596 148.114 C 287.145 147.730,286.583 147.294,286.346 147.143 C 286.110 146.993,285.429 146.452,284.833 145.941 C 284.237 145.430,283.563 144.916,283.333 144.798 C 282.996 144.624,281.338 143.376,281.000 143.040 C 280.954 142.995,281.142 143.071,281.417 143.209 C 281.692 143.347,282.420 143.694,283.035 143.980 M3.074 158.921 C 2.850 159.428,2.667 159.941,2.667 160.062 C 2.667 160.183,2.512 160.724,2.323 161.266 C 1.800 162.763,0.503 168.225,0.457 169.123 C 0.435 169.560,0.359 169.959,0.290 170.011 C 0.065 170.178,-0.046 178.301,0.139 181.083 C 0.433 185.496,2.225 193.817,3.640 197.333 C 4.556 199.611,6.846 203.777,7.488 204.333 C 7.541 204.379,7.691 204.625,7.823 204.880 C 7.954 205.134,8.421 205.772,8.861 206.296 C 9.301 206.821,9.839 207.512,10.057 207.833 C 10.411 208.355,11.448 209.612,13.551 212.067 C 13.935 212.516,15.066 213.903,16.063 215.150 C 17.060 216.397,17.960 217.472,18.063 217.539 C 18.166 217.606,18.190 217.663,18.117 217.664 C 17.976 217.667,18.579 218.530,19.383 219.479 C 19.645 219.788,19.946 220.238,20.052 220.479 C 20.639 221.816,22.200 223.856,22.446 223.609 C 22.508 223.548,22.420 222.317,22.252 220.874 C 21.896 217.816,21.850 213.363,22.155 211.417 C 22.270 210.683,22.392 209.821,22.427 209.500 C 22.507 208.761,22.902 207.345,24.070 203.615 C 24.582 201.983,25.000 200.536,25.000 200.401 C 25.000 200.265,25.523 198.464,26.161 196.399 C 26.800 194.333,27.372 192.367,27.432 192.030 C 27.493 191.693,27.944 189.829,28.435 187.889 C 29.272 184.582,29.946 180.997,29.980 179.667 C 29.988 179.346,30.032 178.896,30.078 178.667 C 30.259 177.759,30.324 177.390,30.416 176.750 C 31.176 171.460,31.388 168.722,31.237 166.125 C 31.104 163.828,30.863 163.577,30.436 165.292 C 29.882 167.516,29.446 168.783,28.530 170.833 C 27.549 173.029,27.237 173.586,25.958 175.435 C 25.523 176.065,25.167 176.712,25.167 176.873 C 25.167 177.035,25.093 177.167,25.002 177.167 C 24.832 177.167,23.743 178.918,22.583 181.059 C 21.292 183.442,20.167 185.662,20.167 185.827 C 20.167 185.919,19.872 186.614,19.512 187.372 C 19.152 188.130,18.592 189.575,18.267 190.583 C 16.087 197.354,15.839 202.726,17.424 208.826 C 17.649 209.692,17.833 210.474,17.833 210.562 C 17.833 211.940,15.274 202.381,15.050 200.167 C 14.894 198.624,13.365 193.237,12.745 192.050 C 12.611 191.793,12.500 191.433,12.498 191.250 C 12.496 191.067,12.000 189.829,11.397 188.500 C 10.793 187.171,10.192 185.793,10.060 185.438 C 9.929 185.083,9.299 183.707,8.660 182.380 C 8.022 181.054,7.500 179.904,7.500 179.826 C 7.500 179.747,7.197 178.986,6.826 178.133 C 3.691 170.919,2.493 163.166,3.772 158.375 C 3.973 157.623,3.477 158.012,3.074 158.921 M395.623 161.208 C 395.920 163.157,395.814 168.250,395.430 170.500 C 394.868 173.791,394.900 173.680,392.749 179.833 C 392.413 180.796,391.776 182.342,391.333 183.269 C 390.891 184.195,390.410 185.305,390.264 185.734 C 390.118 186.163,389.551 187.449,389.003 188.591 C 388.455 189.734,387.884 191.062,387.735 191.543 C 387.587 192.023,387.366 192.642,387.246 192.917 C 386.853 193.812,385.721 197.388,385.452 198.583 C 384.629 202.230,384.405 203.194,383.725 206.000 C 383.315 207.696,382.965 209.320,382.948 209.608 C 382.931 209.897,382.870 210.105,382.813 210.070 C 382.756 210.035,382.671 210.350,382.623 210.771 C 382.576 211.191,382.406 211.658,382.245 211.809 C 382.007 212.033,381.969 212.037,382.038 211.833 C 382.086 211.696,382.216 211.133,382.328 210.583 C 382.440 210.033,382.675 208.936,382.850 208.144 C 383.546 204.992,383.543 199.351,382.843 196.250 C 382.657 195.425,382.464 194.495,382.414 194.183 C 382.295 193.433,381.633 191.760,380.732 189.931 C 380.329 189.114,380.000 188.371,380.000 188.279 C 380.000 188.072,378.182 184.949,377.992 184.830 C 377.916 184.782,377.709 184.407,377.531 183.997 C 377.353 183.586,376.926 182.838,376.582 182.333 C 376.237 181.829,375.393 180.479,374.705 179.333 C 374.017 178.188,373.399 177.213,373.333 177.167 C 373.266 177.121,372.566 175.842,371.779 174.324 C 370.430 171.725,369.804 170.194,368.947 167.396 C 368.747 166.743,368.508 166.199,368.417 166.188 C 368.125 166.150,368.127 171.509,368.419 174.000 C 369.071 179.550,370.503 186.942,371.841 191.667 C 372.217 192.996,372.591 194.445,372.671 194.888 C 372.752 195.331,373.163 196.793,373.585 198.138 C 374.007 199.483,374.525 201.146,374.736 201.833 C 374.948 202.521,375.659 204.699,376.317 206.673 C 377.814 211.164,378.340 218.564,377.564 224.208 C 377.409 225.330,377.606 225.207,378.833 223.413 C 379.429 222.542,380.367 221.219,380.917 220.473 C 381.467 219.727,382.246 218.659,382.649 218.100 C 383.052 217.541,383.746 216.675,384.191 216.175 C 384.636 215.676,385.000 215.182,385.000 215.079 C 385.000 214.976,385.191 214.712,385.425 214.493 C 385.658 214.273,386.687 213.004,387.712 211.672 C 388.736 210.340,389.632 209.175,389.703 209.083 C 391.868 206.294,392.500 205.429,392.500 205.259 C 392.500 205.145,392.658 204.909,392.852 204.734 C 393.206 204.415,394.630 201.720,395.065 200.546 C 395.193 200.200,395.645 199.054,396.069 198.000 C 396.828 196.111,397.461 194.155,397.471 193.667 C 397.474 193.529,397.602 192.967,397.755 192.417 C 397.908 191.867,398.058 191.304,398.088 191.167 C 398.117 191.029,398.257 190.429,398.398 189.833 C 400.158 182.395,399.995 172.728,397.996 166.083 C 397.803 165.442,397.580 164.579,397.501 164.167 C 397.382 163.551,396.964 162.439,395.885 159.875 C 395.544 159.064,395.404 159.776,395.623 161.208 M29.297 195.946 C 29.677 199.557,29.420 202.443,28.176 208.500 C 26.228 217.983,26.262 217.732,26.256 222.667 C 26.246 229.735,27.476 234.555,30.634 239.833 C 31.622 241.485,31.618 241.475,31.137 241.038 C 30.585 240.536,28.081 237.055,25.896 233.750 C 24.261 231.278,23.200 229.823,22.733 229.417 C 22.628 229.325,22.464 229.103,22.369 228.922 C 22.166 228.537,20.436 226.626,18.667 224.833 C 17.979 224.136,16.615 222.745,15.636 221.742 C 14.657 220.738,13.719 219.790,13.553 219.635 C 13.232 219.337,10.862 216.822,8.762 214.552 C 8.068 213.802,7.498 213.127,7.495 213.052 C 7.493 212.978,7.187 212.579,6.817 212.167 C 6.446 211.754,5.675 210.704,5.104 209.833 C 3.327 207.123,2.814 206.238,2.438 205.224 C 1.026 201.416,0.885 200.917,0.393 198.000 L 0.267 197.250 0.145 198.083 C -0.009 199.146,0.011 206.344,0.175 208.750 C 0.364 211.513,0.958 214.097,2.073 217.000 C 2.372 217.779,2.713 218.717,2.830 219.083 C 3.259 220.425,5.303 224.327,6.399 225.896 C 8.788 229.317,9.399 230.066,11.988 232.750 C 14.194 235.037,17.880 238.331,19.083 239.090 C 19.358 239.263,19.916 239.692,20.322 240.042 C 21.126 240.735,24.294 242.953,26.258 244.197 C 26.936 244.626,27.637 245.114,27.816 245.281 C 27.995 245.447,28.579 245.843,29.113 246.160 C 29.647 246.478,30.867 247.254,31.825 247.887 C 32.783 248.519,33.683 249.079,33.825 249.131 C 34.133 249.245,35.381 250.034,35.500 250.190 C 35.699 250.451,38.307 251.971,38.398 251.879 C 38.454 251.823,38.500 251.864,38.500 251.969 C 38.500 252.074,38.781 252.304,39.125 252.479 C 39.469 252.655,40.012 253.030,40.333 253.314 C 40.921 253.833,42.309 254.580,42.441 254.448 C 42.556 254.333,41.883 252.741,41.173 251.446 C 39.452 248.309,37.250 242.444,37.476 241.602 C 37.498 241.520,37.327 240.357,37.096 239.018 C 36.327 234.560,35.501 226.986,34.832 218.257 C 34.591 215.113,33.914 210.485,33.220 207.250 C 32.906 205.783,32.586 204.201,32.509 203.734 C 32.329 202.640,31.676 200.505,30.908 198.500 C 30.575 197.629,30.140 196.472,29.943 195.929 C 29.425 194.506,29.146 194.513,29.297 195.946 M369.950 197.708 C 369.712 198.373,369.140 199.892,368.679 201.083 C 368.218 202.275,367.875 203.344,367.915 203.458 C 367.956 203.573,367.927 203.667,367.850 203.667 C 367.773 203.667,367.668 203.948,367.615 204.292 C 367.508 204.995,367.485 205.094,367.019 206.833 C 366.228 209.784,365.167 217.073,365.167 219.552 C 365.167 220.156,365.059 221.910,364.927 223.450 C 364.794 224.990,364.563 227.713,364.413 229.500 C 363.985 234.588,363.335 239.350,362.477 243.667 C 362.298 244.568,361.080 248.374,360.290 250.500 C 359.851 251.680,358.862 253.697,358.231 254.696 C 357.816 255.354,357.699 256.167,358.019 256.167 C 358.246 256.167,359.637 255.160,360.067 254.685 C 360.238 254.496,360.686 254.192,361.064 254.008 C 361.441 253.824,361.941 253.496,362.174 253.279 C 362.407 253.061,362.913 252.675,363.299 252.420 C 363.685 252.164,364.000 251.903,364.000 251.839 C 364.000 251.775,364.094 251.721,364.208 251.720 C 364.323 251.718,365.193 251.178,366.143 250.520 C 367.092 249.862,368.105 249.202,368.393 249.055 C 368.681 248.907,369.602 248.309,370.441 247.726 C 371.279 247.144,372.018 246.667,372.083 246.667 C 372.148 246.667,373.020 246.104,374.022 245.417 C 375.023 244.729,375.905 244.167,375.982 244.167 C 376.152 244.167,380.295 241.092,381.917 239.763 C 385.895 236.501,390.916 230.951,392.629 227.919 C 392.940 227.369,393.248 226.881,393.313 226.835 C 394.389 226.071,397.544 218.899,398.812 214.333 C 399.841 210.631,400.280 204.728,399.834 200.594 C 399.554 197.988,399.404 197.986,398.938 200.583 C 397.686 207.574,393.915 213.402,384.662 222.650 C 380.927 226.382,378.587 228.975,377.502 230.583 C 377.193 231.042,376.669 231.728,376.338 232.109 C 376.007 232.489,375.590 233.089,375.410 233.442 C 375.230 233.795,374.932 234.245,374.748 234.442 C 374.563 234.639,373.738 235.784,372.914 236.986 C 372.091 238.189,371.038 239.723,370.575 240.396 C 370.112 241.070,369.448 241.949,369.099 242.352 L 368.465 243.083 368.847 242.417 C 369.057 242.050,369.402 241.489,369.614 241.170 C 369.826 240.850,370.000 240.475,370.001 240.336 C 370.001 240.197,370.162 239.821,370.357 239.500 C 371.925 236.932,373.391 231.431,373.754 226.750 C 373.971 223.954,373.336 218.740,371.826 210.917 C 370.705 205.104,370.589 204.095,370.586 200.125 C 370.583 196.085,370.561 196.001,369.950 197.708 M37.833 221.963 C 37.833 222.034,38.161 222.841,38.562 223.755 C 40.208 227.509,41.140 231.784,42.939 243.833 C 43.485 247.494,45.170 253.227,46.372 255.517 C 46.763 256.262,47.271 257.227,47.500 257.661 C 48.202 258.992,50.357 261.995,51.500 263.237 C 53.031 264.901,54.540 266.424,54.833 266.604 C 55.125 266.782,56.665 268.425,56.417 268.293 C 55.538 267.825,52.564 265.925,52.427 265.744 C 52.329 265.615,51.827 265.189,51.309 264.797 C 50.792 264.404,49.967 263.736,49.476 263.311 C 48.486 262.455,43.915 259.333,43.651 259.333 C 43.559 259.333,43.056 259.059,42.534 258.723 C 41.481 258.047,34.186 254.333,33.911 254.333 C 33.732 254.333,31.854 253.391,30.056 252.400 C 29.491 252.088,28.928 251.833,28.804 251.833 C 28.680 251.833,28.054 251.526,27.414 251.151 C 26.774 250.775,25.564 250.103,24.726 249.656 C 19.547 246.898,14.616 242.661,11.742 238.500 C 11.203 237.721,10.714 237.046,10.654 237.000 C 10.594 236.954,10.161 236.110,9.692 235.125 C 8.811 233.275,8.373 232.819,8.572 233.958 C 8.733 234.878,9.845 238.889,9.993 239.083 C 10.063 239.175,10.164 239.533,10.217 239.879 C 10.307 240.465,12.871 245.900,13.496 246.831 C 13.651 247.061,14.422 248.225,15.209 249.417 C 15.996 250.608,16.871 251.804,17.154 252.073 C 17.436 252.342,17.667 252.643,17.667 252.742 C 17.667 253.299,25.087 260.663,26.583 261.591 C 26.858 261.762,27.365 262.149,27.710 262.452 C 28.427 263.081,33.134 266.226,34.502 266.989 C 35.888 267.762,38.821 269.167,39.049 269.167 C 39.159 269.167,40.000 269.436,40.917 269.764 C 42.922 270.483,46.671 271.464,48.167 271.662 C 48.762 271.741,51.800 272.265,54.917 272.826 C 58.033 273.387,61.408 273.992,62.417 274.169 C 64.106 274.466,66.929 275.207,68.053 275.649 C 69.004 276.023,69.124 275.716,68.292 275.035 C 65.657 272.879,61.905 268.256,60.417 265.333 C 60.254 265.012,60.037 264.695,59.935 264.628 C 59.833 264.560,59.807 264.504,59.876 264.503 C 59.946 264.501,59.602 263.694,59.111 262.708 C 58.621 261.723,58.060 260.504,57.865 260.000 C 56.367 256.126,55.269 253.104,54.988 252.078 C 54.805 251.411,54.314 249.940,53.897 248.808 C 53.480 247.676,52.839 245.854,52.472 244.758 C 51.723 242.520,49.651 238.126,48.357 236.029 C 47.885 235.266,47.500 234.605,47.500 234.559 C 47.500 234.409,45.961 232.092,45.746 231.919 C 45.631 231.826,45.352 231.412,45.125 231.000 C 44.731 230.283,41.565 225.987,40.397 224.585 C 40.091 224.217,39.461 223.448,38.998 222.875 C 38.231 221.928,37.833 221.616,37.833 221.963 M361.167 224.126 C 360.754 224.561,360.209 225.223,359.955 225.598 C 359.701 225.972,359.153 226.677,358.737 227.163 C 358.322 227.650,357.825 228.356,357.633 228.732 C 357.442 229.108,357.191 229.491,357.077 229.583 C 356.843 229.771,355.167 232.119,355.167 232.258 C 355.167 232.360,353.891 234.093,353.480 234.549 C 353.332 234.714,353.070 235.127,352.897 235.466 C 352.725 235.806,352.388 236.383,352.150 236.750 C 351.630 237.551,350.167 240.339,350.167 240.530 C 350.167 240.604,349.917 241.209,349.612 241.874 C 348.960 243.296,347.897 246.036,347.268 247.917 C 347.023 248.650,346.457 250.338,346.010 251.667 C 345.563 252.996,345.007 254.683,344.773 255.417 C 344.539 256.150,344.000 257.650,343.574 258.750 C 343.148 259.850,342.741 260.975,342.670 261.250 C 342.357 262.455,339.658 267.906,338.585 269.500 C 338.123 270.188,337.636 270.962,337.504 271.220 C 337.372 271.479,337.107 271.854,336.915 272.053 C 336.723 272.253,336.108 272.984,335.548 273.677 C 334.988 274.370,333.914 275.517,333.161 276.225 C 331.575 277.717,331.570 277.840,333.114 277.316 C 333.739 277.104,334.287 276.921,334.333 276.910 C 334.379 276.900,334.717 276.832,335.083 276.760 C 335.450 276.688,336.762 276.379,338.000 276.074 C 340.102 275.556,343.053 274.958,349.905 273.660 C 352.734 273.124,355.858 272.388,357.417 271.891 C 359.374 271.266,359.850 271.077,361.750 270.169 C 362.850 269.643,363.882 269.167,364.043 269.111 C 364.553 268.934,367.443 267.186,367.663 266.921 C 367.779 266.781,367.983 266.667,368.115 266.667 C 368.330 266.667,369.786 265.767,370.000 265.502 C 370.046 265.445,370.571 265.066,371.167 264.660 C 375.739 261.540,383.413 253.638,385.082 250.333 C 385.244 250.012,385.626 249.407,385.932 248.987 C 386.780 247.820,388.728 243.826,389.543 241.583 C 390.427 239.150,391.402 234.500,391.029 234.500 C 390.846 234.500,390.167 235.875,390.167 236.246 C 390.167 236.593,386.771 241.537,385.928 242.417 C 382.547 245.946,381.690 246.705,378.850 248.682 C 377.186 249.840,374.306 251.622,373.767 251.827 C 373.505 251.927,373.079 252.158,372.822 252.341 C 372.565 252.525,369.931 253.901,366.969 255.401 C 359.346 259.260,358.351 259.787,355.917 261.246 C 352.812 263.107,349.704 265.435,346.899 268.000 C 346.148 268.688,345.131 269.466,344.641 269.730 L 343.750 270.210 345.250 268.728 C 347.959 266.052,351.443 261.703,352.500 259.679 C 353.861 257.074,354.999 254.717,354.999 254.500 C 355.000 254.362,355.255 253.463,355.567 252.500 C 356.531 249.521,357.055 246.869,357.758 241.417 C 358.146 238.410,358.916 233.935,359.422 231.750 C 359.655 230.742,359.917 229.559,360.003 229.122 C 360.183 228.208,361.543 224.650,361.916 224.117 C 362.611 223.125,362.111 223.131,361.167 224.126 M164.417 230.265 C 163.109 230.453,161.471 230.926,160.363 231.437 C 159.692 231.747,159.061 232.000,158.961 232.000 C 157.878 232.000,155.372 235.868,155.130 237.913 C 154.292 244.992,158.050 248.950,165.777 249.128 C 171.190 249.253,174.241 247.859,176.006 244.454 C 176.707 243.102,176.780 243.177,174.129 242.523 C 171.445 241.861,171.596 241.844,171.080 242.875 C 170.839 243.356,170.497 243.906,170.319 244.096 C 170.142 244.286,170.035 244.492,170.082 244.554 C 170.128 244.616,170.119 244.631,170.060 244.588 C 170.002 244.545,169.738 244.664,169.474 244.852 C 166.211 247.176,160.975 245.199,160.410 241.431 C 159.847 237.676,161.013 235.040,163.638 234.135 C 166.709 233.076,170.582 234.192,171.108 236.287 C 171.230 236.776,171.440 236.772,174.242 236.230 C 176.685 235.758,176.651 235.783,176.178 234.856 C 174.488 231.544,169.388 229.553,164.417 230.265 M212.088 230.352 C 208.199 230.919,205.777 232.862,205.777 235.417 C 205.777 238.475,208.661 240.238,215.583 241.408 C 219.427 242.057,220.621 242.954,219.515 244.359 C 217.383 247.070,210.729 245.955,210.052 242.773 C 209.952 242.301,209.940 242.297,209.017 242.395 C 208.504 242.450,207.381 242.545,206.524 242.606 L 204.964 242.717 205.076 243.564 C 205.211 244.583,206.071 246.263,206.651 246.642 C 206.882 246.793,207.261 247.093,207.494 247.309 C 210.518 250.116,219.979 249.907,223.396 246.957 C 224.800 245.745,225.631 242.655,224.782 241.806 C 224.658 241.682,224.584 241.498,224.617 241.398 C 224.698 241.155,223.177 239.474,222.984 239.593 C 222.901 239.644,222.833 239.615,222.833 239.528 C 222.833 239.042,219.804 238.051,216.167 237.348 C 212.819 236.700,211.779 236.392,211.231 235.885 C 209.524 234.303,213.842 232.890,217.184 233.937 C 218.064 234.212,218.540 234.656,218.911 235.544 C 219.208 236.255,219.377 236.278,222.708 236.057 L 224.333 235.950 224.333 235.418 C 224.333 231.836,218.492 229.420,212.088 230.352 M180.167 240.000 L 180.167 249.167 182.750 249.167 L 185.333 249.167 185.333 243.427 L 185.333 237.688 186.542 239.000 C 187.206 239.722,188.350 240.995,189.083 241.830 C 189.817 242.664,190.819 243.775,191.312 244.299 C 191.804 244.822,192.404 245.512,192.645 245.833 C 192.886 246.154,193.470 246.829,193.944 247.333 C 194.417 247.838,194.966 248.456,195.164 248.708 L 195.524 249.167 198.345 249.167 L 201.167 249.167 201.167 240.000 L 201.167 230.833 198.583 230.833 L 196.000 230.833 196.000 236.679 L 196.000 242.525 195.509 242.138 C 195.239 241.924,195.014 241.671,195.009 241.574 C 195.004 241.477,194.473 240.840,193.830 240.157 C 193.186 239.475,192.535 238.729,192.382 238.500 C 192.229 238.271,191.612 237.545,191.011 236.886 C 190.409 236.228,189.354 235.043,188.667 234.255 C 187.979 233.466,187.005 232.373,186.501 231.827 L 185.585 230.833 182.876 230.833 L 180.167 230.833 180.167 240.000 M236.263 231.208 C 236.129 231.415,235.784 232.108,235.498 232.750 C 235.211 233.392,234.909 234.029,234.827 234.167 C 234.361 234.952,232.827 237.923,232.732 238.226 C 232.671 238.422,232.068 239.609,231.393 240.863 C 230.719 242.116,230.167 243.224,230.167 243.324 C 230.167 243.424,229.642 244.478,229.000 245.666 C 228.359 246.855,227.729 248.130,227.602 248.501 L 227.369 249.175 229.976 249.129 L 232.583 249.083 233.578 247.125 L 234.573 245.167 239.107 245.167 L 243.640 245.167 244.381 246.542 C 244.789 247.298,245.169 248.104,245.227 248.333 C 245.438 249.181,245.428 249.178,248.385 249.129 L 251.161 249.083 246.985 241.000 C 244.688 236.554,242.739 232.892,242.654 232.861 C 242.569 232.831,242.500 232.701,242.500 232.574 C 242.500 232.446,242.335 232.003,242.133 231.588 L 241.767 230.833 239.137 230.833 C 236.594 230.833,236.500 230.846,236.263 231.208 M239.649 236.739 C 239.934 237.330,240.167 237.878,240.167 237.958 C 240.167 238.209,241.875 241.577,242.068 241.706 C 242.168 241.773,240.881 241.829,239.208 241.831 C 237.535 241.832,236.167 241.786,236.167 241.727 C 236.167 241.669,236.458 241.013,236.814 240.269 C 237.170 239.525,237.807 238.185,238.229 237.292 C 239.141 235.364,239.010 235.415,239.649 236.739 M56.833 250.195 C 56.833 250.303,56.935 250.509,57.060 250.654 C 57.577 251.253,59.847 255.050,60.753 256.833 C 61.289 257.887,62.397 260.063,63.215 261.667 C 64.033 263.271,64.891 264.958,65.121 265.417 C 65.759 266.687,67.195 269.000,67.345 269.000 C 67.418 269.000,67.531 269.169,67.596 269.375 C 68.041 270.791,72.572 275.561,74.302 276.436 C 74.640 276.607,75.035 276.842,75.180 276.957 C 76.297 277.848,79.461 279.113,82.369 279.831 C 87.964 281.213,85.754 281.345,79.583 279.997 C 78.300 279.717,76.575 279.418,75.750 279.334 C 74.925 279.250,73.418 279.067,72.401 278.928 C 71.385 278.789,67.372 278.445,63.485 278.164 C 59.597 277.883,55.142 277.503,53.583 277.319 C 52.025 277.135,50.117 276.911,49.344 276.820 C 47.611 276.618,44.608 275.870,42.313 275.069 C 41.362 274.737,40.471 274.448,40.333 274.425 C 38.421 274.118,33.135 270.666,30.296 267.870 C 29.588 267.173,28.958 266.653,28.897 266.714 C 28.712 266.900,30.946 270.667,31.835 271.667 C 32.039 271.896,32.382 272.359,32.597 272.695 C 32.812 273.031,33.478 273.812,34.077 274.429 C 34.676 275.046,35.167 275.606,35.167 275.672 C 35.167 275.738,35.670 276.233,36.286 276.771 C 36.902 277.310,37.740 278.069,38.149 278.458 C 38.558 278.848,38.973 279.168,39.071 279.169 C 39.170 279.170,39.585 279.482,39.995 279.862 C 40.791 280.602,42.858 282.000,43.154 282.000 C 43.253 282.000,43.333 282.059,43.333 282.131 C 43.333 282.301,46.388 284.167,46.665 284.167 C 46.781 284.167,47.260 284.384,47.730 284.650 C 48.896 285.310,51.630 286.453,52.521 286.653 C 52.922 286.743,53.813 287.007,54.501 287.241 C 61.949 289.771,75.846 288.995,87.250 285.412 C 87.617 285.297,88.817 284.974,89.917 284.695 C 91.017 284.415,93.236 283.847,94.849 283.432 C 96.462 283.016,98.750 282.558,99.933 282.414 C 103.808 281.941,104.025 281.768,101.500 281.166 C 100.629 280.958,99.054 280.528,98.000 280.210 C 96.946 279.892,95.577 279.489,94.958 279.315 C 93.446 278.890,87.664 276.282,87.528 275.964 C 87.497 275.892,87.372 275.833,87.250 275.833 C 87.128 275.833,87.003 275.768,86.972 275.687 C 86.942 275.607,86.392 275.203,85.750 274.789 C 83.617 273.412,79.746 269.969,75.500 265.670 C 74.657 264.817,70.795 261.198,67.491 258.167 C 66.742 257.479,66.006 256.849,65.856 256.767 C 65.706 256.685,65.171 256.229,64.667 255.755 C 64.162 255.281,63.525 254.752,63.250 254.579 C 62.975 254.407,62.450 253.998,62.083 253.671 C 61.245 252.922,59.822 251.900,59.716 251.969 C 59.672 251.998,59.549 251.914,59.443 251.781 C 58.861 251.055,56.833 249.822,56.833 250.195 M342.833 252.023 C 342.292 252.353,340.355 253.784,340.167 253.994 C 340.121 254.045,339.783 254.282,339.417 254.521 C 339.050 254.760,338.412 255.272,338.000 255.660 C 337.587 256.048,337.057 256.489,336.821 256.641 C 335.772 257.315,329.520 263.172,323.250 269.353 C 317.690 274.834,316.528 275.894,314.917 276.951 C 314.275 277.372,313.375 277.962,312.917 278.261 C 312.120 278.782,308.414 280.547,306.833 281.157 C 306.421 281.317,305.933 281.508,305.750 281.583 C 305.567 281.657,305.230 281.749,305.002 281.787 C 304.775 281.824,303.462 282.180,302.086 282.576 C 300.709 282.973,299.150 283.393,298.620 283.510 C 297.342 283.791,297.490 284.055,299.014 284.207 C 301.242 284.429,306.953 285.648,315.250 287.671 C 317.450 288.208,319.700 288.725,320.250 288.821 C 320.800 288.917,322.262 289.184,323.500 289.413 C 334.379 291.432,342.827 290.769,350.308 287.310 C 351.074 286.956,351.771 286.667,351.858 286.667 C 352.086 286.667,352.864 286.257,354.667 285.189 C 355.537 284.673,356.452 284.138,356.699 284.000 C 357.455 283.579,359.385 282.205,359.958 281.681 C 360.256 281.409,360.500 281.225,360.500 281.273 C 360.500 281.411,361.769 280.372,362.546 279.596 C 362.933 279.210,363.394 278.814,363.571 278.716 C 364.036 278.457,367.500 274.636,367.500 274.381 C 367.500 274.263,367.567 274.167,367.648 274.167 C 367.971 274.167,371.500 268.449,371.500 267.927 C 371.500 267.621,370.960 267.924,370.556 268.459 C 368.370 271.349,362.186 275.450,358.333 276.563 C 351.199 278.624,349.368 278.932,340.333 279.593 C 336.127 279.900,330.968 280.407,328.500 280.754 C 326.868 280.984,325.359 281.239,319.667 282.245 C 317.365 282.652,315.564 282.881,315.695 282.749 C 315.842 282.603,318.965 281.521,319.036 281.592 C 319.468 282.024,326.410 278.590,327.687 277.313 C 327.853 277.147,328.272 276.829,328.619 276.607 C 329.253 276.200,332.289 272.941,332.205 272.758 C 332.180 272.704,332.235 272.568,332.327 272.455 C 332.954 271.688,333.344 271.155,333.754 270.500 C 334.428 269.424,337.082 264.162,337.473 263.126 C 337.655 262.644,338.298 261.282,338.902 260.100 C 339.506 258.917,340.000 257.876,340.000 257.786 C 340.000 257.696,340.469 256.844,341.042 255.892 C 341.615 254.940,342.233 253.911,342.417 253.606 C 342.600 253.301,342.956 252.782,343.208 252.454 C 343.901 251.550,343.800 251.435,342.833 252.023 M117.917 281.262 C 112.283 281.797,109.577 282.302,105.500 283.581 C 104.263 283.970,102.912 284.380,102.500 284.493 C 102.087 284.607,100.662 285.135,99.333 285.667 C 98.004 286.199,96.729 286.689,96.500 286.757 C 96.271 286.825,95.183 287.290,94.083 287.790 C 92.983 288.290,91.555 288.909,90.909 289.165 C 90.263 289.422,88.988 289.983,88.076 290.412 C 80.843 293.812,73.936 295.179,67.333 294.520 C 62.424 294.029,62.595 294.057,60.417 293.419 C 57.308 292.508,53.843 291.001,52.311 289.892 C 51.267 289.137,50.836 289.129,51.352 289.875 C 51.936 290.719,55.636 294.333,55.916 294.333 C 56.054 294.333,56.167 294.398,56.167 294.477 C 56.167 294.653,58.556 296.500,58.783 296.500 C 58.873 296.500,59.352 296.788,59.848 297.140 C 62.902 299.305,68.851 301.714,73.501 302.667 C 80.237 304.049,89.223 302.888,95.879 299.777 C 96.774 299.358,97.544 299.013,97.588 299.010 C 98.018 298.978,103.816 295.503,105.182 294.458 C 105.512 294.206,105.857 294.000,105.949 294.000 C 106.041 294.000,106.834 293.456,107.712 292.792 C 109.656 291.319,112.170 289.528,112.887 289.103 C 113.178 288.930,114.017 288.398,114.750 287.920 C 119.286 284.962,124.224 284.183,129.083 285.660 C 130.367 286.050,132.129 286.552,133.000 286.777 C 133.871 287.001,134.771 287.279,135.000 287.395 C 137.092 288.450,139.553 289.810,140.167 290.248 C 140.579 290.543,141.292 290.999,141.750 291.261 C 142.208 291.523,143.258 292.228,144.083 292.828 C 144.908 293.428,145.883 294.125,146.250 294.377 C 146.617 294.629,147.217 295.103,147.583 295.431 C 147.950 295.760,148.530 296.209,148.872 296.431 C 149.214 296.652,149.964 297.283,150.538 297.832 C 151.113 298.382,151.648 298.832,151.727 298.832 C 151.852 298.833,155.720 302.445,158.497 305.154 C 159.021 305.665,159.531 306.158,159.630 306.250 C 160.135 306.718,162.821 309.548,163.623 310.458 C 164.128 311.031,164.606 311.500,164.685 311.500 C 164.813 311.500,166.358 310.259,167.500 309.239 C 170.644 306.432,170.663 306.371,168.870 304.875 C 168.346 304.437,167.429 303.611,166.833 303.040 C 166.237 302.469,165.685 302.001,165.605 302.001 C 165.526 302.000,165.263 301.787,165.022 301.527 C 164.292 300.739,162.726 299.497,162.609 299.613 C 162.549 299.673,162.500 299.640,162.500 299.541 C 162.500 299.350,159.899 297.230,158.750 296.484 C 158.383 296.245,157.718 295.746,157.272 295.375 C 156.826 295.003,156.076 294.490,155.606 294.235 C 155.135 293.981,154.675 293.683,154.583 293.574 C 154.387 293.341,151.896 291.667,151.745 291.667 C 151.688 291.667,151.104 291.315,150.446 290.886 C 149.788 290.457,148.237 289.546,147.000 288.862 C 141.864 286.022,139.617 285.027,135.667 283.843 C 134.704 283.555,133.129 283.061,132.167 282.745 C 130.412 282.170,129.863 282.066,126.000 281.575 C 123.971 281.317,119.256 281.135,117.917 281.262 M276.583 284.008 C 275.942 284.082,274.679 284.223,273.776 284.322 C 271.796 284.538,269.591 285.080,269.009 285.493 C 268.420 285.912,267.426 286.161,266.769 286.054 C 266.436 286.000,266.024 286.065,265.726 286.219 C 265.455 286.359,264.750 286.636,264.159 286.834 C 263.567 287.032,262.173 287.638,261.061 288.180 C 259.949 288.723,258.984 289.167,258.916 289.167 C 258.849 289.167,258.034 289.590,257.105 290.108 C 256.177 290.626,254.854 291.344,254.167 291.704 C 253.479 292.064,252.804 292.454,252.667 292.570 C 252.529 292.687,251.629 293.253,250.667 293.828 C 249.036 294.802,247.376 295.946,246.863 296.450 C 246.742 296.569,246.568 296.667,246.476 296.667 C 246.233 296.667,241.149 300.519,241.049 300.779 C 241.003 300.899,240.903 300.960,240.827 300.913 C 240.751 300.866,240.591 300.960,240.470 301.122 C 240.349 301.284,239.950 301.620,239.583 301.869 C 239.217 302.118,238.542 302.702,238.083 303.167 C 237.625 303.632,237.063 304.117,236.833 304.244 C 236.604 304.371,235.298 305.576,233.930 306.921 L 231.444 309.368 232.347 310.189 C 232.844 310.640,233.512 311.186,233.833 311.402 C 234.154 311.617,234.864 312.210,235.411 312.718 C 235.958 313.226,236.456 313.610,236.519 313.572 C 236.581 313.533,236.675 313.614,236.727 313.751 C 236.971 314.387,237.604 314.011,238.765 312.542 C 243.142 307.000,250.296 300.326,256.145 296.328 C 256.753 295.913,257.710 295.238,258.271 294.828 C 258.833 294.419,259.508 293.961,259.771 293.811 C 260.035 293.661,260.925 293.107,261.750 292.581 C 262.575 292.055,263.512 291.531,263.833 291.416 C 264.154 291.302,264.679 291.053,265.000 290.864 C 265.321 290.674,266.183 290.360,266.917 290.164 C 268.481 289.748,269.686 289.335,269.908 289.139 C 269.995 289.063,270.258 289.000,270.492 289.000 C 270.725 289.000,271.329 288.840,271.833 288.644 C 273.348 288.056,274.621 287.840,277.250 287.727 C 282.134 287.516,285.004 288.662,291.067 293.245 C 291.608 293.654,292.105 293.955,292.172 293.914 C 292.238 293.872,292.471 294.013,292.688 294.226 C 293.127 294.657,295.598 296.500,295.737 296.500 C 295.785 296.500,296.621 297.025,297.595 297.667 C 298.569 298.308,299.433 298.791,299.516 298.740 C 299.599 298.689,299.667 298.726,299.667 298.823 C 299.667 298.921,299.729 299.000,299.805 299.000 C 299.882 299.000,300.800 299.460,301.847 300.023 C 302.894 300.586,304.313 301.252,305.000 301.504 C 305.688 301.755,306.813 302.185,307.500 302.459 C 314.189 305.124,324.320 305.643,330.667 303.645 C 331.708 303.318,334.744 302.125,334.951 301.963 C 335.061 301.876,335.495 301.702,335.914 301.576 C 336.777 301.316,339.842 299.641,340.163 299.254 C 340.279 299.114,340.483 299.000,340.615 299.000 C 340.823 299.000,342.260 298.118,342.500 297.843 C 342.546 297.791,342.947 297.486,343.392 297.166 C 346.155 295.176,351.514 289.566,349.284 290.999 C 348.816 291.299,344.511 293.667,344.433 293.667 C 344.400 293.667,344.084 293.793,343.729 293.948 C 343.374 294.102,343.034 294.217,342.973 294.203 C 342.912 294.188,342.312 294.364,341.640 294.594 C 332.278 297.792,323.890 297.048,312.187 291.982 C 311.786 291.809,311.357 291.667,311.233 291.667 C 311.109 291.667,310.517 291.442,309.917 291.167 C 309.316 290.892,308.781 290.667,308.727 290.667 C 308.622 290.667,305.528 289.274,304.833 288.915 C 301.124 286.994,293.527 284.704,289.611 284.325 C 288.679 284.235,287.354 284.096,286.667 284.017 C 285.095 283.834,278.140 283.829,276.583 284.008 " stroke="none" fill="#4c04fc" fill-rule="evenodd"></path><path id="path1" d="" stroke="none" fill="#5004fc" fill-rule="evenodd"></path><path id="path2" d="" stroke="none" fill="#5004fc" fill-rule="evenodd"></path></g></svg>