<svg id="svg" version="1.1" xmlns="http://www.w3.org/2000/svg" xmlns:xlink="http://www.w3.org/1999/xlink" width="400" height="337.9807692307692" viewBox="0, 0, 400,337.9807692307692"><g id="svgg"><path id="path0" d="M399.664 10.747 C 399.047 12.665,392.959 20.797,388.094 26.202 C 377.258 38.242,342.823 68.667,332.091 75.684 C 329.976 77.067,327.218 78.869,325.962 79.689 C 305.502 93.050,263.474 114.573,231.130 128.255 C 229.940 128.758,228.932 129.194,228.890 129.225 C 228.456 129.536,235.063 136.921,235.923 137.086 C 238.482 137.575,241.459 138.340,243.810 139.113 L 246.394 139.962 247.740 138.791 C 248.480 138.147,249.507 137.260,250.023 136.819 L 250.962 136.018 250.962 139.043 C 250.962 140.706,251.016 142.067,251.082 142.067 C 251.365 142.067,266.484 135.899,271.875 133.585 C 282.543 129.004,296.735 122.425,302.043 119.599 C 307.948 116.455,309.656 115.606,309.485 115.900 C 305.783 122.221,284.082 140.520,257.411 159.810 L 252.682 163.230 253.792 165.132 L 254.902 167.034 256.718 165.765 C 257.717 165.067,263.185 161.325,268.870 157.450 C 274.555 153.575,280.072 149.806,281.130 149.074 C 282.188 148.342,284.784 146.558,286.899 145.109 C 320.182 122.322,357.345 84.614,378.976 51.683 C 388.593 37.043,400.805 13.058,399.937 10.516 C 399.879 10.346,399.761 10.446,399.664 10.747 M221.154 132.485 C 209.590 137.366,189.653 145.223,175.240 150.579 C 172.478 151.606,171.059 152.249,171.107 152.453 C 171.233 152.991,176.012 165.719,176.294 166.269 L 176.563 166.793 182.813 164.998 C 187.955 163.520,197.636 160.624,200.867 159.598 L 201.614 159.361 201.758 157.024 C 202.236 149.322,206.962 143.431,215.024 140.490 C 215.685 140.249,216.655 139.786,217.179 139.461 C 219.681 137.912,224.037 136.820,228.678 136.578 L 231.755 136.418 229.279 133.362 C 227.917 131.681,226.695 130.306,226.563 130.305 C 226.430 130.305,223.996 131.286,221.154 132.485 M228.646 146.025 C 225.824 146.669,223.495 148.617,222.705 150.996 C 222.189 152.549,222.232 152.570,224.445 151.826 C 230.582 149.765,237.978 147.018,237.813 146.861 C 236.865 145.962,231.193 145.444,228.646 146.025 M147.429 160.491 C 146.643 160.770,146.368 161.017,146.181 161.614 C 146.049 162.035,145.005 165.281,143.861 168.827 C 142.716 172.372,141.839 175.333,141.912 175.406 C 142.024 175.518,153.853 172.701,153.972 172.534 C 154.102 172.351,148.882 160.099,148.681 160.115 C 148.547 160.126,147.984 160.295,147.429 160.491 M134.425 164.911 C 132.535 165.535,130.927 166.108,130.851 166.184 C 130.725 166.310,134.407 173.168,134.855 173.642 C 134.961 173.754,135.108 173.646,135.180 173.402 C 135.253 173.157,135.921 170.919,136.666 168.429 C 137.410 165.939,137.984 163.873,137.940 163.838 C 137.896 163.804,136.314 164.287,134.425 164.911 M248.396 166.223 C 240.703 171.820,213.161 190.408,199.814 199.010 C 195.459 201.816,194.511 202.523,194.735 202.793 C 194.960 203.064,194.866 203.125,194.225 203.125 C 193.146 203.125,166.940 219.934,166.286 221.045 C 166.187 221.213,165.646 221.579,165.084 221.856 C 162.577 223.096,121.943 251.542,112.380 258.752 C 88.032 277.110,61.666 302.557,51.102 317.894 L 50.208 319.193 50.495 322.157 C 50.856 325.879,50.862 325.884,52.545 323.759 C 67.266 305.174,85.976 286.286,104.688 271.122 C 112.900 264.466,112.822 264.522,164.784 228.724 C 171.328 224.215,200.247 204.373,208.173 198.953 C 210.883 197.099,216.887 192.988,221.514 189.816 C 238.157 178.408,246.571 172.655,249.830 170.455 C 253.013 168.307,253.133 168.196,252.810 167.702 C 252.625 167.419,252.123 166.566,251.695 165.805 C 251.266 165.045,250.899 164.428,250.878 164.433 C 250.858 164.439,249.741 165.244,248.396 166.223 M122.716 168.673 C 120.072 169.529,114.880 171.125,111.178 172.218 L 104.447 174.207 104.382 178.931 C 104.326 182.950,104.369 183.654,104.669 183.654 C 106.095 183.654,133.894 177.663,133.894 177.356 C 133.894 176.778,128.212 167.076,127.885 167.095 C 127.686 167.107,125.361 167.817,122.716 168.673 M66.166 187.575 L 60.096 190.022 60.104 193.268 C 60.113 197.366,60.265 197.674,61.966 197.052 C 62.590 196.823,66.157 195.593,69.892 194.319 C 73.627 193.045,76.681 191.936,76.679 191.854 C 76.670 191.417,72.853 185.209,72.571 185.172 C 72.386 185.147,69.504 186.229,66.166 187.575 M44.287 197.094 C 28.069 204.715,12.372 213.724,2.581 221.034 C -0.590 223.401,-0.598 223.317,2.803 223.317 L 5.607 223.317 8.152 221.793 C 11.418 219.837,16.680 216.903,18.990 215.750 C 19.982 215.255,20.959 214.705,21.161 214.528 C 21.926 213.855,34.679 207.945,41.919 204.908 C 44.330 203.897,45.317 203.381,44.944 203.326 C 44.449 203.254,44.697 202.876,47.316 199.705 C 49.832 196.660,50.240 196.047,50.240 195.318 C 50.240 194.219,50.691 194.085,44.287 197.094 " stroke="none" fill="#e9442e" fill-rule="evenodd"></path><path id="path1" d="M189.363 18.675 C 188.277 18.959,188.627 20.736,189.796 20.874 C 190.982 21.014,191.491 19.857,190.625 18.990 C 190.133 18.498,190.086 18.486,189.363 18.675 M221.785 31.773 C 220.602 38.678,221.283 37.983,214.786 38.927 C 211.876 39.350,209.298 39.772,209.058 39.865 C 208.800 39.965,210.974 40.416,214.346 40.962 C 221.432 42.110,220.683 41.413,221.792 47.897 C 222.284 50.772,222.753 53.125,222.833 53.125 C 222.914 53.125,223.346 50.745,223.793 47.836 C 224.778 41.421,223.945 42.155,231.585 40.962 C 238.457 39.889,238.492 39.991,230.889 38.929 C 224.147 37.987,224.823 38.666,223.776 31.791 C 223.327 28.849,222.902 26.442,222.830 26.442 C 222.758 26.442,222.288 28.841,221.785 31.773 M177.489 34.464 C 176.985 34.898,176.827 35.249,176.827 35.938 C 176.827 37.654,179.003 38.646,180.240 37.493 C 182.282 35.592,179.605 32.644,177.489 34.464 M197.201 38.454 C 195.778 39.043,195.479 40.938,196.653 41.926 C 198.122 43.161,199.975 42.296,199.992 40.366 C 200.005 38.976,198.474 37.928,197.201 38.454 M152.243 46.293 C 151.991 46.949,152.795 47.549,153.278 47.065 C 153.770 46.574,153.544 45.913,152.885 45.913 C 152.612 45.913,152.323 46.084,152.243 46.293 M187.258 46.516 C 186.992 46.837,187.003 46.961,187.322 47.281 C 187.837 47.796,188.517 47.510,188.418 46.818 C 188.324 46.160,187.691 45.995,187.258 46.516 M154.654 48.209 C 153.671 49.192,154.305 50.721,155.695 50.721 C 156.426 50.721,157.212 49.912,157.212 49.159 C 157.212 47.742,155.686 47.176,154.654 48.209 M180.627 50.120 C 180.262 50.677,180.262 50.765,180.627 51.322 C 181.324 52.387,182.692 51.988,182.692 50.721 C 182.692 49.454,181.324 49.056,180.627 50.120 M158.654 50.841 C 158.415 51.129,158.415 51.275,158.654 51.563 C 159.249 52.280,160.267 51.731,159.836 50.925 C 159.549 50.388,159.059 50.353,158.654 50.841 M156.490 58.173 C 155.912 58.752,155.902 58.874,156.384 59.562 C 156.858 60.239,157.797 60.252,158.262 59.588 C 159.114 58.371,157.545 57.118,156.490 58.173 M195.590 58.613 C 194.782 59.506,195.242 60.577,196.434 60.577 C 197.534 60.577,197.927 59.466,197.115 58.654 C 196.519 58.057,196.103 58.046,195.590 58.613 M126.082 59.362 C 114.675 61.393,107.982 66.905,105.166 76.586 C 99.135 97.317,108.629 132.266,131.162 172.280 C 132.665 174.949,133.894 177.250,133.894 177.394 C 133.894 177.728,128.364 196.185,128.159 196.538 C 128.074 196.683,126.450 198.197,124.550 199.903 L 121.095 203.005 131.017 203.068 C 136.475 203.102,140.986 203.085,141.042 203.028 C 141.098 202.972,140.238 201.700,139.130 200.201 C 138.023 198.702,137.054 197.368,136.978 197.236 C 136.902 197.103,137.128 195.048,137.480 192.668 L 138.120 188.341 139.364 188.269 L 140.607 188.197 142.613 191.274 C 146.536 197.290,161.964 217.940,164.624 220.733 C 165.670 221.832,165.658 221.832,166.445 220.801 L 167.081 219.966 164.353 216.534 C 157.961 208.489,143.750 189.049,143.750 188.349 C 143.750 188.279,147.312 188.221,151.665 188.221 L 159.580 188.221 160.582 190.805 C 161.134 192.227,161.861 194.129,162.198 195.033 L 162.812 196.677 159.594 199.901 L 156.377 203.125 175.724 203.114 L 195.072 203.103 191.169 199.328 L 187.266 195.553 176.645 167.308 C 170.803 151.773,165.921 138.927,165.795 138.762 C 165.558 138.451,135.817 138.291,135.817 138.601 C 135.817 138.678,137.440 140.472,139.423 142.588 C 141.406 144.703,143.029 146.588,143.029 146.776 C 143.029 147.125,135.491 172.568,135.134 173.424 C 134.916 173.946,134.526 173.303,130.020 164.992 C 106.980 122.505,99.626 84.545,111.500 69.396 C 114.113 66.061,119.663 63.182,125.752 62.002 C 148.450 57.602,178.662 75.916,212.620 114.661 C 213.942 116.169,216.593 119.088,218.510 121.147 C 222.899 125.861,226.170 129.577,229.306 133.413 L 231.763 136.418 228.682 136.578 C 224.037 136.819,219.682 137.911,217.179 139.461 C 216.655 139.786,215.685 140.249,215.024 140.490 C 208.536 142.857,203.788 147.615,202.295 153.245 C 199.059 165.446,204.838 175.032,218.018 179.326 C 219.544 179.823,221.865 180.633,223.175 181.125 L 225.557 182.020 229.545 179.309 C 235.898 174.990,245.994 167.997,246.463 167.590 C 247.718 166.501,239.381 162.607,232.212 160.933 C 223.609 158.925,221.966 157.782,222.200 153.966 C 222.605 147.367,228.705 144.050,236.306 146.297 C 237.943 146.781,238.114 146.883,237.706 147.142 C 237.473 147.290,237.551 147.351,237.981 147.357 C 239.786 147.384,240.429 148.023,243.828 153.168 C 252.517 166.316,259.861 180.003,265.409 193.389 L 266.804 196.755 263.634 199.940 L 260.463 203.125 264.827 203.125 L 269.191 203.125 270.400 206.791 C 288.918 262.921,265.405 289.354,220.138 263.293 C 218.144 262.145,217.985 262.143,217.406 263.264 C 216.937 264.170,216.748 264.005,220.790 266.202 C 255.943 285.305,279.806 274.282,278.765 239.423 C 278.462 229.266,275.207 213.194,271.493 203.516 C 271.358 203.164,271.756 203.125,275.455 203.125 C 277.717 203.125,279.567 203.072,279.567 203.006 C 279.567 202.941,278.594 201.582,277.404 199.987 C 276.214 198.392,275.240 196.974,275.240 196.836 C 275.240 196.610,275.857 194.397,277.190 189.844 L 277.665 188.221 288.422 188.221 L 299.179 188.221 300.784 192.368 L 302.388 196.514 299.271 199.643 C 297.557 201.363,296.154 202.851,296.154 202.948 C 296.154 203.045,305.078 203.125,315.986 203.125 C 327.358 203.125,335.817 203.034,335.817 202.912 C 335.817 202.795,334.109 201.037,332.022 199.006 L 328.226 195.313 316.457 166.893 L 304.688 138.474 300.353 138.468 L 296.019 138.462 293.382 140.468 C 291.932 141.571,289.177 143.538,287.260 144.838 C 285.343 146.138,283.393 147.497,282.928 147.856 C 282.092 148.503,282.000 148.772,274.995 171.116 C 271.098 183.549,267.849 193.647,267.776 193.556 C 267.703 193.464,266.841 191.496,265.860 189.183 C 261.942 179.942,254.765 166.329,248.829 156.879 C 247.407 154.616,246.149 152.602,246.032 152.404 C 245.811 152.027,249.301 155.100,250.097 155.982 C 250.349 156.262,250.647 156.490,250.758 156.490 C 250.870 156.490,250.962 151.884,250.962 146.254 L 250.962 136.018 250.023 136.819 C 249.507 137.260,248.480 138.147,247.740 138.791 L 246.394 139.962 243.810 139.113 C 241.449 138.337,238.440 137.564,235.914 137.086 C 235.012 136.915,234.723 136.642,232.501 133.852 C 229.294 129.826,225.939 125.937,221.788 121.433 C 219.919 119.405,218.290 117.566,218.168 117.346 C 218.047 117.127,216.587 115.381,214.923 113.468 C 181.006 74.446,149.415 55.206,126.082 59.362 M143.132 76.903 C 141.923 84.035,142.696 83.274,135.580 84.333 C 132.413 84.805,129.864 85.232,129.915 85.283 C 129.966 85.334,132.580 85.797,135.725 86.313 C 142.764 87.466,142.014 86.751,143.141 93.389 C 143.900 97.865,144.231 99.483,144.231 98.725 C 144.231 98.420,145.927 87.888,145.980 87.866 C 146.009 87.855,146.210 87.710,146.426 87.546 C 146.642 87.382,149.500 86.817,152.777 86.291 C 156.054 85.765,158.768 85.303,158.807 85.264 C 158.846 85.225,156.208 84.821,152.944 84.367 C 145.361 83.311,146.172 84.064,145.069 77.049 C 144.592 74.011,144.171 71.495,144.134 71.458 C 144.097 71.420,143.646 73.871,143.132 76.903 M219.045 75.250 C 218.003 75.668,217.883 77.106,218.833 77.772 C 220.392 78.863,221.916 76.942,220.564 75.590 C 219.918 74.944,219.846 74.928,219.045 75.250 M125.240 81.250 C 123.964 82.527,125.789 84.473,127.213 83.353 C 127.869 82.838,127.936 82.101,127.391 81.408 C 126.788 80.641,125.913 80.577,125.240 81.250 M129.677 88.571 C 128.973 89.274,128.939 89.669,129.522 90.388 C 130.325 91.381,132.212 90.762,132.212 89.506 C 132.212 89.041,131.125 87.981,130.649 87.981 C 130.439 87.981,130.001 88.246,129.677 88.571 M142.641 106.353 C 142.402 106.977,142.738 107.493,143.328 107.409 C 143.726 107.352,143.870 107.171,143.870 106.731 C 143.870 106.021,142.885 105.719,142.641 106.353 M277.294 140.685 C 278.454 141.908,279.495 142.945,279.607 142.989 C 279.795 143.064,285.337 138.780,285.337 138.560 C 285.337 138.506,283.053 138.462,280.261 138.462 L 275.186 138.462 277.294 140.685 M47.725 142.550 L 50.240 146.398 50.240 171.286 L 50.240 196.174 47.519 199.469 C 46.022 201.282,44.718 202.900,44.620 203.065 C 44.479 203.303,46.555 203.365,54.673 203.365 C 61.452 203.365,64.904 203.283,64.904 203.121 C 64.904 202.986,63.821 201.434,62.498 199.672 L 60.093 196.468 60.155 179.854 L 60.216 163.240 71.736 183.182 L 83.255 203.125 96.796 203.125 C 104.243 203.125,110.337 203.072,110.337 203.007 C 110.337 202.942,108.984 201.412,107.332 199.606 L 104.327 196.323 104.327 170.796 L 104.327 145.269 106.370 142.109 C 107.494 140.371,108.413 138.893,108.413 138.825 C 108.413 138.757,104.627 138.702,100.000 138.702 C 95.373 138.702,91.587 138.761,91.587 138.834 C 91.587 138.906,92.506 139.998,93.630 141.260 L 95.673 143.555 95.673 160.480 C 95.673 169.788,95.633 177.404,95.583 177.404 C 95.534 177.404,90.319 168.696,83.994 158.053 L 72.496 138.702 58.853 138.702 L 45.210 138.702 47.725 142.550 M291.686 167.946 C 294.143 173.916,296.154 178.865,296.154 178.944 C 296.154 179.022,292.546 179.087,288.136 179.087 L 280.119 179.087 283.613 168.033 C 285.535 161.953,287.132 157.004,287.163 157.035 C 287.193 157.066,289.229 161.976,291.686 167.946 M148.864 160.036 C 149.467 161.457,150.950 165.054,152.160 168.029 C 153.370 171.004,154.853 174.627,155.455 176.082 C 156.057 177.536,156.602 178.861,156.666 179.026 C 156.758 179.263,155.065 179.327,148.687 179.327 C 141.093 179.327,140.600 179.301,140.711 178.906 C 141.495 176.127,147.507 157.452,147.618 157.452 C 147.701 157.452,148.261 158.615,148.864 160.036 M240.151 177.031 C 234.668 180.782,230.148 183.954,230.107 184.079 C 230.065 184.205,230.742 184.771,231.612 185.338 C 234.768 187.394,235.448 188.631,234.738 191.023 C 233.201 196.197,226.077 198.012,215.433 195.941 L 213.197 195.506 208.281 198.858 L 203.365 202.211 203.365 205.633 C 203.365 207.515,203.434 209.123,203.517 209.207 C 203.601 209.290,205.143 208.025,206.945 206.394 L 210.220 203.430 212.502 204.116 C 229.100 209.107,243.907 205.630,252.229 194.787 C 256.464 189.268,256.984 180.253,253.408 174.323 C 252.550 172.900,250.483 170.218,250.240 170.213 C 250.174 170.211,245.634 173.280,240.151 177.031 M203.365 192.435 C 203.365 195.751,203.430 196.625,203.666 196.487 C 204.933 195.744,209.415 192.752,209.344 192.696 C 209.295 192.657,207.930 191.631,206.310 190.416 L 203.365 188.206 203.365 192.435 M129.135 208.221 C 128.976 208.380,128.846 208.737,128.846 209.014 C 128.846 209.292,128.976 209.649,129.135 209.808 C 129.293 209.966,129.650 210.096,129.928 210.096 C 130.206 210.096,130.563 209.966,130.721 209.808 C 130.880 209.649,131.010 209.292,131.010 209.014 C 131.010 208.737,130.880 208.380,130.721 208.221 C 130.563 208.063,130.206 207.933,129.928 207.933 C 129.650 207.933,129.293 208.063,129.135 208.221 M310.958 212.285 C 310.897 212.469,310.458 214.946,309.982 217.788 C 308.882 224.355,309.603 223.689,302.462 224.741 C 299.390 225.193,296.919 225.605,296.969 225.655 C 297.019 225.705,299.641 226.178,302.797 226.707 C 305.952 227.235,308.664 227.797,308.824 227.956 C 308.984 228.115,309.511 230.571,309.996 233.413 C 310.480 236.256,310.950 238.663,311.039 238.762 C 311.128 238.861,311.567 236.562,312.014 233.652 C 312.600 229.836,312.936 228.263,313.220 228.005 C 313.470 227.780,315.805 227.300,319.573 226.700 C 322.850 226.178,325.575 225.707,325.629 225.653 C 325.683 225.599,323.103 225.187,319.895 224.738 C 312.313 223.676,313.044 224.353,312.013 217.428 C 311.203 211.989,311.147 211.715,310.958 212.285 M286.959 217.567 C 286.083 218.077,286.596 219.471,287.660 219.471 C 288.704 219.471,288.930 218.056,287.968 217.541 C 287.446 217.262,287.485 217.261,286.959 217.567 M169.550 225.400 L 167.585 226.730 170.110 229.771 C 171.498 231.444,173.128 233.643,173.732 234.658 C 178.022 241.867,188.315 247.398,190.345 243.586 C 192.005 240.469,186.236 233.109,179.447 229.683 C 178.154 229.030,176.141 227.675,174.444 226.315 C 172.882 225.063,171.584 224.045,171.560 224.054 C 171.535 224.063,170.630 224.668,169.550 225.400 M266.707 225.999 C 265.471 226.739,265.241 228.243,266.215 229.218 C 268.062 231.064,270.943 228.483,269.291 226.462 C 268.790 225.848,267.380 225.596,266.707 225.999 M289.773 226.552 C 288.658 227.666,289.344 229.314,290.925 229.323 C 292.443 229.332,293.110 227.400,291.915 226.460 C 291.083 225.805,290.494 225.831,289.773 226.552 M313.479 234.287 C 312.546 235.474,313.284 237.019,314.784 237.019 C 315.648 237.019,316.587 236.143,316.587 235.337 C 316.587 234.530,315.648 233.654,314.784 233.654 C 314.199 233.654,313.840 233.828,313.479 234.287 M254.819 236.165 C 254.237 236.865,254.605 237.620,255.529 237.620 C 256.224 237.620,256.384 237.524,256.449 237.066 C 256.543 236.403,256.112 235.817,255.529 235.817 C 255.297 235.817,254.977 235.974,254.819 236.165 M305.426 238.839 C 304.631 239.634,305.272 241.106,306.412 241.106 C 307.016 241.106,307.692 240.385,307.692 239.742 C 307.692 238.676,306.188 238.077,305.426 238.839 M125.012 239.529 C 124.854 239.719,124.760 240.179,124.802 240.550 C 124.944 241.782,126.923 241.533,126.923 240.283 C 126.923 239.274,125.643 238.768,125.012 239.529 M267.407 239.751 C 267.062 240.651,267.398 241.226,268.269 241.226 C 269.526 241.226,269.581 239.589,268.328 239.468 C 267.803 239.417,267.499 239.510,267.407 239.751 M61.177 240.145 C 60.534 240.855,61.013 241.827,62.006 241.827 C 63.075 241.827,63.571 240.769,62.843 240.041 C 62.330 239.527,61.701 239.567,61.177 240.145 M79.464 241.724 C 78.938 242.250,78.993 242.936,79.595 243.358 C 80.634 244.086,81.826 242.894,81.098 241.855 C 80.677 241.253,79.990 241.198,79.464 241.724 M75.553 248.919 C 74.421 249.711,74.677 251.709,75.980 252.257 C 78.013 253.112,79.707 250.918,78.348 249.191 C 77.768 248.454,76.407 248.321,75.553 248.919 M289.908 251.994 C 289.062 252.419,288.739 253.462,289.198 254.283 C 289.704 255.189,291.357 255.336,291.925 254.527 C 292.949 253.063,291.471 251.207,289.908 251.994 M105.569 253.028 C 104.804 253.563,104.940 254.599,105.815 254.905 C 107.032 255.330,107.880 253.500,106.747 252.893 C 106.161 252.580,106.218 252.573,105.569 253.028 M256.232 255.066 C 255.686 255.613,256.001 256.526,256.790 256.683 C 257.667 256.857,258.217 255.607,257.555 254.945 C 257.057 254.447,256.830 254.468,256.232 255.066 M81.816 256.579 C 80.583 257.640,81.099 259.626,82.700 259.978 C 83.472 260.147,84.715 259.609,84.947 259.004 C 85.767 256.866,83.513 255.120,81.816 256.579 M294.702 258.162 C 293.774 260.758,293.666 260.864,291.162 261.655 C 288.748 262.418,288.735 262.300,291.335 263.230 C 293.842 264.127,294.001 264.274,294.684 266.346 C 295.483 268.767,295.539 268.780,296.240 266.696 C 297.047 264.294,297.233 264.112,299.825 263.185 L 301.997 262.408 299.979 261.730 C 297.497 260.896,297.099 260.494,296.282 257.993 C 295.494 255.581,295.631 255.566,294.702 258.162 M307.337 261.447 C 306.593 262.191,307.471 263.389,308.353 262.834 C 309.090 262.370,308.779 261.058,307.933 261.058 C 307.819 261.058,307.551 261.233,307.337 261.447 M135.938 261.969 C 135.048 262.151,134.375 263.001,134.375 263.942 C 134.375 266.281,137.782 266.617,138.355 264.335 C 138.671 263.074,137.264 261.697,135.938 261.969 M207.105 264.477 C 206.411 265.468,207.028 266.827,208.173 266.827 C 208.438 266.827,208.870 266.611,209.135 266.346 C 209.399 266.082,209.615 265.649,209.615 265.385 C 209.615 264.141,207.800 263.485,207.105 264.477 M175.498 275.874 C 174.844 276.706,174.869 277.295,175.590 278.016 C 176.661 279.087,178.365 278.369,178.365 276.847 C 178.365 275.342,176.433 274.686,175.498 275.874 M118.046 276.355 C 117.392 277.186,117.417 277.776,118.138 278.497 C 119.209 279.567,120.913 278.850,120.913 277.328 C 120.913 275.823,118.981 275.166,118.046 276.355 M137.427 278.627 C 136.059 279.440,136.642 281.477,138.244 281.487 C 139.413 281.494,140.098 279.987,139.363 279.025 C 138.968 278.508,137.971 278.303,137.427 278.627 M125.959 286.342 C 124.712 293.859,124.314 295.744,123.887 296.164 C 123.540 296.506,122.163 296.797,117.821 297.449 C 114.731 297.913,112.166 298.331,112.120 298.376 C 112.075 298.422,114.656 298.878,117.857 299.389 C 122.162 300.077,123.775 300.425,124.050 300.728 C 124.288 300.988,124.760 303.108,125.352 306.578 C 125.863 309.571,126.313 311.988,126.352 311.949 C 126.391 311.911,126.802 309.450,127.267 306.480 C 128.308 299.828,127.489 300.573,135.055 299.396 C 138.372 298.880,141.057 298.429,141.021 298.393 C 140.986 298.357,138.313 297.943,135.082 297.471 C 127.608 296.381,128.386 297.110,127.291 290.164 C 126.824 287.200,126.399 284.732,126.346 284.680 C 126.294 284.627,126.119 285.375,125.959 286.342 M264.643 288.529 C 263.540 289.376,263.442 290.642,264.405 291.605 C 265.327 292.527,266.173 292.518,267.115 291.575 C 268.792 289.898,266.514 287.092,264.643 288.529 M236.692 293.631 C 235.259 295.064,237.055 297.417,238.667 296.219 C 239.457 295.631,239.644 294.392,239.042 293.728 C 238.541 293.173,237.204 293.118,236.692 293.631 " stroke="none" fill="#fbfbfb" fill-rule="evenodd"></path><path id="path2" d="M172.356 0.271 C 68.884 7.865,-3.271 104.887,19.258 206.130 C 19.670 207.981,20.042 209.533,20.084 209.580 C 20.127 209.626,22.251 208.499,24.804 207.074 C 30.496 203.899,40.526 198.797,46.088 196.249 L 50.229 194.351 50.235 170.375 L 50.240 146.398 47.725 142.550 L 45.210 138.702 58.853 138.702 L 72.496 138.702 83.904 157.908 C 90.179 168.471,95.394 177.064,95.493 177.004 C 95.592 176.944,95.673 169.393,95.673 160.225 L 95.673 143.555 93.630 141.260 C 92.506 139.998,91.587 138.906,91.587 138.834 C 91.587 138.761,95.373 138.702,100.000 138.702 C 104.627 138.702,108.413 138.757,108.413 138.825 C 108.413 138.893,107.494 140.371,106.370 142.109 L 104.327 145.269 104.327 159.767 C 104.327 171.260,104.389 174.242,104.627 174.158 C 104.793 174.100,107.849 173.192,111.418 172.141 C 117.492 170.352,127.915 167.105,128.078 166.950 C 128.118 166.912,127.054 164.795,125.713 162.245 C 100.715 114.689,96.244 74.228,114.792 63.413 C 138.764 49.435,175.019 67.558,214.923 113.468 C 216.587 115.381,218.047 117.127,218.168 117.346 C 218.290 117.566,219.917 119.405,221.783 121.433 C 223.650 123.461,225.991 126.057,226.986 127.202 L 228.795 129.285 235.251 126.455 C 269.714 111.347,300.177 95.746,323.372 81.326 L 327.393 78.826 326.046 76.732 C 293.200 25.705,233.114 -4.189,172.356 0.271 M190.625 18.990 C 191.491 19.857,190.982 21.014,189.796 20.874 C 188.218 20.688,188.355 18.786,189.964 18.538 C 190.063 18.522,190.361 18.726,190.625 18.990 M223.776 31.791 C 224.823 38.666,224.147 37.987,230.889 38.929 C 238.492 39.991,238.457 39.889,231.585 40.962 C 223.945 42.155,224.778 41.421,223.793 47.836 C 223.346 50.745,222.914 53.125,222.833 53.125 C 222.753 53.125,222.284 50.772,221.792 47.897 C 220.683 41.413,221.432 42.110,214.346 40.962 C 210.974 40.416,208.800 39.965,209.058 39.865 C 209.298 39.772,211.876 39.350,214.786 38.927 C 221.283 37.983,220.602 38.678,221.785 31.773 C 222.288 28.841,222.758 26.442,222.830 26.442 C 222.902 26.442,223.327 28.849,223.776 31.791 M180.224 34.367 C 182.279 36.281,179.618 39.242,177.489 37.411 C 176.985 36.977,176.827 36.626,176.827 35.938 C 176.827 34.234,179.002 33.229,180.224 34.367 M199.459 39.002 C 200.739 40.197,199.686 42.548,197.871 42.548 C 197.032 42.548,195.913 41.399,195.913 40.537 C 195.913 38.537,197.995 37.636,199.459 39.002 M153.526 46.293 C 153.778 46.949,152.975 47.549,152.491 47.065 C 152.000 46.574,152.225 45.913,152.885 45.913 C 153.157 45.913,153.446 46.084,153.526 46.293 M188.418 46.818 C 188.517 47.510,187.837 47.796,187.322 47.281 C 187.003 46.961,186.992 46.837,187.258 46.516 C 187.691 45.995,188.324 46.160,188.418 46.818 M156.731 48.077 C 158.042 49.389,156.218 51.544,154.747 50.421 C 154.015 49.862,153.974 48.889,154.654 48.209 C 155.391 47.472,156.082 47.428,156.731 48.077 M182.404 49.808 C 182.563 49.966,182.692 50.377,182.692 50.721 C 182.692 51.988,181.324 52.387,180.627 51.322 C 179.896 50.206,181.465 48.869,182.404 49.808 M159.836 50.925 C 160.267 51.731,159.249 52.280,158.654 51.563 C 158.415 51.275,158.415 51.129,158.654 50.841 C 159.059 50.353,159.549 50.388,159.836 50.925 M157.973 57.993 C 158.873 58.718,158.453 60.096,157.332 60.096 C 156.258 60.096,155.743 58.920,156.490 58.173 C 157.045 57.618,157.448 57.569,157.973 57.993 M197.115 58.654 C 197.927 59.466,197.534 60.577,196.434 60.577 C 195.242 60.577,194.782 59.506,195.590 58.613 C 196.103 58.046,196.519 58.057,197.115 58.654 M129.327 61.458 C 121.825 62.199,114.630 65.402,111.500 69.396 C 101.691 81.910,104.804 109.762,119.877 144.351 C 121.633 148.380,129.746 164.854,130.391 165.699 C 130.706 166.112,130.908 166.073,134.412 164.921 L 138.101 163.708 140.571 155.352 C 141.930 150.756,143.039 146.869,143.035 146.715 C 143.032 146.560,141.406 144.703,139.423 142.588 C 137.440 140.472,135.817 138.678,135.817 138.601 C 135.817 138.291,165.558 138.451,165.794 138.762 C 165.919 138.927,167.030 141.767,168.263 145.072 C 169.496 148.377,170.624 151.317,170.769 151.605 C 171.067 152.195,171.075 152.192,185.817 146.598 C 196.427 142.572,226.102 130.641,226.607 130.198 C 226.683 130.131,221.482 124.324,218.176 120.784 C 216.442 118.928,213.942 116.174,212.620 114.664 C 180.645 78.140,151.157 59.303,129.327 61.458 M145.069 77.049 C 146.172 84.064,145.361 83.311,152.944 84.367 C 156.208 84.821,158.846 85.225,158.807 85.264 C 158.768 85.303,156.054 85.765,152.777 86.291 C 149.500 86.817,146.642 87.382,146.426 87.546 C 146.210 87.710,146.009 87.855,145.980 87.866 C 145.927 87.888,144.231 98.420,144.231 98.725 C 144.231 99.483,143.900 97.865,143.141 93.389 C 142.014 86.751,142.764 87.466,135.725 86.313 C 132.580 85.797,129.966 85.334,129.915 85.283 C 129.864 85.232,132.413 84.805,135.580 84.333 C 142.696 83.274,141.923 84.035,143.132 76.903 C 143.646 73.871,144.097 71.420,144.134 71.458 C 144.171 71.495,144.592 74.011,145.069 77.049 M220.564 75.590 C 221.916 76.942,220.392 78.863,218.833 77.772 C 217.883 77.106,218.003 75.668,219.045 75.250 C 219.846 74.928,219.918 74.944,220.564 75.590 M127.391 81.408 C 127.936 82.101,127.869 82.838,127.213 83.353 C 125.789 84.473,123.964 82.527,125.240 81.250 C 125.913 80.577,126.788 80.641,127.391 81.408 M131.622 88.571 C 132.325 89.274,132.359 89.669,131.776 90.388 C 130.973 91.381,129.087 90.762,129.087 89.506 C 129.087 89.041,130.173 87.981,130.649 87.981 C 130.859 87.981,131.297 88.246,131.622 88.571 M334.014 105.464 C 323.507 115.787,310.727 127.002,299.472 135.775 L 296.179 138.341 300.433 138.412 L 304.688 138.483 316.457 166.898 L 328.226 195.313 332.022 199.006 C 334.109 201.037,335.817 202.795,335.817 202.912 C 335.817 203.034,327.358 203.125,315.986 203.125 C 305.078 203.125,296.154 203.045,296.154 202.948 C 296.154 202.851,297.557 201.363,299.271 199.643 L 302.388 196.514 300.784 192.368 L 299.179 188.221 288.422 188.221 L 277.665 188.221 277.190 189.844 C 275.857 194.397,275.240 196.610,275.240 196.836 C 275.240 196.974,276.214 198.392,277.404 199.987 C 278.594 201.582,279.567 202.941,279.567 203.006 C 279.567 203.072,277.717 203.125,275.455 203.125 C 271.756 203.125,271.358 203.164,271.493 203.516 C 275.207 213.194,278.462 229.266,278.765 239.423 C 279.806 274.282,255.943 285.305,220.790 266.202 C 216.748 264.005,216.937 264.170,217.406 263.264 C 217.985 262.143,218.144 262.145,220.138 263.293 C 265.405 289.354,288.918 262.921,270.400 206.791 L 269.191 203.125 264.827 203.125 L 260.463 203.125 263.634 199.940 L 266.804 196.755 265.409 193.389 C 261.221 183.283,253.499 168.005,252.803 168.447 C 250.143 170.135,250.154 170.108,251.466 171.598 C 256.933 177.801,257.275 188.211,252.229 194.787 C 243.907 205.630,229.100 209.107,212.502 204.116 L 210.220 203.430 206.945 206.394 C 205.143 208.025,203.601 209.290,203.517 209.207 C 203.434 209.123,203.365 207.549,203.365 205.709 C 203.365 203.869,203.274 202.400,203.162 202.444 C 202.559 202.681,171.875 223.886,171.875 224.065 C 171.875 224.544,177.415 228.652,179.447 229.680 C 186.243 233.119,192.005 240.470,190.345 243.586 C 188.315 247.398,178.031 241.872,173.730 234.658 C 172.272 232.211,167.839 226.852,167.410 227.017 C 166.916 227.206,128.167 253.908,117.548 261.376 C 108.327 267.862,98.341 276.039,87.861 285.686 C 84.078 289.168,75.240 297.863,75.240 298.102 C 75.240 298.365,78.776 301.235,83.053 304.445 C 106.454 322.009,134.491 333.277,163.462 336.761 C 171.500 337.728,174.012 337.861,184.255 337.861 C 290.126 337.861,369.419 242.736,350.569 138.341 C 348.617 127.530,344.977 115.041,340.951 105.344 C 340.088 103.264,339.324 101.373,339.254 101.142 C 339.059 100.498,339.127 100.441,334.014 105.464 M143.870 106.731 C 143.870 107.171,143.726 107.352,143.328 107.409 C 142.738 107.493,142.402 106.977,142.641 106.353 C 142.885 105.719,143.870 106.021,143.870 106.731 M305.409 117.824 C 293.726 124.032,275.066 132.493,257.752 139.433 L 250.962 142.155 250.962 149.323 C 250.962 156.571,250.920 156.894,250.097 155.982 C 248.692 154.424,245.832 152.072,246.329 152.885 C 247.076 154.104,252.348 162.568,252.574 162.908 C 252.706 163.109,253.940 162.343,256.611 160.405 C 263.588 155.340,270.487 150.218,275.079 146.693 L 279.604 143.219 279.052 142.583 C 278.748 142.233,277.742 141.163,276.816 140.204 L 275.132 138.462 280.339 138.462 L 285.545 138.462 287.664 136.735 C 296.764 129.322,309.615 117.034,309.615 115.746 C 309.615 115.578,309.909 115.433,305.409 117.824 M235.777 147.817 C 235.159 148.059,231.914 149.212,228.565 150.381 C 221.711 152.772,222.124 152.512,222.120 154.447 C 222.113 157.802,224.005 159.017,232.212 160.933 C 237.996 162.284,241.209 163.559,245.027 166.021 C 245.928 166.602,246.749 167.102,246.852 167.133 C 247.127 167.214,250.721 164.629,250.721 164.350 C 250.721 163.977,247.365 158.536,243.823 153.168 C 239.852 147.148,238.976 146.566,235.777 147.817 M268.510 157.699 C 261.176 162.708,255.139 166.914,255.096 167.045 C 255.052 167.176,255.680 168.486,256.493 169.956 C 258.867 174.253,263.918 184.626,265.855 189.183 C 266.839 191.496,267.703 193.464,267.776 193.555 C 267.849 193.647,271.081 183.604,274.958 171.238 C 278.835 158.871,281.970 148.717,281.926 148.672 C 281.881 148.628,275.844 152.689,268.510 157.699 M283.613 168.033 L 280.119 179.087 288.136 179.087 C 292.546 179.087,296.154 179.022,296.154 178.944 C 296.154 178.798,287.265 157.138,287.163 157.035 C 287.132 157.004,285.535 161.953,283.613 168.033 M146.939 159.075 C 146.671 159.967,146.474 160.724,146.502 160.757 C 146.667 160.949,148.810 159.994,148.719 159.768 C 147.581 156.917,147.588 156.919,146.939 159.075 M195.913 161.113 C 192.939 162.025,187.368 163.679,183.534 164.790 C 178.713 166.186,176.585 166.904,176.635 167.118 C 176.675 167.289,179.097 173.784,182.019 181.552 L 187.330 195.676 190.902 199.065 L 194.474 202.455 198.908 199.605 L 203.341 196.755 203.353 192.484 L 203.365 188.212 206.390 190.487 L 209.415 192.762 217.437 187.427 L 225.458 182.091 224.321 181.578 C 223.695 181.296,221.347 180.449,219.104 179.696 C 207.945 175.950,201.996 169.898,201.471 161.759 L 201.322 159.456 195.913 161.113 M60.103 176.502 C 60.099 183.873,60.177 189.902,60.276 189.899 C 60.376 189.897,63.227 188.785,66.613 187.430 L 72.769 184.965 66.655 174.394 C 63.292 168.579,60.444 163.660,60.326 163.462 C 60.198 163.246,60.108 168.509,60.103 176.502 M147.737 174.115 L 141.749 175.612 141.345 176.808 C 141.123 177.466,140.868 178.302,140.779 178.666 L 140.616 179.327 148.699 179.327 C 155.069 179.327,156.757 179.263,156.664 179.026 C 155.660 176.485,153.963 172.599,153.860 172.607 C 153.786 172.614,151.031 173.292,147.737 174.115 M127.404 178.976 C 124.297 179.678,117.834 181.045,113.041 182.013 L 104.328 183.774 104.327 190.049 L 104.327 196.323 107.332 199.606 C 108.984 201.412,110.337 202.942,110.337 203.007 C 110.337 203.072,104.241 203.125,96.790 203.125 L 83.243 203.125 80.064 197.596 C 78.315 194.555,76.794 192.067,76.684 192.067 C 76.453 192.067,64.414 196.149,62.286 196.948 L 60.852 197.488 62.878 200.179 C 63.992 201.660,64.904 202.982,64.904 203.118 C 64.904 203.283,61.720 203.365,55.295 203.365 L 45.686 203.365 43.928 204.064 C 39.329 205.890,21.922 213.816,21.432 214.305 C 21.164 214.573,24.184 223.958,26.371 229.652 C 35.316 252.952,49.876 274.708,67.892 291.695 L 71.156 294.773 76.149 289.875 C 89.402 276.873,103.590 264.970,119.712 253.328 C 126.770 248.230,158.497 226.124,163.651 222.712 L 165.402 221.553 164.584 220.692 C 161.953 217.926,146.495 197.229,142.613 191.274 L 140.607 188.197 139.364 188.269 L 138.120 188.341 137.480 192.668 C 137.128 195.048,136.902 197.103,136.978 197.236 C 137.054 197.368,138.023 198.702,139.130 200.201 C 140.238 201.700,141.098 202.972,141.042 203.028 C 140.986 203.085,136.475 203.102,131.017 203.068 L 121.095 203.005 124.550 199.903 C 128.729 196.151,127.816 197.936,131.009 187.274 C 132.491 182.323,133.759 178.132,133.825 177.959 C 133.999 177.507,133.698 177.554,127.404 178.976 M221.875 189.572 C 217.578 192.543,213.901 195.068,213.704 195.185 C 211.966 196.212,224.562 197.193,228.187 196.314 C 233.554 195.011,236.728 190.421,234.247 187.548 C 233.529 186.716,230.041 184.079,229.758 184.153 C 229.719 184.164,226.172 186.602,221.875 189.572 M143.750 188.349 C 143.750 189.050,157.962 208.490,164.361 216.544 C 166.721 219.514,167.054 220.039,166.782 220.367 C 166.608 220.576,170.198 218.262,174.760 215.225 C 179.321 212.189,185.347 208.251,188.152 206.474 L 193.251 203.245 174.815 203.184 L 156.380 203.122 159.596 199.899 L 162.812 196.677 162.198 195.033 C 161.861 194.129,161.134 192.227,160.582 190.805 L 159.580 188.221 151.665 188.221 C 147.312 188.221,143.750 188.279,143.750 188.349 M130.721 208.221 C 130.880 208.380,131.010 208.737,131.010 209.014 C 131.010 209.292,130.880 209.649,130.721 209.808 C 130.563 209.966,130.206 210.096,129.928 210.096 C 129.650 210.096,129.293 209.966,129.135 209.808 C 128.976 209.649,128.846 209.292,128.846 209.014 C 128.846 208.737,128.976 208.380,129.135 208.221 C 129.293 208.063,129.650 207.933,129.928 207.933 C 130.206 207.933,130.563 208.063,130.721 208.221 M312.013 217.428 C 313.044 224.353,312.313 223.676,319.895 224.738 C 323.103 225.187,325.683 225.599,325.629 225.653 C 325.575 225.707,322.850 226.178,319.573 226.700 C 315.805 227.300,313.470 227.780,313.220 228.005 C 312.936 228.263,312.600 229.836,312.014 233.652 C 311.567 236.562,311.128 238.861,311.039 238.762 C 310.950 238.663,310.480 236.256,309.996 233.413 C 309.511 230.571,308.984 228.115,308.824 227.956 C 308.664 227.797,305.952 227.235,302.797 226.707 C 299.641 226.178,297.019 225.705,296.969 225.655 C 296.919 225.605,299.390 225.193,302.462 224.741 C 309.603 223.689,308.882 224.355,309.982 217.788 C 310.846 212.625,311.000 211.867,311.147 212.045 C 311.190 212.097,311.580 214.519,312.013 217.428 M287.968 217.541 C 288.930 218.056,288.704 219.471,287.660 219.471 C 286.596 219.471,286.083 218.077,286.959 217.567 C 287.485 217.261,287.446 217.262,287.968 217.541 M269.291 226.462 C 270.225 227.604,269.520 229.674,268.149 229.814 C 265.668 230.068,264.606 227.257,266.707 225.999 C 267.380 225.596,268.790 225.848,269.291 226.462 M291.915 226.460 C 293.110 227.400,292.443 229.332,290.925 229.323 C 289.344 229.314,288.658 227.666,289.773 226.552 C 290.494 225.831,291.083 225.805,291.915 226.460 M316.088 234.287 C 317.022 235.474,316.284 237.019,314.784 237.019 C 313.920 237.019,312.981 236.143,312.981 235.337 C 312.981 234.530,313.920 233.654,314.784 233.654 C 315.369 233.654,315.727 233.828,316.088 234.287 M256.239 236.165 C 256.821 236.865,256.452 237.620,255.529 237.620 C 254.833 237.620,254.674 237.524,254.609 237.066 C 254.515 236.403,254.946 235.817,255.529 235.817 C 255.761 235.817,256.080 235.974,256.239 236.165 M307.253 238.859 C 307.799 239.354,307.816 240.089,307.294 240.666 C 306.527 241.514,305.048 240.919,305.048 239.764 C 305.048 238.612,306.377 238.067,307.253 238.859 M126.635 239.471 C 126.793 239.630,126.923 239.995,126.923 240.283 C 126.923 241.533,124.944 241.782,124.802 240.550 C 124.670 239.394,125.858 238.694,126.635 239.471 M269.111 240.385 C 269.111 241.463,267.498 241.722,267.349 240.668 C 267.213 239.707,267.475 239.386,268.328 239.468 C 269.048 239.537,269.111 239.611,269.111 240.385 M62.843 240.041 C 63.051 240.249,63.221 240.527,63.221 240.658 C 63.221 241.864,61.506 242.306,61.014 241.227 C 60.505 240.109,61.965 239.163,62.843 240.041 M81.098 241.855 C 81.826 242.894,80.634 244.086,79.595 243.358 C 78.993 242.936,78.938 242.250,79.464 241.724 C 79.990 241.198,80.677 241.253,81.098 241.855 M78.348 249.191 C 78.975 249.989,78.984 250.962,78.371 251.741 C 77.062 253.406,74.428 252.057,74.889 249.959 C 75.210 248.498,77.417 248.008,78.348 249.191 M291.887 252.451 C 292.410 253.057,292.424 253.813,291.925 254.527 C 291.357 255.336,289.704 255.189,289.198 254.283 C 288.214 252.522,290.564 250.921,291.887 252.451 M106.747 252.893 C 107.880 253.500,107.032 255.330,105.815 254.905 C 104.940 254.599,104.804 253.563,105.569 253.028 C 106.218 252.573,106.161 252.580,106.747 252.893 M257.555 254.945 C 258.038 255.428,258.034 255.874,257.543 256.365 C 257.050 256.858,256.525 256.758,256.081 256.087 C 255.474 255.172,256.774 254.164,257.555 254.945 M84.506 256.600 C 85.490 257.584,85.284 259.141,84.088 259.760 C 82.675 260.490,81.154 259.583,81.154 258.010 C 81.154 256.276,83.285 255.379,84.506 256.600 M296.282 257.993 C 297.099 260.494,297.497 260.896,299.979 261.730 L 301.997 262.408 299.825 263.185 C 297.233 264.112,297.047 264.294,296.240 266.696 C 295.539 268.780,295.483 268.767,294.684 266.346 C 294.001 264.274,293.842 264.127,291.335 263.230 C 288.735 262.300,288.748 262.418,291.162 261.655 C 293.666 260.864,293.774 260.758,294.702 258.162 C 295.631 255.566,295.494 255.581,296.282 257.993 M308.528 261.447 C 309.272 262.191,308.394 263.389,307.512 262.834 C 306.775 262.370,307.086 261.058,307.933 261.058 C 308.046 261.058,308.314 261.233,308.528 261.447 M138.128 263.033 C 138.835 264.400,137.928 265.865,136.374 265.865 C 135.165 265.865,134.375 265.105,134.375 263.942 C 134.375 261.860,137.171 261.182,138.128 263.033 M209.135 264.423 C 209.399 264.688,209.615 265.120,209.615 265.385 C 209.615 265.649,209.399 266.082,209.135 266.346 C 207.860 267.621,206.063 265.965,207.105 264.477 C 207.572 263.810,208.497 263.785,209.135 264.423 M177.885 275.721 C 178.843 276.679,178.085 278.606,176.750 278.606 C 176.066 278.606,175.000 277.608,175.000 276.966 C 175.000 275.550,176.895 274.732,177.885 275.721 M120.433 276.202 C 121.391 277.160,120.633 279.087,119.298 279.087 C 118.614 279.087,117.548 278.088,117.548 277.447 C 117.548 276.031,119.444 275.213,120.433 276.202 M139.363 279.025 C 140.098 279.987,139.413 281.494,138.244 281.487 C 136.642 281.477,136.059 279.440,137.427 278.627 C 137.971 278.303,138.968 278.508,139.363 279.025 M127.291 290.164 C 128.386 297.110,127.608 296.381,135.082 297.471 C 138.313 297.943,140.986 298.357,141.021 298.393 C 141.057 298.429,138.372 298.880,135.055 299.396 C 127.489 300.573,128.308 299.828,127.267 306.480 C 126.802 309.450,126.391 311.911,126.352 311.949 C 126.313 311.988,125.863 309.571,125.352 306.578 C 124.760 303.108,124.288 300.988,124.050 300.728 C 123.775 300.425,122.162 300.077,117.857 299.389 C 114.656 298.878,112.075 298.422,112.120 298.376 C 112.166 298.331,114.731 297.913,117.821 297.449 C 122.163 296.797,123.540 296.506,123.887 296.164 C 124.314 295.744,124.712 293.859,125.959 286.342 C 126.119 285.375,126.294 284.627,126.346 284.680 C 126.399 284.732,126.824 287.200,127.291 290.164 M267.048 288.642 C 268.388 289.737,267.475 292.308,265.745 292.308 C 264.968 292.308,263.702 291.117,263.702 290.387 C 263.702 288.637,265.741 287.574,267.048 288.642 M239.042 293.728 C 239.644 294.392,239.457 295.631,238.667 296.219 C 237.055 297.417,235.259 295.064,236.692 293.631 C 237.204 293.118,238.541 293.173,239.042 293.728 " stroke="none" fill="#14448c" fill-rule="evenodd"></path></g></svg>