<svg id="svg" version="1.1" xmlns="http://www.w3.org/2000/svg" xmlns:xlink="http://www.w3.org/1999/xlink" width="400" height="222.22222222222223" viewBox="0, 0, 400,222.22222222222223"><g id="svgg"><path id="path0" d="M193.322 105.433 C 193.092 105.664,193.021 116.618,193.246 117.204 C 193.347 117.469,193.699 117.556,194.667 117.556 C 196.215 117.556,196.260 117.483,196.201 115.053 C 196.156 113.181,196.350 112.716,197.029 113.067 C 197.258 113.185,197.694 113.380,198.000 113.500 C 198.306 113.620,198.806 113.824,199.111 113.954 C 200.720 114.636,208.243 117.333,208.538 117.333 C 208.875 117.333,210.000 115.410,210.000 114.833 C 210.000 114.669,209.299 114.299,208.406 113.992 C 206.475 113.328,206.281 112.997,207.699 112.785 C 210.218 112.407,211.375 108.217,209.537 106.124 L 208.853 105.345 201.193 105.283 C 196.564 105.246,193.449 105.306,193.322 105.433 M296.278 105.280 L 288.000 105.339 288.000 106.669 L 288.000 108.000 291.289 108.000 C 295.460 108.000,295.111 107.539,295.111 113.044 L 295.111 117.556 296.444 117.556 C 298.070 117.556,297.845 118.253,297.989 112.778 L 298.111 108.111 301.556 108.000 L 305.000 107.889 305.066 106.639 C 305.148 105.071,306.061 105.212,296.278 105.280 M213.101 106.011 C 212.278 106.891,212.165 107.735,212.258 112.293 L 212.333 115.992 213.060 116.718 L 213.786 117.444 220.410 117.509 C 229.643 117.599,229.155 117.956,229.062 111.181 L 229.000 106.695 228.347 106.014 L 227.695 105.333 220.714 105.333 L 213.734 105.333 213.101 106.011 M232.174 105.834 C 231.239 106.606,231.111 107.291,231.112 111.514 C 231.113 117.875,230.647 117.580,240.577 117.503 L 248.111 117.444 248.111 116.111 L 248.111 114.778 241.233 114.719 C 233.223 114.650,234.008 115.007,234.003 111.431 C 233.999 107.666,233.266 108.014,241.333 107.946 L 248.111 107.889 248.178 106.611 L 248.244 105.333 240.511 105.334 C 232.825 105.336,232.774 105.339,232.174 105.834 M250.104 105.604 C 250.043 105.765,250.019 108.495,250.052 111.670 L 250.111 117.444 251.424 117.512 C 253.022 117.595,253.126 117.473,253.098 115.556 C 253.087 114.761,253.085 113.936,253.094 113.722 C 253.120 113.123,253.702 113.191,255.667 114.021 C 255.911 114.124,257.961 114.815,260.222 115.556 C 262.483 116.296,264.533 116.990,264.778 117.098 C 266.060 117.661,266.117 117.625,266.739 115.817 C 267.147 114.633,267.338 114.752,262.556 113.215 C 258.967 112.063,257.719 111.523,258.013 111.255 C 258.135 111.144,262.083 109.763,264.833 108.869 C 267.119 108.127,267.128 108.113,266.535 106.373 C 266.166 105.292,265.763 105.084,264.941 105.554 C 264.729 105.675,263.256 106.217,261.667 106.759 C 257.192 108.283,255.476 108.895,255.083 109.108 C 254.351 109.503,253.112 109.624,253.099 109.303 C 253.092 109.136,253.067 108.200,253.043 107.222 L 253.000 105.444 251.608 105.378 C 250.614 105.331,250.184 105.395,250.104 105.604 M269.107 105.444 C 269.105 105.506,269.103 108.156,269.103 111.333 C 269.103 114.511,269.105 117.212,269.107 117.336 C 269.110 117.485,271.990 117.541,277.611 117.503 L 286.111 117.444 286.111 116.111 L 286.111 114.778 279.042 114.719 L 271.974 114.660 272.042 113.830 L 272.111 113.000 279.111 112.889 L 286.111 112.778 286.111 111.444 L 286.111 110.111 279.111 110.000 L 272.111 109.889 272.111 109.000 L 272.111 108.111 279.111 108.000 L 286.111 107.889 286.178 106.611 L 286.244 105.333 277.678 105.333 C 272.966 105.333,269.109 105.383,269.107 105.444 M313.660 105.604 C 313.598 105.765,313.575 108.495,313.607 111.670 L 313.667 117.444 322.167 117.503 L 330.667 117.561 330.667 116.114 L 330.667 114.667 323.667 114.667 C 317.151 114.667,316.666 114.640,316.660 114.278 C 316.656 114.064,316.631 111.989,316.604 109.667 L 316.556 105.444 315.164 105.378 C 314.170 105.331,313.740 105.395,313.660 105.604 M333.702 105.790 C 332.774 106.520,332.638 107.462,332.711 112.667 L 332.778 117.444 333.979 117.513 C 335.475 117.598,335.569 117.468,335.544 115.333 C 335.533 114.417,335.531 113.492,335.540 113.278 C 335.554 112.918,335.973 112.889,341.087 112.889 C 347.481 112.889,346.889 112.614,346.889 115.584 L 346.889 117.577 348.278 117.511 L 349.667 117.444 349.726 112.499 C 349.791 107.176,349.609 106.179,348.458 105.563 C 347.532 105.067,334.363 105.269,333.702 105.790 M351.656 105.615 C 351.596 105.770,351.575 108.495,351.607 111.670 L 351.667 117.444 359.385 117.444 L 367.103 117.444 367.829 116.718 L 368.556 115.991 368.556 111.311 L 368.556 106.630 367.830 105.982 L 367.104 105.333 359.434 105.333 C 353.450 105.333,351.740 105.395,351.656 105.615 M207.242 108.555 C 207.550 109.784,207.578 109.778,201.793 109.778 C 196.688 109.778,196.450 109.759,196.222 109.333 C 195.560 108.095,195.956 108.000,201.781 108.000 L 207.103 108.000 207.242 108.555 M226.112 108.223 C 226.220 108.399,226.284 111.641,226.230 114.282 C 226.223 114.648,225.853 114.670,220.722 114.615 L 215.222 114.556 215.160 111.586 C 215.118 109.586,215.181 108.516,215.354 108.309 C 215.669 107.928,225.879 107.847,226.112 108.223 M346.656 108.320 C 346.802 108.496,346.889 108.921,346.849 109.264 L 346.778 109.889 341.222 109.889 L 335.667 109.889 335.595 109.134 C 335.551 108.681,335.640 108.306,335.817 108.193 C 336.373 107.841,346.355 107.957,346.656 108.320 M365.667 109.000 L 365.667 109.889 360.222 109.889 L 354.778 109.889 354.706 109.259 C 354.556 107.952,354.395 107.987,360.272 108.052 L 365.667 108.111 365.667 109.000 M365.667 113.778 L 365.667 114.556 360.167 114.615 L 354.667 114.674 354.667 113.778 L 354.667 112.881 360.167 112.941 L 365.667 113.000 365.667 113.778 " stroke="none" fill="#101010" fill-rule="evenodd"></path><path id="path1" d="M0.000 111.111 L 0.000 222.222 200.000 222.222 L 400.000 222.222 400.000 111.111 L 400.000 0.000 200.000 0.000 L 0.000 0.000 0.000 111.111 M185.303 81.944 C 185.416 82.158,186.028 84.183,186.661 86.444 C 187.294 88.706,188.000 91.206,188.231 92.000 C 190.040 98.232,191.146 102.479,191.035 102.768 C 190.846 103.258,169.612 103.293,169.424 102.804 C 169.359 102.635,169.972 100.210,170.787 97.415 C 171.601 94.620,172.321 92.133,172.387 91.889 C 172.500 91.465,173.986 86.263,174.798 83.444 C 175.379 81.431,175.013 81.556,180.353 81.556 C 184.643 81.556,185.115 81.593,185.303 81.944 M180.124 84.388 C 177.739 84.467,177.441 84.584,177.269 85.507 C 177.151 86.140,176.434 88.666,174.892 93.889 C 174.387 95.600,173.836 97.500,173.669 98.111 C 173.502 98.722,173.297 99.397,173.214 99.611 C 173.073 99.977,173.494 100.000,180.198 100.000 C 184.123 100.000,187.333 99.922,187.333 99.826 C 187.333 99.649,185.954 94.657,185.570 93.444 C 185.454 93.078,184.845 90.978,184.216 88.778 C 183.140 85.017,182.808 84.157,182.473 84.269 C 182.396 84.294,181.339 84.348,180.124 84.388 M156.908 103.440 C 161.485 104.160,165.194 105.615,167.389 107.551 L 168.444 108.482 168.444 111.303 C 168.444 114.589,168.384 114.729,166.426 115.994 C 163.055 118.173,157.042 119.700,152.556 119.517 L 150.778 119.444 150.719 111.557 C 150.687 107.218,150.709 103.543,150.768 103.390 C 150.918 102.999,154.274 103.026,156.908 103.440 M131.333 103.796 C 132.250 103.919,133.750 104.117,134.667 104.237 C 146.564 105.796,151.709 108.954,149.454 113.315 C 148.421 115.313,142.136 117.528,134.889 118.448 C 133.850 118.580,132.400 118.779,131.667 118.889 C 129.266 119.252,121.763 119.374,116.889 119.128 C 110.112 118.788,98.543 118.162,91.778 117.771 C 89.883 117.661,86.083 117.468,83.333 117.343 C 80.583 117.217,76.883 117.014,75.111 116.892 C 73.339 116.769,69.839 116.565,67.333 116.437 C 60.026 116.066,55.031 115.791,51.222 115.552 C 49.267 115.429,45.767 115.230,43.444 115.110 C 41.122 114.990,37.722 114.798,35.889 114.684 C 34.056 114.569,30.656 114.371,28.333 114.244 C 26.011 114.116,22.311 113.914,20.111 113.793 C 17.911 113.673,14.761 113.517,13.111 113.446 C 5.251 113.109,4.444 112.913,4.444 111.333 C 4.444 109.918,4.571 109.856,7.778 109.701 C 9.306 109.626,12.306 109.463,14.444 109.338 C 16.583 109.213,20.133 109.006,22.333 108.877 C 24.533 108.748,28.133 108.549,30.333 108.434 C 32.533 108.320,35.983 108.124,38.000 108.000 C 40.017 107.876,43.517 107.675,45.778 107.553 C 48.039 107.432,51.389 107.240,53.222 107.127 C 56.823 106.905,62.457 106.586,69.333 106.215 C 71.717 106.086,75.417 105.880,77.556 105.756 C 79.694 105.633,83.294 105.440,85.556 105.328 C 90.839 105.068,96.795 104.726,98.778 104.571 C 99.633 104.504,101.533 104.394,103.000 104.327 C 104.467 104.260,107.517 104.099,109.778 103.969 C 118.833 103.450,120.734 103.389,125.111 103.480 C 127.617 103.532,130.417 103.674,131.333 103.796 M382.070 104.023 C 382.704 104.280,383.422 104.579,383.667 104.687 C 383.911 104.795,386.361 105.783,389.111 106.883 C 395.286 109.353,396.059 110.022,395.320 112.263 C 394.888 113.573,394.285 113.907,387.433 116.636 L 381.200 119.120 375.989 119.060 L 370.778 119.000 370.719 111.459 C 370.674 105.575,370.722 103.880,370.941 103.741 C 371.638 103.298,380.861 103.532,382.070 104.023 M209.448 105.556 C 211.648 107.612,210.888 112.535,208.296 113.022 C 207.325 113.204,207.511 113.430,209.022 113.905 C 210.582 114.396,210.629 114.537,209.784 116.209 C 208.903 117.955,208.860 117.965,206.400 117.040 C 198.275 113.982,196.668 113.406,196.563 113.511 C 196.498 113.576,196.444 114.563,196.444 115.704 C 196.444 117.389,196.382 117.782,196.111 117.800 C 195.928 117.812,195.278 117.822,194.667 117.822 C 194.056 117.822,193.406 117.812,193.222 117.800 C 192.867 117.776,192.695 105.379,193.045 105.029 C 193.131 104.943,196.723 104.902,201.027 104.936 L 208.854 105.000 209.448 105.556 M228.573 105.830 L 229.333 106.660 229.333 111.230 C 229.333 118.211,229.904 117.778,220.704 117.778 C 211.583 117.778,212.000 118.082,212.000 111.434 C 212.000 104.602,211.645 104.859,220.962 104.940 L 227.812 105.000 228.573 105.830 M248.488 105.278 C 248.540 105.492,248.526 106.267,248.458 107.000 L 248.333 108.333 241.382 108.392 L 234.432 108.451 234.494 111.392 L 234.556 114.333 241.500 114.392 L 248.444 114.451 248.444 116.114 L 248.444 117.778 240.563 117.778 L 232.682 117.778 231.926 117.114 C 230.810 116.134,230.614 115.134,230.704 110.866 C 230.835 104.664,230.456 104.891,240.696 104.890 C 247.842 104.889,248.399 104.917,248.488 105.278 M253.333 107.111 C 253.398 108.341,253.537 109.204,253.667 109.179 C 253.988 109.118,258.675 107.484,260.889 106.661 C 266.523 104.569,266.183 104.588,266.850 106.331 C 267.631 108.372,267.825 108.191,263.167 109.764 C 260.875 110.538,258.861 111.244,258.692 111.334 C 258.505 111.432,260.087 112.049,262.692 112.895 C 267.829 114.563,267.531 114.355,267.005 115.903 C 266.216 118.223,267.547 118.371,256.904 114.784 C 253.027 113.477,253.333 113.392,253.333 115.778 L 253.333 117.778 251.556 117.778 L 249.778 117.778 249.778 111.481 C 249.778 104.297,249.618 104.852,251.657 104.936 L 253.222 105.000 253.333 107.111 M286.402 106.210 C 286.440 106.876,286.413 107.650,286.343 107.929 L 286.215 108.438 279.274 108.497 L 272.333 108.556 272.262 109.056 C 272.169 109.710,271.426 109.635,279.333 109.770 L 286.333 109.889 286.400 111.297 C 286.502 113.458,286.943 113.333,279.208 113.333 C 272.545 113.333,272.085 113.384,272.355 114.088 C 272.473 114.395,273.350 114.445,279.411 114.497 L 286.333 114.556 286.333 116.111 L 286.333 117.667 277.556 117.667 L 268.778 117.667 268.715 111.778 C 268.681 108.539,268.708 105.663,268.776 105.386 L 268.899 104.884 277.616 104.942 L 286.333 105.000 286.402 106.210 M305.287 106.611 L 305.222 108.333 301.778 108.444 L 298.333 108.556 298.273 113.167 C 298.219 117.356,298.178 117.780,297.829 117.801 C 294.416 118.009,294.667 118.390,294.667 112.998 L 294.667 108.456 291.278 108.395 L 287.889 108.333 287.822 106.912 C 287.785 106.131,287.807 105.356,287.870 105.190 C 287.965 104.944,289.568 104.889,296.669 104.889 L 305.352 104.889 305.287 106.611 M316.889 109.667 L 317.000 114.333 324.000 114.444 L 331.000 114.556 331.000 116.111 L 331.000 117.667 322.167 117.725 L 313.333 117.783 313.333 111.327 L 313.333 104.870 315.056 104.935 L 316.778 105.000 316.889 109.667 M348.573 105.308 C 349.882 106.106,350.000 106.705,350.000 112.534 L 350.000 117.778 348.357 117.778 C 346.399 117.778,346.399 117.777,346.466 115.226 L 346.513 113.444 341.154 113.385 L 335.794 113.325 335.730 115.496 L 335.667 117.667 334.444 117.793 C 332.283 118.018,332.444 118.452,332.444 112.407 C 332.444 104.439,331.917 104.891,341.222 104.891 C 347.354 104.891,347.944 104.924,348.573 105.308 M367.327 105.219 C 368.793 105.977,368.889 106.359,368.889 111.449 L 368.889 116.052 368.023 116.918 L 367.158 117.784 359.301 117.725 L 351.444 117.667 351.385 111.559 C 351.353 108.199,351.375 105.324,351.434 105.170 C 351.606 104.722,366.455 104.768,367.327 105.219 M153.556 111.292 C 153.556 117.395,153.399 117.007,155.724 116.663 C 159.539 116.100,163.556 114.749,165.145 113.495 C 165.700 113.057,165.795 110.188,165.273 109.612 C 164.010 108.217,158.961 106.461,155.167 106.097 L 153.556 105.943 153.556 111.292 M120.416 106.324 C 120.360 106.380,118.119 106.535,115.435 106.668 C 112.751 106.802,108.756 107.010,106.556 107.132 C 104.356 107.254,100.756 107.449,98.556 107.565 C 96.356 107.681,92.956 107.877,91.000 108.001 C 89.044 108.125,85.694 108.323,83.556 108.440 C 81.417 108.558,78.167 108.754,76.333 108.875 C 72.334 109.139,66.847 109.469,61.556 109.763 C 59.417 109.882,54.867 110.136,51.444 110.327 C 48.022 110.518,43.872 110.774,42.222 110.896 C 40.572 111.019,38.503 111.117,37.624 111.115 C 36.745 111.113,35.973 111.197,35.908 111.303 C 35.752 111.556,39.728 111.999,42.175 112.002 C 43.240 112.003,46.353 112.153,49.094 112.335 C 51.835 112.517,56.085 112.768,58.538 112.893 C 60.992 113.018,64.650 113.223,66.667 113.348 C 71.979 113.678,77.102 113.978,81.667 114.226 C 83.867 114.346,87.317 114.546,89.333 114.672 C 91.350 114.797,94.850 114.991,97.111 115.104 C 99.372 115.216,103.072 115.411,105.333 115.537 C 124.497 116.605,128.067 116.591,135.667 115.415 C 142.569 114.346,147.524 112.300,146.422 110.973 C 145.320 109.645,140.482 108.031,135.222 107.236 C 131.174 106.625,120.757 105.983,120.416 106.324 M373.607 111.389 L 373.667 116.111 377.222 116.159 L 380.778 116.207 386.415 113.937 C 389.516 112.688,392.066 111.567,392.081 111.444 C 392.096 111.322,390.259 110.490,387.999 109.596 C 385.738 108.701,383.589 107.836,383.222 107.673 C 381.005 106.685,380.894 106.667,377.191 106.667 L 373.547 106.667 373.607 111.389 M196.597 108.589 C 195.916 109.269,196.450 109.341,201.722 109.282 C 206.239 109.231,207.000 109.174,207.000 108.889 C 207.000 108.536,196.940 108.245,196.597 108.589 M215.481 108.593 C 215.176 108.899,215.317 113.932,215.639 114.199 C 215.853 114.377,217.436 114.435,220.917 114.393 L 225.889 114.333 225.951 111.389 L 226.013 108.444 220.821 108.444 C 217.966 108.444,215.563 108.511,215.481 108.593 M335.858 108.778 C 335.491 109.734,335.723 109.778,341.096 109.778 C 346.429 109.778,347.151 109.630,346.553 108.662 C 346.309 108.268,336.011 108.379,335.858 108.778 M355.041 108.589 C 354.055 109.575,354.957 109.778,360.296 109.774 C 365.132 109.771,365.657 109.690,365.519 108.973 C 365.436 108.545,355.452 108.178,355.041 108.589 M189.785 109.226 C 191.542 110.134,191.443 113.102,189.633 113.790 C 189.263 113.931,185.674 113.991,179.949 113.952 L 170.852 113.889 170.204 113.163 C 169.068 111.891,169.483 109.710,170.975 109.107 C 171.890 108.737,189.050 108.846,189.785 109.226 M310.214 110.264 C 311.707 111.867,309.425 114.232,307.697 112.873 C 306.994 112.320,306.875 110.852,307.479 110.184 C 308.022 109.584,309.624 109.631,310.214 110.264 M308.444 111.444 C 308.444 111.885,308.542 112.014,308.833 111.958 C 309.047 111.917,309.222 111.686,309.222 111.444 C 309.222 111.203,309.047 110.972,308.833 110.931 C 308.542 110.875,308.444 111.004,308.444 111.444 M354.889 113.754 C 354.889 114.399,355.247 114.444,360.324 114.444 C 365.130 114.444,365.911 114.311,365.450 113.565 C 365.151 113.081,354.889 113.265,354.889 113.754 M191.202 119.968 C 191.316 120.152,185.792 139.824,185.343 140.833 C 185.122 141.329,185.083 141.333,180.365 141.333 L 175.609 141.333 175.370 140.722 C 175.238 140.386,174.868 139.211,174.549 138.111 C 174.230 137.011,173.168 133.361,172.189 130.000 C 171.210 126.639,170.326 123.589,170.226 123.222 C 170.125 122.856,169.884 122.056,169.690 121.444 C 169.497 120.833,169.337 120.208,169.336 120.056 C 169.333 119.727,191.000 119.641,191.202 119.968 M173.264 122.833 C 173.211 122.925,173.448 123.950,173.790 125.111 C 174.132 126.272,175.111 129.644,175.965 132.603 C 176.820 135.562,177.583 138.087,177.662 138.214 C 177.831 138.489,182.808 138.533,182.976 138.262 C 183.038 138.161,183.350 137.136,183.670 135.984 C 183.989 134.832,184.338 133.589,184.445 133.222 C 184.551 132.856,185.139 130.806,185.750 128.667 C 186.361 126.528,186.968 124.428,187.097 124.001 C 187.227 123.574,187.333 123.099,187.333 122.946 C 187.333 122.632,173.443 122.521,173.264 122.833 " stroke="none" fill="#fbfbfb" fill-rule="evenodd"></path><path id="path2" d="M117.222 103.792 C 115.511 103.887,111.911 104.078,109.222 104.218 C 106.533 104.357,103.583 104.515,102.667 104.569 C 101.120 104.660,96.400 104.912,90.556 105.216 C 89.211 105.286,86.611 105.443,84.778 105.565 C 81.513 105.782,69.934 106.437,61.333 106.891 C 58.950 107.017,54.400 107.273,51.222 107.459 C 42.839 107.952,38.191 108.215,33.667 108.450 C 31.467 108.564,28.042 108.760,26.056 108.885 C 20.356 109.242,15.620 109.512,10.222 109.788 C 4.810 110.065,4.665 110.105,4.670 111.305 C 4.676 112.708,4.750 112.740,8.374 112.924 C 12.284 113.122,19.031 113.505,23.667 113.792 C 25.500 113.905,28.850 114.096,31.111 114.216 C 38.255 114.596,42.827 114.849,48.778 115.196 C 51.956 115.381,56.656 115.642,59.222 115.775 C 61.789 115.908,66.489 116.168,69.667 116.353 C 78.802 116.885,89.104 117.449,95.529 117.768 C 98.019 117.892,101.769 118.095,103.862 118.220 C 122.868 119.353,129.658 119.303,136.889 117.979 C 146.761 116.170,150.318 114.138,149.600 110.716 C 149.010 107.900,145.679 106.347,136.667 104.685 C 131.731 103.774,123.980 103.419,117.222 103.792 M130.254 106.442 C 138.024 107.185,143.606 108.577,145.932 110.351 C 147.828 111.797,145.225 113.641,139.556 114.868 C 138.883 115.014,137.933 115.220,137.444 115.327 C 130.423 116.865,121.245 116.868,98.000 115.343 C 96.106 115.219,92.556 115.013,90.111 114.886 C 87.667 114.760,82.217 114.458,78.000 114.217 C 68.431 113.669,62.663 113.346,60.222 113.222 C 54.659 112.939,45.989 112.419,43.556 112.222 C 42.028 112.099,40.178 111.999,39.444 112.000 C 37.613 112.003,33.556 111.516,33.556 111.293 C 33.556 111.193,34.166 111.111,34.911 111.111 C 35.657 111.111,37.732 111.011,39.523 110.888 C 46.068 110.439,49.534 110.220,53.667 109.997 C 55.989 109.872,59.339 109.672,61.111 109.553 C 62.883 109.435,66.283 109.234,68.667 109.108 C 71.050 108.981,76.300 108.683,80.333 108.445 C 84.367 108.207,89.567 107.902,91.889 107.769 C 94.211 107.635,96.761 107.483,97.556 107.430 C 99.129 107.325,105.330 106.968,109.222 106.757 C 110.567 106.685,112.767 106.549,114.111 106.456 C 117.783 106.200,127.640 106.192,130.254 106.442 " stroke="none" fill="#e32e2d" fill-rule="evenodd"></path><path id="path3" d="M175.396 81.833 C 175.279 81.986,175.010 82.711,174.798 83.444 C 173.986 86.263,172.500 91.465,172.387 91.889 C 172.321 92.133,171.601 94.620,170.787 97.415 C 169.972 100.210,169.359 102.635,169.424 102.804 C 169.612 103.293,190.846 103.258,191.035 102.768 C 191.146 102.479,190.040 98.232,188.231 92.000 C 188.000 91.206,187.294 88.706,186.661 86.444 C 186.028 84.183,185.416 82.158,185.303 81.944 C 185.036 81.445,175.775 81.341,175.396 81.833 M181.500 83.720 C 180.797 83.764,179.647 83.764,178.944 83.720 C 178.242 83.676,178.817 83.640,180.222 83.640 C 181.628 83.640,182.203 83.676,181.500 83.720 M182.842 84.500 C 182.968 84.653,183.587 86.578,184.216 88.778 C 184.845 90.978,185.454 93.078,185.570 93.444 C 185.954 94.657,187.333 99.649,187.333 99.826 C 187.333 99.922,184.123 100.000,180.198 100.000 C 173.494 100.000,173.073 99.977,173.214 99.611 C 173.297 99.397,173.502 98.722,173.669 98.111 C 173.836 97.500,174.387 95.600,174.892 93.889 C 176.434 88.666,177.151 86.140,177.269 85.507 C 177.441 84.584,177.739 84.467,180.124 84.388 C 181.339 84.348,182.396 84.294,182.473 84.269 C 182.549 84.243,182.716 84.347,182.842 84.500 M183.944 100.833 C 181.897 100.870,178.547 100.870,176.500 100.833 C 174.453 100.796,176.128 100.766,180.222 100.766 C 184.317 100.766,185.992 100.796,183.944 100.833 M180.778 102.279 L 191.000 102.338 180.410 102.391 C 169.875 102.444,169.820 102.442,169.937 101.995 C 170.039 101.605,170.088 101.590,170.305 101.883 C 170.522 102.175,171.934 102.229,180.778 102.279 M150.768 103.390 C 150.709 103.543,150.687 107.218,150.719 111.557 L 150.778 119.444 152.556 119.517 C 157.042 119.700,163.055 118.173,166.426 115.994 C 168.384 114.729,168.444 114.589,168.444 111.303 L 168.444 108.482 167.389 107.551 C 165.806 106.154,162.920 104.798,159.778 103.973 C 156.805 103.193,150.988 102.816,150.768 103.390 M121.611 103.498 C 122.314 103.542,123.464 103.542,124.167 103.498 C 124.869 103.453,124.294 103.417,122.889 103.417 C 121.483 103.417,120.908 103.453,121.611 103.498 M114.833 103.712 C 115.108 103.765,115.558 103.765,115.833 103.712 C 116.108 103.659,115.883 103.616,115.333 103.616 C 114.783 103.616,114.558 103.659,114.833 103.712 M156.426 103.917 C 156.477 103.962,155.352 104.000,153.926 104.000 C 152.211 104.000,151.333 103.918,151.333 103.759 C 151.333 103.536,156.170 103.686,156.426 103.917 M370.941 103.741 C 370.722 103.880,370.674 105.575,370.719 111.459 L 370.778 119.000 375.989 119.060 L 381.200 119.120 387.433 116.636 C 394.285 113.907,394.888 113.573,395.320 112.263 C 396.059 110.022,395.286 109.353,389.111 106.883 C 386.361 105.783,383.911 104.795,383.667 104.687 C 381.084 103.545,381.155 103.555,376.070 103.559 C 373.404 103.561,371.096 103.643,370.941 103.741 M378.957 104.388 C 377.589 104.427,375.289 104.427,373.846 104.388 C 372.403 104.350,373.522 104.318,376.333 104.318 C 379.144 104.317,380.325 104.349,378.957 104.388 M98.722 104.598 C 98.936 104.654,99.286 104.654,99.500 104.598 C 99.714 104.542,99.539 104.496,99.111 104.496 C 98.683 104.496,98.508 104.542,98.722 104.598 M96.391 104.824 C 96.668 104.877,97.068 104.875,97.280 104.819 C 97.493 104.764,97.267 104.720,96.778 104.723 C 96.289 104.725,96.115 104.771,96.391 104.824 M192.996 105.118 C 192.913 105.253,192.904 105.423,192.978 105.496 C 193.051 105.570,193.111 105.513,193.111 105.370 C 193.111 104.929,208.137 105.012,209.000 105.458 C 209.642 105.791,209.652 105.788,209.270 105.402 C 208.789 104.914,193.289 104.644,192.996 105.118 M213.854 105.054 C 213.713 105.146,216.663 105.196,220.410 105.165 C 227.889 105.102,227.940 105.110,228.827 106.425 C 229.105 106.839,229.333 107.061,229.333 106.918 C 229.333 106.776,228.991 106.287,228.573 105.830 L 227.812 105.000 220.962 104.943 C 217.194 104.911,213.995 104.961,213.854 105.054 M232.292 105.322 C 231.903 105.560,231.462 105.984,231.313 106.266 C 231.111 106.647,231.213 106.596,231.709 106.068 C 232.638 105.082,232.574 105.088,240.945 105.159 C 245.070 105.194,248.445 105.147,248.445 105.056 C 248.444 104.620,233.026 104.875,232.292 105.322 M249.886 105.117 C 249.802 105.252,249.793 105.423,249.867 105.496 C 249.940 105.570,250.000 105.513,250.000 105.370 C 250.000 105.041,253.025 105.011,253.187 105.339 C 253.249 105.464,253.275 105.439,253.243 105.283 C 253.169 104.913,250.105 104.761,249.886 105.117 M264.042 105.485 C 263.148 105.794,262.464 106.094,262.522 106.152 C 262.580 106.210,263.342 105.999,264.216 105.684 C 266.131 104.993,266.154 104.992,266.339 105.572 C 266.419 105.826,266.534 105.985,266.594 105.925 C 266.776 105.742,266.225 104.888,265.937 104.906 C 265.788 104.916,264.935 105.176,264.042 105.485 M268.803 105.238 C 268.606 105.750,268.635 117.510,268.833 117.632 C 268.925 117.689,269.000 114.920,269.000 111.479 L 269.000 105.222 277.621 105.164 L 286.243 105.106 286.177 106.608 L 286.111 108.111 279.170 108.170 L 272.229 108.229 272.094 108.768 C 271.942 109.371,272.113 109.780,272.513 109.774 C 272.691 109.772,272.680 109.709,272.478 109.581 C 272.313 109.477,272.215 109.203,272.259 108.973 C 272.335 108.577,272.688 108.553,279.277 108.497 L 286.215 108.438 286.343 107.929 C 286.413 107.650,286.440 106.876,286.402 106.210 L 286.333 105.000 277.636 104.942 C 269.849 104.890,268.924 104.921,268.803 105.238 M287.870 105.190 C 287.807 105.356,287.785 106.131,287.822 106.912 L 287.889 108.333 291.278 108.395 L 294.667 108.456 294.667 112.993 C 294.667 115.488,294.742 117.576,294.833 117.633 C 294.925 117.690,294.950 115.620,294.889 113.035 L 294.778 108.333 291.389 108.272 L 288.000 108.211 288.000 106.664 L 288.000 105.117 296.278 105.055 L 304.556 104.994 296.271 104.942 C 289.468 104.898,287.965 104.943,287.870 105.190 M313.351 105.268 C 313.361 105.501,313.415 105.551,313.481 105.389 C 313.619 105.046,316.575 105.001,316.743 105.339 C 316.805 105.464,316.830 105.439,316.799 105.283 C 316.698 104.781,313.329 104.767,313.351 105.268 M334.299 105.059 C 334.158 105.149,337.273 105.222,341.222 105.222 C 345.171 105.222,348.287 105.149,348.145 105.059 C 348.004 104.969,344.889 104.896,341.222 104.896 C 337.556 104.896,334.440 104.969,334.299 105.059 M351.434 105.170 C 351.375 105.324,351.354 108.199,351.389 111.559 L 351.452 117.667 351.504 111.381 L 351.556 105.095 359.424 105.159 C 363.751 105.194,367.176 105.149,367.035 105.059 C 366.548 104.750,351.554 104.857,351.434 105.170 M82.836 105.491 C 83.112 105.544,83.512 105.542,83.725 105.486 C 83.937 105.430,83.711 105.387,83.222 105.389 C 82.733 105.392,82.559 105.437,82.836 105.491 M156.500 105.490 C 156.225 105.543,155.775 105.543,155.500 105.490 C 155.225 105.437,155.450 105.394,156.000 105.394 C 156.550 105.394,156.775 105.437,156.500 105.490 M212.711 105.944 C 212.474 106.281,212.214 106.806,212.132 107.111 C 212.044 107.442,212.164 107.321,212.428 106.810 C 212.673 106.339,212.989 105.814,213.130 105.644 C 213.272 105.473,213.332 105.333,213.265 105.333 C 213.197 105.333,212.948 105.608,212.711 105.944 M333.285 105.722 C 332.831 106.243,332.442 107.015,332.453 107.374 C 332.458 107.535,332.612 107.320,332.796 106.896 C 332.980 106.471,333.292 105.946,333.489 105.729 C 333.686 105.511,333.797 105.333,333.736 105.333 C 333.674 105.333,333.472 105.508,333.285 105.722 M349.132 106.000 C 349.776 106.998,349.778 107.000,349.777 106.759 C 349.776 106.647,349.518 106.256,349.203 105.889 L 348.630 105.222 349.132 106.000 M158.389 105.931 C 158.175 105.987,157.825 105.987,157.611 105.931 C 157.397 105.875,157.572 105.829,158.000 105.829 C 158.428 105.829,158.603 105.875,158.389 105.931 M379.167 105.943 C 378.158 105.984,376.508 105.984,375.500 105.943 C 374.492 105.902,375.317 105.868,377.333 105.868 C 379.350 105.868,380.175 105.902,379.167 105.943 M71.947 106.157 C 72.223 106.210,72.623 106.208,72.836 106.153 C 73.048 106.097,72.822 106.054,72.333 106.056 C 71.844 106.059,71.671 106.104,71.947 106.157 M158.333 106.598 C 160.846 107.158,164.481 108.737,165.273 109.612 C 165.795 110.188,165.700 113.057,165.145 113.495 C 163.556 114.749,159.539 116.100,155.724 116.663 C 153.399 117.007,153.556 117.395,153.556 111.292 L 153.556 105.943 155.167 106.097 C 156.053 106.182,157.478 106.407,158.333 106.598 M386.586 106.332 C 386.964 106.529,387.075 106.664,386.859 106.665 C 386.659 106.666,386.209 106.517,385.859 106.335 C 385.481 106.137,385.370 106.002,385.586 106.001 C 385.786 106.001,386.236 106.149,386.586 106.332 M67.167 106.375 C 67.381 106.431,67.731 106.431,67.944 106.375 C 68.158 106.320,67.983 106.274,67.556 106.274 C 67.128 106.274,66.953 106.320,67.167 106.375 M153.055 113.944 C 153.016 115.381,152.984 114.206,152.984 111.333 C 152.984 108.461,153.016 107.286,153.055 108.722 C 153.094 110.158,153.094 112.508,153.055 113.944 M63.503 106.602 C 63.779 106.655,64.179 106.653,64.391 106.597 C 64.604 106.542,64.378 106.498,63.889 106.500 C 63.400 106.503,63.226 106.548,63.503 106.602 M116.611 106.601 C 116.886 106.654,117.336 106.654,117.611 106.601 C 117.886 106.548,117.661 106.505,117.111 106.505 C 116.561 106.505,116.336 106.548,116.611 106.601 M165.654 106.785 C 165.999 107.046,166.015 107.111,165.736 107.111 C 165.545 107.111,165.263 106.961,165.111 106.778 C 164.759 106.354,165.089 106.358,165.654 106.785 M58.391 106.824 C 58.668 106.877,59.068 106.875,59.280 106.819 C 59.493 106.764,59.267 106.720,58.778 106.723 C 58.289 106.725,58.115 106.771,58.391 106.824 M111.725 106.824 C 112.001 106.877,112.401 106.875,112.614 106.819 C 112.826 106.764,112.600 106.720,112.111 106.723 C 111.622 106.725,111.448 106.771,111.725 106.824 M210.411 108.380 C 210.515 110.445,210.202 111.569,209.312 112.317 C 208.938 112.632,208.722 112.889,208.830 112.889 C 210.060 112.889,211.346 108.301,210.493 106.960 C 210.401 106.816,210.364 107.455,210.411 108.380 M373.055 114.056 C 373.016 115.431,372.984 114.306,372.984 111.556 C 372.984 108.806,373.016 107.681,373.055 109.056 C 373.094 110.431,373.094 112.681,373.055 114.056 M381.695 107.021 C 382.168 107.216,382.856 107.509,383.222 107.673 C 383.589 107.836,385.738 108.701,387.999 109.596 C 390.259 110.490,392.096 111.322,392.081 111.444 C 392.066 111.567,389.516 112.688,386.415 113.937 L 380.778 116.207 377.222 116.159 L 373.667 116.111 373.607 111.389 L 373.547 106.667 377.191 106.667 C 380.019 106.667,381.027 106.746,381.695 107.021 M56.391 107.046 C 56.668 107.099,57.068 107.097,57.280 107.042 C 57.493 106.986,57.267 106.942,56.778 106.945 C 56.289 106.947,56.115 106.993,56.391 107.046 M107.947 107.046 C 108.223 107.099,108.623 107.097,108.836 107.042 C 109.048 106.986,108.822 106.942,108.333 106.945 C 107.844 106.947,107.671 106.993,107.947 107.046 M230.806 107.583 C 230.621 108.506,230.657 114.896,230.849 115.380 C 230.932 115.589,231.000 113.764,231.000 111.324 C 231.000 108.885,230.987 106.889,230.972 106.889 C 230.957 106.889,230.882 107.201,230.806 107.583 M349.730 112.445 C 349.695 115.378,349.742 117.778,349.833 117.778 C 349.925 117.778,350.000 115.378,350.000 112.444 C 350.000 109.511,349.953 107.111,349.897 107.111 C 349.840 107.111,349.765 109.511,349.730 112.445 M267.057 107.889 C 266.998 108.194,267.037 108.444,267.142 108.444 C 267.247 108.444,267.333 108.194,267.333 107.889 C 267.333 107.583,267.295 107.333,267.248 107.333 C 267.201 107.333,267.115 107.583,267.057 107.889 M40.836 107.935 C 41.112 107.988,41.512 107.986,41.725 107.930 C 41.937 107.875,41.711 107.831,41.222 107.834 C 40.733 107.836,40.559 107.882,40.836 107.935 M248.089 108.000 C 247.962 108.127,245.088 108.240,241.103 108.274 L 234.333 108.333 234.272 111.245 C 234.224 113.474,234.280 114.216,234.509 114.406 C 234.848 114.688,248.445 114.891,248.445 114.614 C 248.444 114.524,245.319 114.424,241.500 114.392 L 234.556 114.333 234.494 111.389 L 234.432 108.444 241.314 108.444 C 245.948 108.444,248.244 108.367,248.342 108.207 C 248.542 107.885,248.355 107.734,248.089 108.000 M305.009 107.985 C 304.916 108.136,303.654 108.222,301.542 108.222 C 299.716 108.222,298.222 108.297,298.222 108.389 C 298.221 108.630,304.960 108.461,305.207 108.214 C 305.321 108.101,305.356 107.949,305.285 107.878 C 305.214 107.807,305.090 107.855,305.009 107.985 M35.725 108.157 C 36.001 108.210,36.401 108.208,36.614 108.153 C 36.826 108.097,36.600 108.054,36.111 108.056 C 35.622 108.059,35.448 108.104,35.725 108.157 M196.357 108.574 C 196.142 109.134,196.200 109.227,196.503 108.812 C 196.758 108.464,197.265 108.434,201.927 108.492 C 204.755 108.527,207.023 108.481,206.966 108.389 C 206.736 108.018,196.502 108.196,196.357 108.574 M215.382 108.485 C 214.946 108.921,215.013 113.870,215.460 114.317 C 215.845 114.702,225.368 114.849,225.951 114.479 C 226.165 114.344,226.220 113.553,226.173 111.316 L 226.111 108.333 220.882 108.274 C 217.001 108.230,215.582 108.284,215.382 108.485 M335.822 108.489 C 335.521 108.790,335.466 109.474,335.730 109.637 C 335.825 109.696,335.900 109.477,335.896 109.150 L 335.889 108.556 341.257 108.556 C 344.209 108.556,346.578 108.481,346.521 108.389 C 346.338 108.093,336.123 108.189,335.822 108.489 M354.761 108.765 C 354.609 109.370,354.779 109.780,355.180 109.774 C 355.358 109.772,355.347 109.709,355.145 109.581 C 354.980 109.477,354.881 109.203,354.926 108.973 C 355.002 108.579,355.294 108.556,360.222 108.556 C 365.151 108.556,365.443 108.579,365.519 108.973 C 365.563 109.203,365.464 109.486,365.300 109.601 C 365.059 109.770,365.065 109.794,365.333 109.721 C 365.769 109.602,365.886 108.954,365.547 108.545 C 365.327 108.280,364.355 108.222,360.088 108.222 L 354.897 108.222 354.761 108.765 M27.611 108.598 C 27.825 108.654,28.175 108.654,28.389 108.598 C 28.603 108.542,28.428 108.496,28.000 108.496 C 27.572 108.496,27.397 108.542,27.611 108.598 M225.951 111.389 L 225.889 114.333 220.917 114.393 C 217.436 114.435,215.853 114.377,215.639 114.199 C 215.317 113.932,215.176 108.899,215.481 108.593 C 215.563 108.511,217.966 108.444,220.821 108.444 L 226.013 108.444 225.951 111.389 M254.708 108.818 C 254.181 109.005,253.789 109.197,253.837 109.245 C 253.939 109.346,256.000 108.669,256.000 108.535 C 256.000 108.396,255.747 108.451,254.708 108.818 M20.500 109.042 C 20.714 109.098,21.064 109.098,21.278 109.042 C 21.492 108.986,21.317 108.940,20.889 108.940 C 20.461 108.940,20.286 108.986,20.500 109.042 M72.614 109.046 C 72.890 109.099,73.290 109.097,73.503 109.042 C 73.715 108.986,73.489 108.942,73.000 108.945 C 72.511 108.947,72.337 108.993,72.614 109.046 M170.975 109.107 C 169.483 109.710,169.068 111.891,170.204 113.163 L 170.852 113.889 179.949 113.952 C 185.674 113.991,189.263 113.931,189.633 113.790 C 191.443 113.102,191.542 110.134,189.785 109.226 C 189.050 108.846,171.890 108.737,170.975 109.107 M16.836 109.268 C 17.112 109.321,17.512 109.319,17.725 109.264 C 17.937 109.208,17.711 109.165,17.222 109.167 C 16.733 109.170,16.559 109.215,16.836 109.268 M70.722 109.264 C 70.936 109.320,71.286 109.320,71.500 109.264 C 71.714 109.208,71.539 109.163,71.111 109.163 C 70.683 109.163,70.508 109.208,70.722 109.264 M201.667 109.333 L 196.333 109.457 201.722 109.506 C 205.200 109.538,207.111 109.477,207.111 109.333 C 207.111 109.211,207.086 109.133,207.056 109.161 C 207.025 109.188,204.600 109.266,201.667 109.333 M394.000 109.444 C 394.154 109.630,394.178 109.778,394.054 109.778 C 393.932 109.778,393.708 109.628,393.556 109.444 C 393.401 109.259,393.377 109.111,393.501 109.111 C 393.623 109.111,393.848 109.261,394.000 109.444 M12.169 109.491 C 12.446 109.544,12.846 109.542,13.058 109.486 C 13.271 109.430,13.044 109.387,12.556 109.389 C 12.067 109.392,11.893 109.437,12.169 109.491 M65.725 109.491 C 66.001 109.544,66.401 109.542,66.614 109.486 C 66.826 109.430,66.600 109.387,66.111 109.389 C 65.622 109.392,65.448 109.437,65.725 109.491 M166.163 112.389 C 166.118 112.969,166.080 112.494,166.080 111.333 C 166.080 110.172,166.118 109.697,166.163 110.278 C 166.209 110.858,166.209 111.808,166.163 112.389 M390.141 109.665 C 390.519 109.863,390.630 109.998,390.414 109.999 C 390.214 109.999,389.764 109.851,389.414 109.668 C 389.036 109.471,388.925 109.336,389.141 109.335 C 389.341 109.334,389.791 109.483,390.141 109.665 M62.389 109.712 C 62.664 109.765,63.114 109.765,63.389 109.712 C 63.664 109.659,63.439 109.616,62.889 109.616 C 62.339 109.616,62.114 109.659,62.389 109.712 M190.056 109.865 C 190.269 110.027,190.444 110.292,190.444 110.452 C 190.444 110.645,190.275 110.590,189.944 110.289 C 189.669 110.039,189.294 109.780,189.111 109.712 C 188.875 109.626,188.908 109.588,189.222 109.580 C 189.467 109.574,189.842 109.703,190.056 109.865 M57.947 109.935 C 58.223 109.988,58.623 109.986,58.836 109.930 C 59.048 109.875,58.822 109.831,58.333 109.834 C 57.844 109.836,57.671 109.882,57.947 109.935 M286.111 111.410 L 286.111 113.000 279.158 113.059 C 271.726 113.122,271.641 113.136,272.213 114.205 C 272.455 114.657,272.601 114.667,279.331 114.667 L 286.202 114.667 286.284 116.112 L 286.366 117.557 286.350 116.056 L 286.333 114.556 279.411 114.497 C 273.350 114.445,272.473 114.395,272.355 114.088 C 272.085 113.384,272.545 113.333,279.191 113.333 C 284.121 113.333,285.982 113.262,286.178 113.067 C 286.468 112.777,286.553 110.094,286.278 109.923 C 286.186 109.866,286.111 110.535,286.111 111.410 M307.479 110.184 C 306.875 110.852,306.994 112.320,307.697 112.873 C 309.425 114.232,311.707 111.867,310.214 110.264 C 309.624 109.631,308.022 109.584,307.479 110.184 M50.944 110.375 C 51.158 110.431,51.508 110.431,51.722 110.375 C 51.936 110.320,51.761 110.274,51.333 110.274 C 50.906 110.274,50.731 110.320,50.944 110.375 M309.727 110.409 C 309.892 110.513,309.552 110.581,308.916 110.572 C 308.313 110.563,307.867 110.481,307.923 110.389 C 308.060 110.167,309.370 110.182,309.727 110.409 M47.503 110.602 C 47.779 110.655,48.179 110.653,48.391 110.597 C 48.604 110.542,48.378 110.498,47.889 110.500 C 47.400 110.503,47.226 110.548,47.503 110.602 M170.722 112.611 C 171.025 112.936,171.086 113.111,170.897 113.111 C 170.393 113.111,170.013 112.369,170.043 111.444 L 170.071 110.556 170.163 111.333 C 170.214 111.761,170.465 112.336,170.722 112.611 M309.222 111.444 C 309.222 111.686,309.047 111.917,308.833 111.958 C 308.542 112.014,308.444 111.885,308.444 111.444 C 308.444 111.004,308.542 110.875,308.833 110.931 C 309.047 110.972,309.222 111.203,309.222 111.444 M258.222 111.326 C 258.222 111.583,258.965 112.007,259.374 111.982 C 259.535 111.973,259.380 111.861,259.030 111.733 C 258.553 111.560,258.470 111.454,258.697 111.310 C 258.934 111.160,258.915 111.117,258.611 111.115 C 258.397 111.113,258.222 111.208,258.222 111.326 M44.391 112.157 C 44.668 112.210,45.068 112.208,45.280 112.153 C 45.493 112.097,45.267 112.054,44.778 112.056 C 44.289 112.059,44.115 112.104,44.391 112.157 M47.833 112.375 C 48.047 112.431,48.397 112.431,48.611 112.375 C 48.825 112.320,48.650 112.274,48.222 112.274 C 47.794 112.274,47.619 112.320,47.833 112.375 M309.280 112.597 C 309.068 112.653,308.668 112.655,308.391 112.602 C 308.115 112.548,308.289 112.503,308.778 112.500 C 309.267 112.498,309.493 112.542,309.280 112.597 M54.836 112.824 C 55.112 112.877,55.512 112.875,55.725 112.819 C 55.937 112.764,55.711 112.720,55.222 112.723 C 54.733 112.725,54.559 112.771,54.836 112.824 M59.947 113.046 C 60.223 113.099,60.623 113.097,60.836 113.042 C 61.048 112.986,60.822 112.942,60.333 112.945 C 59.844 112.947,59.671 112.993,59.947 113.046 M207.111 113.103 C 207.111 113.221,207.305 113.421,207.541 113.548 C 208.132 113.864,208.439 113.826,207.889 113.505 C 207.459 113.254,207.462 113.240,208.000 113.089 C 208.514 112.945,208.501 112.932,207.833 112.911 C 207.436 112.899,207.111 112.985,207.111 113.103 M9.056 113.268 C 9.331 113.321,9.781 113.321,10.056 113.268 C 10.331 113.215,10.106 113.172,9.556 113.172 C 9.006 113.172,8.781 113.215,9.056 113.268 M63.056 113.268 C 63.331 113.321,63.781 113.321,64.056 113.268 C 64.331 113.215,64.106 113.172,63.556 113.172 C 63.006 113.172,62.781 113.215,63.056 113.268 M196.362 113.450 C 196.154 113.993,196.206 114.163,196.451 113.742 C 196.647 113.406,196.821 113.431,198.364 114.026 C 199.298 114.385,200.101 114.639,200.150 114.591 C 200.199 114.542,199.560 114.248,198.730 113.938 C 197.901 113.627,197.060 113.308,196.862 113.229 C 196.636 113.139,196.450 113.221,196.362 113.450 M335.668 113.389 C 335.493 113.895,335.441 117.739,335.611 117.633 C 335.703 117.576,335.778 116.582,335.778 115.424 L 335.778 113.318 341.222 113.381 C 344.217 113.416,346.667 113.369,346.667 113.278 C 346.667 112.968,335.775 113.078,335.668 113.389 M354.737 113.471 C 354.355 114.467,354.751 114.552,360.060 114.615 C 365.374 114.679,365.922 114.579,365.730 113.584 C 365.623 113.027,354.950 112.916,354.737 113.471 M14.169 113.491 C 14.446 113.544,14.846 113.542,15.058 113.486 C 15.271 113.430,15.044 113.387,14.556 113.389 C 14.067 113.392,13.893 113.437,14.169 113.491 M68.056 113.487 C 68.269 113.542,68.619 113.542,68.833 113.487 C 69.047 113.431,68.872 113.385,68.444 113.385 C 68.017 113.385,67.842 113.431,68.056 113.487 M184.959 113.500 C 182.493 113.535,178.393 113.535,175.848 113.500 C 173.304 113.464,175.322 113.435,180.333 113.435 C 185.344 113.435,187.426 113.464,184.959 113.500 M365.450 113.565 C 365.911 114.311,365.130 114.444,360.324 114.444 C 355.247 114.444,354.889 114.399,354.889 113.754 C 354.889 113.265,365.151 113.081,365.450 113.565 M17.833 113.709 C 18.047 113.765,18.397 113.765,18.611 113.709 C 18.825 113.653,18.650 113.607,18.222 113.607 C 17.794 113.607,17.619 113.653,17.833 113.709 M254.880 114.112 C 255.791 114.407,256.572 114.613,256.614 114.571 C 256.725 114.460,253.980 113.554,253.568 113.565 C 253.378 113.571,253.968 113.817,254.880 114.112 M346.522 115.556 C 346.522 116.594,346.560 117.019,346.607 116.500 C 346.654 115.981,346.654 115.131,346.607 114.611 C 346.560 114.092,346.522 114.517,346.522 115.556 M83.611 114.375 C 83.825 114.431,84.175 114.431,84.389 114.375 C 84.603 114.320,84.428 114.274,84.000 114.274 C 83.572 114.274,83.397 114.320,83.611 114.375 M266.965 114.771 C 267.107 115.072,267.257 115.219,267.299 115.097 C 267.408 114.780,267.164 114.222,266.917 114.222 C 266.800 114.222,266.822 114.464,266.965 114.771 M317.034 114.500 C 317.091 114.592,320.240 114.667,324.031 114.667 L 330.925 114.667 330.852 116.212 C 330.811 117.062,330.858 117.677,330.956 117.578 C 331.054 117.480,331.104 116.759,331.067 115.977 L 331.000 114.556 323.965 114.444 C 320.096 114.383,316.977 114.408,317.034 114.500 M33.389 114.598 C 33.603 114.654,33.953 114.654,34.167 114.598 C 34.381 114.542,34.206 114.496,33.778 114.496 C 33.350 114.496,33.175 114.542,33.389 114.598 M38.614 114.824 C 38.890 114.877,39.290 114.875,39.503 114.819 C 39.715 114.764,39.489 114.720,39.000 114.723 C 38.511 114.725,38.337 114.771,38.614 114.824 M40.614 115.046 C 40.890 115.099,41.290 115.097,41.503 115.042 C 41.715 114.986,41.489 114.942,41.000 114.945 C 40.511 114.947,40.337 114.993,40.614 115.046 M99.167 115.264 C 99.381 115.320,99.731 115.320,99.944 115.264 C 100.158 115.208,99.983 115.163,99.556 115.163 C 99.128 115.163,98.953 115.208,99.167 115.264 M166.444 115.444 C 166.292 115.628,166.068 115.778,165.946 115.778 C 165.822 115.778,165.846 115.630,166.000 115.444 C 166.152 115.261,166.377 115.111,166.499 115.111 C 166.623 115.111,166.599 115.259,166.444 115.444 M54.169 115.713 C 54.446 115.766,54.846 115.764,55.058 115.708 C 55.271 115.653,55.044 115.609,54.556 115.612 C 54.067 115.614,53.893 115.660,54.169 115.713 M368.332 116.303 C 368.087 116.686,367.537 117.175,367.110 117.389 C 366.683 117.602,366.501 117.777,366.705 117.777 C 367.146 117.778,368.356 116.803,368.690 116.179 C 369.075 115.460,368.813 115.551,368.332 116.303 M56.167 115.935 C 56.442 115.988,56.892 115.988,57.167 115.935 C 57.442 115.882,57.217 115.838,56.667 115.838 C 56.117 115.838,55.892 115.882,56.167 115.935 M110.167 115.935 C 110.442 115.988,110.892 115.988,111.167 115.935 C 111.442 115.882,111.217 115.838,110.667 115.838 C 110.117 115.838,109.892 115.882,110.167 115.935 M61.611 116.153 C 61.825 116.209,62.175 116.209,62.389 116.153 C 62.603 116.097,62.428 116.052,62.000 116.052 C 61.572 116.052,61.397 116.097,61.611 116.153 M115.278 116.157 C 115.553 116.210,116.003 116.210,116.278 116.157 C 116.553 116.104,116.328 116.061,115.778 116.061 C 115.228 116.061,115.003 116.104,115.278 116.157 M204.031 116.105 C 204.225 116.299,207.167 117.352,207.259 117.260 C 207.309 117.210,206.640 116.906,205.773 116.584 C 204.217 116.008,203.826 115.900,204.031 116.105 M231.111 116.152 C 231.111 116.471,232.600 117.780,232.952 117.771 C 233.101 117.767,233.022 117.658,232.778 117.528 C 232.533 117.398,232.058 116.980,231.722 116.599 C 231.386 116.217,231.111 116.017,231.111 116.152 M65.058 116.379 C 65.335 116.433,65.735 116.431,65.947 116.375 C 66.159 116.319,65.933 116.276,65.444 116.278 C 64.956 116.281,64.782 116.326,65.058 116.379 M119.392 116.382 C 119.730 116.433,120.230 116.431,120.503 116.379 C 120.776 116.326,120.500 116.284,119.889 116.286 C 119.278 116.287,119.054 116.331,119.392 116.382 M70.169 116.602 C 70.446 116.655,70.846 116.653,71.058 116.597 C 71.271 116.542,71.044 116.498,70.556 116.500 C 70.067 116.503,69.893 116.548,70.169 116.602 M213.159 117.167 C 213.503 117.503,213.908 117.775,214.059 117.771 C 214.210 117.767,214.133 117.654,213.889 117.518 C 213.644 117.383,213.240 117.111,212.989 116.914 C 212.739 116.717,212.816 116.831,213.159 117.167 M262.222 116.523 C 262.222 116.687,264.490 117.362,264.616 117.236 C 264.668 117.183,264.295 117.028,263.786 116.891 C 263.277 116.754,262.717 116.587,262.542 116.519 C 262.366 116.452,262.222 116.454,262.222 116.523 M159.278 116.820 C 159.064 116.876,158.714 116.876,158.500 116.820 C 158.286 116.764,158.461 116.718,158.889 116.718 C 159.317 116.718,159.492 116.764,159.278 116.820 M379.389 116.832 C 378.258 116.873,376.408 116.873,375.278 116.832 C 374.147 116.792,375.072 116.759,377.333 116.759 C 379.594 116.759,380.519 116.792,379.389 116.832 M77.278 117.046 C 77.553 117.099,78.003 117.099,78.278 117.046 C 78.553 116.993,78.328 116.949,77.778 116.949 C 77.228 116.949,77.003 116.993,77.278 117.046 M81.058 117.268 C 81.335 117.321,81.735 117.319,81.947 117.264 C 82.159 117.208,81.933 117.165,81.444 117.167 C 80.956 117.170,80.782 117.215,81.058 117.268 M157.278 117.270 C 156.942 117.321,156.392 117.321,156.056 117.270 C 155.719 117.219,155.994 117.178,156.667 117.178 C 157.339 117.178,157.614 117.219,157.278 117.270 M208.986 117.356 C 208.897 117.499,208.548 117.545,208.140 117.467 C 207.641 117.372,207.539 117.396,207.778 117.552 C 208.261 117.870,208.794 117.826,209.111 117.444 C 209.263 117.261,209.331 117.111,209.263 117.111 C 209.194 117.111,209.069 117.221,208.986 117.356 M95.058 117.935 C 95.335 117.988,95.735 117.986,95.947 117.930 C 96.159 117.875,95.933 117.831,95.444 117.834 C 94.956 117.836,94.782 117.882,95.058 117.935 M97.058 118.157 C 97.335 118.210,97.735 118.208,97.947 118.153 C 98.159 118.097,97.933 118.054,97.444 118.056 C 96.956 118.059,96.782 118.104,97.058 118.157 M102.614 118.379 C 102.890 118.433,103.290 118.431,103.503 118.375 C 103.715 118.319,103.489 118.276,103.000 118.278 C 102.511 118.281,102.337 118.326,102.614 118.379 M379.291 118.388 C 377.861 118.427,375.461 118.427,373.957 118.388 C 372.453 118.350,373.622 118.318,376.556 118.318 C 379.489 118.318,380.720 118.349,379.291 118.388 M156.426 118.750 C 156.170 118.981,151.333 119.131,151.333 118.908 C 151.333 118.748,152.211 118.667,153.926 118.667 C 155.352 118.667,156.477 118.704,156.426 118.750 M113.500 119.046 C 113.775 119.099,114.225 119.099,114.500 119.046 C 114.775 118.993,114.550 118.949,114.000 118.949 C 113.450 118.949,113.225 118.993,113.500 119.046 M119.500 119.268 C 119.775 119.321,120.225 119.321,120.500 119.268 C 120.775 119.215,120.550 119.172,120.000 119.172 C 119.450 119.172,119.225 119.215,119.500 119.268 M124.837 119.272 C 125.237 119.322,125.837 119.321,126.171 119.270 C 126.505 119.219,126.178 119.179,125.444 119.180 C 124.711 119.181,124.438 119.223,124.837 119.272 M169.336 120.056 C 169.337 120.208,169.497 120.833,169.690 121.444 C 169.884 122.056,170.125 122.856,170.226 123.222 C 170.326 123.589,171.210 126.639,172.189 130.000 C 173.168 133.361,174.230 137.011,174.549 138.111 C 174.868 139.211,175.238 140.386,175.370 140.722 L 175.609 141.333 180.365 141.333 C 185.083 141.333,185.122 141.329,185.343 140.833 C 185.792 139.824,191.316 120.152,191.202 119.968 C 191.000 119.641,169.333 119.727,169.336 120.056 M180.798 120.389 C 174.310 120.427,170.497 120.531,170.324 120.675 C 170.132 120.834,170.014 120.800,169.922 120.561 C 169.806 120.260,170.968 120.228,180.396 120.275 L 191.000 120.329 180.798 120.389 M184.056 121.944 C 182.069 121.981,178.819 121.981,176.833 121.944 C 174.847 121.907,176.472 121.877,180.444 121.877 C 184.417 121.877,186.042 121.907,184.056 121.944 M187.333 122.946 C 187.333 123.099,187.227 123.574,187.097 124.001 C 186.968 124.428,186.361 126.528,185.750 128.667 C 185.139 130.806,184.551 132.856,184.445 133.222 C 184.338 133.589,183.989 134.832,183.670 135.984 C 183.350 137.136,183.038 138.161,182.976 138.262 C 182.808 138.533,177.831 138.489,177.662 138.214 C 177.583 138.087,176.820 135.562,175.965 132.603 C 175.111 129.644,174.132 126.272,173.790 125.111 C 173.448 123.950,173.211 122.925,173.264 122.833 C 173.443 122.521,187.333 122.632,187.333 122.946 M173.144 130.582 C 173.272 130.841,173.329 131.241,173.270 131.471 C 173.178 131.830,173.159 131.820,173.137 131.402 C 173.123 131.134,173.011 130.853,172.889 130.778 C 172.767 130.702,172.678 130.321,172.692 129.931 C 172.708 129.494,172.755 129.392,172.815 129.667 C 172.868 129.911,173.017 130.323,173.144 130.582 M181.833 139.053 C 181.069 139.097,179.819 139.097,179.056 139.053 C 178.292 139.010,178.917 138.975,180.444 138.975 C 181.972 138.975,182.597 139.010,181.833 139.053 " stroke="none" fill="#919191" fill-rule="evenodd"></path><path id="path4" d="M178.944 83.720 C 179.647 83.764,180.797 83.764,181.500 83.720 C 182.203 83.676,181.628 83.640,180.222 83.640 C 178.817 83.640,178.242 83.676,178.944 83.720 M176.500 100.833 C 178.547 100.870,181.897 100.870,183.944 100.833 C 185.992 100.796,184.317 100.766,180.222 100.766 C 176.128 100.766,174.453 100.796,176.500 100.833 M169.937 101.995 C 169.820 102.442,169.875 102.444,180.410 102.391 L 191.000 102.338 180.778 102.279 C 171.934 102.229,170.522 102.175,170.305 101.883 C 170.088 101.590,170.039 101.605,169.937 101.995 M117.167 103.719 C 117.747 103.765,118.697 103.765,119.278 103.719 C 119.858 103.673,119.383 103.636,118.222 103.636 C 117.061 103.636,116.586 103.673,117.167 103.719 M125.574 103.636 C 125.625 103.680,126.967 103.768,128.556 103.830 C 130.347 103.901,130.980 103.878,130.222 103.772 C 128.970 103.595,125.407 103.491,125.574 103.636 M151.333 103.759 C 151.333 103.918,152.211 104.000,153.926 104.000 C 155.352 104.000,156.477 103.962,156.426 103.917 C 156.170 103.686,151.333 103.536,151.333 103.759 M113.611 103.940 C 114.069 103.988,114.819 103.988,115.278 103.940 C 115.736 103.892,115.361 103.852,114.444 103.852 C 113.528 103.852,113.153 103.892,113.611 103.940 M106.111 104.231 C 105.378 104.317,106.128 104.337,107.778 104.276 C 109.428 104.214,110.819 104.127,110.870 104.082 C 111.018 103.952,107.577 104.059,106.111 104.231 M132.463 104.083 C 132.514 104.129,133.156 104.222,133.889 104.291 C 134.766 104.372,134.994 104.353,134.556 104.234 C 133.870 104.047,132.298 103.935,132.463 104.083 M373.846 104.388 C 375.289 104.427,377.589 104.427,378.957 104.388 C 380.325 104.349,379.144 104.317,376.333 104.318 C 373.522 104.318,372.403 104.350,373.846 104.388 M100.281 104.604 C 100.619 104.655,101.119 104.654,101.392 104.601 C 101.665 104.548,101.389 104.506,100.778 104.508 C 100.167 104.510,99.943 104.553,100.281 104.604 M136.556 104.667 C 136.800 104.772,137.200 104.855,137.444 104.851 C 137.802 104.846,137.780 104.810,137.333 104.667 C 136.574 104.423,135.989 104.423,136.556 104.667 M98.059 104.826 C 98.396 104.877,98.896 104.876,99.170 104.823 C 99.443 104.770,99.167 104.729,98.556 104.730 C 97.944 104.732,97.721 104.775,98.059 104.826 M92.056 105.051 C 92.514 105.099,93.264 105.099,93.722 105.051 C 94.181 105.003,93.806 104.964,92.889 104.964 C 91.972 104.964,91.597 105.003,92.056 105.051 M139.000 105.111 C 139.244 105.216,139.644 105.299,139.889 105.296 C 140.246 105.290,140.224 105.254,139.778 105.111 C 139.018 104.868,138.434 104.868,139.000 105.111 M296.222 105.118 L 287.889 105.235 296.222 105.279 C 300.806 105.303,304.686 105.325,304.844 105.328 C 305.055 105.332,305.115 105.679,305.067 106.611 L 305.000 107.889 301.556 108.000 L 298.111 108.111 297.989 112.778 C 297.845 118.253,298.070 117.556,296.444 117.556 L 295.111 117.556 295.111 113.044 C 295.111 107.524,295.471 107.988,291.233 108.047 L 287.889 108.093 291.333 108.213 L 294.778 108.333 294.889 113.000 L 295.000 117.667 296.327 117.735 C 298.239 117.833,298.222 117.878,298.222 112.624 L 298.222 108.222 301.511 108.222 C 305.289 108.222,305.333 108.202,305.333 106.519 C 305.333 104.923,305.725 104.983,296.222 105.118 M89.614 105.271 C 89.952 105.322,90.452 105.320,90.725 105.268 C 90.999 105.215,90.722 105.173,90.111 105.175 C 89.500 105.176,89.276 105.219,89.614 105.271 M193.024 105.463 C 192.786 106.083,192.872 116.887,193.119 117.348 C 193.307 117.699,193.591 117.778,194.667 117.778 C 196.287 117.778,196.462 117.539,196.402 115.403 L 196.360 113.889 196.290 115.222 C 196.165 117.571,196.176 117.556,194.686 117.556 C 193.701 117.556,193.348 117.469,193.246 117.204 C 192.975 116.498,193.096 105.660,193.378 105.378 C 193.556 105.199,193.564 105.111,193.402 105.111 C 193.268 105.111,193.098 105.269,193.024 105.463 M197.389 105.277 C 199.436 105.314,202.786 105.314,204.833 105.277 C 206.881 105.241,205.206 105.211,201.111 105.211 C 197.017 105.211,195.342 105.241,197.389 105.277 M217.278 105.277 C 219.142 105.314,222.192 105.314,224.056 105.277 C 225.919 105.240,224.394 105.210,220.667 105.210 C 216.939 105.210,215.414 105.240,217.278 105.277 M240.511 105.276 L 248.244 105.339 248.178 106.614 L 248.111 107.889 241.341 107.948 C 237.618 107.980,234.498 108.080,234.408 108.170 C 234.125 108.452,247.821 108.241,248.162 107.958 C 248.368 107.787,248.444 107.310,248.399 106.464 L 248.333 105.222 240.556 105.218 L 232.778 105.213 240.511 105.276 M249.913 105.463 C 249.641 106.169,249.762 117.229,250.044 117.511 C 250.191 117.658,250.888 117.778,251.592 117.778 C 253.143 117.778,253.352 117.514,253.293 115.626 L 253.253 114.333 253.180 115.444 C 253.036 117.608,253.055 117.585,251.493 117.510 L 250.111 117.444 250.111 111.444 L 250.111 105.444 251.556 105.444 L 253.000 105.444 253.127 107.111 L 253.253 108.778 253.293 107.296 C 253.351 105.143,253.326 105.111,251.556 105.111 C 250.385 105.111,250.017 105.190,249.913 105.463 M269.034 105.278 C 268.940 105.429,275.746 105.426,283.333 105.270 C 284.983 105.236,282.464 105.187,277.735 105.160 C 273.006 105.133,269.091 105.186,269.034 105.278 M313.468 105.463 C 313.166 106.249,313.321 117.268,313.637 117.531 C 313.855 117.712,316.330 117.767,322.359 117.725 L 330.778 117.667 330.793 116.222 L 330.808 114.778 330.727 116.169 L 330.646 117.561 322.156 117.503 L 313.667 117.444 313.667 111.444 L 313.667 105.444 315.111 105.444 L 316.556 105.444 316.604 109.667 C 316.631 111.989,316.656 114.064,316.660 114.278 C 316.664 114.492,316.773 114.667,316.902 114.667 C 317.031 114.667,317.074 114.563,316.996 114.437 C 316.918 114.311,316.865 112.328,316.879 110.031 C 316.893 107.734,316.840 105.687,316.762 105.483 C 316.559 104.955,313.670 104.937,313.468 105.463 M337.847 105.277 C 339.780 105.314,342.880 105.314,344.736 105.277 C 346.592 105.240,345.011 105.210,341.222 105.210 C 337.433 105.210,335.915 105.240,337.847 105.277 M351.555 105.278 C 351.555 105.430,357.617 105.426,364.333 105.269 C 365.800 105.235,363.525 105.186,359.278 105.159 C 355.031 105.133,351.555 105.186,351.555 105.278 M84.503 105.493 C 84.841 105.544,85.341 105.543,85.614 105.490 C 85.887 105.437,85.611 105.395,85.000 105.397 C 84.389 105.399,84.165 105.442,84.503 105.493 M141.000 105.556 C 141.244 105.661,141.594 105.747,141.778 105.747 C 141.988 105.747,141.947 105.676,141.667 105.556 C 141.422 105.451,141.072 105.365,140.889 105.365 C 140.679 105.365,140.720 105.435,141.000 105.556 M155.500 105.490 C 155.775 105.543,156.225 105.543,156.500 105.490 C 156.775 105.437,156.550 105.394,156.000 105.394 C 155.450 105.394,155.225 105.437,155.500 105.490 M209.448 106.042 C 209.813 106.470,210.143 106.795,210.182 106.765 C 210.327 106.652,209.696 105.834,209.249 105.554 C 208.911 105.343,208.965 105.476,209.448 106.042 M367.130 105.389 C 367.181 105.419,367.522 105.694,367.889 106.000 L 368.556 106.556 368.017 105.944 C 367.721 105.608,367.379 105.333,367.258 105.333 C 367.136 105.333,367.079 105.358,367.130 105.389 M81.284 105.719 C 81.806 105.765,82.606 105.765,83.061 105.717 C 83.517 105.669,83.089 105.631,82.111 105.632 C 81.133 105.633,80.761 105.672,81.284 105.719 M74.222 106.007 C 73.550 106.093,74.300 106.113,75.889 106.052 C 77.478 105.990,78.819 105.904,78.870 105.859 C 79.021 105.727,75.546 105.837,74.222 106.007 M142.444 105.872 C 142.444 106.006,144.743 106.664,144.847 106.560 C 144.894 106.513,144.405 106.318,143.759 106.126 C 142.463 105.741,142.444 105.738,142.444 105.872 M157.611 105.931 C 157.825 105.987,158.175 105.987,158.389 105.931 C 158.603 105.875,158.428 105.829,158.000 105.829 C 157.572 105.829,157.397 105.875,157.611 105.931 M268.985 111.333 C 268.985 114.450,269.017 115.725,269.055 114.167 C 269.093 112.608,269.093 110.058,269.055 108.500 C 269.017 106.942,268.985 108.217,268.985 111.333 M375.500 105.943 C 376.508 105.984,378.158 105.984,379.167 105.943 C 380.175 105.902,379.350 105.868,377.333 105.868 C 375.317 105.868,374.492 105.902,375.500 105.943 M385.859 106.335 C 386.209 106.517,386.659 106.666,386.859 106.665 C 387.075 106.664,386.964 106.529,386.586 106.332 C 386.236 106.149,385.786 106.001,385.586 106.001 C 385.370 106.002,385.481 106.137,385.859 106.335 M69.061 106.385 C 69.584 106.432,70.384 106.432,70.839 106.384 C 71.294 106.336,70.867 106.298,69.889 106.298 C 68.911 106.299,68.539 106.338,69.061 106.385 M117.278 106.385 C 117.797 106.432,118.647 106.432,119.167 106.385 C 119.686 106.338,119.261 106.300,118.222 106.300 C 117.183 106.300,116.758 106.338,117.278 106.385 M126.500 106.384 C 126.958 106.432,127.708 106.432,128.167 106.384 C 128.625 106.336,128.250 106.297,127.333 106.297 C 126.417 106.297,126.042 106.336,126.500 106.384 M152.984 111.333 C 152.984 114.206,153.016 115.381,153.055 113.944 C 153.094 112.508,153.094 110.158,153.055 108.722 C 153.016 107.286,152.984 108.461,152.984 111.333 M65.506 106.607 C 66.029 106.654,66.829 106.654,67.284 106.606 C 67.739 106.558,67.311 106.520,66.333 106.521 C 65.356 106.521,64.983 106.561,65.506 106.607 M113.728 106.607 C 114.251 106.654,115.051 106.654,115.506 106.606 C 115.961 106.558,115.533 106.520,114.556 106.521 C 113.578 106.521,113.205 106.561,113.728 106.607 M129.611 106.604 C 129.947 106.655,130.497 106.655,130.833 106.604 C 131.169 106.553,130.894 106.511,130.222 106.511 C 129.550 106.511,129.275 106.553,129.611 106.604 M165.111 106.778 C 165.263 106.961,165.545 107.111,165.736 107.111 C 166.015 107.111,165.999 107.046,165.654 106.785 C 165.089 106.358,164.759 106.354,165.111 106.778 M58.556 106.894 C 57.944 106.980,58.694 107.000,60.222 106.939 C 61.750 106.878,63.042 106.792,63.093 106.747 C 63.247 106.613,59.743 106.726,58.556 106.894 M109.504 106.828 C 109.903 106.877,110.503 106.876,110.837 106.825 C 111.171 106.775,110.844 106.734,110.111 106.736 C 109.378 106.737,109.105 106.778,109.504 106.828 M132.500 106.820 C 132.714 106.876,133.064 106.876,133.278 106.820 C 133.492 106.764,133.317 106.718,132.889 106.718 C 132.461 106.718,132.286 106.764,132.500 106.820 M229.000 111.333 C 229.000 113.876,229.075 115.911,229.167 115.854 C 229.382 115.722,229.379 107.304,229.163 106.965 C 229.073 106.824,229.000 108.789,229.000 111.333 M266.814 107.300 C 266.910 107.815,266.858 108.112,266.643 108.262 C 266.385 108.442,266.389 108.463,266.667 108.388 C 267.083 108.276,267.217 107.476,266.907 106.951 C 266.726 106.643,266.705 106.720,266.814 107.300 M372.984 111.556 C 372.984 114.306,373.016 115.431,373.055 114.056 C 373.094 112.681,373.094 110.431,373.055 109.056 C 373.016 107.681,372.984 108.806,372.984 111.556 M106.059 107.048 C 106.396 107.099,106.896 107.098,107.170 107.045 C 107.443 106.993,107.167 106.951,106.556 106.952 C 105.944 106.954,105.721 106.997,106.059 107.048 M52.167 107.274 C 52.686 107.321,53.536 107.321,54.056 107.274 C 54.575 107.227,54.150 107.189,53.111 107.189 C 52.072 107.189,51.647 107.227,52.167 107.274 M99.444 107.339 C 98.833 107.427,99.533 107.447,101.000 107.386 C 102.467 107.324,103.708 107.237,103.759 107.192 C 103.913 107.058,100.635 107.170,99.444 107.339 M135.352 107.194 C 135.403 107.239,135.944 107.334,136.556 107.405 C 137.305 107.491,137.486 107.472,137.111 107.344 C 136.556 107.156,135.177 107.038,135.352 107.194 M210.300 108.889 C 210.300 109.928,210.338 110.353,210.385 109.833 C 210.432 109.314,210.432 108.464,210.385 107.944 C 210.338 107.425,210.300 107.850,210.300 108.889 M212.139 107.453 C 212.062 107.652,212.020 109.481,212.045 111.518 L 212.091 115.222 212.212 111.222 C 212.343 106.899,212.344 106.919,212.139 107.453 M49.722 107.490 C 49.997 107.543,50.447 107.543,50.722 107.490 C 50.997 107.437,50.772 107.394,50.222 107.394 C 49.672 107.394,49.447 107.437,49.722 107.490 M368.640 109.167 C 368.558 114.769,368.570 115.931,368.706 115.713 C 368.866 115.455,368.920 107.333,368.761 107.333 C 368.709 107.333,368.655 108.158,368.640 109.167 M43.000 107.784 C 42.389 107.871,43.089 107.892,44.556 107.830 C 46.022 107.768,47.264 107.681,47.315 107.637 C 47.469 107.502,44.191 107.614,43.000 107.784 M93.836 107.715 C 94.174 107.766,94.674 107.765,94.947 107.712 C 95.221 107.659,94.944 107.617,94.333 107.619 C 93.722 107.621,93.499 107.664,93.836 107.715 M138.556 107.778 C 138.800 107.883,139.150 107.969,139.333 107.969 C 139.543 107.969,139.502 107.898,139.222 107.778 C 138.978 107.673,138.628 107.587,138.444 107.587 C 138.234 107.587,138.275 107.657,138.556 107.778 M332.497 112.333 C 332.472 115.022,332.534 117.353,332.635 117.512 C 332.904 117.936,335.378 117.782,335.499 117.333 C 335.569 117.074,335.544 117.064,335.385 117.291 C 335.248 117.485,334.783 117.559,333.979 117.513 L 332.778 117.444 332.660 112.444 L 332.543 107.444 332.497 112.333 M91.056 107.939 C 91.453 107.988,92.103 107.988,92.500 107.939 C 92.897 107.889,92.572 107.849,91.778 107.849 C 90.983 107.849,90.658 107.889,91.056 107.939 M230.980 111.444 C 230.980 113.522,231.013 114.402,231.054 113.400 C 231.095 112.397,231.095 110.697,231.055 109.622 C 231.014 108.547,230.980 109.367,230.980 111.444 M279.129 107.995 C 273.723 108.085,272.135 108.175,272.091 108.394 C 272.059 108.550,272.084 108.575,272.146 108.450 C 272.220 108.302,274.655 108.222,279.117 108.222 C 283.448 108.222,286.024 108.140,286.111 108.000 C 286.187 107.878,286.218 107.801,286.180 107.829 C 286.142 107.856,282.969 107.931,279.129 107.995 M35.222 108.222 L 33.444 108.363 35.000 108.382 C 35.856 108.392,37.106 108.324,37.778 108.232 C 39.381 108.010,37.969 108.005,35.222 108.222 M83.667 108.222 L 81.889 108.363 83.444 108.382 C 84.300 108.392,85.550 108.324,86.222 108.232 C 87.825 108.010,86.413 108.005,83.667 108.222 M148.000 108.070 C 148.000 108.108,148.325 108.433,148.722 108.792 L 149.444 109.444 148.792 108.722 C 148.183 108.049,148.000 107.898,148.000 108.070 M196.222 108.444 C 195.559 109.683,195.955 109.778,201.793 109.778 C 207.578 109.778,207.550 109.784,207.242 108.555 L 207.103 108.000 201.781 108.000 C 196.688 108.000,196.450 108.019,196.222 108.444 M215.305 108.389 C 215.033 108.736,215.039 108.747,215.366 108.492 C 215.646 108.273,216.957 108.221,220.956 108.270 C 223.829 108.305,226.134 108.258,226.077 108.167 C 225.830 107.768,215.627 107.979,215.305 108.389 M335.833 108.147 C 335.681 108.209,335.556 108.363,335.556 108.490 C 335.556 108.639,335.664 108.631,335.861 108.467 C 336.076 108.290,337.716 108.232,341.361 108.274 L 346.556 108.333 346.626 109.063 L 346.696 109.793 341.137 109.730 C 338.079 109.695,335.654 109.743,335.748 109.837 C 335.842 109.931,338.362 109.981,341.348 109.948 L 346.778 109.889 346.849 109.264 C 346.991 108.027,346.864 107.998,341.251 108.018 C 338.424 108.027,335.986 108.086,335.833 108.147 M354.771 108.233 C 354.689 108.366,354.682 108.534,354.756 108.607 C 354.829 108.681,354.889 108.624,354.889 108.481 C 354.889 108.097,365.131 108.115,365.539 108.500 C 365.777 108.724,365.814 108.713,365.732 108.444 C 365.603 108.023,355.027 107.819,354.771 108.233 M207.070 108.944 L 207.141 109.556 201.816 109.556 C 196.210 109.556,195.996 109.516,196.366 108.552 C 196.477 108.261,197.219 108.223,201.748 108.274 L 207.000 108.333 207.070 108.944 M29.167 108.604 C 29.503 108.655,30.053 108.655,30.389 108.604 C 30.725 108.553,30.450 108.511,29.778 108.511 C 29.106 108.511,28.831 108.553,29.167 108.604 M76.667 108.667 L 74.778 108.806 76.444 108.826 C 77.361 108.836,78.661 108.769,79.333 108.676 C 80.926 108.456,79.587 108.451,76.667 108.667 M25.950 108.830 C 26.473 108.877,27.273 108.876,27.728 108.828 C 28.183 108.780,27.756 108.742,26.778 108.743 C 25.800 108.744,25.428 108.783,25.950 108.830 M234.048 111.260 C 233.999 113.998,234.087 114.667,234.495 114.667 C 234.640 114.667,234.634 114.561,234.479 114.375 C 234.342 114.210,234.206 112.879,234.166 111.319 L 234.096 108.556 234.048 111.260 M22.059 109.048 C 22.396 109.099,22.896 109.098,23.170 109.045 C 23.443 108.993,23.167 108.951,22.556 108.952 C 21.944 108.954,21.721 108.997,22.059 109.048 M71.058 109.046 C 71.335 109.099,71.735 109.097,71.947 109.042 C 72.159 108.986,71.933 108.942,71.444 108.945 C 70.956 108.947,70.782 108.993,71.058 109.046 M253.019 109.191 C 253.096 109.391,253.373 109.548,253.635 109.538 C 253.960 109.526,254.005 109.481,253.778 109.397 C 253.594 109.329,253.317 109.173,253.162 109.050 C 252.950 108.882,252.914 108.918,253.019 109.191 M18.839 109.274 C 19.362 109.321,20.162 109.320,20.617 109.273 C 21.072 109.225,20.644 109.186,19.667 109.187 C 18.689 109.188,18.317 109.227,18.839 109.274 M67.950 109.274 C 68.473 109.321,69.273 109.320,69.728 109.273 C 70.183 109.225,69.756 109.186,68.778 109.187 C 67.800 109.188,67.428 109.227,67.950 109.274 M143.574 109.195 C 143.801 109.401,145.556 110.220,145.556 110.120 C 145.556 109.994,143.878 109.111,143.638 109.111 C 143.552 109.111,143.523 109.149,143.574 109.195 M393.556 109.444 C 393.708 109.628,393.932 109.778,394.054 109.778 C 394.178 109.778,394.154 109.630,394.000 109.444 C 393.848 109.261,393.623 109.111,393.501 109.111 C 393.377 109.111,393.401 109.259,393.556 109.444 M14.056 109.495 C 14.514 109.543,15.264 109.543,15.722 109.495 C 16.181 109.447,15.806 109.408,14.889 109.408 C 13.972 109.408,13.597 109.447,14.056 109.495 M62.944 109.495 C 63.403 109.543,64.153 109.543,64.611 109.495 C 65.069 109.447,64.694 109.408,63.778 109.408 C 62.861 109.408,62.486 109.447,62.944 109.495 M166.080 111.333 C 166.080 112.494,166.118 112.969,166.163 112.389 C 166.209 111.808,166.209 110.858,166.163 110.278 C 166.118 109.697,166.080 110.172,166.080 111.333 M389.414 109.668 C 389.764 109.851,390.214 109.999,390.414 109.999 C 390.630 109.998,390.519 109.863,390.141 109.665 C 389.791 109.483,389.341 109.334,389.141 109.335 C 388.925 109.336,389.036 109.471,389.414 109.668 M10.617 109.719 C 11.140 109.765,11.940 109.765,12.395 109.717 C 12.850 109.669,12.422 109.631,11.444 109.632 C 10.467 109.633,10.094 109.672,10.617 109.719 M60.278 109.715 C 60.614 109.766,61.164 109.766,61.500 109.715 C 61.836 109.664,61.561 109.622,60.889 109.622 C 60.217 109.622,59.942 109.664,60.278 109.715 M149.469 110.111 C 149.652 110.928,149.779 111.106,149.774 110.537 C 149.773 110.303,149.669 109.961,149.545 109.778 C 149.381 109.534,149.360 109.624,149.469 110.111 M189.111 109.712 C 189.294 109.780,189.669 110.039,189.944 110.289 C 190.275 110.590,190.444 110.645,190.444 110.452 C 190.444 110.053,189.763 109.567,189.222 109.580 C 188.908 109.588,188.875 109.626,189.111 109.712 M272.182 109.827 C 272.271 109.915,275.461 110.015,279.272 110.049 C 283.083 110.083,286.128 110.039,286.040 109.951 C 285.952 109.863,282.761 109.763,278.951 109.729 C 275.140 109.695,272.094 109.739,272.182 109.827 M354.812 109.833 C 354.869 109.925,357.303 110.000,360.222 110.000 C 363.141 110.000,365.576 109.925,365.632 109.833 C 365.689 109.742,363.254 109.667,360.222 109.667 C 357.190 109.667,354.755 109.742,354.812 109.833 M4.794 110.127 C 4.108 110.813,4.483 112.908,5.286 112.871 C 5.594 112.857,5.603 112.829,5.333 112.727 C 4.833 112.536,4.674 112.195,4.670 111.305 C 4.666 110.228,4.964 110.037,6.787 109.944 L 8.333 109.865 6.738 109.821 C 5.540 109.789,5.056 109.865,4.794 110.127 M53.667 110.000 L 51.889 110.141 53.444 110.157 C 54.300 110.167,55.600 110.100,56.333 110.009 L 57.667 109.843 56.556 109.851 C 55.944 109.856,54.644 109.923,53.667 110.000 M48.173 110.385 C 48.695 110.432,49.495 110.432,49.950 110.384 C 50.405 110.336,49.978 110.298,49.000 110.298 C 48.022 110.299,47.650 110.338,48.173 110.385 M307.923 110.389 C 307.867 110.481,308.313 110.563,308.916 110.572 C 309.552 110.581,309.892 110.513,309.727 110.409 C 309.370 110.182,308.060 110.167,307.923 110.389 M45.614 110.604 C 45.952 110.655,46.452 110.654,46.725 110.601 C 46.999 110.548,46.722 110.506,46.111 110.508 C 45.500 110.510,45.276 110.553,45.614 110.604 M40.947 110.826 C 41.285 110.877,41.785 110.876,42.059 110.823 C 42.332 110.770,42.056 110.729,41.444 110.730 C 40.833 110.732,40.610 110.775,40.947 110.826 M170.043 111.444 C 170.013 112.369,170.393 113.111,170.897 113.111 C 171.086 113.111,171.025 112.936,170.722 112.611 C 170.465 112.336,170.214 111.761,170.163 111.333 L 170.071 110.556 170.043 111.444 M38.167 111.050 C 38.564 111.099,39.214 111.099,39.611 111.050 C 40.008 111.000,39.683 110.960,38.889 110.960 C 38.094 110.960,37.769 111.000,38.167 111.050 M33.556 111.300 C 33.556 111.508,38.825 112.138,39.011 111.952 C 39.075 111.888,38.321 111.766,37.338 111.680 C 36.329 111.592,35.604 111.434,35.676 111.318 C 35.749 111.201,35.316 111.111,34.680 111.111 C 34.061 111.111,33.556 111.196,33.556 111.300 M209.441 112.003 C 209.219 112.250,208.728 112.541,208.351 112.650 C 207.806 112.808,207.767 112.853,208.163 112.869 C 208.436 112.880,208.986 112.592,209.385 112.229 C 209.785 111.866,210.052 111.566,209.979 111.562 C 209.906 111.558,209.664 111.757,209.441 112.003 M42.503 112.159 C 42.841 112.211,43.341 112.209,43.614 112.156 C 43.887 112.104,43.611 112.062,43.000 112.064 C 42.389 112.065,42.165 112.108,42.503 112.159 M45.061 112.385 C 45.584 112.432,46.384 112.432,46.839 112.384 C 47.294 112.336,46.867 112.298,45.889 112.298 C 44.911 112.299,44.539 112.338,45.061 112.385 M149.287 113.063 L 148.907 113.889 149.342 113.364 C 149.582 113.076,149.778 112.701,149.778 112.531 C 149.778 112.074,149.706 112.152,149.287 113.063 M49.833 112.606 C 50.292 112.654,51.042 112.654,51.500 112.606 C 51.958 112.558,51.583 112.519,50.667 112.519 C 49.750 112.519,49.375 112.558,49.833 112.606 M308.391 112.602 C 308.668 112.655,309.068 112.653,309.280 112.597 C 309.493 112.542,309.267 112.498,308.778 112.500 C 308.289 112.503,308.115 112.548,308.391 112.602 M52.947 112.826 C 53.285 112.877,53.785 112.876,54.059 112.823 C 54.332 112.770,54.056 112.729,53.444 112.730 C 52.833 112.732,52.610 112.775,52.947 112.826 M279.230 112.833 C 275.445 112.867,272.275 112.969,272.185 113.059 C 272.095 113.149,275.140 113.194,278.951 113.160 C 283.049 113.124,285.968 113.010,286.095 112.883 C 286.214 112.764,286.266 112.690,286.211 112.719 C 286.156 112.748,283.015 112.799,279.230 112.833 M7.728 113.052 C 8.251 113.099,9.051 113.098,9.506 113.050 C 9.961 113.003,9.533 112.964,8.556 112.965 C 7.578 112.966,7.205 113.005,7.728 113.052 M56.833 113.052 C 57.353 113.098,58.203 113.098,58.722 113.052 C 59.242 113.005,58.817 112.967,57.778 112.967 C 56.739 112.967,56.314 113.005,56.833 113.052 M196.218 113.389 C 195.991 113.856,195.997 113.862,196.306 113.478 C 196.499 113.238,196.750 113.136,196.908 113.234 C 197.082 113.341,197.123 113.309,197.021 113.145 C 196.777 112.750,196.484 112.839,196.218 113.389 M206.667 113.103 C 206.667 113.221,206.860 113.421,207.097 113.548 C 207.748 113.896,207.826 113.826,207.333 113.333 C 206.841 112.841,206.667 112.781,206.667 113.103 M335.555 113.056 C 335.555 113.147,337.230 113.197,339.277 113.165 C 346.166 113.060,346.813 112.981,341.167 112.935 C 338.081 112.909,335.555 112.964,335.555 113.056 M354.667 113.056 C 354.667 113.147,357.157 113.222,360.201 113.222 C 363.245 113.222,365.689 113.147,365.632 113.056 C 365.576 112.964,363.085 112.889,360.098 112.889 C 357.111 112.889,354.667 112.964,354.667 113.056 M11.284 113.274 C 11.806 113.321,12.606 113.320,13.061 113.273 C 13.517 113.225,13.089 113.186,12.111 113.187 C 11.133 113.188,10.761 113.227,11.284 113.274 M61.278 113.268 C 61.553 113.321,62.003 113.321,62.278 113.268 C 62.553 113.215,62.328 113.172,61.778 113.172 C 61.228 113.172,61.003 113.215,61.278 113.268 M16.173 113.496 C 16.695 113.543,17.495 113.543,17.950 113.495 C 18.405 113.447,17.978 113.409,17.000 113.410 C 16.022 113.410,15.650 113.449,16.173 113.496 M65.284 113.496 C 65.806 113.543,66.606 113.543,67.061 113.495 C 67.517 113.447,67.089 113.409,66.111 113.410 C 65.133 113.410,64.761 113.449,65.284 113.496 M175.848 113.500 C 178.393 113.535,182.493 113.535,184.959 113.500 C 187.426 113.464,185.344 113.435,180.333 113.435 C 175.322 113.435,173.304 113.464,175.848 113.500 M253.037 113.833 C 252.918 114.307,252.928 114.311,253.222 113.918 C 253.454 113.607,253.691 113.538,254.155 113.646 C 254.615 113.753,254.691 113.732,254.444 113.566 C 253.853 113.166,253.173 113.295,253.037 113.833 M346.765 115.499 L 346.778 117.667 348.088 117.734 C 348.809 117.771,349.479 117.721,349.578 117.623 C 349.677 117.525,349.116 117.478,348.331 117.519 L 346.905 117.593 346.829 115.463 L 346.752 113.332 346.765 115.499 M19.389 113.715 C 19.725 113.766,20.275 113.766,20.611 113.715 C 20.947 113.664,20.672 113.622,20.000 113.622 C 19.328 113.622,19.053 113.664,19.389 113.715 M68.503 113.715 C 68.841 113.766,69.341 113.765,69.614 113.712 C 69.887 113.659,69.611 113.617,69.000 113.619 C 68.389 113.621,68.165 113.664,68.503 113.715 M22.463 113.859 C 22.514 113.904,23.856 113.992,25.444 114.055 C 27.291 114.129,27.852 114.108,27.000 113.998 C 25.612 113.819,22.301 113.717,22.463 113.859 M72.685 113.858 C 72.736 113.903,74.028 113.991,75.556 114.054 C 77.316 114.127,77.885 114.105,77.111 113.995 C 75.857 113.817,72.519 113.714,72.685 113.858 M31.939 114.383 C 32.334 114.432,33.034 114.433,33.495 114.384 C 33.956 114.336,33.633 114.296,32.778 114.295 C 31.922 114.294,31.545 114.334,31.939 114.383 M80.019 114.304 C 80.069 114.349,81.361 114.438,82.889 114.502 C 84.707 114.578,85.206 114.558,84.333 114.444 C 82.940 114.263,79.858 114.163,80.019 114.304 M209.633 114.367 C 209.933 114.453,210.015 114.635,209.938 115.037 C 209.870 115.394,209.909 115.513,210.048 115.374 C 210.392 115.030,210.147 114.343,209.664 114.293 C 209.277 114.253,209.273 114.262,209.633 114.367 M34.947 114.604 C 35.285 114.655,35.785 114.654,36.059 114.601 C 36.332 114.548,36.056 114.506,35.444 114.508 C 34.833 114.510,34.610 114.553,34.947 114.604 M40.889 114.891 C 42.152 115.073,45.034 115.174,44.870 115.030 C 44.819 114.985,43.628 114.895,42.222 114.831 C 40.525 114.753,40.077 114.773,40.889 114.891 M88.463 114.747 C 88.514 114.791,89.706 114.880,91.111 114.943 C 92.754 115.018,93.270 114.996,92.556 114.882 C 91.429 114.703,88.293 114.600,88.463 114.747 M138.778 114.889 C 138.498 115.009,138.457 115.080,138.667 115.080 C 138.850 115.080,139.200 114.994,139.444 114.889 C 139.725 114.769,139.766 114.698,139.556 114.698 C 139.372 114.698,139.022 114.784,138.778 114.889 M146.111 115.472 C 145.256 115.893,144.806 116.172,145.111 116.090 C 145.778 115.913,147.778 114.926,147.778 114.774 C 147.778 114.639,147.928 114.576,146.111 115.472 M248.111 116.066 L 248.111 117.444 240.556 117.561 L 233.000 117.679 240.667 117.673 L 248.333 117.667 248.401 116.357 C 248.438 115.636,248.388 114.966,248.290 114.867 C 248.192 114.768,248.111 115.308,248.111 116.066 M47.392 115.271 C 47.730 115.322,48.230 115.320,48.503 115.268 C 48.776 115.215,48.500 115.173,47.889 115.175 C 47.278 115.176,47.054 115.219,47.392 115.271 M97.167 115.270 C 97.503 115.321,98.053 115.321,98.389 115.270 C 98.725 115.219,98.450 115.178,97.778 115.178 C 97.106 115.178,96.831 115.219,97.167 115.270 M136.444 115.333 C 135.685 115.493,135.682 115.497,136.333 115.511 C 136.700 115.518,137.200 115.438,137.444 115.333 C 137.979 115.104,137.535 115.104,136.444 115.333 M166.000 115.444 C 165.846 115.630,165.822 115.778,165.946 115.778 C 166.068 115.778,166.292 115.628,166.444 115.444 C 166.599 115.259,166.623 115.111,166.499 115.111 C 166.377 115.111,166.152 115.261,166.000 115.444 M49.944 115.496 C 50.464 115.543,51.314 115.543,51.833 115.496 C 52.353 115.449,51.928 115.411,50.889 115.411 C 49.850 115.411,49.425 115.449,49.944 115.496 M99.950 115.496 C 100.473 115.543,101.273 115.543,101.728 115.495 C 102.183 115.447,101.756 115.409,100.778 115.410 C 99.800 115.410,99.428 115.449,99.950 115.496 M55.836 115.715 C 56.174 115.766,56.674 115.765,56.947 115.712 C 57.221 115.659,56.944 115.617,56.333 115.619 C 55.722 115.621,55.499 115.664,55.836 115.715 M104.611 115.718 C 105.131 115.765,105.981 115.765,106.500 115.718 C 107.019 115.671,106.594 115.633,105.556 115.633 C 104.517 115.633,104.092 115.671,104.611 115.718 M203.556 115.740 C 203.739 115.854,204.139 116.013,204.444 116.095 C 204.831 116.198,204.898 116.181,204.667 116.037 C 204.483 115.924,204.083 115.765,203.778 115.683 C 203.392 115.580,203.324 115.597,203.556 115.740 M261.093 116.016 C 261.756 116.251,262.336 116.405,262.383 116.358 C 262.487 116.254,260.463 115.549,260.127 115.572 C 259.996 115.581,260.431 115.780,261.093 116.016 M58.389 115.940 C 58.908 115.987,59.758 115.987,60.278 115.940 C 60.797 115.894,60.372 115.855,59.333 115.855 C 58.294 115.855,57.869 115.894,58.389 115.940 M108.056 115.937 C 108.392 115.988,108.942 115.988,109.278 115.937 C 109.614 115.886,109.339 115.844,108.667 115.844 C 107.994 115.844,107.719 115.886,108.056 115.937 M133.058 115.935 C 133.335 115.988,133.735 115.986,133.947 115.930 C 134.159 115.875,133.933 115.831,133.444 115.834 C 132.956 115.836,132.782 115.882,133.058 115.935 M63.506 116.163 C 64.029 116.210,64.829 116.209,65.284 116.162 C 65.739 116.114,65.311 116.075,64.333 116.076 C 63.356 116.077,62.983 116.116,63.506 116.163 M112.395 116.163 C 112.917 116.210,113.717 116.209,114.173 116.162 C 114.628 116.114,114.200 116.075,113.222 116.076 C 112.244 116.077,111.872 116.116,112.395 116.163 M130.503 116.159 C 130.841 116.211,131.341 116.209,131.614 116.156 C 131.887 116.104,131.611 116.062,131.000 116.064 C 130.389 116.065,130.165 116.108,130.503 116.159 M67.061 116.385 C 67.584 116.432,68.384 116.432,68.839 116.384 C 69.294 116.336,68.867 116.298,67.889 116.298 C 66.911 116.299,66.539 116.338,67.061 116.385 M116.062 116.386 C 116.647 116.432,117.547 116.431,118.062 116.385 C 118.578 116.338,118.100 116.300,117.000 116.301 C 115.900 116.302,115.478 116.340,116.062 116.386 M127.722 116.383 C 128.119 116.432,128.769 116.432,129.167 116.383 C 129.564 116.334,129.239 116.293,128.444 116.293 C 127.650 116.293,127.325 116.334,127.722 116.383 M72.556 116.667 C 73.949 116.849,77.031 116.949,76.870 116.807 C 76.819 116.762,75.528 116.673,74.000 116.609 C 72.182 116.533,71.683 116.553,72.556 116.667 M121.722 116.607 C 122.242 116.654,123.092 116.654,123.611 116.607 C 124.131 116.560,123.706 116.522,122.667 116.522 C 121.628 116.522,121.203 116.560,121.722 116.607 M158.500 116.820 C 158.714 116.876,159.064 116.876,159.278 116.820 C 159.492 116.764,159.317 116.718,158.889 116.718 C 158.461 116.718,158.286 116.764,158.500 116.820 M209.041 116.973 C 208.972 117.152,208.685 117.343,208.402 117.397 C 207.926 117.488,207.923 117.497,208.362 117.525 C 208.826 117.555,209.508 116.989,209.281 116.763 C 209.218 116.699,209.110 116.794,209.041 116.973 M375.278 116.832 C 376.408 116.873,378.258 116.873,379.389 116.832 C 380.519 116.792,379.594 116.759,377.333 116.759 C 375.072 116.759,374.147 116.792,375.278 116.832 M79.506 117.052 C 80.029 117.099,80.829 117.098,81.284 117.050 C 81.739 117.003,81.311 116.964,80.333 116.965 C 79.356 116.966,78.983 117.005,79.506 117.052 M82.725 117.271 C 83.063 117.322,83.563 117.320,83.836 117.268 C 84.110 117.215,83.833 117.173,83.222 117.175 C 82.611 117.176,82.387 117.219,82.725 117.271 M156.056 117.270 C 156.392 117.321,156.942 117.321,157.278 117.270 C 157.614 117.219,157.339 117.178,156.667 117.178 C 155.994 117.178,155.719 117.219,156.056 117.270 M268.946 117.333 C 269.045 117.696,286.222 117.975,286.222 117.614 C 286.222 117.521,282.405 117.472,277.739 117.505 C 271.065 117.553,269.212 117.506,269.055 117.283 C 268.904 117.069,268.877 117.081,268.946 117.333 M88.556 117.556 C 89.949 117.737,93.031 117.837,92.870 117.696 C 92.819 117.651,91.528 117.562,90.000 117.498 C 88.182 117.422,87.683 117.442,88.556 117.556 M139.111 117.556 C 138.665 117.699,138.643 117.735,139.000 117.740 C 139.244 117.744,139.644 117.661,139.889 117.556 C 140.455 117.312,139.871 117.312,139.111 117.556 M214.077 117.608 C 214.218 117.698,217.233 117.771,220.778 117.771 C 224.322 117.771,227.338 117.698,227.479 117.608 C 227.620 117.518,224.604 117.444,220.778 117.444 C 216.951 117.444,213.936 117.518,214.077 117.608 M351.555 117.611 C 351.555 117.703,354.931 117.756,359.056 117.730 C 366.576 117.682,365.733 117.607,356.500 117.501 C 353.780 117.470,351.555 117.519,351.555 117.611 M97.333 118.005 C 98.588 118.183,101.925 118.286,101.759 118.142 C 101.708 118.097,100.417 118.009,98.889 117.946 C 97.129 117.873,96.559 117.895,97.333 118.005 M105.000 118.446 C 106.388 118.625,109.699 118.727,109.537 118.585 C 109.486 118.541,108.144 118.452,106.556 118.389 C 104.709 118.315,104.148 118.336,105.000 118.446 M373.957 118.388 C 375.461 118.427,377.861 118.427,379.291 118.388 C 380.720 118.349,379.489 118.318,376.556 118.318 C 373.622 118.318,372.453 118.350,373.957 118.388 M132.944 118.598 C 133.158 118.654,133.508 118.654,133.722 118.598 C 133.936 118.542,133.761 118.496,133.333 118.496 C 132.906 118.496,132.731 118.542,132.944 118.598 M112.278 118.829 C 112.736 118.876,113.486 118.876,113.944 118.829 C 114.403 118.781,114.028 118.741,113.111 118.741 C 112.194 118.741,111.819 118.781,112.278 118.829 M151.333 118.908 C 151.333 119.131,156.170 118.981,156.426 118.750 C 156.477 118.704,155.352 118.667,153.926 118.667 C 152.211 118.667,151.333 118.748,151.333 118.908 M115.833 119.052 C 116.414 119.098,117.364 119.098,117.944 119.052 C 118.525 119.006,118.050 118.969,116.889 118.969 C 115.728 118.969,115.253 119.006,115.833 119.052 M127.611 119.051 C 128.069 119.099,128.819 119.099,129.278 119.051 C 129.736 119.003,129.361 118.964,128.444 118.964 C 127.528 118.964,127.153 119.003,127.611 119.051 M121.728 119.274 C 122.251 119.321,123.051 119.320,123.506 119.273 C 123.961 119.225,123.533 119.186,122.556 119.187 C 121.578 119.188,121.205 119.227,121.728 119.274 M169.922 120.561 C 170.014 120.800,170.132 120.834,170.324 120.675 C 170.497 120.531,174.310 120.427,180.798 120.389 L 191.000 120.329 180.396 120.275 C 170.968 120.228,169.806 120.260,169.922 120.561 M176.833 121.944 C 178.819 121.981,182.069 121.981,184.056 121.944 C 186.042 121.907,184.417 121.877,180.444 121.877 C 176.472 121.877,174.847 121.907,176.833 121.944 M172.692 129.931 C 172.678 130.321,172.767 130.702,172.889 130.778 C 173.011 130.853,173.123 131.134,173.137 131.402 C 173.159 131.820,173.178 131.830,173.270 131.471 C 173.329 131.241,173.272 130.841,173.144 130.582 C 173.017 130.323,172.868 129.911,172.815 129.667 C 172.755 129.392,172.708 129.494,172.692 129.931 M179.056 139.053 C 179.819 139.097,181.069 139.097,181.833 139.053 C 182.597 139.010,181.972 138.975,180.444 138.975 C 178.917 138.975,178.292 139.010,179.056 139.053 " stroke="none" fill="#978484" fill-rule="evenodd"></path></g></svg>