<svg id="svg" version="1.1" xmlns="http://www.w3.org/2000/svg" xmlns:xlink="http://www.w3.org/1999/xlink" width="400" height="276.6666666666667" viewBox="0, 0, 400,276.6666666666667"><g id="svgg"><path id="path0" d="M286.644 45.860 C 278.760 53.560,274.336 57.827,269.759 62.145 C 267.176 64.581,263.068 68.519,260.629 70.895 C 258.190 73.271,255.621 75.763,254.921 76.431 C 254.221 77.100,251.046 80.138,247.866 83.183 C 244.685 86.228,240.898 89.835,239.450 91.197 C 238.001 92.560,234.948 95.500,232.664 97.730 C 227.232 103.034,221.135 108.896,217.855 111.970 C 215.117 114.534,211.024 118.460,203.737 125.512 C 195.491 133.491,192.231 136.626,189.758 138.955 C 185.987 142.507,180.024 148.236,175.087 153.053 C 172.651 155.430,169.661 158.308,168.443 159.449 C 164.461 163.181,154.445 172.770,149.350 177.729 C 144.294 182.650,140.847 185.955,136.332 190.210 C 129.860 196.311,122.447 203.354,119.308 206.385 C 117.405 208.222,114.542 210.963,112.946 212.475 C 111.351 213.988,108.922 216.354,107.548 217.735 C 103.888 221.415,89.769 235.021,84.014 240.414 C 79.746 244.413,76.355 247.635,73.379 250.519 L 72.664 251.211 73.310 251.303 C 73.665 251.353,74.163 251.216,74.417 250.999 C 74.671 250.782,76.062 250.009,77.509 249.281 C 78.955 248.553,80.263 247.864,80.415 247.751 C 80.673 247.558,82.526 246.551,86.514 244.437 C 87.422 243.955,89.163 243.010,90.381 242.338 C 91.599 241.665,92.782 241.042,93.010 240.953 C 93.444 240.783,93.750 240.623,95.618 239.587 C 96.239 239.243,97.931 238.344,99.377 237.590 C 102.219 236.107,103.160 235.611,103.806 235.257 C 104.035 235.132,105.156 234.545,106.298 233.952 C 107.439 233.360,109.183 232.439,110.173 231.906 C 111.163 231.372,113.218 230.270,114.740 229.456 C 116.263 228.642,118.131 227.637,118.893 227.224 C 119.654 226.810,121.149 226.020,122.215 225.467 C 124.324 224.374,124.869 224.086,125.606 223.674 C 125.872 223.525,126.962 222.958,128.028 222.414 C 130.682 221.060,135.238 218.623,136.747 217.751 C 137.433 217.355,138.180 216.958,138.408 216.869 C 138.637 216.780,139.073 216.568,139.377 216.398 C 141.342 215.301,147.121 212.324,147.291 212.321 C 147.381 212.320,149.498 211.226,151.997 209.892 C 154.495 208.557,156.851 207.307,157.232 207.115 C 157.612 206.922,159.251 206.052,160.872 205.181 C 162.494 204.311,164.608 203.182,165.570 202.672 C 166.532 202.163,168.257 201.238,169.403 200.617 C 174.600 197.803,175.945 197.089,176.332 196.938 C 176.561 196.849,176.997 196.636,177.301 196.465 C 177.606 196.294,178.789 195.672,179.931 195.084 C 181.073 194.495,182.630 193.631,183.391 193.164 C 184.849 192.268,186.642 191.275,189.619 189.713 C 190.609 189.194,191.606 188.668,191.834 188.545 C 192.795 188.027,196.335 186.156,201.246 183.573 C 203.149 182.571,205.329 181.414,206.090 181.000 C 206.851 180.587,208.346 179.800,209.412 179.252 C 210.478 178.704,211.910 177.939,212.595 177.550 C 213.280 177.162,215.398 176.021,217.301 175.015 C 219.204 174.008,221.758 172.657,222.976 172.012 C 224.194 171.367,226.125 170.357,227.266 169.768 C 231.757 167.452,232.957 166.802,233.356 166.474 C 234.937 165.175,235.069 165.272,240.747 171.903 C 242.638 174.111,245.102 176.976,246.224 178.270 C 247.346 179.564,248.551 180.997,248.903 181.453 C 249.254 181.910,250.042 182.785,250.653 183.397 C 252.458 185.205,254.404 187.372,256.737 190.173 C 257.942 191.619,259.642 193.550,260.515 194.464 C 261.387 195.377,262.384 196.498,262.730 196.955 C 263.409 197.853,266.339 201.232,268.047 203.087 C 268.629 203.720,269.410 204.650,269.783 205.156 C 271.337 207.261,271.727 206.708,272.148 201.799 C 272.299 200.048,272.596 197.619,272.810 196.401 C 273.023 195.183,273.277 192.941,273.374 191.419 C 273.471 189.896,273.663 188.198,273.801 187.645 C 273.939 187.092,274.236 184.849,274.460 182.662 C 274.947 177.898,275.283 175.353,276.007 170.934 C 276.307 169.107,276.667 166.055,276.807 164.152 C 277.148 159.516,277.813 153.434,278.175 151.635 C 278.337 150.831,278.591 148.678,278.739 146.851 C 278.888 145.024,279.139 143.094,279.297 142.562 C 279.455 142.031,279.587 141.034,279.591 140.348 C 279.594 139.662,279.783 137.792,280.011 136.194 C 280.238 134.595,280.542 131.986,280.685 130.395 C 280.829 128.804,281.134 126.313,281.365 124.858 C 281.595 123.404,281.904 121.031,282.051 119.585 C 282.736 112.833,282.953 110.969,283.324 108.651 C 283.543 107.280,283.799 105.038,283.894 103.668 C 283.988 102.298,284.233 100.367,284.437 99.377 C 284.641 98.388,284.891 96.396,284.991 94.951 C 285.091 93.507,285.348 91.410,285.562 90.290 C 285.776 89.171,285.952 87.533,285.952 86.650 C 285.952 85.767,286.136 84.065,286.362 82.868 C 286.588 81.671,286.898 79.260,287.052 77.509 C 287.205 75.758,287.519 73.349,287.748 72.156 C 287.978 70.962,288.166 69.258,288.166 68.367 C 288.166 67.477,288.341 65.900,288.555 64.862 C 288.768 63.825,289.024 61.792,289.124 60.346 C 289.223 58.900,289.477 56.782,289.687 55.640 C 289.897 54.498,290.149 52.443,290.246 51.073 C 290.344 49.702,290.594 47.709,290.802 46.644 C 291.887 41.096,291.581 41.038,286.644 45.860 " stroke="none" fill="#ec0513" fill-rule="evenodd"></path><path id="path1" d="M0.000 138.408 L 0.000 276.817 200.000 276.817 L 400.000 276.817 400.000 138.408 L 400.000 0.000 200.000 0.000 L 0.000 0.000 0.000 138.408 M291.545 43.746 C 291.500 44.883,291.337 46.249,291.184 46.782 C 291.030 47.315,290.790 49.370,290.651 51.349 C 290.511 53.329,290.207 55.633,289.977 56.471 C 289.746 57.308,289.555 59.013,289.553 60.260 C 289.552 61.506,289.372 63.312,289.153 64.273 C 288.935 65.234,288.625 67.597,288.465 69.523 C 288.305 71.449,288.049 73.351,287.897 73.750 C 287.746 74.149,287.547 75.874,287.456 77.584 C 287.365 79.293,287.173 81.060,287.031 81.510 C 286.888 81.960,286.590 84.302,286.369 86.715 C 286.147 89.128,285.891 91.224,285.799 91.373 C 285.707 91.522,285.523 93.166,285.390 95.026 C 285.258 96.886,284.958 99.218,284.724 100.208 C 284.490 101.197,284.295 102.941,284.291 104.083 C 284.286 105.225,284.098 106.943,283.872 107.900 C 283.646 108.858,283.386 110.913,283.294 112.468 C 283.202 114.022,282.945 116.104,282.723 117.093 C 282.502 118.083,282.221 120.402,282.099 122.247 C 281.977 124.092,281.793 125.738,281.689 125.906 C 281.585 126.074,281.325 128.053,281.111 130.303 C 280.897 132.553,280.596 134.955,280.442 135.640 C 280.288 136.325,280.155 137.820,280.146 138.962 C 280.137 140.104,279.946 141.785,279.721 142.699 C 279.496 143.612,279.188 146.000,279.035 148.006 C 278.882 150.011,278.632 151.981,278.479 152.383 C 278.326 152.785,278.134 154.383,278.052 155.934 C 277.970 157.485,277.763 159.412,277.590 160.217 C 277.392 161.146,277.374 161.775,277.542 161.943 C 277.772 162.173,284.143 159.154,288.304 156.843 C 288.913 156.505,290.221 155.786,291.211 155.245 C 293.853 153.802,297.662 151.643,299.190 150.724 C 299.445 150.570,300.900 149.698,302.422 148.787 C 303.945 147.875,306.561 146.202,308.235 145.070 C 309.910 143.938,312.028 142.514,312.941 141.906 C 320.943 136.580,332.071 126.912,336.559 121.386 C 337.424 120.321,338.362 119.200,338.643 118.894 C 339.624 117.829,343.160 112.234,344.155 110.173 C 350.054 97.951,346.743 87.528,335.006 81.365 C 334.137 80.908,333.239 80.426,333.010 80.293 C 331.495 79.411,325.945 77.490,323.263 76.919 C 322.458 76.747,321.554 76.436,321.253 76.227 C 320.953 76.019,320.120 75.848,319.403 75.848 C 318.685 75.848,317.748 75.707,317.319 75.536 L 316.540 75.224 317.370 74.979 C 318.283 74.708,320.184 74.919,320.430 75.318 C 320.516 75.457,321.295 75.571,322.162 75.571 C 323.028 75.570,324.858 75.831,326.228 76.150 C 330.777 77.208,337.009 78.923,338.131 79.424 C 338.740 79.696,340.472 80.462,341.978 81.125 C 364.536 91.061,361.869 111.300,334.794 135.653 C 329.227 140.661,314.367 151.421,308.235 154.885 C 306.519 155.855,301.253 159.038,300.900 159.319 C 300.671 159.501,299.363 160.242,297.993 160.966 C 296.623 161.689,295.377 162.378,295.225 162.495 C 295.073 162.612,294.076 163.164,293.010 163.722 C 291.945 164.280,290.512 165.049,289.827 165.432 C 288.499 166.174,284.062 168.429,279.317 170.773 C 275.902 172.460,276.085 172.233,275.850 175.063 C 275.747 176.294,275.487 178.004,275.271 178.863 C 275.055 179.723,274.877 181.342,274.874 182.462 C 274.871 183.582,274.683 185.370,274.454 186.436 C 274.226 187.502,273.916 189.875,273.764 191.710 C 273.613 193.545,273.306 195.911,273.081 196.969 C 272.857 198.027,272.667 199.827,272.659 200.969 C 272.635 204.435,271.899 207.035,270.936 207.055 C 270.823 207.057,270.355 206.541,269.897 205.908 C 269.231 204.989,266.810 202.187,265.051 200.299 C 264.898 200.134,263.718 198.754,262.430 197.232 C 261.141 195.709,259.959 194.330,259.801 194.167 C 259.337 193.685,256.273 190.196,254.350 187.958 C 253.368 186.817,252.261 185.528,251.888 185.096 C 250.675 183.686,249.240 183.595,247.729 184.832 C 247.489 185.029,247.134 185.190,246.940 185.190 C 246.747 185.190,246.196 185.372,245.717 185.593 C 245.237 185.815,244.346 186.175,243.737 186.394 C 241.450 187.217,240.630 187.518,238.339 188.382 C 237.045 188.869,235.052 189.609,233.910 190.026 C 232.768 190.443,231.620 190.894,231.359 191.028 C 231.098 191.163,230.412 191.393,229.836 191.539 C 229.260 191.685,227.170 192.378,225.190 193.080 C 223.211 193.782,221.156 194.486,220.623 194.645 C 220.090 194.803,218.569 195.301,217.242 195.750 C 215.915 196.199,214.234 196.737,213.505 196.947 C 212.776 197.156,210.498 197.844,208.443 198.475 C 201.455 200.621,197.747 201.707,195.709 202.205 C 194.872 202.410,193.253 202.843,192.111 203.168 C 190.969 203.493,189.349 203.925,188.512 204.128 C 187.675 204.332,186.180 204.710,185.190 204.969 C 182.029 205.797,179.243 206.451,172.734 207.893 C 171.287 208.213,169.481 208.645,168.720 208.852 C 167.958 209.059,166.775 209.309,166.090 209.406 C 165.405 209.504,163.599 209.832,162.076 210.136 C 158.245 210.902,155.583 211.400,152.664 211.900 C 147.465 212.789,146.075 213.178,144.221 214.261 C 143.993 214.395,142.561 215.149,141.038 215.938 C 139.516 216.727,137.772 217.657,137.163 218.004 C 136.554 218.351,135.246 219.061,134.256 219.582 C 131.669 220.944,126.684 223.563,125.915 223.965 C 125.555 224.154,125.034 224.419,124.758 224.554 C 124.483 224.690,123.486 225.214,122.544 225.719 C 121.602 226.225,119.834 227.172,118.616 227.825 C 116.514 228.951,115.213 229.654,111.915 231.446 C 111.123 231.877,110.189 232.377,109.839 232.559 C 109.490 232.740,109.017 232.987,108.789 233.107 C 108.561 233.227,107.502 233.771,106.436 234.317 C 103.664 235.736,96.216 239.688,90.657 242.690 C 89.439 243.348,87.571 244.329,86.505 244.870 C 84.558 245.859,83.759 246.292,80.692 248.022 C 79.779 248.537,78.035 249.472,76.817 250.099 C 75.599 250.726,74.338 251.409,74.016 251.615 C 72.532 252.565,71.999 250.998,73.426 249.880 C 74.276 249.214,75.634 247.935,81.522 242.256 C 82.893 240.935,86.131 237.863,88.720 235.430 C 91.308 232.996,95.419 229.057,97.855 226.676 C 100.291 224.295,103.436 221.255,104.844 219.921 C 108.447 216.510,108.911 216.747,98.639 216.747 C 84.180 216.747,70.538 214.924,62.284 211.889 C 56.247 209.668,53.151 208.111,49.966 205.691 C 33.401 193.107,41.794 171.507,72.260 148.313 C 80.773 141.833,93.448 133.686,103.391 128.304 C 104.457 127.727,106.014 126.861,106.851 126.379 C 108.950 125.171,124.723 117.268,126.698 116.435 C 127.582 116.062,129.550 115.172,131.073 114.456 C 136.429 111.940,138.827 110.886,143.114 109.164 C 144.408 108.644,145.841 108.048,146.298 107.840 C 146.754 107.632,147.813 107.187,148.651 106.851 C 149.488 106.515,150.547 106.081,151.003 105.886 C 151.460 105.691,153.080 105.063,154.602 104.491 C 156.125 103.919,158.127 103.157,159.053 102.798 C 159.978 102.439,160.835 102.145,160.956 102.145 C 161.077 102.145,161.877 101.845,162.734 101.478 C 164.758 100.611,168.917 99.104,171.984 98.126 C 173.322 97.699,174.482 97.246,174.560 97.118 C 174.639 96.990,175.288 96.890,176.002 96.895 L 177.301 96.904 176.648 97.449 C 176.288 97.748,175.685 97.993,175.307 97.993 C 174.929 97.993,174.303 98.242,173.916 98.547 C 173.529 98.851,173.011 99.105,172.765 99.110 C 172.520 99.115,171.820 99.360,171.211 99.654 C 170.602 99.948,169.893 100.193,169.636 100.198 C 169.378 100.203,169.097 100.322,169.011 100.461 C 168.925 100.600,167.952 101.050,166.849 101.460 C 165.747 101.871,164.346 102.423,163.737 102.688 C 163.128 102.954,160.824 103.950,158.616 104.904 C 156.408 105.857,153.356 107.230,151.834 107.955 C 150.311 108.679,148.754 109.412,148.374 109.582 C 147.993 109.753,147.495 110.008,147.266 110.149 C 147.038 110.290,145.419 111.117,143.668 111.986 C 140.746 113.438,138.976 114.359,133.979 117.027 C 132.990 117.555,130.685 118.877,128.858 119.963 C 127.031 121.049,125.312 122.029,125.038 122.142 C 124.764 122.254,123.269 123.174,121.716 124.187 C 120.163 125.200,118.208 126.472,117.370 127.013 C 113.795 129.324,104.121 136.380,103.253 137.311 C 103.176 137.393,102.148 138.242,100.967 139.199 C 91.155 147.147,81.724 159.196,80.026 165.952 C 79.872 166.561,79.542 167.869,79.291 168.858 C 78.717 171.125,78.862 176.190,79.548 177.819 C 79.797 178.409,80.000 179.061,80.000 179.269 C 80.000 180.093,82.459 183.725,84.291 185.605 C 89.469 190.922,100.188 195.400,111.142 196.820 C 112.208 196.959,113.765 197.205,114.602 197.367 C 117.452 197.920,126.581 198.450,127.240 198.101 C 127.826 197.791,129.746 196.017,135.787 190.204 C 137.467 188.589,141.391 184.840,144.507 181.875 C 147.623 178.910,152.092 174.613,154.437 172.325 C 159.433 167.451,159.247 167.630,165.830 161.393 C 171.559 155.966,175.203 152.460,181.869 145.963 C 184.381 143.515,186.872 141.109,187.405 140.617 C 189.394 138.782,197.901 130.684,201.107 127.573 C 202.934 125.800,205.363 123.450,206.505 122.351 C 207.647 121.252,210.076 118.903,211.903 117.131 C 213.730 115.360,217.212 112.042,219.640 109.758 C 222.069 107.474,226.242 103.481,228.914 100.884 C 235.498 94.485,240.720 89.457,243.866 86.487 C 245.306 85.127,247.721 82.830,249.230 81.384 C 250.740 79.938,252.488 78.267,253.116 77.671 C 253.743 77.076,256.249 74.646,258.685 72.271 C 263.221 67.850,266.037 65.149,275.445 56.194 C 278.404 53.377,283.033 48.914,285.731 46.275 C 291.445 40.688,291.669 40.591,291.545 43.746 M182.300 95.372 C 181.551 95.939,180.043 95.940,180.543 95.374 C 180.739 95.151,181.336 94.968,181.869 94.967 C 182.780 94.966,182.805 94.990,182.300 95.372 M179.654 96.188 C 179.654 96.671,178.482 97.027,177.786 96.757 C 177.334 96.582,177.337 96.543,177.838 96.174 C 178.548 95.652,179.654 95.660,179.654 96.188 M398.502 164.635 C 398.200 164.938,397.992 164.457,398.209 163.957 C 398.415 163.482,398.430 163.483,398.545 163.966 C 398.611 164.245,398.592 164.546,398.502 164.635 M232.941 167.198 C 231.718 167.900,228.831 169.421,226.742 170.464 C 226.345 170.662,225.834 170.934,225.606 171.068 C 225.377 171.202,224.131 171.861,222.837 172.533 C 221.543 173.204,219.488 174.292,218.270 174.949 C 214.609 176.926,210.705 179.006,205.675 181.658 C 203.772 182.662,201.654 183.800,200.969 184.188 C 200.284 184.576,199.038 185.217,198.201 185.612 C 197.363 186.008,196.491 186.450,196.263 186.595 C 196.035 186.740,195.349 187.104,194.740 187.405 C 194.131 187.706,193.415 188.078,193.149 188.232 C 191.797 189.014,188.056 190.994,186.929 191.523 C 185.967 191.975,185.580 192.546,186.107 192.738 C 186.497 192.879,190.036 192.065,190.335 191.765 C 190.449 191.651,190.926 191.557,191.396 191.558 C 192.386 191.559,193.947 191.205,202.076 189.138 C 205.349 188.305,208.588 187.523,209.273 187.400 C 209.958 187.276,210.893 187.026,211.349 186.844 C 211.806 186.662,212.834 186.340,213.633 186.128 C 216.289 185.426,217.970 184.948,220.346 184.221 C 221.640 183.826,223.322 183.334,224.083 183.129 C 224.844 182.923,225.841 182.620,226.298 182.454 C 228.567 181.630,242.182 177.092,242.886 176.925 C 243.331 176.820,243.742 176.593,243.799 176.422 C 243.894 176.137,240.568 172.028,237.961 169.212 C 237.366 168.569,236.567 167.666,236.185 167.205 C 235.331 166.175,234.727 166.173,232.941 167.198 " stroke="none" fill="#fbfbfb" fill-rule="evenodd"></path><path id="path2" d="M285.731 46.275 C 283.033 48.914,278.404 53.377,275.445 56.194 C 266.037 65.149,263.221 67.850,258.685 72.271 C 256.249 74.646,253.743 77.076,253.116 77.671 C 252.488 78.267,250.740 79.938,249.230 81.384 C 247.721 82.830,245.306 85.127,243.866 86.487 C 240.720 89.457,235.498 94.485,228.914 100.884 C 226.242 103.481,222.069 107.474,219.640 109.758 C 217.212 112.042,213.730 115.360,211.903 117.131 C 210.076 118.903,207.647 121.252,206.505 122.351 C 205.363 123.450,202.934 125.800,201.107 127.573 C 197.901 130.684,189.394 138.782,187.405 140.617 C 186.872 141.109,184.381 143.515,181.869 145.963 C 175.203 152.460,171.559 155.966,165.830 161.393 C 159.247 167.630,159.433 167.451,154.437 172.325 C 152.092 174.613,147.623 178.910,144.507 181.875 C 141.391 184.840,137.467 188.589,135.787 190.204 C 129.746 196.017,127.826 197.791,127.240 198.101 C 126.581 198.450,117.452 197.920,114.602 197.367 C 113.765 197.205,112.208 196.959,111.142 196.820 C 100.188 195.400,89.469 190.922,84.291 185.605 C 82.459 183.725,80.000 180.093,80.000 179.269 C 80.000 179.061,79.797 178.409,79.548 177.819 C 78.862 176.190,78.717 171.125,79.291 168.858 C 79.542 167.869,79.872 166.561,80.026 165.952 C 81.724 159.196,91.155 147.147,100.967 139.199 C 102.148 138.242,103.176 137.393,103.253 137.311 C 104.121 136.380,113.795 129.324,117.370 127.013 C 118.208 126.472,120.163 125.200,121.716 124.187 C 123.269 123.174,124.764 122.254,125.038 122.142 C 125.312 122.029,127.031 121.049,128.858 119.963 C 130.685 118.877,132.990 117.555,133.979 117.027 C 138.976 114.359,140.746 113.438,143.668 111.986 C 145.419 111.117,147.038 110.290,147.266 110.149 C 147.495 110.008,147.993 109.753,148.374 109.582 C 148.754 109.412,150.311 108.679,151.834 107.955 C 153.356 107.230,156.408 105.857,158.616 104.904 C 160.824 103.950,163.128 102.954,163.737 102.688 C 164.346 102.423,165.747 101.871,166.849 101.460 C 167.952 101.050,168.925 100.600,169.011 100.461 C 169.097 100.322,169.378 100.203,169.636 100.198 C 169.893 100.193,170.602 99.948,171.211 99.654 C 171.820 99.360,172.520 99.115,172.765 99.110 C 173.011 99.105,173.529 98.851,173.916 98.547 C 174.303 98.242,174.929 97.993,175.307 97.993 C 175.685 97.993,176.288 97.748,176.648 97.449 L 177.301 96.904 176.002 96.895 C 175.288 96.890,174.639 96.990,174.560 97.118 C 174.482 97.246,173.322 97.699,171.984 98.126 C 168.917 99.104,164.758 100.611,162.734 101.478 C 161.877 101.845,161.077 102.145,160.956 102.145 C 160.835 102.145,159.978 102.439,159.053 102.798 C 158.127 103.157,156.125 103.919,154.602 104.491 C 153.080 105.063,151.460 105.691,151.003 105.886 C 150.547 106.081,149.488 106.515,148.651 106.851 C 147.813 107.187,146.754 107.632,146.298 107.840 C 145.841 108.048,144.408 108.644,143.114 109.164 C 138.827 110.886,136.429 111.940,131.073 114.456 C 129.550 115.172,127.582 116.062,126.698 116.435 C 124.723 117.268,108.950 125.171,106.851 126.379 C 106.014 126.861,104.457 127.727,103.391 128.304 C 93.448 133.686,80.773 141.833,72.260 148.313 C 41.794 171.507,33.401 193.107,49.966 205.691 C 53.151 208.111,56.247 209.668,62.284 211.889 C 70.538 214.924,84.180 216.747,98.639 216.747 C 108.911 216.747,108.447 216.510,104.844 219.921 C 103.436 221.255,100.291 224.295,97.855 226.676 C 95.419 229.057,91.308 232.996,88.720 235.430 C 86.131 237.863,82.893 240.935,81.522 242.256 C 75.634 247.935,74.276 249.214,73.426 249.880 C 71.999 250.998,72.532 252.565,74.016 251.615 C 74.338 251.409,75.599 250.726,76.817 250.099 C 78.035 249.472,79.779 248.537,80.692 248.022 C 83.759 246.292,84.558 245.859,86.505 244.870 C 87.571 244.329,89.439 243.348,90.657 242.690 C 96.216 239.688,103.664 235.736,106.436 234.317 C 107.502 233.771,108.561 233.227,108.789 233.107 C 109.017 232.987,109.490 232.740,109.839 232.559 C 110.189 232.377,111.123 231.877,111.915 231.446 C 115.213 229.654,116.514 228.951,118.616 227.825 C 119.834 227.172,121.602 226.225,122.544 225.719 C 123.486 225.214,124.483 224.690,124.758 224.554 C 125.034 224.419,125.555 224.154,125.915 223.965 C 126.684 223.563,131.669 220.944,134.256 219.582 C 135.246 219.061,136.554 218.351,137.163 218.004 C 137.772 217.657,139.516 216.727,141.038 215.938 C 142.561 215.149,143.993 214.395,144.221 214.261 C 146.075 213.178,147.465 212.789,152.664 211.900 C 155.583 211.400,158.245 210.902,162.076 210.136 C 163.599 209.832,165.405 209.504,166.090 209.406 C 166.775 209.309,167.958 209.059,168.720 208.852 C 169.481 208.645,171.287 208.213,172.734 207.893 C 179.243 206.451,182.029 205.797,185.190 204.969 C 186.180 204.710,187.675 204.332,188.512 204.128 C 189.349 203.925,190.969 203.493,192.111 203.168 C 193.253 202.843,194.872 202.410,195.709 202.205 C 197.747 201.707,201.455 200.621,208.443 198.475 C 210.498 197.844,212.776 197.156,213.505 196.947 C 214.234 196.737,215.915 196.199,217.242 195.750 C 218.569 195.301,220.090 194.803,220.623 194.645 C 221.156 194.486,223.211 193.782,225.190 193.080 C 227.170 192.378,229.260 191.685,229.836 191.539 C 230.412 191.393,231.098 191.163,231.359 191.028 C 231.620 190.894,232.768 190.443,233.910 190.026 C 235.052 189.609,237.045 188.869,238.339 188.382 C 240.630 187.518,241.450 187.217,243.737 186.394 C 244.346 186.175,245.237 185.815,245.717 185.593 C 246.196 185.372,246.747 185.190,246.940 185.190 C 247.134 185.190,247.489 185.029,247.729 184.832 C 249.240 183.595,250.675 183.686,251.888 185.096 C 252.261 185.528,253.368 186.817,254.350 187.958 C 256.273 190.196,259.337 193.685,259.801 194.167 C 259.959 194.330,261.141 195.709,262.430 197.232 C 263.718 198.754,264.898 200.134,265.051 200.299 C 266.810 202.187,269.231 204.989,269.897 205.908 C 271.512 208.138,272.623 206.150,272.659 200.969 C 272.667 199.827,272.857 198.027,273.081 196.969 C 273.306 195.911,273.613 193.545,273.764 191.710 C 273.916 189.875,274.226 187.502,274.454 186.436 C 274.683 185.370,274.871 183.582,274.874 182.462 C 274.877 181.342,275.055 179.723,275.271 178.863 C 275.487 178.004,275.747 176.294,275.850 175.063 C 276.085 172.233,275.902 172.460,279.317 170.773 C 284.062 168.429,288.499 166.174,289.827 165.432 C 290.512 165.049,291.945 164.280,293.010 163.722 C 294.076 163.164,295.073 162.612,295.225 162.495 C 295.377 162.378,296.623 161.689,297.993 160.966 C 299.363 160.242,300.671 159.501,300.900 159.319 C 301.253 159.038,306.519 155.855,308.235 154.885 C 314.367 151.421,329.227 140.661,334.794 135.653 C 351.658 120.485,358.559 108.503,356.804 97.439 C 355.755 90.829,350.247 84.767,341.978 81.125 C 340.472 80.462,338.740 79.696,338.131 79.424 C 337.009 78.923,330.777 77.208,326.228 76.150 C 324.858 75.831,323.028 75.570,322.162 75.571 C 321.295 75.571,320.516 75.457,320.430 75.318 C 320.184 74.919,318.283 74.708,317.370 74.979 L 316.540 75.224 317.319 75.536 C 317.748 75.707,318.685 75.848,319.403 75.848 C 320.120 75.848,320.953 76.019,321.253 76.227 C 321.554 76.436,322.458 76.747,323.263 76.919 C 325.945 77.490,331.495 79.411,333.010 80.293 C 333.239 80.426,334.137 80.908,335.006 81.365 C 346.743 87.528,350.054 97.951,344.155 110.173 C 343.160 112.234,339.624 117.829,338.643 118.894 C 338.362 119.200,337.424 120.321,336.559 121.386 C 332.071 126.912,320.943 136.580,312.941 141.906 C 312.028 142.514,309.910 143.938,308.235 145.070 C 306.561 146.202,303.945 147.875,302.422 148.787 C 300.900 149.698,299.445 150.570,299.190 150.724 C 297.662 151.643,293.853 153.802,291.211 155.245 C 290.221 155.786,288.913 156.505,288.304 156.843 C 284.143 159.154,277.772 162.173,277.542 161.943 C 277.374 161.775,277.392 161.146,277.590 160.217 C 277.763 159.412,277.970 157.485,278.052 155.934 C 278.134 154.383,278.326 152.785,278.479 152.383 C 278.632 151.981,278.882 150.011,279.035 148.006 C 279.188 146.000,279.496 143.612,279.721 142.699 C 279.946 141.785,280.137 140.104,280.146 138.962 C 280.155 137.820,280.288 136.325,280.442 135.640 C 280.596 134.955,280.897 132.553,281.111 130.303 C 281.325 128.053,281.585 126.074,281.689 125.906 C 281.793 125.738,281.977 124.092,282.099 122.247 C 282.221 120.402,282.502 118.083,282.723 117.093 C 282.945 116.104,283.202 114.022,283.294 112.468 C 283.386 110.913,283.646 108.858,283.872 107.900 C 284.098 106.943,284.286 105.225,284.291 104.083 C 284.295 102.941,284.490 101.197,284.724 100.208 C 284.958 99.218,285.258 96.886,285.390 95.026 C 285.523 93.166,285.707 91.522,285.799 91.373 C 285.891 91.224,286.147 89.128,286.369 86.715 C 286.590 84.302,286.888 81.960,287.031 81.510 C 287.173 81.060,287.365 79.293,287.456 77.584 C 287.547 75.874,287.746 74.149,287.897 73.750 C 288.049 73.351,288.305 71.449,288.465 69.523 C 288.625 67.597,288.935 65.234,289.153 64.273 C 289.372 63.312,289.552 61.506,289.553 60.260 C 289.555 59.013,289.746 57.308,289.977 56.471 C 290.207 55.633,290.511 53.329,290.651 51.349 C 290.790 49.370,291.030 47.315,291.184 46.782 C 291.337 46.249,291.500 44.883,291.545 43.746 C 291.669 40.591,291.445 40.688,285.731 46.275 M291.265 43.469 C 291.219 44.149,291.011 45.578,290.802 46.644 C 290.594 47.709,290.344 49.702,290.246 51.073 C 290.149 52.443,289.897 54.498,289.687 55.640 C 289.477 56.782,289.223 58.900,289.124 60.346 C 289.024 61.792,288.768 63.825,288.555 64.862 C 288.341 65.900,288.166 67.477,288.166 68.367 C 288.166 69.258,287.978 70.962,287.748 72.156 C 287.519 73.349,287.205 75.758,287.052 77.509 C 286.898 79.260,286.588 81.671,286.362 82.868 C 286.136 84.065,285.952 85.767,285.952 86.650 C 285.952 87.533,285.776 89.171,285.562 90.290 C 285.348 91.410,285.091 93.507,284.991 94.951 C 284.891 96.396,284.641 98.388,284.437 99.377 C 284.233 100.367,283.988 102.298,283.894 103.668 C 283.799 105.038,283.543 107.280,283.324 108.651 C 282.953 110.969,282.736 112.833,282.051 119.585 C 281.904 121.031,281.595 123.404,281.365 124.858 C 281.134 126.313,280.829 128.804,280.685 130.395 C 280.542 131.986,280.238 134.595,280.011 136.194 C 279.783 137.792,279.594 139.662,279.591 140.348 C 279.587 141.034,279.455 142.031,279.297 142.562 C 279.139 143.094,278.888 145.024,278.739 146.851 C 278.591 148.678,278.337 150.831,278.175 151.635 C 277.813 153.434,277.148 159.516,276.807 164.152 C 276.667 166.055,276.307 169.107,276.007 170.934 C 275.283 175.353,274.947 177.898,274.460 182.662 C 274.236 184.849,273.939 187.092,273.801 187.645 C 273.663 188.198,273.471 189.896,273.374 191.419 C 273.277 192.941,273.023 195.183,272.810 196.401 C 272.596 197.619,272.299 200.048,272.148 201.799 C 271.727 206.708,271.337 207.261,269.783 205.156 C 269.410 204.650,268.629 203.720,268.047 203.087 C 266.339 201.232,263.409 197.853,262.730 196.955 C 262.384 196.498,261.387 195.377,260.515 194.464 C 259.642 193.550,257.942 191.619,256.737 190.173 C 254.404 187.372,252.458 185.205,250.653 183.397 C 250.042 182.785,249.254 181.910,248.903 181.453 C 248.551 180.997,247.346 179.564,246.224 178.270 C 245.102 176.976,242.638 174.111,240.747 171.903 C 235.069 165.272,234.937 165.175,233.356 166.474 C 232.957 166.802,231.757 167.452,227.266 169.768 C 226.125 170.357,224.194 171.367,222.976 172.012 C 221.758 172.657,219.204 174.008,217.301 175.015 C 215.398 176.021,213.280 177.162,212.595 177.550 C 211.910 177.939,210.478 178.704,209.412 179.252 C 208.346 179.800,206.851 180.587,206.090 181.000 C 205.329 181.414,203.149 182.571,201.246 183.573 C 196.335 186.156,192.795 188.027,191.834 188.545 C 191.606 188.668,190.609 189.194,189.619 189.713 C 186.642 191.275,184.849 192.268,183.391 193.164 C 182.630 193.631,181.073 194.495,179.931 195.084 C 178.789 195.672,177.606 196.294,177.301 196.465 C 176.997 196.636,176.561 196.849,176.332 196.938 C 175.945 197.089,174.600 197.803,169.403 200.617 C 168.257 201.238,166.532 202.163,165.570 202.672 C 164.608 203.182,162.494 204.311,160.872 205.181 C 159.251 206.052,157.612 206.922,157.232 207.115 C 156.851 207.307,154.495 208.557,151.997 209.892 C 149.498 211.226,147.381 212.320,147.291 212.321 C 147.121 212.324,141.342 215.301,139.377 216.398 C 139.073 216.568,138.637 216.780,138.408 216.869 C 138.180 216.958,137.433 217.355,136.747 217.751 C 135.238 218.623,130.682 221.060,128.028 222.414 C 126.962 222.958,125.872 223.525,125.606 223.674 C 124.869 224.086,124.324 224.374,122.215 225.467 C 121.149 226.020,119.654 226.810,118.893 227.224 C 118.131 227.637,116.263 228.642,114.740 229.456 C 113.218 230.270,111.163 231.372,110.173 231.906 C 109.183 232.439,107.439 233.360,106.298 233.952 C 105.156 234.545,104.035 235.132,103.806 235.257 C 103.160 235.611,102.219 236.107,99.377 237.590 C 97.931 238.344,96.239 239.243,95.618 239.587 C 93.750 240.623,93.444 240.783,93.010 240.953 C 92.782 241.042,91.599 241.665,90.381 242.338 C 89.163 243.010,87.422 243.955,86.514 244.437 C 82.526 246.551,80.673 247.558,80.415 247.751 C 80.263 247.864,78.955 248.553,77.509 249.281 C 76.062 250.009,74.671 250.782,74.417 250.999 C 74.163 251.216,73.665 251.353,73.310 251.303 L 72.664 251.211 73.379 250.519 C 76.355 247.635,79.746 244.413,84.014 240.414 C 89.769 235.021,103.888 221.415,107.548 217.735 C 108.922 216.354,111.351 213.988,112.946 212.475 C 114.542 210.963,117.405 208.222,119.308 206.385 C 122.447 203.354,129.860 196.311,136.332 190.210 C 140.847 185.955,144.294 182.650,149.350 177.729 C 154.445 172.770,164.461 163.181,168.443 159.449 C 169.661 158.308,172.651 155.430,175.087 153.053 C 180.024 148.236,185.987 142.507,189.758 138.955 C 192.231 136.626,195.491 133.491,203.737 125.512 C 211.024 118.460,215.117 114.534,217.855 111.970 C 221.135 108.896,227.232 103.034,232.664 97.730 C 234.948 95.500,238.001 92.560,239.450 91.197 C 240.898 89.835,244.685 86.228,247.866 83.183 C 251.046 80.138,254.221 77.100,254.921 76.431 C 255.621 75.763,258.190 73.271,260.629 70.895 C 263.068 68.519,267.176 64.581,269.759 62.145 C 274.336 57.827,278.760 53.560,286.644 45.860 C 290.824 41.777,291.401 41.479,291.265 43.469 M180.543 95.374 C 180.043 95.940,181.551 95.939,182.300 95.372 C 182.805 94.990,182.780 94.966,181.869 94.967 C 181.336 94.968,180.739 95.151,180.543 95.374 M177.838 96.174 C 177.337 96.543,177.334 96.582,177.786 96.757 C 178.482 97.027,179.654 96.671,179.654 96.188 C 179.654 95.660,178.548 95.652,177.838 96.174 M398.209 163.957 C 398.091 164.230,398.072 164.531,398.166 164.626 C 398.448 164.907,398.674 164.512,398.545 163.966 C 398.430 163.483,398.415 163.482,398.209 163.957 M236.185 167.205 C 236.567 167.666,237.366 168.569,237.961 169.212 C 240.568 172.028,243.894 176.137,243.799 176.422 C 243.742 176.593,243.331 176.820,242.886 176.925 C 242.182 177.092,228.567 181.630,226.298 182.454 C 225.841 182.620,224.844 182.923,224.083 183.129 C 223.322 183.334,221.640 183.826,220.346 184.221 C 217.970 184.948,216.289 185.426,213.633 186.128 C 212.834 186.340,211.806 186.662,211.349 186.844 C 210.893 187.026,209.958 187.276,209.273 187.400 C 208.588 187.523,205.349 188.305,202.076 189.138 C 193.947 191.205,192.386 191.559,191.396 191.558 C 190.926 191.557,190.449 191.651,190.335 191.765 C 190.036 192.065,186.497 192.879,186.107 192.738 C 185.580 192.546,185.967 191.975,186.929 191.523 C 188.056 190.994,191.797 189.014,193.149 188.232 C 193.415 188.078,194.131 187.706,194.740 187.405 C 195.349 187.104,196.035 186.740,196.263 186.595 C 196.491 186.450,197.363 186.008,198.201 185.612 C 199.038 185.217,200.284 184.576,200.969 184.188 C 201.654 183.800,203.772 182.662,205.675 181.658 C 210.705 179.006,214.609 176.926,218.270 174.949 C 219.488 174.292,221.543 173.204,222.837 172.533 C 224.131 171.861,225.377 171.202,225.606 171.068 C 225.834 170.934,226.345 170.662,226.742 170.464 C 228.831 169.421,231.718 167.900,232.941 167.198 C 234.727 166.173,235.331 166.175,236.185 167.205 " stroke="none" fill="#9ca3a4" fill-rule="evenodd"></path></g></svg>