<svg id="svg" version="1.1" xmlns="http://www.w3.org/2000/svg" xmlns:xlink="http://www.w3.org/1999/xlink" width="400" height="400" viewBox="0, 0, 400,400"><g id="svgg"><path id="path0" d="M0.000 200.000 L 0.000 400.000 200.000 400.000 L 400.000 400.000 400.000 200.000 L 400.000 0.000 200.000 0.000 L 0.000 0.000 0.000 200.000 M353.300 183.460 C 353.905 183.592,354.400 183.836,354.400 184.003 C 354.400 184.440,350.968 185.239,350.258 184.967 C 349.928 184.840,348.790 185.125,347.729 185.600 C 346.630 186.092,344.166 186.648,342.000 186.892 C 339.500 187.175,338.030 187.530,337.704 187.932 C 337.412 188.292,336.115 188.674,334.545 188.863 C 333.080 189.039,331.588 189.448,331.230 189.773 C 330.872 190.097,329.774 190.483,328.790 190.632 C 327.805 190.780,326.460 191.216,325.800 191.600 C 325.140 191.984,323.805 192.418,322.833 192.565 C 321.861 192.711,320.870 193.098,320.631 193.425 C 320.393 193.751,319.478 194.126,318.599 194.258 C 317.719 194.389,316.813 194.728,316.584 195.011 C 316.355 195.293,315.431 195.722,314.530 195.965 C 313.630 196.207,312.670 196.674,312.398 197.003 C 312.125 197.331,311.599 197.600,311.229 197.600 C 310.858 197.600,309.945 198.050,309.200 198.600 C 308.455 199.150,307.547 199.600,307.183 199.600 C 306.820 199.600,306.120 199.949,305.628 200.375 C 305.137 200.802,304.209 201.266,303.567 201.407 C 302.925 201.548,302.400 201.832,302.400 202.038 C 302.400 202.244,301.770 202.713,301.000 203.081 C 300.230 203.448,299.600 203.877,299.600 204.035 C 299.600 204.193,299.034 204.519,298.341 204.761 L 297.082 205.199 298.241 206.297 C 298.879 206.900,299.691 207.576,300.047 207.797 C 301.287 208.569,303.008 209.772,304.200 210.700 C 304.860 211.214,305.816 211.941,306.325 212.317 C 306.834 212.693,307.557 213.270,307.931 213.600 C 308.305 213.930,309.109 214.423,309.717 214.697 C 314.857 217.005,307.167 219.230,300.240 217.439 C 299.778 217.320,298.620 216.505,297.668 215.628 C 296.715 214.751,295.611 213.931,295.215 213.805 C 294.507 213.580,293.479 212.804,291.702 211.154 L 290.804 210.320 288.364 212.260 C 287.023 213.327,285.161 214.971,284.227 215.913 L 282.528 217.627 277.641 217.919 C 273.430 218.171,272.673 218.123,272.177 217.574 C 271.384 216.699,271.452 215.230,272.300 214.913 C 272.685 214.769,273.720 213.896,274.600 212.973 C 276.785 210.680,280.700 207.600,281.428 207.600 C 281.756 207.600,282.131 207.325,282.260 206.988 C 282.389 206.651,282.969 206.126,283.547 205.820 L 284.600 205.264 283.584 204.874 C 283.025 204.659,282.327 204.195,282.035 203.842 C 281.742 203.489,281.299 203.198,281.051 203.195 C 280.547 203.189,278.763 201.871,277.402 200.500 C 276.910 200.005,276.343 199.600,276.141 199.600 C 275.939 199.600,275.260 199.195,274.631 198.700 C 274.003 198.205,273.130 197.518,272.691 197.173 C 272.008 196.637,271.964 196.415,272.381 195.635 C 273.121 194.254,283.248 194.477,284.400 195.900 C 284.800 196.395,285.314 196.800,285.541 196.800 C 285.769 196.800,286.190 197.124,286.477 197.520 C 286.765 197.916,287.600 198.484,288.334 198.783 C 289.067 199.081,289.825 199.740,290.018 200.247 C 290.422 201.309,292.241 200.973,293.826 199.545 C 294.280 199.135,295.036 198.800,295.506 198.800 C 295.976 198.800,296.504 198.556,296.680 198.258 C 297.075 197.589,298.533 196.800,299.374 196.800 C 299.718 196.800,300.360 196.440,300.800 196.000 C 301.240 195.560,301.984 195.200,302.453 195.200 C 302.922 195.200,303.867 194.855,304.553 194.434 C 305.239 194.012,306.520 193.538,307.400 193.380 C 308.280 193.223,309.322 192.758,309.716 192.347 C 310.109 191.936,310.922 191.600,311.522 191.600 C 312.121 191.600,313.240 191.263,314.008 190.852 C 314.776 190.440,316.209 189.967,317.193 189.801 C 318.177 189.635,319.353 189.256,319.805 188.960 C 320.257 188.664,321.818 188.253,323.273 188.047 C 324.728 187.840,326.342 187.405,326.859 187.080 C 327.377 186.754,329.110 186.402,330.710 186.296 C 332.726 186.164,333.861 185.888,334.403 185.397 C 334.999 184.858,336.117 184.642,339.093 184.490 C 341.306 184.376,343.123 184.097,343.284 183.845 C 343.441 183.600,345.151 183.293,347.084 183.161 C 350.500 182.929,350.979 182.952,353.300 183.460 M173.514 196.073 C 174.221 196.993,174.800 197.983,174.800 198.273 C 174.800 198.563,175.074 198.800,175.410 198.800 C 175.745 198.800,176.191 199.250,176.400 199.800 C 176.609 200.350,176.936 200.800,177.127 200.800 C 177.318 200.800,177.813 201.430,178.228 202.200 C 178.643 202.970,179.109 203.600,179.264 203.600 C 179.419 203.600,179.670 203.989,179.821 204.465 C 179.972 204.941,180.793 206.056,181.646 206.943 C 182.498 207.831,183.313 208.927,183.456 209.378 C 183.598 209.830,184.781 211.506,186.084 213.101 C 188.898 216.547,188.919 217.371,186.204 217.778 C 182.179 218.382,179.747 217.707,178.162 215.548 L 176.732 213.600 167.015 213.600 C 159.264 213.600,157.206 213.489,156.842 213.051 C 156.361 212.471,156.636 211.200,157.243 211.200 C 157.439 211.200,157.600 210.949,157.600 210.641 C 157.600 210.334,158.236 209.524,159.014 208.841 L 160.428 207.600 166.214 207.600 C 171.652 207.600,172.869 207.349,171.454 206.520 C 171.154 206.344,170.609 205.615,170.244 204.900 C 169.878 204.185,169.404 203.600,169.190 203.600 C 168.975 203.600,168.800 203.322,168.800 202.982 C 168.800 202.642,168.350 201.914,167.800 201.364 C 166.493 200.057,166.539 199.242,168.023 197.355 C 170.703 193.949,171.703 193.715,173.514 196.073 M108.000 195.149 C 110.112 195.502,112.558 197.481,112.333 198.654 C 112.198 199.356,111.513 199.412,100.795 199.600 L 89.400 199.800 89.400 201.200 L 89.400 202.600 98.600 202.800 C 106.239 202.966,108.052 203.119,109.287 203.700 C 110.105 204.085,110.960 204.400,111.186 204.400 C 112.673 204.400,114.276 211.530,113.233 213.505 C 113.032 213.887,112.653 214.777,112.392 215.483 C 111.592 217.645,110.529 217.802,96.800 217.787 C 83.665 217.772,82.016 217.542,81.412 215.637 C 81.266 215.176,80.978 214.800,80.773 214.800 C 80.568 214.800,80.400 214.552,80.400 214.249 C 80.400 212.845,81.357 212.734,92.981 212.781 C 105.796 212.834,106.000 212.797,106.000 210.428 L 106.000 208.884 95.041 208.742 L 84.083 208.600 82.606 207.034 L 81.129 205.468 81.265 201.602 C 81.425 197.029,82.470 195.401,85.442 195.095 C 88.300 194.801,106.174 194.843,108.000 195.149 M147.754 195.161 C 149.827 195.419,150.292 195.651,151.654 197.112 L 153.200 198.769 153.200 202.206 C 153.200 205.701,152.036 208.400,150.529 208.400 C 150.269 208.400,149.742 208.715,149.358 209.100 C 148.737 209.722,147.559 209.813,138.840 209.920 C 127.621 210.058,128.374 209.765,128.455 213.964 C 128.529 217.813,128.135 218.170,124.200 217.829 C 120.238 217.485,120.400 217.976,120.400 206.324 C 120.400 196.933,120.443 196.357,121.200 195.600 C 122.051 194.749,141.824 194.422,147.754 195.161 M221.531 195.169 C 223.793 195.607,226.154 197.765,225.568 198.861 C 225.196 199.554,224.440 199.600,213.386 199.600 L 201.600 199.600 201.600 206.213 L 201.600 212.826 213.282 212.781 C 226.785 212.730,227.013 212.786,224.733 215.624 C 223.031 217.742,223.248 217.699,213.095 217.907 C 199.870 218.179,196.694 217.880,194.849 216.189 L 193.400 214.861 193.400 206.288 L 193.400 197.716 194.768 196.558 C 195.521 195.921,196.781 195.291,197.568 195.157 C 199.776 194.782,219.579 194.792,221.531 195.169 M263.371 195.429 C 264.114 196.171,264.205 198.435,263.520 199.120 C 262.892 199.748,234.741 199.810,233.574 199.186 C 232.221 198.462,232.585 196.194,234.200 195.278 C 235.586 194.492,262.574 194.631,263.371 195.429 M128.614 201.448 C 128.224 204.046,128.164 204.029,137.229 203.909 L 145.400 203.800 145.363 202.062 C 145.311 199.651,145.175 199.613,136.545 199.606 L 128.891 199.600 128.614 201.448 M254.320 202.880 C 254.963 203.523,254.932 205.793,254.273 206.340 C 253.960 206.599,251.396 206.822,247.973 206.889 L 242.200 207.000 242.200 209.800 L 242.200 212.600 252.800 212.800 L 263.400 213.000 263.520 215.075 C 263.698 218.149,264.152 218.066,247.950 217.924 C 234.615 217.806,233.907 217.762,233.367 217.024 C 232.499 215.835,232.551 203.906,233.429 203.029 C 234.246 202.211,253.514 202.074,254.320 202.880 " stroke="none" fill="#040404" fill-rule="evenodd"></path><path id="path1" d="M330.000 187.600 C 329.574 187.875,330.059 187.990,331.676 187.994 C 332.928 187.997,334.064 187.820,334.200 187.600 C 334.523 187.078,330.808 187.078,330.000 187.600 M323.207 189.096 C 322.881 189.224,322.398 189.545,322.134 189.809 C 321.869 190.074,320.715 190.414,319.568 190.566 C 318.422 190.719,316.797 191.193,315.958 191.621 C 315.119 192.050,314.110 192.406,313.716 192.413 C 313.322 192.419,312.100 192.868,311.000 193.409 C 309.900 193.950,308.608 194.394,308.129 194.396 C 307.649 194.398,306.987 194.670,306.657 195.000 C 306.327 195.330,305.834 195.600,305.560 195.600 C 305.068 195.600,301.153 197.355,298.346 198.834 C 297.546 199.255,296.683 199.600,296.429 199.600 C 296.175 199.600,295.590 199.951,295.129 200.380 C 294.669 200.809,293.776 201.273,293.146 201.412 C 292.516 201.550,292.000 201.827,292.000 202.026 C 292.000 202.226,291.415 202.634,290.700 202.933 C 289.985 203.232,289.153 203.774,288.851 204.138 C 288.549 204.502,288.004 204.800,287.640 204.800 C 287.276 204.800,286.694 205.115,286.348 205.500 C 286.001 205.885,285.196 206.510,284.559 206.889 C 283.921 207.267,283.050 207.807,282.621 208.089 C 281.613 208.751,275.333 213.917,273.872 215.286 L 272.745 216.343 274.626 216.625 C 279.336 217.331,281.615 216.709,284.513 213.928 C 287.585 210.981,291.790 207.600,292.386 207.600 C 292.614 207.600,292.800 207.426,292.800 207.214 C 292.800 206.679,299.804 201.994,302.632 200.637 C 303.309 200.312,304.096 199.766,304.381 199.423 C 304.665 199.080,305.131 198.800,305.415 198.800 C 305.700 198.800,307.073 198.166,308.466 197.391 C 309.860 196.616,311.338 195.869,311.750 195.731 C 312.163 195.593,313.333 195.058,314.350 194.542 C 315.368 194.026,316.470 193.602,316.800 193.600 C 317.130 193.598,318.120 193.152,319.000 192.610 C 319.880 192.068,321.073 191.619,321.651 191.612 C 322.229 191.606,322.911 191.348,323.167 191.040 C 323.422 190.733,324.785 190.251,326.196 189.971 C 327.607 189.690,328.669 189.312,328.557 189.130 C 328.329 188.761,324.130 188.734,323.207 189.096 M85.578 196.347 C 82.085 197.211,80.846 203.585,83.631 206.369 L 84.862 207.600 95.257 207.600 C 107.328 207.600,107.200 207.569,107.200 210.534 C 107.200 213.729,107.742 213.600,94.344 213.600 C 81.667 213.600,81.372 213.649,83.240 215.439 L 84.452 216.600 97.017 216.600 L 109.582 216.600 110.691 215.491 C 111.743 214.439,111.800 214.192,111.800 210.691 C 111.800 204.621,111.458 204.477,96.914 204.429 C 86.898 204.396,87.200 204.495,87.200 201.240 C 87.200 198.844,87.415 198.801,99.274 198.794 C 105.063 198.791,110.021 198.647,110.292 198.476 C 110.944 198.061,109.537 196.841,107.847 196.356 C 106.461 195.959,87.180 195.951,85.578 196.347 M122.749 196.254 C 121.797 196.526,121.609 198.401,121.604 207.713 C 121.599 217.168,121.356 216.568,125.200 216.588 L 127.400 216.600 127.600 213.000 C 127.877 208.022,127.113 208.400,136.891 208.400 C 147.969 208.400,149.911 208.072,151.105 205.996 C 152.825 203.008,152.127 199.145,149.513 197.185 L 148.200 196.200 135.800 196.134 C 128.980 196.097,123.107 196.151,122.749 196.254 M169.880 197.300 C 168.226 199.536,168.310 200.835,170.222 202.600 C 170.461 202.820,171.003 203.518,171.428 204.150 C 174.915 209.346,175.031 209.200,167.432 209.200 C 162.294 209.200,161.060 209.317,160.035 209.900 C 157.426 211.385,158.311 211.600,167.040 211.600 C 175.193 211.600,178.000 212.016,178.000 213.225 C 178.000 213.409,178.440 214.034,178.978 214.614 C 179.516 215.195,180.014 215.841,180.083 216.050 C 180.153 216.260,181.509 216.539,183.096 216.673 C 186.464 216.955,187.098 216.408,185.603 214.510 C 185.122 213.900,183.403 211.600,181.784 209.400 C 180.164 207.200,178.561 205.115,178.220 204.766 C 177.879 204.418,177.600 203.945,177.600 203.715 C 177.600 203.486,177.306 203.054,176.946 202.755 C 176.586 202.456,175.821 201.507,175.246 200.646 C 174.671 199.785,174.020 198.812,173.800 198.485 C 171.969 195.760,171.192 195.525,169.880 197.300 M197.674 196.275 C 197.164 196.378,196.219 197.015,195.574 197.691 L 194.400 198.919 194.400 206.429 L 194.400 213.938 195.700 215.269 L 197.000 216.600 209.534 216.600 L 222.069 216.600 223.055 215.454 C 224.479 213.799,224.597 213.819,212.067 213.600 L 200.600 213.400 200.486 207.000 C 200.423 203.480,200.471 200.195,200.593 199.700 L 200.815 198.800 212.184 198.800 C 224.103 198.800,224.874 198.678,222.705 197.131 C 221.443 196.231,201.289 195.542,197.674 196.275 M234.956 196.571 C 234.164 198.634,233.929 198.600,248.805 198.600 L 262.600 198.600 262.600 197.400 L 262.600 196.200 248.889 196.095 C 237.193 196.005,235.146 196.075,234.956 196.571 M274.200 196.400 C 274.064 196.620,274.134 196.800,274.356 196.800 C 274.577 196.800,275.214 197.205,275.770 197.700 C 276.326 198.195,277.423 199.050,278.207 199.600 C 280.079 200.913,282.466 202.677,283.128 203.237 C 283.526 203.574,284.136 203.456,285.603 202.759 C 287.709 201.759,288.459 200.478,287.334 199.800 C 286.969 199.580,286.339 199.085,285.935 198.700 C 285.531 198.315,285.118 198.000,285.018 198.000 C 284.918 198.000,284.172 197.550,283.362 197.000 C 281.789 195.933,274.773 195.473,274.200 196.400 M146.528 200.209 C 149.183 204.116,147.139 205.200,137.120 205.200 C 127.598 205.200,127.600 205.201,127.600 202.066 C 127.600 198.713,127.348 198.800,137.066 198.800 L 145.571 198.800 146.528 200.209 M235.067 203.467 C 234.433 204.100,234.775 216.305,235.433 216.557 C 236.276 216.881,259.948 216.870,261.571 216.546 C 262.710 216.318,262.830 216.161,262.721 215.046 L 262.600 213.800 251.800 213.600 C 239.215 213.367,240.000 213.620,240.000 209.790 C 240.000 206.030,240.050 206.002,246.674 205.995 C 252.796 205.988,253.600 205.826,253.600 204.600 C 253.600 203.998,253.298 203.612,252.700 203.452 C 251.467 203.122,235.399 203.135,235.067 203.467 M295.800 208.359 C 293.126 209.598,292.899 210.517,294.912 211.952 C 297.020 213.453,297.842 214.075,299.577 215.483 C 300.770 216.452,301.368 216.619,304.080 216.743 C 309.299 216.980,310.242 216.452,307.547 214.800 C 306.649 214.250,305.498 213.440,304.988 213.000 C 304.478 212.560,303.399 211.750,302.590 211.200 C 301.781 210.650,300.819 209.930,300.453 209.600 C 299.767 208.982,297.717 207.593,297.514 207.609 C 297.451 207.614,296.680 207.951,295.800 208.359 " stroke="none" fill="#ececec" fill-rule="evenodd"></path><path id="path2" d="M336.800 185.495 C 336.250 185.597,335.684 185.868,335.542 186.096 C 335.400 186.324,333.870 186.636,332.142 186.788 C 330.414 186.940,328.550 187.310,328.000 187.610 C 327.450 187.910,326.280 188.279,325.400 188.428 C 323.876 188.687,323.908 188.702,326.076 188.750 C 329.213 188.819,329.266 189.361,326.196 189.971 C 324.785 190.251,323.422 190.733,323.167 191.040 C 322.911 191.348,322.229 191.606,321.651 191.612 C 321.073 191.619,319.880 192.068,319.000 192.610 C 317.796 193.352,317.603 193.596,318.220 193.598 C 318.671 193.599,319.260 193.380,319.529 193.111 C 320.033 192.607,323.762 191.249,327.577 190.180 C 328.774 189.845,329.977 189.385,330.250 189.158 C 330.523 188.932,331.860 188.589,333.221 188.397 C 334.875 188.163,335.951 187.774,336.464 187.224 C 337.036 186.609,337.761 186.390,339.316 186.360 C 340.462 186.338,341.850 186.192,342.400 186.035 C 344.362 185.476,339.451 185.002,336.800 185.495 M334.200 187.600 C 334.064 187.820,332.928 187.997,331.676 187.994 C 330.059 187.990,329.574 187.875,330.000 187.600 C 330.808 187.078,334.523 187.078,334.200 187.600 M321.200 189.390 C 320.650 189.698,319.480 190.071,318.600 190.217 C 317.720 190.363,316.460 190.725,315.800 191.020 C 315.140 191.316,313.610 191.908,312.400 192.337 C 307.400 194.108,306.552 194.438,305.538 195.005 C 304.954 195.332,304.290 195.600,304.062 195.600 C 303.833 195.600,301.611 196.594,299.123 197.808 C 294.574 200.030,293.836 200.424,292.000 201.618 C 291.450 201.976,290.510 202.390,289.912 202.539 C 289.313 202.688,288.632 203.167,288.397 203.605 C 288.163 204.042,287.650 204.400,287.256 204.400 C 286.862 204.400,286.117 204.850,285.600 205.400 C 285.083 205.950,284.453 206.400,284.200 206.400 C 283.947 206.400,283.317 206.850,282.800 207.400 C 282.283 207.950,282.050 208.400,282.281 208.400 C 282.513 208.400,282.936 208.118,283.222 207.774 C 283.508 207.429,284.295 206.865,284.971 206.519 C 285.647 206.174,286.344 205.646,286.520 205.346 C 286.696 205.046,287.169 204.800,287.571 204.800 C 287.973 204.800,288.549 204.502,288.851 204.138 C 289.153 203.774,289.985 203.232,290.700 202.933 C 291.415 202.634,292.000 202.226,292.000 202.026 C 292.000 201.827,292.516 201.550,293.146 201.412 C 293.776 201.273,294.669 200.809,295.129 200.380 C 295.590 199.951,296.175 199.600,296.429 199.600 C 296.683 199.600,297.546 199.255,298.346 198.834 C 301.153 197.355,305.068 195.600,305.560 195.600 C 305.834 195.600,306.327 195.330,306.657 195.000 C 306.987 194.670,307.649 194.398,308.129 194.396 C 308.608 194.394,309.900 193.950,311.000 193.409 C 312.100 192.868,313.322 192.419,313.716 192.413 C 314.110 192.406,315.119 192.050,315.958 191.621 C 316.797 191.193,318.422 190.719,319.568 190.566 C 320.715 190.414,321.869 190.074,322.134 189.809 C 322.398 189.545,322.881 189.224,323.207 189.096 C 323.630 188.930,323.570 188.858,323.000 188.846 C 322.560 188.836,321.750 189.081,321.200 189.390 M314.121 194.602 C 313.198 195.093,312.118 195.605,311.721 195.739 C 311.325 195.873,309.860 196.616,308.466 197.391 C 307.073 198.166,305.700 198.800,305.415 198.800 C 305.131 198.800,304.665 199.080,304.381 199.423 C 304.096 199.766,303.309 200.312,302.632 200.637 C 299.804 201.994,292.800 206.679,292.800 207.214 C 292.800 207.426,292.614 207.600,292.386 207.600 C 291.790 207.600,287.585 210.981,284.513 213.928 C 281.619 216.706,279.335 217.331,274.648 216.628 L 272.789 216.349 273.895 215.270 C 274.503 214.677,276.493 212.956,278.318 211.446 C 280.142 209.937,281.545 208.611,281.434 208.501 C 281.035 208.102,272.400 215.597,272.400 216.342 C 272.400 217.983,281.489 217.397,283.274 215.642 C 284.003 214.925,286.625 212.697,289.100 210.691 C 291.575 208.686,293.600 206.900,293.600 206.722 C 293.600 206.545,294.056 206.400,294.613 206.400 C 295.169 206.400,295.726 206.138,295.848 205.818 C 296.048 205.298,296.796 204.730,299.400 203.125 C 299.840 202.854,300.740 202.265,301.400 201.816 C 302.060 201.367,305.930 199.339,310.000 197.308 C 314.070 195.277,317.040 193.636,316.600 193.662 C 316.160 193.687,315.045 194.110,314.121 194.602 M170.452 195.849 C 168.967 196.889,167.357 200.029,168.040 200.554 C 168.359 200.799,169.292 201.990,170.113 203.200 C 170.934 204.410,171.879 205.779,172.213 206.241 C 173.551 208.096,172.788 208.400,166.790 208.400 C 160.761 208.400,159.013 208.888,158.546 210.699 C 157.991 212.850,158.048 212.863,167.812 212.753 L 176.828 212.651 178.114 214.200 C 178.821 215.051,179.603 216.020,179.852 216.352 C 180.785 217.600,187.200 217.329,187.200 216.041 C 187.200 215.751,185.957 214.041,184.210 211.926 C 183.904 211.556,183.328 210.746,182.930 210.126 C 182.532 209.507,182.057 208.820,181.876 208.600 C 181.694 208.380,180.290 206.490,178.756 204.400 C 177.222 202.310,175.749 200.326,175.483 199.992 C 175.218 199.658,174.370 198.540,173.600 197.509 C 171.933 195.275,171.555 195.076,170.452 195.849 M84.800 195.870 C 81.587 197.100,80.629 204.114,83.319 206.722 L 84.638 208.000 94.945 208.000 C 107.327 208.000,107.915 208.214,106.410 212.174 L 106.020 213.200 94.310 213.206 C 80.628 213.213,79.719 213.460,83.360 216.180 C 84.520 217.046,106.886 217.479,109.712 216.689 C 111.543 216.178,112.397 214.280,112.399 210.719 C 112.402 204.430,112.063 204.261,98.932 204.000 C 93.395 203.890,88.785 203.710,88.687 203.600 C 88.262 203.123,87.601 201.609,87.606 201.126 C 87.626 199.451,87.893 199.408,99.752 199.200 C 112.273 198.980,112.316 198.971,110.363 197.104 L 109.000 195.800 97.200 195.720 C 90.710 195.677,85.130 195.744,84.800 195.870 M121.900 196.032 C 121.062 196.520,120.802 216.107,121.627 216.617 C 121.862 216.762,123.119 216.977,124.420 217.095 C 127.656 217.389,128.000 217.037,128.000 213.427 C 128.000 209.063,127.484 209.283,138.200 209.084 C 144.360 208.970,147.897 208.740,148.905 208.388 C 153.879 206.651,153.983 198.591,149.062 196.256 C 147.421 195.477,123.196 195.277,121.900 196.032 M197.133 195.928 C 196.767 196.078,195.912 196.696,195.233 197.303 L 194.000 198.406 194.000 206.325 L 194.000 214.243 195.422 215.622 L 196.843 217.000 208.000 217.133 C 220.910 217.286,223.029 217.031,224.080 215.194 C 225.164 213.298,224.516 213.190,212.726 213.287 L 202.200 213.374 212.867 213.587 C 224.554 213.820,224.473 213.806,223.055 215.454 L 222.069 216.600 209.534 216.600 L 197.000 216.600 195.700 215.269 L 194.400 213.938 194.400 206.429 L 194.400 198.919 195.699 197.559 L 196.998 196.200 209.199 196.200 C 221.330 196.200,221.407 196.205,222.705 197.131 C 224.874 198.678,224.103 198.800,212.184 198.800 L 200.815 198.800 200.593 199.700 C 200.073 201.808,200.579 213.327,201.200 213.532 C 201.698 213.696,201.713 213.625,201.290 213.112 C 200.912 212.654,200.808 210.800,200.890 205.947 L 201.000 199.400 212.467 199.200 C 224.063 198.998,224.687 198.925,224.263 197.820 C 223.486 195.796,222.182 195.601,209.600 195.630 C 203.110 195.644,197.500 195.779,197.133 195.928 M234.507 196.100 C 232.281 198.944,233.459 199.200,248.786 199.200 C 264.160 199.200,264.101 199.212,262.957 196.233 C 262.633 195.387,235.165 195.259,234.507 196.100 M273.627 196.167 C 273.338 196.515,273.278 196.800,273.493 196.800 C 273.707 196.800,274.322 197.205,274.858 197.700 C 275.928 198.687,276.710 199.261,280.000 201.473 C 281.210 202.286,282.522 203.278,282.916 203.676 C 283.890 204.662,284.821 204.575,285.942 203.393 C 286.460 202.847,287.140 202.400,287.452 202.400 C 288.548 202.400,288.970 200.280,288.010 199.600 C 287.544 199.270,286.226 198.280,285.081 197.400 L 283.000 195.800 278.576 195.667 C 274.919 195.558,274.061 195.645,273.627 196.167 M107.847 196.356 C 109.537 196.841,110.944 198.061,110.292 198.476 C 110.021 198.647,105.063 198.791,99.274 198.794 C 87.415 198.801,87.200 198.844,87.200 201.240 C 87.200 204.495,86.898 204.396,96.914 204.429 C 111.458 204.477,111.800 204.621,111.800 210.691 C 111.800 214.192,111.743 214.439,110.691 215.491 L 109.582 216.600 97.017 216.600 L 84.452 216.600 83.240 215.439 C 81.372 213.649,81.667 213.600,94.344 213.600 C 107.742 213.600,107.200 213.729,107.200 210.534 C 107.200 207.569,107.328 207.600,95.257 207.600 L 84.862 207.600 83.631 206.369 C 80.846 203.585,82.085 197.211,85.578 196.347 C 87.180 195.951,106.461 195.959,107.847 196.356 M149.513 197.185 C 152.127 199.145,152.825 203.008,151.105 205.996 C 149.911 208.072,147.969 208.400,136.891 208.400 C 127.113 208.400,127.877 208.022,127.600 213.000 L 127.400 216.600 125.200 216.588 C 121.356 216.568,121.599 217.168,121.604 207.713 C 121.609 198.401,121.797 196.526,122.749 196.254 C 123.107 196.151,128.980 196.097,135.800 196.134 L 148.200 196.200 149.513 197.185 M172.554 196.945 C 173.019 197.464,173.580 198.157,173.800 198.485 C 174.020 198.812,174.671 199.785,175.246 200.646 C 175.821 201.507,176.586 202.456,176.946 202.755 C 177.306 203.054,177.600 203.486,177.600 203.715 C 177.600 203.945,177.879 204.418,178.220 204.766 C 178.561 205.115,180.164 207.200,181.784 209.400 C 183.403 211.600,185.122 213.900,185.603 214.510 C 187.098 216.408,186.464 216.955,183.096 216.673 C 181.509 216.539,180.153 216.260,180.083 216.050 C 180.014 215.841,179.516 215.195,178.978 214.614 C 178.440 214.034,178.000 213.409,178.000 213.225 C 178.000 212.016,175.193 211.600,167.040 211.600 C 158.311 211.600,157.426 211.385,160.035 209.900 C 161.060 209.317,162.294 209.200,167.432 209.200 C 174.287 209.200,174.662 209.004,172.898 206.350 C 171.025 203.533,170.624 202.970,170.222 202.600 C 168.310 200.835,168.226 199.536,169.880 197.300 C 171.025 195.751,171.436 195.696,172.554 196.945 M262.600 197.400 L 262.600 198.600 248.805 198.600 C 235.816 198.600,235.003 198.558,234.872 197.877 C 234.501 195.953,234.266 195.982,248.889 196.095 L 262.600 196.200 262.600 197.400 M283.362 197.000 C 284.172 197.550,284.918 198.000,285.018 198.000 C 285.118 198.000,285.531 198.315,285.935 198.700 C 286.339 199.085,286.969 199.580,287.334 199.800 C 288.459 200.478,287.709 201.759,285.603 202.759 C 284.136 203.456,283.526 203.574,283.128 203.237 C 282.466 202.677,280.079 200.913,278.207 199.600 C 277.423 199.050,276.326 198.195,275.770 197.700 C 275.214 197.205,274.577 196.800,274.356 196.800 C 274.134 196.800,274.064 196.620,274.200 196.400 C 274.773 195.473,281.789 195.933,283.362 197.000 M128.080 199.280 C 127.243 200.117,127.466 204.300,128.374 204.786 C 129.955 205.632,144.948 205.314,146.098 204.409 C 147.533 203.280,147.675 201.896,146.528 200.209 L 145.571 198.800 137.066 198.800 C 130.983 198.800,128.423 198.937,128.080 199.280 M145.777 200.089 C 146.590 201.250,146.571 203.148,145.738 204.069 C 144.916 204.977,129.363 205.203,128.480 204.320 C 127.858 203.698,127.858 200.302,128.480 199.680 C 129.490 198.670,145.041 199.038,145.777 200.089 M234.480 203.280 C 234.147 203.613,234.000 205.700,234.000 210.090 L 234.000 216.420 235.026 216.810 C 236.597 217.407,262.116 217.324,262.720 216.720 C 262.984 216.456,263.200 215.772,263.200 215.200 C 263.200 213.248,262.936 213.200,252.153 213.200 C 239.911 213.200,240.800 213.466,240.800 209.800 C 240.800 206.233,240.468 206.400,247.553 206.400 C 253.311 206.400,254.000 206.208,254.000 204.600 C 254.000 202.892,253.490 202.800,244.000 202.800 C 237.502 202.800,234.825 202.935,234.480 203.280 M252.700 203.452 C 253.298 203.612,253.600 203.998,253.600 204.600 C 253.600 205.826,252.796 205.988,246.674 205.995 C 240.050 206.002,240.000 206.030,240.000 209.790 C 240.000 213.620,239.215 213.367,251.800 213.600 L 262.600 213.800 262.721 215.046 C 262.830 216.161,262.710 216.318,261.571 216.546 C 259.948 216.870,236.276 216.881,235.433 216.557 C 234.775 216.305,234.433 204.100,235.067 203.467 C 235.399 203.135,251.467 203.122,252.700 203.452 M295.530 207.702 C 294.722 208.196,293.682 209.085,293.218 209.678 L 292.376 210.757 294.205 212.078 C 295.211 212.805,297.059 214.210,298.312 215.200 L 300.589 217.000 304.453 217.136 C 310.304 217.342,311.210 216.622,307.890 214.405 C 306.740 213.637,305.710 212.916,305.600 212.802 C 305.490 212.688,304.534 211.966,303.476 211.197 C 302.418 210.429,300.669 209.125,299.588 208.300 C 297.278 206.536,297.407 206.555,295.530 207.702 M298.707 208.300 C 299.301 208.685,300.087 209.270,300.453 209.600 C 300.819 209.930,301.781 210.650,302.590 211.200 C 303.399 211.750,304.478 212.560,304.988 213.000 C 305.498 213.440,306.649 214.250,307.547 214.800 C 310.242 216.452,309.299 216.980,304.080 216.743 C 301.368 216.619,300.770 216.452,299.577 215.483 C 297.842 214.075,297.020 213.453,294.912 211.952 C 292.899 210.517,293.126 209.598,295.800 208.359 C 297.745 207.458,297.419 207.464,298.707 208.300 " stroke="none" fill="#8c8c8c" fill-rule="evenodd"></path><path id="path3" d="M347.084 183.161 C 345.151 183.293,343.441 183.600,343.284 183.845 C 343.123 184.097,341.306 184.376,339.093 184.490 C 336.117 184.642,334.999 184.858,334.403 185.397 C 333.861 185.888,332.726 186.164,330.710 186.296 C 329.110 186.402,327.377 186.754,326.859 187.080 C 326.342 187.405,324.728 187.840,323.273 188.047 C 321.818 188.253,320.257 188.664,319.805 188.960 C 319.353 189.256,318.177 189.635,317.193 189.801 C 316.209 189.967,314.776 190.440,314.008 190.852 C 313.240 191.263,312.121 191.600,311.522 191.600 C 310.922 191.600,310.109 191.936,309.716 192.347 C 309.322 192.758,308.280 193.223,307.400 193.380 C 306.520 193.538,305.239 194.012,304.553 194.434 C 303.867 194.855,302.922 195.200,302.453 195.200 C 301.984 195.200,301.240 195.560,300.800 196.000 C 300.360 196.440,299.718 196.800,299.374 196.800 C 298.533 196.800,297.075 197.589,296.680 198.258 C 296.504 198.556,295.976 198.800,295.506 198.800 C 295.036 198.800,294.280 199.135,293.826 199.545 C 292.241 200.973,290.422 201.309,290.018 200.247 C 289.825 199.740,289.067 199.081,288.334 198.783 C 287.600 198.484,286.765 197.916,286.477 197.520 C 286.190 197.124,285.769 196.800,285.541 196.800 C 285.314 196.800,284.800 196.395,284.400 195.900 C 283.248 194.477,273.121 194.254,272.381 195.635 C 271.964 196.415,272.008 196.637,272.691 197.173 C 273.130 197.518,274.003 198.205,274.631 198.700 C 275.260 199.195,275.939 199.600,276.141 199.600 C 276.343 199.600,276.910 200.005,277.402 200.500 C 278.763 201.871,280.547 203.189,281.051 203.195 C 281.299 203.198,281.742 203.489,282.035 203.842 C 282.327 204.195,283.025 204.659,283.584 204.874 L 284.600 205.264 283.547 205.820 C 282.969 206.126,282.389 206.651,282.260 206.988 C 282.131 207.325,281.756 207.600,281.428 207.600 C 280.700 207.600,276.785 210.680,274.600 212.973 C 273.720 213.896,272.685 214.769,272.300 214.913 C 271.452 215.230,271.384 216.699,272.177 217.574 C 272.673 218.123,273.430 218.171,277.641 217.919 L 282.528 217.627 284.227 215.913 C 285.161 214.971,287.023 213.327,288.364 212.260 L 290.804 210.320 291.702 211.154 C 293.479 212.804,294.507 213.580,295.215 213.805 C 295.611 213.931,296.715 214.751,297.668 215.628 C 298.620 216.505,299.778 217.320,300.240 217.439 C 307.167 219.230,314.857 217.005,309.717 214.697 C 309.109 214.423,308.305 213.930,307.931 213.600 C 307.557 213.270,306.834 212.693,306.325 212.317 C 305.816 211.941,304.860 211.214,304.200 210.700 C 303.008 209.772,301.287 208.569,300.047 207.797 C 299.691 207.576,298.879 206.900,298.241 206.297 L 297.082 205.199 298.341 204.761 C 299.034 204.519,299.600 204.193,299.600 204.035 C 299.600 203.877,300.230 203.448,301.000 203.081 C 301.770 202.713,302.400 202.244,302.400 202.038 C 302.400 201.832,302.925 201.548,303.567 201.407 C 304.209 201.266,305.137 200.802,305.628 200.375 C 306.120 199.949,306.820 199.600,307.183 199.600 C 307.547 199.600,308.455 199.150,309.200 198.600 C 309.945 198.050,310.858 197.600,311.229 197.600 C 311.599 197.600,312.125 197.331,312.398 197.003 C 312.670 196.674,313.630 196.207,314.530 195.965 C 315.431 195.722,316.355 195.293,316.584 195.011 C 316.813 194.728,317.719 194.389,318.599 194.258 C 319.478 194.126,320.393 193.751,320.631 193.425 C 320.870 193.098,321.861 192.711,322.833 192.565 C 323.805 192.418,325.140 191.984,325.800 191.600 C 326.460 191.216,327.805 190.780,328.790 190.632 C 329.774 190.483,330.872 190.097,331.230 189.773 C 331.588 189.448,333.080 189.039,334.545 188.863 C 336.115 188.674,337.412 188.292,337.704 187.932 C 338.030 187.530,339.500 187.175,342.000 186.892 C 344.166 186.648,346.630 186.092,347.729 185.600 C 348.790 185.125,349.928 184.840,350.258 184.967 C 350.968 185.239,354.400 184.440,354.400 184.003 C 354.400 183.727,353.602 183.479,351.400 183.071 C 350.960 182.989,349.018 183.030,347.084 183.161 M343.393 185.588 C 343.668 186.033,342.665 186.289,339.773 186.512 C 338.584 186.604,337.260 187.011,336.573 187.496 C 335.928 187.951,334.490 188.432,333.378 188.565 C 332.266 188.698,330.653 189.165,329.793 189.603 C 328.934 190.042,327.864 190.404,327.415 190.409 C 326.967 190.414,325.833 190.766,324.894 191.192 C 323.956 191.617,322.568 192.082,321.809 192.225 C 321.050 192.367,320.220 192.735,319.965 193.042 C 319.710 193.349,319.199 193.600,318.830 193.600 C 318.091 193.600,316.101 194.502,309.277 197.929 C 303.670 200.744,302.697 201.292,297.884 204.340 C 296.354 205.308,295.909 206.400,297.044 206.400 C 297.398 206.400,298.073 206.759,298.544 207.199 C 299.015 207.638,301.110 209.248,303.200 210.776 C 305.290 212.304,307.180 213.709,307.400 213.897 C 307.620 214.086,308.385 214.585,309.100 215.006 C 311.807 216.602,310.361 217.303,304.711 217.135 L 300.189 217.000 297.917 215.200 C 296.667 214.210,294.832 212.800,293.839 212.066 L 292.033 210.732 292.816 209.890 C 293.247 209.428,293.600 208.908,293.600 208.735 C 293.600 208.562,294.146 208.138,294.813 207.793 C 296.111 207.122,296.073 206.400,294.739 206.400 C 294.262 206.400,293.839 206.731,293.716 207.200 C 293.601 207.640,293.258 208.000,292.953 208.000 C 292.649 208.000,292.082 208.315,291.692 208.700 C 291.303 209.085,289.729 210.390,288.194 211.600 C 286.659 212.810,284.633 214.565,283.691 215.500 L 281.979 217.200 277.438 217.200 C 271.171 217.200,271.045 216.957,275.279 213.023 C 277.096 211.335,279.531 209.412,280.691 208.748 C 281.851 208.084,282.800 207.383,282.800 207.189 C 282.800 206.996,283.430 206.539,284.200 206.173 C 285.886 205.373,285.972 204.906,284.500 204.547 C 283.549 204.315,282.869 203.882,280.575 202.048 C 280.341 201.861,279.770 201.505,279.306 201.257 C 278.842 201.008,278.223 200.572,277.931 200.287 C 277.639 200.001,276.374 199.038,275.119 198.145 C 272.041 195.953,272.488 195.600,278.344 195.600 L 282.927 195.600 284.964 197.112 C 286.084 197.943,287.490 198.934,288.089 199.314 C 289.009 199.897,289.122 200.154,288.815 200.961 C 288.271 202.391,289.955 203.085,291.126 201.914 C 291.394 201.646,292.338 201.061,293.223 200.614 C 304.131 195.103,307.441 193.600,308.670 193.600 C 309.094 193.600,309.660 193.380,309.929 193.111 C 310.486 192.554,314.668 191.065,318.174 190.176 C 319.480 189.845,320.754 189.404,321.006 189.195 C 321.257 188.987,322.676 188.644,324.159 188.434 C 325.641 188.224,327.109 187.841,327.421 187.583 C 327.732 187.324,329.407 186.954,331.141 186.760 C 332.876 186.566,334.814 186.136,335.448 185.806 C 336.758 185.123,342.999 184.952,343.393 185.588 M170.123 195.109 C 167.098 197.494,166.240 199.804,167.800 201.364 C 168.350 201.914,168.800 202.642,168.800 202.982 C 168.800 203.322,168.975 203.600,169.190 203.600 C 169.404 203.600,169.878 204.185,170.244 204.900 C 170.609 205.615,171.154 206.344,171.454 206.520 C 172.869 207.349,171.652 207.600,166.214 207.600 L 160.428 207.600 159.014 208.841 C 158.236 209.524,157.600 210.334,157.600 210.641 C 157.600 210.949,157.439 211.200,157.243 211.200 C 156.636 211.200,156.361 212.471,156.842 213.051 C 157.206 213.489,159.264 213.600,167.015 213.600 L 176.732 213.600 178.162 215.548 C 179.747 217.707,182.179 218.382,186.204 217.778 C 188.919 217.371,188.898 216.547,186.084 213.101 C 184.781 211.506,183.598 209.830,183.456 209.378 C 183.313 208.927,182.498 207.831,181.646 206.943 C 180.793 206.056,179.972 204.941,179.821 204.465 C 179.670 203.989,179.419 203.600,179.264 203.600 C 179.109 203.600,178.643 202.970,178.228 202.200 C 177.813 201.430,177.318 200.800,177.127 200.800 C 176.936 200.800,176.609 200.350,176.400 199.800 C 176.191 199.250,175.745 198.800,175.410 198.800 C 175.074 198.800,174.800 198.563,174.800 198.273 C 174.800 196.096,171.610 193.937,170.123 195.109 M85.442 195.095 C 82.470 195.401,81.425 197.029,81.265 201.602 L 81.129 205.468 82.512 206.934 C 83.616 208.105,84.167 208.388,85.247 208.340 C 86.534 208.283,86.544 208.272,85.448 208.108 C 81.482 207.518,79.865 200.071,83.034 196.993 L 84.469 195.600 96.734 195.612 L 109.000 195.623 110.333 196.836 C 112.826 199.102,112.425 199.200,100.639 199.200 C 89.020 199.200,88.000 199.356,88.000 201.128 C 88.000 203.466,88.556 203.600,98.231 203.602 C 111.201 203.604,112.612 204.305,112.586 210.730 C 112.559 217.184,112.519 217.201,97.313 217.198 C 84.984 217.195,83.324 216.993,82.016 215.330 C 80.420 213.301,80.952 213.201,93.349 213.195 C 107.081 213.188,106.474 213.307,106.319 210.648 L 106.200 208.600 96.400 208.589 L 86.600 208.578 96.300 208.696 L 106.000 208.814 106.000 210.393 C 106.000 212.802,105.828 212.834,92.981 212.781 C 81.357 212.734,80.400 212.845,80.400 214.249 C 80.400 214.552,80.568 214.800,80.773 214.800 C 80.978 214.800,81.266 215.176,81.412 215.637 C 82.016 217.542,83.665 217.772,96.800 217.787 C 110.529 217.802,111.592 217.645,112.392 215.483 C 112.653 214.777,113.032 213.887,113.233 213.505 C 114.276 211.530,112.673 204.400,111.186 204.400 C 110.960 204.400,110.105 204.085,109.287 203.700 C 108.052 203.119,106.239 202.966,98.600 202.800 L 89.400 202.600 89.400 201.200 L 89.400 199.800 100.795 199.600 C 111.513 199.412,112.198 199.356,112.333 198.654 C 112.558 197.481,110.112 195.502,108.000 195.149 C 106.174 194.843,88.300 194.801,85.442 195.095 M121.200 195.600 C 120.299 196.501,119.943 215.199,120.797 216.794 C 121.768 218.609,128.054 218.234,128.516 216.334 L 128.743 215.400 128.123 216.300 C 127.592 217.069,127.144 217.200,125.028 217.200 C 120.979 217.200,121.169 217.770,121.293 206.000 L 121.400 195.800 134.944 195.695 C 148.026 195.593,148.534 195.617,149.824 196.415 C 153.089 198.433,154.035 204.078,151.552 206.727 C 149.547 208.867,148.983 208.973,138.405 209.195 C 128.999 209.392,128.605 209.432,128.483 210.200 C 128.401 210.720,128.473 210.832,128.689 210.520 C 128.929 210.176,131.779 210.007,138.840 209.920 C 147.559 209.813,148.737 209.722,149.358 209.100 C 149.742 208.715,150.269 208.400,150.529 208.400 C 152.036 208.400,153.200 205.701,153.200 202.206 L 153.200 198.769 151.654 197.112 C 149.659 194.973,148.907 194.878,133.700 194.834 C 122.509 194.801,121.965 194.835,121.200 195.600 M197.568 195.157 C 196.781 195.291,195.521 195.921,194.768 196.558 L 193.400 197.716 193.400 206.288 L 193.400 214.861 194.849 216.189 C 196.694 217.880,199.870 218.179,213.095 217.907 C 223.248 217.699,223.031 217.742,224.733 215.624 C 227.013 212.786,226.785 212.730,213.282 212.781 L 201.600 212.826 201.600 206.213 L 201.600 199.600 213.386 199.600 C 224.440 199.600,225.196 199.554,225.568 198.861 C 226.154 197.765,223.793 195.607,221.531 195.169 C 219.579 194.792,199.776 194.782,197.568 195.157 M234.200 195.278 C 232.585 196.194,232.221 198.462,233.574 199.186 C 234.741 199.810,262.892 199.748,263.520 199.120 C 264.205 198.435,264.114 196.171,263.371 195.429 C 262.574 194.631,235.586 194.492,234.200 195.278 M172.850 196.300 C 173.400 196.905,174.109 197.776,174.425 198.237 C 175.491 199.788,179.963 205.795,180.503 206.400 C 180.798 206.730,181.338 207.450,181.703 208.000 C 182.645 209.418,185.190 212.865,186.582 214.610 C 188.973 217.606,181.745 218.689,179.110 215.729 C 176.250 212.516,177.423 212.800,166.992 212.800 L 157.585 212.800 157.837 211.700 C 158.438 209.075,160.031 208.423,165.867 208.411 C 168.764 208.405,171.419 208.291,171.767 208.157 C 172.478 207.884,172.621 206.584,171.984 206.190 C 171.755 206.049,171.080 205.199,170.484 204.303 C 169.888 203.406,169.087 202.206,168.704 201.636 C 167.509 199.855,167.461 199.545,168.186 198.255 C 169.823 195.343,171.385 194.689,172.850 196.300 M263.600 197.382 C 263.600 199.172,263.369 199.200,248.894 199.200 C 234.466 199.200,233.600 199.100,233.600 197.435 C 233.600 195.665,233.980 195.616,248.435 195.505 C 263.184 195.392,263.600 195.444,263.600 197.382 M222.808 196.204 C 224.306 196.979,225.108 198.359,224.341 198.845 C 224.044 199.033,218.841 199.191,212.780 199.194 C 204.749 199.198,201.630 199.330,201.280 199.680 C 200.477 200.483,200.617 212.644,201.433 212.957 C 201.781 213.091,206.956 213.203,212.933 213.206 C 224.132 213.212,225.066 213.331,224.633 214.697 C 223.904 216.992,223.853 217.000,209.566 217.000 L 196.415 217.000 195.108 215.692 L 193.800 214.385 193.800 206.415 L 193.800 198.444 195.178 197.022 L 196.557 195.600 209.098 195.600 C 219.502 195.600,221.839 195.703,222.808 196.204 M128.554 199.777 C 128.432 200.094,128.417 200.679,128.520 201.077 C 128.642 201.550,128.723 201.420,128.754 200.700 L 128.800 199.600 136.500 199.606 C 145.178 199.613,145.311 199.650,145.363 202.062 L 145.400 203.800 136.900 203.800 C 132.225 203.800,128.400 203.935,128.400 204.100 C 128.400 204.265,132.274 204.400,137.010 204.400 L 145.620 204.400 146.022 203.342 C 146.504 202.074,145.877 199.792,144.948 199.435 C 143.493 198.877,128.781 199.183,128.554 199.777 M233.429 203.029 C 232.551 203.906,232.499 215.835,233.367 217.024 C 233.907 217.762,234.615 217.806,247.950 217.924 C 264.152 218.066,263.698 218.149,263.520 215.075 L 263.400 213.000 252.800 212.800 L 242.200 212.600 242.200 209.800 L 242.200 207.000 247.973 206.889 C 251.396 206.822,253.960 206.599,254.273 206.340 C 254.932 205.793,254.963 203.523,254.320 202.880 C 253.514 202.074,234.246 202.211,233.429 203.029 M254.041 203.900 C 254.830 205.959,254.283 206.190,248.357 206.297 C 240.750 206.436,241.200 206.215,241.200 209.808 C 241.200 213.434,239.506 212.915,252.200 213.177 L 263.000 213.400 263.127 214.726 C 263.370 217.254,263.686 217.200,248.725 217.200 C 231.928 217.200,233.600 217.989,233.600 210.066 C 233.600 202.059,232.530 202.800,244.090 202.800 L 253.620 202.800 254.041 203.900 M286.267 203.067 C 285.730 203.603,286.020 204.400,286.751 204.400 C 287.586 204.400,288.541 203.474,288.130 203.063 C 287.788 202.722,286.609 202.724,286.267 203.067 " stroke="none" fill="#616161" fill-rule="evenodd"></path><path id="path4" d="M341.200 185.355 C 341.200 185.440,341.730 185.587,342.379 185.682 C 343.027 185.777,343.467 185.708,343.355 185.528 C 343.157 185.207,341.200 185.050,341.200 185.355 M336.629 187.029 C 335.773 187.884,335.830 188.272,336.700 187.514 C 337.085 187.179,337.670 186.805,338.000 186.684 C 338.490 186.504,338.477 186.457,337.929 186.432 C 337.559 186.414,336.974 186.683,336.629 187.029 M195.570 196.700 L 194.600 197.800 195.600 196.951 C 196.150 196.484,196.870 196.003,197.200 195.882 C 197.714 195.695,197.709 195.659,197.170 195.632 C 196.823 195.614,196.103 196.095,195.570 196.700 M234.080 196.080 C 233.816 196.344,233.621 196.929,233.646 197.380 C 233.692 198.183,233.697 198.184,233.889 197.400 C 233.998 196.960,234.269 196.375,234.492 196.100 C 235.010 195.462,234.712 195.448,234.080 196.080 M263.152 197.287 C 263.337 198.398,263.393 198.455,263.519 197.654 C 263.601 197.133,263.503 196.543,263.301 196.341 C 263.079 196.119,263.021 196.493,263.152 197.287 M81.682 201.851 C 81.613 204.916,81.712 205.590,82.300 206.051 C 82.915 206.533,82.941 206.525,82.517 205.979 C 82.250 205.636,81.973 203.758,81.899 201.779 L 81.765 198.200 81.682 201.851 M193.765 206.400 C 193.765 210.250,193.825 211.825,193.898 209.900 C 193.971 207.975,193.971 204.825,193.898 202.900 C 193.825 200.975,193.765 202.550,193.765 206.400 M128.120 202.000 C 128.120 203.210,128.195 203.705,128.287 203.100 C 128.378 202.495,128.378 201.505,128.287 200.900 C 128.195 200.295,128.120 200.790,128.120 202.000 M287.421 202.361 C 286.688 202.648,286.696 202.679,287.560 202.905 C 288.778 203.224,289.892 202.831,289.134 202.350 C 288.513 201.957,288.452 201.957,287.421 202.361 M234.080 203.280 C 233.543 203.817,233.374 216.213,233.900 216.539 C 234.065 216.641,234.146 213.846,234.081 210.327 C 233.997 205.867,234.103 203.758,234.430 203.364 C 235.000 202.677,234.745 202.615,234.080 203.280 M285.314 203.966 C 284.932 204.577,284.951 204.772,285.406 204.947 C 286.121 205.221,286.375 204.806,286.045 203.901 C 285.808 203.251,285.758 203.256,285.314 203.966 M94.123 203.899 C 96.720 203.969,100.860 203.968,103.323 203.898 C 105.785 203.828,103.660 203.771,98.600 203.772 C 93.540 203.772,91.525 203.829,94.123 203.899 M152.446 204.569 C 152.421 204.991,152.092 205.711,151.715 206.169 C 151.054 206.970,151.063 206.969,151.954 206.150 C 152.515 205.633,152.802 205.006,152.685 204.550 C 152.501 203.832,152.491 203.833,152.446 204.569 M132.922 204.699 C 135.299 204.770,139.079 204.769,141.322 204.698 C 143.565 204.627,141.620 204.569,137.000 204.569 C 132.380 204.570,130.545 204.628,132.922 204.699 M296.162 205.262 C 295.448 206.417,295.639 207.608,296.467 207.164 C 296.905 206.930,297.528 206.840,297.852 206.965 C 298.183 207.092,298.335 207.018,298.197 206.795 C 298.063 206.578,297.582 206.400,297.130 206.400 C 296.504 206.400,296.357 206.209,296.516 205.600 C 296.749 204.708,296.595 204.561,296.162 205.262 M240.937 209.800 C 240.939 211.560,241.009 212.230,241.093 211.289 C 241.178 210.349,241.177 208.909,241.091 208.089 C 241.005 207.270,240.936 208.040,240.937 209.800 M91.100 208.299 C 93.795 208.368,98.205 208.368,100.900 208.299 C 103.595 208.230,101.390 208.173,96.000 208.173 C 90.610 208.173,88.405 208.230,91.100 208.299 M106.380 210.110 C 106.575 211.758,106.583 211.767,106.719 210.449 C 106.796 209.706,106.706 208.946,106.520 208.760 C 106.333 208.573,106.271 209.181,106.380 210.110 M112.524 210.600 C 112.526 211.920,112.601 212.412,112.690 211.693 C 112.779 210.974,112.777 209.894,112.686 209.293 C 112.595 208.692,112.522 209.280,112.524 210.600 M278.487 210.300 C 277.530 211.235,277.514 211.281,278.381 210.606 C 280.088 209.276,280.169 209.200,279.886 209.200 C 279.736 209.200,279.106 209.695,278.487 210.300 M158.279 210.300 C 157.743 211.255,157.628 212.800,158.092 212.800 C 158.406 212.800,158.600 212.265,158.600 211.400 C 158.600 209.942,158.559 209.801,158.279 210.300 M128.134 213.200 C 128.134 214.850,128.205 215.525,128.291 214.700 C 128.378 213.875,128.378 212.525,128.291 211.700 C 128.205 210.875,128.134 211.550,128.134 213.200 M111.494 215.303 L 110.788 216.600 111.594 215.656 C 112.280 214.852,112.646 213.994,112.300 214.003 C 112.245 214.004,111.882 214.589,111.494 215.303 M194.000 214.525 C 194.000 214.594,194.585 215.179,195.300 215.825 L 196.600 217.000 195.425 215.700 C 194.330 214.488,194.000 214.216,194.000 214.525 " stroke="none" fill="#7c7c7c" fill-rule="evenodd"></path></g></svg>