<svg id="svg" version="1.1" xmlns="http://www.w3.org/2000/svg" xmlns:xlink="http://www.w3.org/1999/xlink" width="400" height="266.6666666666667" viewBox="0, 0, 400,266.6666666666667"><g id="svgg"><path id="path0" d="M183.250 140.833 C 181.508 140.907,178.396 141.050,176.333 141.152 C 174.271 141.253,171.758 141.372,170.750 141.416 C 160.021 141.879,138.486 144.098,129.392 145.677 C 128.370 145.855,127.357 146.000,127.142 145.999 C 126.926 145.999,125.925 146.148,124.917 146.332 C 123.908 146.515,122.183 146.820,121.083 147.010 C 116.839 147.742,111.562 148.769,107.333 149.686 C 103.575 150.502,102.684 150.706,101.545 151.011 C 100.883 151.188,100.220 151.333,100.072 151.333 C 99.925 151.333,99.267 151.478,98.611 151.656 C 97.954 151.833,96.779 152.141,96.000 152.340 C 90.377 153.773,85.635 155.128,80.833 156.674 C 76.164 158.177,75.262 158.484,72.750 159.414 C 72.108 159.652,71.283 159.950,70.917 160.075 C 69.733 160.481,66.254 161.813,65.250 162.245 C 64.975 162.363,64.300 162.649,63.750 162.879 C 57.605 165.456,52.578 167.894,47.625 170.699 C 46.237 171.485,45.725 171.991,46.542 171.771 C 47.339 171.555,53.818 169.962,55.083 169.670 C 58.432 168.897,61.295 168.266,64.167 167.667 C 65.129 167.466,66.554 167.165,67.333 166.997 C 68.112 166.830,69.612 166.531,70.667 166.332 C 71.721 166.134,73.296 165.835,74.167 165.670 C 79.636 164.628,88.206 163.190,94.000 162.343 C 106.073 160.576,115.380 159.450,127.083 158.341 C 131.597 157.913,138.023 157.366,139.833 157.255 C 140.612 157.207,142.675 157.058,144.417 156.924 C 171.778 154.816,209.444 154.587,240.667 156.340 C 273.999 158.210,305.721 162.318,333.417 168.349 C 339.253 169.619,346.834 171.448,350.018 172.354 C 352.497 173.058,352.209 172.735,348.500 170.651 C 345.610 169.027,340.503 166.401,338.667 165.594 C 338.071 165.333,337.133 164.911,336.583 164.658 C 334.566 163.728,329.708 161.710,327.583 160.919 C 326.942 160.681,326.229 160.405,326.000 160.308 C 325.771 160.210,325.283 160.033,324.917 159.913 C 324.550 159.793,323.387 159.384,322.333 159.005 C 320.459 158.330,316.578 157.035,314.250 156.308 C 313.608 156.107,312.671 155.815,312.167 155.657 C 311.662 155.500,310.688 155.210,310.000 155.014 C 309.313 154.818,308.262 154.517,307.667 154.344 C 306.653 154.051,305.776 153.811,302.792 153.008 C 300.925 152.507,296.980 151.520,294.833 151.018 C 285.817 148.911,277.477 147.308,267.083 145.686 C 254.208 143.677,235.400 141.791,223.529 141.320 C 221.390 141.235,218.353 141.085,216.779 140.986 C 213.264 140.766,187.612 140.649,183.250 140.833 " stroke="none" fill="#5484d3" fill-rule="evenodd"></path><path id="path1" d="M321.036 65.505 C 320.643 65.777,320.296 66.000,320.264 66.000 C 320.189 66.000,316.969 68.104,316.734 68.307 C 316.634 68.394,316.334 68.583,316.068 68.727 C 315.801 68.871,315.396 69.141,315.167 69.325 L 314.750 69.661 315.750 69.566 C 318.066 69.344,318.200 69.146,312.254 74.750 C 311.865 75.117,311.142 75.798,310.648 76.263 C 310.154 76.729,308.962 77.811,308.000 78.668 C 306.269 80.210,305.549 80.858,304.672 81.667 C 304.129 82.168,303.536 82.688,301.667 84.305 C 300.887 84.979,300.175 85.618,300.083 85.724 C 299.992 85.831,299.504 86.254,299.000 86.664 C 298.496 87.075,297.670 87.825,297.164 88.330 C 295.558 89.937,282.615 100.579,282.004 100.796 C 281.864 100.846,280.512 101.871,279.000 103.074 C 277.487 104.278,275.894 105.516,275.458 105.826 C 275.023 106.136,274.667 106.452,274.667 106.528 C 274.667 106.604,274.588 106.667,274.492 106.667 C 274.396 106.667,273.730 107.135,273.014 107.708 C 272.297 108.281,271.541 108.862,271.335 109.000 C 271.128 109.138,270.874 109.325,270.771 109.417 C 270.511 109.646,269.115 110.695,268.663 111.000 C 268.459 111.138,268.208 111.325,268.105 111.417 C 267.574 111.887,262.504 115.530,260.833 116.641 C 260.054 117.159,259.379 117.626,259.333 117.678 C 259.287 117.730,258.781 118.059,258.208 118.410 C 257.635 118.761,257.167 119.112,257.167 119.190 C 257.167 119.269,261.351 119.333,266.464 119.333 L 275.762 119.333 277.035 117.625 C 277.735 116.685,278.445 115.766,278.612 115.583 C 278.861 115.309,279.666 114.314,281.079 112.534 C 281.173 112.415,281.406 112.152,281.598 111.951 C 281.789 111.749,282.423 110.983,283.007 110.250 C 283.591 109.517,284.222 108.763,284.409 108.575 C 284.597 108.387,285.514 107.337,286.447 106.242 C 288.318 104.047,289.086 103.169,289.797 102.417 C 290.057 102.142,291.009 101.092,291.913 100.083 C 292.816 99.075,293.937 97.846,294.403 97.352 C 294.869 96.857,295.438 96.250,295.667 96.003 C 295.896 95.755,297.208 94.361,298.583 92.905 C 300.998 90.348,302.011 89.260,303.759 87.349 C 304.213 86.853,304.771 86.246,305.000 85.999 C 305.229 85.753,305.950 84.958,306.602 84.234 C 307.253 83.509,307.992 82.692,308.244 82.417 C 308.495 82.142,308.366 82.404,307.956 83.000 C 307.302 83.953,305.719 86.310,305.250 87.030 C 305.158 87.171,304.961 87.466,304.812 87.685 C 303.880 89.055,302.667 91.023,302.667 91.165 C 302.667 91.258,302.607 91.333,302.535 91.333 C 302.462 91.333,302.106 91.832,301.743 92.441 C 301.380 93.050,300.916 93.819,300.712 94.149 C 300.508 94.480,300.188 95.013,300.000 95.333 C 299.812 95.654,299.521 96.142,299.353 96.417 C 299.185 96.692,298.887 97.198,298.690 97.542 C 298.494 97.885,298.171 98.448,297.973 98.792 C 297.775 99.135,297.312 99.979,296.944 100.667 C 296.576 101.354,296.102 102.217,295.892 102.583 C 294.863 104.375,288.843 116.662,288.584 117.500 C 288.513 117.729,288.353 118.065,288.228 118.245 C 288.102 118.426,288.000 118.757,288.000 118.980 L 288.000 119.386 291.027 119.276 C 292.691 119.216,296.088 119.167,298.574 119.167 L 303.095 119.167 302.892 117.625 C 302.309 113.199,303.197 104.715,304.570 101.583 C 304.690 101.308,304.923 100.671,305.086 100.167 C 305.606 98.563,306.602 95.847,307.025 94.877 C 307.195 94.488,307.333 94.097,307.333 94.007 C 307.333 93.918,307.443 93.598,307.577 93.297 C 307.712 92.996,308.018 92.225,308.259 91.583 C 308.500 90.942,308.840 90.099,309.015 89.710 C 309.190 89.322,309.333 88.958,309.333 88.902 C 309.333 88.846,309.439 88.564,309.569 88.275 C 309.698 87.986,310.009 87.263,310.259 86.667 C 311.191 84.450,311.947 82.838,313.430 79.917 C 314.862 77.097,315.119 76.614,316.028 75.042 C 316.227 74.698,316.529 74.154,316.699 73.833 C 316.870 73.512,317.196 72.950,317.425 72.583 C 317.653 72.217,317.889 71.804,317.947 71.667 C 318.493 70.392,318.896 70.346,319.416 71.499 C 319.874 72.513,319.932 72.416,320.979 68.917 C 321.171 68.275,321.479 67.267,321.664 66.676 C 322.229 64.871,322.154 64.731,321.036 65.505 " stroke="none" fill="#fbcb04" fill-rule="evenodd"></path><path id="path2" d="M72.040 94.125 C 72.091 119.750,72.028 117.981,73.027 121.667 C 74.893 128.551,80.240 133.844,86.833 135.332 C 87.154 135.404,87.642 135.544,87.917 135.643 C 88.192 135.742,89.579 136.025,91.000 136.272 L 93.583 136.721 110.500 136.789 C 131.396 136.873,133.974 136.767,138.417 135.639 C 141.002 134.982,144.385 133.614,145.180 132.902 C 145.325 132.773,145.496 132.667,145.562 132.667 C 145.834 132.667,147.660 131.196,148.682 130.154 C 150.957 127.833,152.658 124.624,153.577 120.917 C 154.396 117.615,154.387 117.902,154.451 93.542 L 154.511 70.667 144.347 70.667 L 134.183 70.667 134.125 91.375 L 134.067 112.083 133.683 113.333 C 132.473 117.268,130.415 118.960,126.081 119.584 C 123.282 119.987,101.218 119.874,99.253 119.447 C 96.135 118.769,94.174 117.223,93.156 114.639 C 92.239 112.314,92.263 112.914,92.208 90.958 L 92.157 70.667 82.075 70.667 L 71.993 70.667 72.040 94.125 M160.667 103.334 L 160.667 136.001 204.606 135.959 L 248.545 135.917 249.793 133.500 C 250.479 132.171,251.754 129.696,252.626 128.000 C 253.498 126.304,254.886 123.604,255.712 122.000 C 256.537 120.396,257.906 117.733,258.753 116.083 C 259.600 114.433,260.913 111.883,261.669 110.417 C 262.426 108.950,263.775 106.325,264.667 104.583 C 265.559 102.842,266.982 100.067,267.830 98.417 C 268.678 96.767,270.178 93.842,271.163 91.917 C 274.327 85.737,273.965 86.149,274.815 87.757 C 275.509 89.070,276.886 91.611,277.386 92.500 C 277.566 92.821,277.990 93.608,278.328 94.250 C 278.666 94.892,279.233 95.942,279.587 96.583 C 279.941 97.225,280.535 98.314,280.907 99.004 C 281.949 100.936,281.939 100.923,282.192 100.729 C 284.468 98.985,292.794 92.159,296.732 88.809 L 297.250 88.368 296.796 87.476 C 296.045 85.998,294.755 83.621,293.281 81.000 C 293.100 80.679,292.767 80.079,292.540 79.667 C 291.803 78.330,291.217 77.268,290.746 76.417 C 290.492 75.958,290.061 75.171,289.787 74.667 C 289.513 74.162,289.156 73.525,288.993 73.250 C 288.831 72.975,288.461 72.281,288.171 71.707 L 287.644 70.665 274.388 70.707 L 261.132 70.750 260.313 72.250 C 259.863 73.075,259.446 73.862,259.388 74.000 C 259.329 74.137,259.004 74.737,258.665 75.333 C 258.326 75.929,257.674 77.129,257.216 78.000 C 256.758 78.871,256.234 79.846,256.052 80.167 C 255.870 80.487,255.325 81.500,254.840 82.417 C 254.355 83.333,253.828 84.308,253.668 84.583 C 253.268 85.272,252.449 86.786,251.459 88.667 C 251.000 89.537,250.494 90.475,250.334 90.750 C 250.174 91.025,249.741 91.813,249.373 92.500 C 248.346 94.414,247.752 95.511,247.295 96.333 C 246.876 97.086,245.412 99.787,243.906 102.583 C 243.461 103.408,242.930 104.383,242.724 104.750 C 242.518 105.117,242.200 105.717,242.018 106.083 C 241.835 106.450,241.396 107.275,241.041 107.917 C 240.686 108.558,240.033 109.758,239.592 110.583 C 239.150 111.408,238.461 112.662,238.061 113.369 C 237.661 114.076,237.333 114.691,237.333 114.735 C 237.333 114.779,237.082 115.251,236.775 115.783 C 236.468 116.315,235.856 117.425,235.415 118.250 C 234.975 119.075,234.391 120.162,234.118 120.667 C 233.845 121.171,233.359 122.071,233.038 122.667 C 232.718 123.263,232.250 124.125,231.999 124.583 C 231.748 125.042,231.186 126.092,230.749 126.917 C 230.312 127.742,229.900 128.492,229.833 128.583 C 229.767 128.675,229.412 129.313,229.046 130.000 C 228.679 130.688,228.096 131.775,227.749 132.417 C 227.402 133.058,226.885 134.015,226.601 134.543 L 226.083 135.504 226.040 127.335 L 225.997 119.167 203.498 119.167 L 181.000 119.167 181.000 94.917 L 181.000 70.667 170.833 70.667 L 160.667 70.667 160.667 103.334 M338.167 71.241 C 333.390 72.586,331.847 78.530,335.362 82.044 C 339.436 86.118,346.329 83.210,346.330 77.417 C 346.330 73.163,342.264 70.087,338.167 71.241 M341.587 72.579 C 346.754 73.746,345.539 82.242,340.150 82.629 C 334.329 83.047,332.847 73.979,338.500 72.536 C 339.838 72.194,339.882 72.195,341.587 72.579 M337.333 77.500 L 337.333 81.333 338.000 81.333 L 338.667 81.333 338.667 79.750 L 338.667 78.167 339.136 78.167 C 339.546 78.167,339.736 78.367,340.632 79.750 C 341.649 81.318,341.665 81.333,342.329 81.333 C 343.125 81.333,343.144 81.251,342.535 80.400 C 341.499 78.953,340.993 78.000,341.260 78.000 C 342.182 78.000,342.833 77.090,342.833 75.800 C 342.833 74.174,341.961 73.667,339.163 73.667 L 337.333 73.667 337.333 77.500 M341.037 75.089 C 341.592 75.301,341.625 76.519,341.083 76.727 C 340.943 76.781,340.343 76.874,339.748 76.935 L 338.667 77.046 338.667 75.916 L 338.667 74.785 339.710 74.883 C 340.284 74.936,340.882 75.029,341.037 75.089 M304.430 101.846 C 303.079 105.747,302.334 113.390,302.892 117.625 L 303.095 119.167 297.547 119.167 C 293.673 119.167,292.000 119.221,292.000 119.347 C 292.000 119.447,292.292 120.065,292.649 120.722 C 293.006 121.379,293.531 122.348,293.816 122.875 C 294.100 123.402,294.567 124.265,294.853 124.792 C 295.139 125.319,295.655 126.275,296.000 126.917 C 296.345 127.558,296.871 128.533,297.169 129.083 C 297.466 129.633,297.994 130.610,298.341 131.253 C 298.689 131.896,299.158 132.759,299.385 133.170 C 299.612 133.581,300.033 134.385,300.320 134.958 L 300.843 136.000 312.088 136.000 C 324.013 136.000,323.640 136.026,323.110 135.245 C 322.987 135.065,322.526 134.242,322.086 133.417 C 321.645 132.592,320.968 131.354,320.581 130.667 C 320.193 129.979,319.551 128.817,319.154 128.083 C 318.756 127.350,318.261 126.450,318.054 126.083 C 317.847 125.717,317.525 125.135,317.339 124.792 C 317.153 124.448,316.847 123.885,316.661 123.542 C 316.475 123.198,316.116 122.542,315.864 122.083 C 315.612 121.625,315.078 120.650,314.677 119.917 C 314.277 119.183,313.634 118.021,313.248 117.333 C 312.862 116.646,312.226 115.483,311.835 114.750 C 311.100 113.374,310.656 112.567,310.001 111.417 C 309.792 111.050,309.358 110.263,309.036 109.667 C 305.568 103.246,304.546 101.511,304.430 101.846 " stroke="none" fill="#2c3494" fill-rule="evenodd"></path><path id="path3" d="M82.167 177.750 L 82.167 180.000 84.750 180.000 L 87.333 180.000 87.333 177.750 L 87.333 175.500 84.750 175.500 L 82.167 175.500 82.167 177.750 M282.833 177.750 L 282.833 180.000 285.417 180.000 L 288.000 180.000 288.000 177.750 L 288.000 175.500 285.417 175.500 L 282.833 175.500 282.833 177.750 M46.334 185.125 C 46.335 196.770,46.507 198.002,48.392 199.802 C 50.824 202.125,57.727 202.354,60.040 200.188 C 60.199 200.039,60.489 199.767,60.684 199.583 C 61.323 198.982,61.857 197.981,62.265 196.617 L 62.667 195.275 62.667 185.554 L 62.667 175.833 59.998 175.833 L 57.329 175.833 57.336 185.416 L 57.343 194.998 56.963 195.942 C 56.169 197.917,53.570 198.355,52.450 196.701 C 51.716 195.617,51.667 194.890,51.667 185.075 L 51.667 175.833 49.000 175.833 L 46.333 175.833 46.334 185.125 M125.167 179.683 L 125.167 183.533 124.405 182.782 C 122.715 181.116,119.505 181.088,117.625 182.723 C 114.077 185.809,114.383 198.487,118.065 200.927 C 119.014 201.555,122.124 201.987,122.560 201.551 C 122.623 201.488,122.840 201.411,123.040 201.380 C 123.520 201.307,124.074 200.935,124.768 200.220 L 125.333 199.638 125.333 200.490 L 125.333 201.342 127.792 201.296 L 130.250 201.250 130.293 188.542 L 130.335 175.833 127.751 175.833 L 125.167 175.833 125.167 179.683 M140.743 176.042 C 140.700 176.156,140.683 181.875,140.707 188.750 L 140.750 201.250 147.958 201.293 L 155.167 201.337 155.167 199.085 L 155.167 196.833 150.583 196.833 L 146.000 196.833 146.000 186.333 L 146.000 175.833 143.411 175.833 C 141.494 175.833,140.802 175.887,140.743 176.042 M222.833 188.581 L 222.833 201.342 225.375 201.296 L 227.917 201.250 228.000 194.167 C 228.094 186.178,228.079 186.271,229.370 185.755 C 230.225 185.413,230.770 185.434,231.419 185.835 C 232.282 186.368,232.333 186.850,232.333 194.490 L 232.333 201.333 234.833 201.333 L 237.333 201.333 237.333 193.172 L 237.333 185.010 236.923 184.114 C 235.615 181.254,230.975 180.561,228.677 182.882 L 228.000 183.566 228.000 179.715 L 228.000 175.864 225.417 175.842 L 222.833 175.820 222.833 188.581 M252.736 176.292 C 252.679 176.544,252.499 177.237,252.336 177.833 C 252.174 178.429,251.877 179.554,251.677 180.333 C 251.478 181.112,251.168 182.294,250.990 182.958 C 250.812 183.623,250.511 184.748,250.322 185.458 C 250.132 186.169,249.826 187.262,249.641 187.889 C 249.456 188.515,249.346 189.069,249.397 189.119 C 249.447 189.169,249.414 189.349,249.324 189.518 C 249.233 189.687,248.968 190.558,248.733 191.454 C 248.499 192.350,248.156 193.646,247.971 194.333 C 247.786 195.021,247.535 195.996,247.413 196.500 C 247.166 197.518,246.767 198.993,246.405 200.227 C 246.274 200.673,246.167 201.105,246.167 201.186 C 246.167 201.267,247.406 201.333,248.921 201.333 L 251.675 201.333 251.835 200.912 C 251.923 200.680,251.985 200.324,251.973 200.120 C 251.960 199.917,252.084 199.302,252.248 198.754 C 252.412 198.206,252.592 197.381,252.648 196.921 L 252.750 196.083 256.034 196.038 L 259.319 195.993 259.504 196.705 C 259.606 197.096,259.767 197.717,259.863 198.083 C 259.959 198.450,260.053 198.938,260.071 199.167 C 260.090 199.396,260.208 199.977,260.334 200.458 L 260.563 201.333 263.282 201.333 L 266.000 201.333 266.000 200.918 C 266.000 200.690,265.850 200.109,265.667 199.627 C 265.483 199.145,265.333 198.593,265.333 198.401 C 265.333 198.209,265.176 197.609,264.983 197.068 C 264.790 196.526,264.633 195.971,264.633 195.833 C 264.634 195.599,264.436 194.845,263.736 192.417 C 263.578 191.867,263.393 191.154,263.326 190.833 C 263.152 190.008,262.345 186.966,262.220 186.667 C 262.162 186.529,262.087 186.229,262.052 186.000 C 261.985 185.554,261.516 183.811,260.954 181.917 C 260.764 181.275,260.623 180.687,260.642 180.610 C 260.661 180.534,260.518 179.934,260.325 179.277 C 260.131 178.620,259.825 177.577,259.644 176.958 L 259.314 175.833 256.077 175.833 L 252.840 175.833 252.736 176.292 M267.041 188.542 L 267.083 201.250 269.625 201.296 L 272.167 201.342 272.167 188.588 L 272.167 175.833 269.582 175.833 L 266.998 175.833 267.041 188.542 M275.000 188.583 L 275.000 201.333 277.500 201.333 L 280.000 201.333 280.000 188.583 L 280.000 175.833 277.500 175.833 L 275.000 175.833 275.000 188.583 M91.000 179.333 L 91.000 182.000 89.833 182.000 L 88.667 182.000 88.667 183.750 L 88.667 185.500 89.833 185.500 L 91.000 185.500 91.000 191.445 C 91.000 201.202,91.070 201.333,96.227 201.333 L 99.000 201.333 99.000 199.500 L 99.000 197.667 98.125 197.664 C 96.106 197.659,96.070 197.533,96.130 190.763 L 96.176 185.500 97.588 185.500 L 99.000 185.500 99.000 183.750 L 99.000 182.000 97.583 182.000 L 96.167 182.000 96.167 179.333 L 96.167 176.667 93.583 176.667 L 91.000 176.667 91.000 179.333 M256.681 183.417 C 256.679 183.600,256.817 184.313,256.989 185.000 C 257.160 185.688,257.464 187.037,257.665 188.000 C 257.866 188.963,258.099 190.064,258.182 190.449 C 258.265 190.833,258.333 191.227,258.333 191.324 C 258.333 191.439,257.565 191.500,256.122 191.500 L 253.911 191.500 253.950 190.958 C 253.971 190.660,254.135 189.817,254.314 189.083 C 254.492 188.350,254.794 187.037,254.983 186.167 C 255.173 185.296,255.479 183.930,255.664 183.131 C 255.849 182.332,256.006 181.432,256.012 181.131 C 256.021 180.725,256.110 180.906,256.355 181.833 C 256.537 182.521,256.684 183.233,256.681 183.417 M72.739 181.803 C 71.509 182.211,70.226 183.148,69.957 183.835 C 69.903 183.972,69.854 183.615,69.846 183.042 L 69.833 182.000 67.417 182.000 L 65.000 182.000 65.000 191.667 L 65.000 201.333 67.500 201.333 L 70.000 201.333 70.021 194.583 C 70.032 190.871,70.053 187.777,70.066 187.708 C 70.409 185.957,72.149 184.979,73.502 185.778 C 74.411 186.315,74.413 186.331,74.465 194.125 L 74.513 201.333 77.017 201.333 L 79.521 201.333 79.469 193.042 L 79.417 184.750 79.027 184.000 C 77.916 181.862,75.306 180.949,72.739 181.803 M104.416 181.800 C 100.133 182.896,98.654 186.656,99.331 194.732 C 99.736 199.569,101.938 201.682,106.574 201.682 C 110.658 201.682,113.055 199.764,113.403 196.217 C 113.458 195.649,113.549 195.067,113.603 194.925 C 113.690 194.699,113.408 194.667,111.362 194.667 C 108.765 194.667,108.972 194.569,108.733 195.917 C 108.368 197.977,106.456 198.811,105.220 197.449 C 104.569 196.732,104.270 195.355,104.316 193.292 L 104.333 192.500 109.167 192.500 L 114.000 192.500 113.997 191.542 C 113.989 188.832,113.338 185.349,112.704 184.625 C 112.563 184.465,112.504 184.333,112.572 184.333 C 112.837 184.333,111.580 182.949,110.957 182.557 C 109.428 181.591,106.541 181.257,104.416 181.800 M160.736 181.803 C 158.006 182.502,156.765 183.914,156.562 186.550 L 156.451 188.000 158.703 188.000 L 160.956 188.000 161.056 187.375 C 161.112 187.031,161.178 186.601,161.203 186.419 C 161.396 185.054,164.074 184.725,164.916 185.963 C 165.749 187.189,164.967 189.333,163.686 189.333 C 163.521 189.333,162.943 189.492,162.401 189.686 C 161.860 189.880,161.281 190.035,161.114 190.029 C 160.512 190.009,158.197 191.025,157.517 191.608 C 155.195 193.595,155.266 198.886,157.640 200.791 C 159.387 202.193,162.980 201.998,164.540 200.416 L 165.261 199.686 165.639 200.509 L 166.017 201.333 168.342 201.333 L 170.667 201.333 170.667 200.906 C 170.667 200.671,170.573 200.314,170.458 200.114 C 170.304 199.845,170.227 197.841,170.163 192.417 L 170.076 185.083 169.617 184.233 C 168.399 181.978,164.366 180.875,160.736 181.803 M197.821 181.805 C 196.676 182.148,196.076 182.517,195.377 183.307 L 194.838 183.917 194.836 182.958 L 194.833 182.000 192.417 182.000 L 190.000 182.000 190.000 191.667 L 190.000 201.333 192.497 201.333 C 194.949 201.333,194.995 201.327,195.080 200.958 C 195.128 200.752,195.185 197.508,195.208 193.750 C 195.248 187.211,195.264 186.898,195.583 186.472 C 196.478 185.279,198.363 185.199,199.083 186.323 C 199.185 186.481,199.283 189.462,199.333 193.917 L 199.417 201.250 202.000 201.250 L 204.583 201.250 204.579 193.333 C 204.575 185.583,204.567 185.396,204.208 184.442 C 203.299 182.032,200.679 180.950,197.821 181.805 M211.725 181.817 C 207.358 182.891,205.687 187.314,206.588 195.417 C 206.854 197.812,207.989 199.848,209.621 200.856 C 210.839 201.609,214.379 201.952,216.037 201.478 C 216.429 201.366,216.807 201.288,216.877 201.305 C 217.168 201.374,218.669 200.440,219.214 199.851 C 220.317 198.659,221.000 196.640,221.000 194.572 L 221.000 193.667 218.594 193.667 L 216.187 193.667 216.074 194.418 C 216.012 194.831,215.997 195.352,216.039 195.576 C 216.391 197.414,213.710 198.871,212.452 197.526 C 211.293 196.287,210.984 189.876,211.945 187.004 C 212.483 185.395,214.354 184.732,215.268 185.828 C 215.728 186.380,216.179 187.266,216.060 187.385 C 216.008 187.436,216.018 187.858,216.082 188.323 L 216.198 189.167 218.599 189.167 L 221.000 189.167 220.994 188.292 C 220.984 186.808,220.326 184.663,219.768 184.294 C 219.667 184.227,219.655 184.171,219.743 184.169 C 219.831 184.168,219.575 183.832,219.174 183.424 C 218.773 183.015,218.382 182.720,218.306 182.767 C 218.229 182.814,218.167 182.776,218.167 182.681 C 218.167 181.808,214.022 181.253,211.725 181.817 M296.083 181.567 C 295.992 181.601,295.467 181.724,294.917 181.841 C 292.379 182.377,290.847 184.176,290.699 186.792 L 290.630 188.000 292.982 188.000 L 295.333 188.000 295.333 187.169 C 295.333 185.388,297.677 184.435,298.944 185.702 C 299.995 186.753,299.422 188.918,298.000 189.265 C 292.559 190.591,291.138 191.430,290.348 193.786 C 289.402 196.605,290.653 200.847,292.546 201.240 C 292.658 201.263,292.975 201.375,293.250 201.489 C 293.835 201.731,296.188 201.756,296.620 201.525 C 296.947 201.350,297.022 201.333,297.481 201.333 C 297.654 201.333,298.193 200.960,298.679 200.504 C 299.165 200.047,299.570 199.691,299.578 199.712 C 299.586 199.733,299.710 200.088,299.854 200.500 L 300.114 201.250 302.557 201.296 C 305.117 201.344,305.195 201.321,304.792 200.614 C 304.639 200.346,304.560 198.354,304.492 193.083 C 304.376 184.193,304.211 183.491,301.976 182.393 C 300.726 181.779,296.942 181.248,296.083 181.567 M315.500 181.609 C 315.362 181.654,315.100 181.755,314.917 181.833 C 314.733 181.910,314.387 182.016,314.148 182.068 C 313.908 182.119,313.327 182.529,312.856 182.978 L 312.000 183.795 312.000 182.897 L 312.000 182.000 309.583 182.000 L 307.167 182.000 307.167 191.667 L 307.167 201.333 309.667 201.333 L 312.167 201.333 312.167 194.613 C 312.167 187.443,312.246 186.647,313.015 186.108 C 313.189 185.986,313.298 185.853,313.257 185.812 C 313.216 185.772,313.310 185.722,313.466 185.702 C 315.335 185.463,315.255 185.455,315.799 185.913 C 316.623 186.607,316.665 187.015,316.666 194.458 L 316.667 201.333 319.173 201.333 L 321.679 201.333 321.625 193.208 C 321.569 184.710,321.527 184.193,320.823 183.489 C 320.645 183.312,320.556 183.165,320.625 183.163 C 321.064 183.152,319.302 181.988,318.509 181.766 C 317.608 181.513,316.039 181.431,315.500 181.609 M329.750 181.608 C 327.600 182.055,326.456 182.642,325.516 183.783 C 322.689 187.213,322.729 196.890,325.582 199.906 C 326.212 200.571,327.619 201.436,327.792 201.264 C 327.844 201.212,327.977 201.245,328.088 201.337 C 328.579 201.745,331.240 201.781,333.500 201.410 C 336.096 200.984,337.820 198.652,338.090 195.201 L 338.210 193.667 335.796 193.667 L 333.382 193.667 333.284 194.828 C 332.970 198.580,329.892 199.462,328.909 196.082 C 328.460 194.539,328.616 187.670,329.121 186.724 C 330.478 184.182,333.315 185.295,333.330 188.375 L 333.333 189.167 335.750 189.167 L 338.167 189.167 338.163 188.625 C 338.144 185.559,336.237 182.360,334.250 182.063 C 334.158 182.050,334.046 182.024,334.000 182.006 C 333.913 181.973,333.845 181.955,332.750 181.677 C 332.095 181.511,330.405 181.472,329.750 181.608 M344.380 181.811 C 341.988 182.417,340.679 183.746,339.779 186.481 C 338.920 189.094,339.371 197.453,340.438 198.680 C 340.564 198.825,340.667 199.015,340.667 199.103 C 340.667 200.264,343.990 201.683,346.708 201.683 C 350.643 201.683,352.771 200.072,353.442 196.583 C 353.842 194.501,354.023 194.667,351.360 194.667 L 349.053 194.667 348.835 195.825 C 348.515 197.521,347.547 198.334,346.176 198.060 C 345.096 197.844,344.333 195.934,344.333 193.445 L 344.333 192.500 349.190 192.500 L 354.046 192.500 353.953 190.125 C 353.902 188.819,353.774 187.487,353.669 187.167 C 353.564 186.846,353.440 186.358,353.393 186.083 C 352.815 182.676,348.688 180.719,344.380 181.811 M82.167 191.667 L 82.167 201.333 84.750 201.333 L 87.333 201.333 87.333 191.667 L 87.333 182.000 84.750 182.000 L 82.167 182.000 82.167 191.667 M172.833 189.732 C 172.833 198.810,172.870 199.075,174.319 200.486 C 175.439 201.576,178.601 202.177,179.462 201.462 C 179.603 201.346,179.744 201.269,179.776 201.292 C 179.987 201.444,180.517 201.273,180.882 200.934 C 181.119 200.715,181.346 200.568,181.387 200.609 C 181.427 200.649,181.732 200.366,182.064 199.978 L 182.667 199.273 182.667 200.303 L 182.667 201.333 185.042 201.333 L 187.417 201.333 187.417 191.667 L 187.417 182.000 184.872 182.000 L 182.327 182.000 182.337 188.708 C 182.346 195.502,182.307 196.021,181.711 196.946 C 181.297 197.590,179.817 197.880,178.952 197.486 C 178.006 197.055,178.000 197.005,178.000 189.183 L 178.000 182.000 175.417 182.000 L 172.833 182.000 172.833 189.732 M282.874 191.625 L 282.917 201.250 285.458 201.296 L 288.000 201.342 288.000 191.671 L 288.000 182.000 285.415 182.000 L 282.831 182.000 282.874 191.625 M107.551 185.321 C 108.282 185.599,109.000 187.501,109.000 189.157 C 109.000 189.574,104.336 189.376,104.314 188.958 C 104.176 186.264,105.657 184.601,107.551 185.321 M348.221 185.777 C 348.608 186.264,348.981 187.681,348.993 188.708 L 349.000 189.333 346.667 189.333 L 344.333 189.333 344.333 188.842 C 344.333 187.295,345.037 185.652,345.833 185.338 C 346.591 185.040,347.814 185.264,348.221 185.777 M123.671 185.787 C 124.817 186.583,125.083 187.676,125.083 191.583 C 125.083 196.083,124.508 197.667,122.874 197.667 C 122.322 197.667,120.751 197.194,121.234 197.173 C 121.317 197.170,121.256 197.024,121.098 196.850 C 120.107 195.755,120.090 187.952,121.076 186.451 C 121.672 185.543,122.877 185.234,123.671 185.787 M165.333 193.940 C 165.333 197.076,164.057 198.607,161.925 198.030 C 159.548 197.387,160.776 192.993,163.417 192.689 C 163.692 192.658,164.179 192.493,164.500 192.323 C 164.821 192.154,165.140 192.011,165.208 192.007 C 165.277 192.003,165.333 192.873,165.333 193.940 M299.473 194.208 C 299.387 197.125,298.786 197.999,296.826 198.059 C 295.810 198.089,295.384 197.718,295.077 196.534 C 294.568 194.572,295.551 193.138,297.724 192.671 C 298.168 192.575,298.691 192.385,298.886 192.248 C 299.503 191.817,299.540 191.943,299.473 194.208 " stroke="none" fill="#1b1414" fill-rule="evenodd"></path><path id="path4" d="M187.411 191.667 C 187.411 196.846,187.432 198.965,187.458 196.375 C 187.484 193.785,187.484 189.548,187.458 186.958 C 187.432 184.369,187.411 186.487,187.411 191.667 " stroke="none" fill="#1c1c14" fill-rule="evenodd"></path></g></svg>